<svg width="225" height="169" viewBox="0 0 225 169" fill="none" xmlns="http://www.w3.org/2000/svg">
<path d="M109.957 148.799C150.176 148.799 182.779 136.206 182.779 120.672C182.779 105.137 150.176 92.5444 109.957 92.5444C69.7394 92.5444 37.1362 105.137 37.1362 120.672C37.1362 136.206 69.7394 148.799 109.957 148.799Z" fill="#FACB73"/>
<path opacity="0.56" d="M112.788 126.343C132.07 123.495 147.227 117.965 146.642 113.991C146.056 110.018 129.951 109.105 110.668 111.953C91.3862 114.801 76.2293 120.332 76.8145 124.305C77.3997 128.279 93.5054 129.191 112.788 126.343Z" fill="#DB9F3E"/>
<path d="M64.1924 80.4327C64.3675 80.6241 64.5921 80.7632 64.8412 80.8348C65.0904 80.9064 65.3545 80.9076 65.6043 80.8383C66.358 80.5341 70.4361 78.185 71.7917 75.25C71.8443 74.8188 71.7479 74.3825 71.5188 74.0136C71.2896 73.6447 70.9413 73.3654 70.5318 73.222" fill="black"/>
<path d="M54.4499 80.4384C54.3149 80.1793 54.9449 74.1009 60.2774 70.1914C65.6099 66.2818 72.0899 68.4112 72.0899 68.4112C72.0899 68.4112 73.6536 63.499 74.863 64.2144C76.0724 64.9298 76.7811 70.4111 75.7855 71.1209C74.7899 71.8307 72.7311 71.2617 72.7311 71.2617C72.7311 71.2617 70.9536 76.1007 67.3311 78.8047C63.7086 81.5087 56.4411 84.2127 54.4499 80.4384Z" fill="#2B68E0"/>
<path d="M58.2468 71.9996C58.1231 72.1066 58.6293 69.7913 60.8118 68.1633C62.9943 66.5353 68.7712 65.4142 69.7781 65.91C70.785 66.4057 70.83 68.1013 70.83 68.1013C70.83 68.1013 63.36 67.7521 58.2468 71.9996Z" fill="black"/>
<path d="M64.5358 75.2895C64.8227 75.2895 67.3146 75.0923 67.4439 75.5543C67.5733 76.0162 65.3008 77.7231 64.5358 77.8527C63.7708 77.9822 64.5358 75.2895 64.5358 75.2895Z" fill="black"/>
<path d="M58.7812 77.1767C59.0857 77.1767 59.3325 76.9295 59.3325 76.6246C59.3325 76.3197 59.0857 76.0725 58.7812 76.0725C58.4768 76.0725 58.23 76.3197 58.23 76.6246C58.23 76.9295 58.4768 77.1767 58.7812 77.1767Z" fill="black"/>
<path d="M182.25 96.33C180.721 95.1894 179.676 93.5141 179.325 91.6375C178.835 88.6067 175.522 78.5456 169.2 76.788C162.877 75.0304 160.712 78.0555 161.983 81.4806C163.254 84.9056 164.424 85.9872 162.86 87.1477C161.297 88.3082 159.823 88.2237 161.634 90.8601C163.445 93.4965 170.375 96.9159 174.273 96.8201C178.172 96.7244 180.32 96.5272 181.783 97.6032C181.749 97.5806 182.812 97.7722 182.25 96.33Z" fill="#FDD400"/>
<path d="M164.379 85.0633C163.817 84.9281 161.252 83.5536 160.763 81.5031C160.273 79.4525 160.341 75.9148 158.631 76.2753C156.921 76.6359 156.381 85.8182 157.534 86.2294C158.687 86.6407 159.654 84.3085 160.644 85.0633C161.634 85.8182 164.374 87.942 164.374 87.942" fill="#FDD400"/>
<path d="M175.056 91.0403C175.4 91.0403 175.68 90.5006 175.68 89.8348C175.68 89.169 175.4 88.6293 175.056 88.6293C174.711 88.6293 174.431 89.169 174.431 89.8348C174.431 90.5006 174.711 91.0403 175.056 91.0403Z" fill="#606060"/>
<path d="M171.619 86.2914C171.588 85.924 171.533 85.559 171.455 85.1986C171.298 84.4662 171.137 83.7358 170.972 83.0072C170.972 83.0072 171.309 87.0069 170.972 88.6405C170.653 89.8189 170.117 90.9272 169.391 91.9079C170.252 90.984 171.602 89.9587 171.641 88.618C171.678 87.8427 171.67 87.0659 171.619 86.2914Z" fill="#43C9AF"/>
<path d="M169.999 85.7562C169.968 85.3887 169.914 85.0237 169.836 84.6633C169.678 83.931 169.517 83.2005 169.352 82.4719C169.352 82.4719 169.69 86.4716 169.352 88.1053C169.034 89.2837 168.497 90.3919 167.771 91.3726C168.632 90.4487 169.982 89.4235 170.021 88.0827C170.058 87.3074 170.05 86.5306 169.999 85.7562Z" fill="#43C9AF"/>
<path d="M167.968 84.8719C167.937 84.5045 167.883 84.1394 167.805 83.779C167.648 83.0467 167.486 82.3162 167.321 81.5876C167.321 81.5876 167.659 85.5873 167.321 87.221C167.003 88.3994 166.467 89.5076 165.741 90.4883C166.601 89.5644 167.951 88.5392 167.991 87.1984C168.027 86.4231 168.02 85.6464 167.968 84.8719Z" fill="#43C9AF"/>
<path d="M101.407 73.7178C101.407 73.7178 94.4043 84.5676 91.2037 87.6603C88.2 90.5558 82.1418 94.1386 78.6712 96.1103C77.3831 96.8314 79.9537 100.161 81.9225 99.8001C83.8912 99.4396 94.0331 96.1666 97.1662 93.2936C100.299 90.4206 110.002 76.3936 110.002 76.3936L101.407 73.7178Z" fill="#1A6677"/>
<path d="M157.888 52.221L176.721 48.2889L177.221 47.3482L174.735 46.7679L157.939 50.8746L157.888 52.221Z" fill="#FDD400"/>
<path d="M157.163 48.4072C157.163 48.4072 159.413 46.0243 160.757 44.7793C162.101 43.5343 170.505 38.7347 170.505 38.7347C170.479 39.2808 170.645 39.8188 170.974 40.2552C171.302 40.6916 171.774 40.9988 172.305 41.1233C174.313 41.7486 174.611 42.8921 174.617 43.5794C174.623 44.2667 175.32 45.0948 176.439 45.5454C177.559 45.9961 177.221 47.3312 177.221 47.3312L159.188 51.5337L157.163 48.4072Z" fill="#FDD400"/>
<path d="M151.791 37.3716L166.523 24.9895V23.9248L164.059 24.5895L151.2 36.166L151.791 37.3716Z" fill="#FDD400"/>
<path d="M149.35 34.3634C149.35 34.3634 150.199 31.1974 150.801 29.4624C151.403 27.7273 156.533 19.5195 156.533 19.5195C156.766 20.0201 157.168 20.422 157.668 20.654C158.169 20.886 158.735 20.9331 159.266 20.787C161.331 20.3871 162.13 21.2546 162.467 21.8574C162.805 22.4601 163.8 22.8601 164.998 22.7249C166.196 22.5897 166.5 23.9248 166.5 23.9248L152.584 36.166L149.35 34.3634Z" fill="#FDD400"/>
<path d="M105.351 69.2168C105.913 69.3069 123.39 59.15 126.591 58.4233C129.791 57.6966 134.392 56.2883 135 55.4883C135.607 54.6884 136.687 49.855 139.899 45.9736C143.111 42.0923 148.596 33.9577 149.895 34.1436C151.194 34.3295 152.893 34.9436 152.595 36.1435C152.297 37.3434 148.995 39.7488 148.494 41.4501C147.994 43.1513 143.398 55.2686 141.997 57.0713C140.597 58.874 136.001 62.3779 136.001 62.3779C136.001 62.3779 143.797 57.3699 145.502 55.8714C147.206 54.3729 151.999 51.6689 153.602 50.8634C155.205 50.0578 158.602 47.0609 159.598 47.258C160.594 47.4552 162.495 48.4579 161.696 49.962C160.897 51.4661 153.484 58.2937 151.312 60.2767C149.141 62.2596 141.913 71.4926 137.413 74.3938C132.913 77.295 123.441 81.3003 123.441 81.3003L111.319 80.6017" fill="#1A6677"/>
<path d="M108.742 71.3237C108.742 71.3237 108.073 68.507 110.891 66.0847C113.709 63.6623 126.191 58.4233 126.59 58.4233C126.99 58.4233 131.287 58.9867 130.618 64.8735L115.993 72.9348C115.993 72.9348 111.965 74.4107 109.417 72.9348" fill="#ED1E79"/>
<path d="M121.837 60.3612C121.837 60.3612 126.546 62.8624 125.437 67.724L127.569 66.5466C127.569 66.5466 128.694 61.3921 123.632 59.2233L121.837 60.3612Z" fill="#53524D"/>
<path d="M113.451 64.4003C113.451 64.4003 118.479 67.0705 117.298 72.287L119.548 71.0308C119.548 71.0308 120.729 65.527 115.318 63.2061L113.451 64.4003Z" fill="#53524D"/>
<path d="M104.214 105.039L101.25 106.87C101.25 106.87 97.588 107.58 97.7793 108.222C97.9705 108.864 99.6412 108.543 100.412 108.611C101.182 108.678 96.5587 111.315 97.1999 112.278C97.8412 113.241 100.012 111.315 100.012 111.315C100.012 111.315 97.7624 113.247 98.2124 113.822C98.6624 114.396 101.166 112.086 101.166 112.086C101.166 112.086 99.433 114.081 100.074 114.402C100.716 114.723 102.577 111.636 102.887 111.636C103.196 111.636 101.666 113.822 102.566 113.63C103.466 113.438 107.437 107.597 107.437 107.597L104.214 105.039Z" fill="#FFDD92"/>
<path d="M107.674 83.8183C107.674 83.8183 112.657 84.7873 112.939 85.5083C113.22 86.2294 113.214 97.7158 111.414 98.9607C109.614 100.206 104.214 105.062 104.214 105.062C104.214 105.062 105.75 107.715 107.437 107.597C109.125 107.478 118.423 101.766 119.25 98.8537C120.077 95.9413 126.096 78.1512 120.696 76.8837C119.127 76.5316 117.492 76.6027 115.96 77.0896C114.427 77.5765 113.051 78.4618 111.971 79.6553L107.674 83.8183Z" fill="#1A6677"/>
<path d="M96.0412 76.6133C96.0412 76.6133 95.8387 86.2632 99.3319 86.8265C102.825 87.3898 105.519 88.3081 107.674 83.7901C109.828 79.2722 100.412 73.9881 96.0412 76.6133Z" fill="#FFDD92"/>
<path d="M106.706 85.7562C106.706 85.7562 113.214 82.8438 112.939 77.7118C112.663 72.5799 109.755 69.3914 104.214 69.1097C98.6738 68.8281 95.9063 76.2641 96.0413 76.6133C96.1763 76.9626 103.106 77.6837 104.479 79.2103C105.851 80.7369 106.706 85.7562 106.706 85.7562Z" fill="#1A6677"/>
<path d="M79.7006 95.7666L75.8756 96.375C75.8756 96.375 71.8031 95.5187 71.7243 96.2623C71.6456 97.0059 73.5018 97.389 74.2668 97.8002C75.0318 98.2115 69.1312 98.9269 69.3787 100.183C69.6262 101.439 72.7031 100.414 72.7031 100.414C72.7031 100.414 69.5531 101.428 69.7668 102.217C69.9806 103.005 73.5581 101.71 73.5581 101.71C73.5581 101.71 70.9143 103.011 71.4318 103.619C71.9493 104.228 75.2062 101.856 75.538 101.997C75.8699 102.138 73.3387 103.721 74.3456 103.912C75.3524 104.104 81.9168 99.7719 81.9168 99.7719L79.7006 95.7666Z" fill="#FFDD92"/>
<path d="M89.522 41.3036C89.6971 41.4949 89.9217 41.6341 90.1708 41.7056C90.42 41.7772 90.6841 41.7784 90.9339 41.7092C91.6876 41.405 95.7657 39.0559 97.1214 36.1209C97.1739 35.6896 97.0776 35.2533 96.8484 34.8844C96.6192 34.5155 96.2709 34.2362 95.8614 34.0929" fill="#B31327"/>
<path d="M80.2629 41.3148C80.1279 41.0557 80.7579 34.9773 86.0904 31.0678C91.4229 27.1583 97.8748 29.2933 97.8748 29.2933C97.8748 29.2933 99.4385 24.381 100.648 25.0965C101.857 25.8119 102.566 31.2931 101.57 32.0029C100.575 32.7127 98.516 32.1438 98.516 32.1438C98.516 32.1438 96.7385 36.9828 93.116 39.6868C89.4935 42.3908 82.2541 45.0666 80.2629 41.3148Z" fill="#ED4049"/>
<path d="M83.5594 33.4394C83.4357 33.5465 83.9588 30.6622 86.1413 29.0342C88.3238 27.4061 94.1007 26.2851 95.1076 26.7808C96.1144 27.2766 96.1876 28.9835 96.1876 28.9835C96.1876 28.9835 88.6726 29.1919 83.5594 33.4394Z" fill="#B31327"/>
<path d="M89.8649 36.1603C90.1518 36.1603 92.6437 35.9632 92.773 36.4251C92.9024 36.887 90.6299 38.5939 89.8649 38.7235C89.0999 38.8531 89.8649 36.1603 89.8649 36.1603Z" fill="#B31327"/>
<path d="M84.1108 38.0532C84.4153 38.0532 84.6621 37.8061 84.6621 37.5012C84.6621 37.1963 84.4153 36.9491 84.1108 36.9491C83.8064 36.9491 83.5596 37.1963 83.5596 37.5012C83.5596 37.8061 83.8064 38.0532 84.1108 38.0532Z" fill="#B31327"/>
<path d="M96.3505 64.1412C97.4969 64.1412 98.4261 63.2105 98.4261 62.0625C98.4261 60.9144 97.4969 59.9838 96.3505 59.9838C95.2042 59.9838 94.2749 60.9144 94.2749 62.0625C94.2749 63.2105 95.2042 64.1412 96.3505 64.1412Z" fill="#8FC0FB"/>
<path d="M106.509 60.0175C109.607 60.0175 112.118 57.503 112.118 54.4011C112.118 51.2992 109.607 48.7847 106.509 48.7847C103.412 48.7847 100.901 51.2992 100.901 54.4011C100.901 57.503 103.412 60.0175 106.509 60.0175Z" fill="#8FC0FB"/>
<path d="M108.607 50.486C108.413 50.3805 108.185 50.3533 107.971 50.4098C107.757 50.4663 107.572 50.6023 107.454 50.7902C107.343 50.984 107.313 51.2139 107.37 51.43C107.427 51.646 107.566 51.8311 107.758 51.945C108.128 52.0826 108.449 52.3276 108.68 52.6487C108.91 52.9698 109.04 53.3524 109.052 53.7477C109.052 54.8349 110.739 54.8349 110.739 53.7477C110.731 53.0572 110.526 52.3835 110.148 51.8057C109.77 51.2279 109.236 50.7701 108.607 50.486Z" fill="white"/>
<path d="M109.513 55.3419C109.289 55.3419 109.075 55.4309 108.917 55.5894C108.758 55.7479 108.669 55.9628 108.669 56.1869C108.669 56.411 108.758 56.626 108.917 56.7844C109.075 56.9429 109.289 57.0319 109.513 57.0319C109.737 57.0319 109.952 56.9429 110.11 56.7844C110.268 56.626 110.357 56.411 110.357 56.1869C110.357 55.9628 110.268 55.7479 110.11 55.5894C109.952 55.4309 109.737 55.3419 109.513 55.3419Z" fill="white"/>
<path d="M96.9302 60.6878C96.8557 60.6677 96.7761 60.678 96.7091 60.7165C96.6421 60.7551 96.5932 60.8187 96.5731 60.8934C96.5529 60.9681 96.5632 61.0478 96.6017 61.1149C96.6402 61.182 96.7038 61.231 96.7784 61.2512C96.8874 61.2807 96.9838 61.3451 97.0529 61.4346C97.1219 61.5241 97.1599 61.6338 97.1609 61.7469C97.1609 61.8216 97.1905 61.8932 97.2432 61.9461C97.296 61.9989 97.3675 62.0286 97.4421 62.0286C97.5167 62.0286 97.5882 61.9989 97.641 61.9461C97.6937 61.8932 97.7234 61.8216 97.7234 61.7469C97.7251 61.5078 97.6484 61.2747 97.5051 61.0834C97.3619 60.8921 97.1599 60.7531 96.9302 60.6878Z" fill="white"/>
<path d="M96.3506 79.2892C97.5337 79.8778 98.8275 80.2099 100.147 80.2637C102.082 80.2637 104.681 79.2047 105.351 80.2637C106.02 81.3228 106.386 82.9114 105.351 83.4973C104.316 84.0831 100.969 84.3817 99.3262 84.0268C97.6837 83.6719 96.1143 82.9001 96.0412 82.2974C95.9681 81.6946 94.7812 79.6666 96.3506 79.2892Z" fill="black"/>
<path d="M105.688 80.9116C105.688 80.951 111.257 77.3175 111.718 73.5883L112.112 75.2783C112.112 75.2783 109.862 81.289 105.362 81.7679" fill="black"/>
<path d="M96.1201 80.0271C97.3032 80.6157 98.597 80.9478 99.917 81.0017C101.852 81.0017 104.451 79.9426 105.12 81.0017C105.789 82.0607 106.155 83.6493 105.12 84.2352C104.085 84.8211 100.738 85.1196 99.0957 84.7647C97.4532 84.4098 95.8839 83.6381 95.8107 83.0353C95.7376 82.4325 94.5507 80.4045 96.1201 80.0271Z" fill="#1A6677"/>
<path d="M51.3843 137.121L63.5287 130.13L52.2056 125.353L42.0806 130.84C44.1449 133.932 47.7787 135.69 51.3843 137.121Z" fill="url(#paint0_linear)"/>
<path d="M150.435 127.206L135.129 138.152L149.344 143.058L163.896 132.017" fill="url(#paint1_linear)"/>
<path d="M57.4198 106.74C57.5885 106.69 57.746 106.633 57.926 106.6C58.0946 106.575 58.2533 106.505 58.3851 106.396C58.5169 106.288 58.6168 106.146 58.6742 105.986C59.6192 105.248 58.5448 103.574 57.3242 104.172C57.0305 104.317 56.7451 104.479 56.4692 104.656C56.0811 104.783 55.7046 104.943 55.3442 105.135C55.6586 104.109 55.775 103.033 55.6873 101.963C55.6198 100.797 55.6367 98.7692 54.3992 98.1383C52.8973 97.3722 52.1492 98.9044 51.8735 100.082C51.401 101.991 51.0017 103.918 50.5798 105.839C50.2839 105.41 50.026 104.956 49.8092 104.481C49.3029 103.355 49.1735 102.099 48.6054 101.006C47.8854 99.6255 46.0404 98.3242 44.4654 99.2537C42.8904 100.183 44.2404 102.16 44.7973 103.287C45.2961 104.337 45.963 105.298 46.7717 106.132C47.5648 106.921 48.6842 107.518 49.0217 108.644C49.0733 108.818 49.1659 108.976 49.2917 109.106C49.4435 109.901 49.5785 110.695 49.7023 111.495C49.461 111.26 49.1634 111.092 48.8383 111.006C48.5131 110.92 48.1714 110.92 47.846 111.005C47.6517 110.922 47.4369 110.898 47.2293 110.939C47.0218 110.979 46.831 111.08 46.6817 111.23C45.7817 112.075 46.1923 113.253 46.8785 114.086C47.8292 115.213 48.8529 116.34 49.8373 117.466C49.9641 117.613 50.133 117.717 50.321 117.765C50.321 118.148 50.3604 118.537 50.3717 118.92C50.2784 119.092 50.2319 119.287 50.2367 119.483C50.2367 122.089 50.2367 124.694 50.2367 127.296C50.2339 127.34 50.2339 127.383 50.2367 127.426C50.2001 127.698 50.2608 127.975 50.408 128.207C50.5551 128.439 50.7793 128.611 51.041 128.693C51.5459 128.884 52.0898 128.946 52.6246 128.875C53.1593 128.804 53.6684 128.603 54.1067 128.288C54.2785 128.34 54.4631 128.33 54.6284 128.26C54.7937 128.19 54.9295 128.064 55.0123 127.905C55.4623 126.913 55.1867 125.443 55.1642 124.373C55.1304 122.626 55.0292 120.886 54.8885 119.145C54.8885 119.145 54.8885 119.106 54.8885 119.089C55.2905 118.643 55.6662 118.175 56.0135 117.686C56.8605 116.551 57.5846 115.329 58.1735 114.041C58.2276 113.922 58.2618 113.794 58.2748 113.664C58.3648 113.534 58.4604 113.41 58.5504 113.286C59.3717 112.092 57.4254 110.96 56.6098 112.16C55.7942 113.36 54.9223 114.469 54.0335 115.579C54.2913 112.961 54.9813 110.405 56.0754 108.014C56.4664 107.532 56.9183 107.104 57.4198 106.74Z" fill="#ED4049"/>
<path d="M63.8772 122.401C63.577 122.429 63.2839 122.509 63.011 122.638C63.1291 121.658 63.2641 120.677 63.4272 119.703C63.6635 118.283 61.4979 117.675 61.256 119.106C61.1135 119.962 60.986 120.82 60.8735 121.68C60.6921 121.528 60.4673 121.436 60.2311 121.419C59.995 121.402 59.7595 121.46 59.5581 121.585C59.3568 121.71 59.2 121.895 59.1099 122.115C59.0199 122.334 59.0012 122.576 59.0566 122.807L60.1816 128.879C60.2039 129.006 60.2476 129.128 60.311 129.24C60.3032 129.471 60.3766 129.697 60.5185 129.88C60.6604 130.062 60.8617 130.188 61.0872 130.237C61.2732 130.429 61.5059 130.569 61.7622 130.643C61.8974 130.687 62.0423 130.693 62.1806 130.659C62.3188 130.625 62.4448 130.553 62.5441 130.451C62.6987 130.436 62.8435 130.368 62.9549 130.26C63.0663 130.151 63.1376 130.008 63.1572 129.854C63.3935 128.727 63.6129 127.55 63.8322 126.395L64.8729 124.085C65.1654 123.398 64.8166 122.317 63.8772 122.401Z" fill="#ED4049"/>
<path d="M156.038 130.693C156.038 130.693 152.809 128.575 154.215 124.119C155.621 119.663 157.939 117.737 156.038 114.357C154.136 110.977 153.731 111.653 155.306 107.281C156.881 102.91 157.466 96.33 157.466 96.33C157.466 96.33 160.279 101.631 159.846 105.236C159.413 108.842 156.949 109.365 158.923 111.968C160.898 114.571 162.973 115.523 161.303 118.649C159.632 121.776 158.423 122.626 158.923 125.381C159.216 127.136 159.216 128.927 158.923 130.682L156.038 130.693Z" fill="#71890D"/>
<path d="M161.303 132.017C161.303 132.017 159.278 127.989 161.415 124.384C163.553 120.779 164.346 121.415 164.374 117.624C164.402 113.833 164.717 108.368 164.717 108.368C165.426 110.773 165.99 113.219 166.404 115.692C166.742 118.446 168.396 120.159 166.404 122.379C164.413 124.598 163.592 126.08 163.907 128.012C164.076 129.349 164.076 130.702 163.907 132.04L161.303 132.017Z" fill="#71890D"/>
<path d="M151.211 130.474C151.211 130.474 149.625 127.313 151.312 124.497C153 121.68 153.607 122.176 153.63 119.19C153.652 116.204 153.894 111.951 153.894 111.951C154.447 113.838 154.884 115.757 155.205 117.697C155.469 119.855 156.763 121.196 155.205 122.931C153.647 124.666 153.022 125.826 153.253 127.319C153.385 128.366 153.385 129.426 153.253 130.474H151.211Z" fill="#8FB836"/>
<path d="M145.029 132.017C145.029 132.017 144.428 124.942 151.313 124.497C158.198 124.052 158.721 132.789 158.721 132.789C158.721 132.789 150.39 135.397 145.029 132.017Z" fill="#BF7925"/>
<defs>
<linearGradient id="paint0_linear" x1="50.2762" y1="132.541" x2="62.4968" y2="122.65" gradientUnits="userSpaceOnUse">
<stop stop-opacity="0"/>
<stop offset="1" stop-color="#F15A24"/>
</linearGradient>
<linearGradient id="paint1_linear" x1="7667.86" y1="4005.45" x2="7996.6" y2="3270.2" gradientUnits="userSpaceOnUse">
<stop stop-opacity="0"/>
<stop offset="1" stop-color="#F15A24"/>
</linearGradient>
</defs>
</svg>
