<svg width="1217" height="1806" viewBox="0 0 1217 1806" fill="none" xmlns="http://www.w3.org/2000/svg">
<rect width="1216.54" height="1806" fill="#D2EDFF"/>
<mask id="mask0" mask-type="alpha" maskUnits="userSpaceOnUse" x="0" y="0" width="1217" height="1806">
<rect width="1216.54" height="1806" fill="#D2EDFF"/>
</mask>
<g mask="url(#mask0)">
<path fill-rule="evenodd" clip-rule="evenodd" d="M208.192 -2.36828e-05L223.242 49.665C238.292 100.835 268.392 200.165 298.492 301C328.591 401.835 358.691 501.165 328.591 602C298.491 702.835 208.191 802.165 283.441 903C358.691 1003.83 599.491 1103.16 629.591 1204C659.691 1304.83 479.091 1404.16 464.041 1505C448.991 1605.83 599.491 1705.16 674.741 1756.33L749.991 1806L27.5915 1806L27.5915 1756.33C27.5915 1705.16 27.5915 1605.83 27.5915 1505C27.5915 1404.16 27.5915 1304.83 27.5915 1204C27.5915 1103.16 27.5915 1003.83 27.5915 903C27.5915 802.165 27.5915 702.835 27.5915 602C27.5915 501.165 27.5915 401.835 27.5915 301C27.5916 200.165 27.5916 100.835 27.5916 49.665L27.5916 -3.15771e-05L208.192 -2.36828e-05Z" fill="#B4E1FF"/>
<path fill-rule="evenodd" clip-rule="evenodd" d="M180.6 -2.36828e-05L195.65 49.665C210.7 100.835 240.8 200.165 270.9 301C301 401.835 331.1 501.165 301 602C270.9 702.835 180.6 802.165 255.85 903C331.1 1003.84 571.9 1103.17 602 1204C632.1 1304.84 451.5 1404.17 436.45 1505C421.4 1605.84 571.9 1705.17 647.15 1756.34L722.4 1806L-6.34297e-05 1806L-6.12587e-05 1756.34C-5.9022e-05 1705.17 -5.46802e-05 1605.84 -5.02725e-05 1505C-4.58649e-05 1404.17 -4.15231e-05 1304.84 -3.71154e-05 1204C-3.27078e-05 1103.17 -2.83659e-05 1003.84 -2.39583e-05 903C-1.95506e-05 802.165 -1.52088e-05 702.835 -1.08012e-05 602C-6.39352e-06 501.165 -2.05167e-06 401.835 2.35597e-06 301C6.76361e-06 200.165 1.11055e-05 100.835 1.33422e-05 49.665L1.55131e-05 -3.15771e-05L180.6 -2.36828e-05Z" fill="#9ED3F7"/>
</g>
</svg>
