<svg width="222" height="167" viewBox="0 0 222 167" fill="none" xmlns="http://www.w3.org/2000/svg">
<path d="M107.953 159.095L8.40814 100.089C5.23909 98.3017 2.51959 95.3737 5.63314 93.4532L105.533 35.7045C107.032 34.7749 109.307 34.1626 110.833 35.0477L215.301 95.8746C218.47 97.7228 219.036 102.878 215.856 104.72L121.062 159.001C119.073 160.157 116.819 160.773 114.52 160.79C112.221 160.807 109.958 160.223 107.953 159.095Z" fill="url(#paint0_linear_australia)"/>
<path d="M105.722 63.1037L105.689 66.9391C105.689 66.722 105.472 66.4771 105.472 66.3045L105.505 62.4691C105.505 62.6417 105.722 62.9033 105.722 63.1037Z" fill="black"/>
<path d="M97.8244 65.7479L97.7911 69.5833C97.7911 69.3495 97.5581 69.2271 97.0807 69.2271C96.054 69.2271 95.6544 68.9376 95.3159 68.5368C94.9531 68.2445 94.5561 67.9978 94.1337 67.802C93.7403 67.6011 93.3684 67.3605 93.0237 67.0839C91.9581 65.9706 90.9647 64.8962 89.9435 63.7996C89.8158 63.666 89.7048 63.5268 89.5771 63.3821L89.6105 59.5466C89.7381 59.6914 89.8546 59.8305 89.9767 59.9641C90.9979 61.0775 91.9914 62.163 93.057 63.2485C93.4017 63.5251 93.7736 63.7657 94.167 63.9666C94.5894 64.1623 94.9864 64.4091 95.3492 64.7014C95.6877 65.1022 96.0873 65.3861 97.114 65.3916C97.5913 65.3972 97.8244 65.5141 97.8244 65.7479Z" fill="black"/>
<path d="M97.791 69.6279L97.8243 65.7925C97.8396 65.8866 97.8803 65.9747 97.9419 66.0473C98.0036 66.1199 98.0838 66.1742 98.174 66.2044C98.79 66.466 99.4893 66.6831 100.233 66.9448L100.2 70.7802C99.4616 70.5186 98.7623 70.3015 98.1407 70.0398C98.0505 70.0096 97.9703 69.9553 97.9086 69.8827C97.847 69.8101 97.8063 69.722 97.791 69.6279Z" fill="black"/>
<path d="M148.402 67.674L148.368 71.5094C148.11 71.264 147.804 71.0745 147.469 70.9527L147.503 67.1173C147.837 67.2391 148.143 67.4286 148.402 67.674Z" fill="black"/>
<path d="M146.697 68.1082L146.664 71.9436L145.465 71.6931L145.499 67.8577L146.697 68.1082Z" fill="black"/>
<path d="M162.893 68.9098L162.859 72.7452C162.823 72.5409 162.735 72.3494 162.604 72.1885C162.554 72.0995 162.349 72.0327 162.177 71.9325L162.21 68.097C162.382 68.1972 162.587 68.2696 162.637 68.3531C162.768 68.514 162.856 68.7055 162.893 68.9098Z" fill="black"/>
<path d="M75.4799 68.2975L75.4466 72.1329L74.8916 72.4613L74.9249 68.6259L75.4799 68.2975Z" fill="black"/>
<path d="M75.208 70.14L75.1747 73.9754C75.1747 73.8363 75.0359 73.6748 74.7473 73.4911C74.5753 73.3798 74.381 73.2796 74.2256 73.1683C73.9537 72.979 73.8149 72.812 73.8149 72.6728L73.8482 68.8374C73.8482 68.9766 73.987 69.1436 74.2589 69.3328C74.4199 69.4442 74.6141 69.5499 74.7806 69.6557C75.0692 69.8283 75.2135 69.9897 75.208 70.14Z" fill="black"/>
<path d="M104.373 71.476L104.34 75.3114C104.339 75.2238 104.322 75.1371 104.29 75.0553C104.071 74.3555 103.707 73.7095 103.224 73.1592C102.74 72.6088 102.147 72.1663 101.482 71.8601C100.927 71.5762 100.144 71.3034 100.15 70.936L100.183 67.1006C100.183 67.4847 100.971 67.7407 101.515 68.0246C102.18 68.3308 102.773 68.7734 103.257 69.3237C103.741 69.8741 104.104 70.5201 104.324 71.2199C104.355 71.3017 104.372 71.3883 104.373 71.476Z" fill="black"/>
<path d="M169.83 72.3667L169.797 76.2021L169.286 75.612L169.319 71.7766L169.83 72.3667Z" fill="black"/>
<path d="M87.7401 73.6136L87.7068 77.4491L87.5625 78.0336L87.5958 74.1981L87.7401 73.6136Z" fill="black"/>
<path d="M79.6815 73.0847L79.6482 76.9202C79.6376 77.276 79.5404 77.6238 79.3651 77.9333C79.2652 78.117 79.1875 78.3063 79.0654 78.5735L79.0987 74.738C79.2264 74.4708 79.2985 74.2871 79.3984 74.0979C79.5737 73.7884 79.6709 73.4405 79.6815 73.0847Z" fill="black"/>
<path d="M63.8248 74.5933L63.7915 78.4287C63.7915 78.2784 63.6583 78.1337 63.292 78.0057C62.6133 77.7256 61.8602 77.6844 61.1552 77.8888C60.6502 78.0446 60.2339 78.2729 59.7011 78.4065C59.3003 78.4619 58.8955 78.4823 58.4912 78.4677L58.5245 74.6323C58.9288 74.6469 59.3336 74.6264 59.7344 74.571C60.2894 74.4374 60.6779 74.2148 61.1885 74.0533C61.8935 73.849 62.6466 73.8902 63.3253 74.1702C63.6749 74.276 63.8248 74.4207 63.8248 74.5933Z" fill="black"/>
<path d="M59.6567 78.2951L59.6234 82.1306C59.6234 81.8522 59.3126 81.5739 58.7632 81.3178C58.4357 81.1564 58.2637 81.0506 58.2637 80.9671L58.297 77.1317C58.297 77.2152 58.469 77.3154 58.7965 77.4824C59.3459 77.7552 59.6623 78.0224 59.6567 78.2951Z" fill="black"/>
<path d="M180.247 81.624L180.214 85.4595C180.194 85.6247 180.117 85.778 179.998 85.8937C179.935 85.9704 179.902 86.0671 179.903 86.1664L179.937 82.331C179.935 82.2317 179.968 82.135 180.031 82.0582C180.151 81.9425 180.227 81.7893 180.247 81.624Z" fill="black"/>
<path d="M63.0925 82.4868L63.0592 86.3223C63.0592 86.1775 62.7595 86.1219 62.1102 86.133C61.3609 86.133 61.1944 86.005 61.1278 85.6932C60.9336 84.7803 60.5728 83.8896 59.0077 83.2049C58.9768 83.1902 58.9511 83.1663 58.9342 83.1364C58.9174 83.1065 58.9101 83.0721 58.9134 83.0379L58.9467 79.2025C58.9434 79.2367 58.9507 79.2711 58.9675 79.301C58.9844 79.3309 59.0101 79.3548 59.041 79.3695C60.6172 80.0542 60.9669 80.9449 61.1611 81.8578C61.2277 82.1695 61.3998 82.3087 62.1435 82.2976C62.7928 82.2864 63.0925 82.3421 63.0925 82.4868Z" fill="black"/>
<path d="M52.7249 85.7656V89.6233C52.7249 89.6233 52.7249 89.5788 52.7249 89.5565C52.7249 89.4396 52.5307 89.3116 52.3642 89.2058C52.1977 89.1 52.0479 88.9497 52.0479 88.844L52.0812 85.0085C52.0812 85.1143 52.1866 85.2368 52.3975 85.3704C52.6084 85.504 52.7527 85.6042 52.7582 85.7211C52.736 85.7248 52.7249 85.7396 52.7249 85.7656Z" fill="black"/>
<path d="M182.667 86.7843L182.634 90.6197C182.634 90.7589 182.456 90.937 182.151 91.2265C182.097 91.2698 182.052 91.3237 182.02 91.385C181.987 91.4463 181.968 91.5136 181.962 91.5828L181.996 87.7473C182.001 87.6782 182.021 87.6108 182.053 87.5495C182.086 87.4883 182.13 87.4343 182.184 87.3911C182.49 87.096 182.667 86.9235 182.667 86.7843Z" fill="black"/>
<path d="M50.0776 92.0893L50.1109 88.2539C50.1109 88.3207 50.1498 88.3708 50.2441 88.4042C50.6201 88.5018 50.9674 88.6881 51.257 88.9476C51.5467 89.2071 51.7702 89.5323 51.9091 89.8961L51.8758 93.7315C51.7369 93.3677 51.5134 93.0425 51.2237 92.783C50.9341 92.5235 50.5868 92.3372 50.2108 92.2396C50.1165 92.2062 50.0776 92.1561 50.0776 92.0893Z" fill="black"/>
<path d="M53.3798 92.106L53.3465 95.9415C53.3335 95.7917 53.271 95.6507 53.1689 95.5407C52.8082 95.0842 52.5751 94.5999 52.2698 94.1323C52.1593 93.9851 52.0347 93.849 51.8979 93.7259L51.9312 89.8905C52.068 90.0136 52.1926 90.1497 52.3031 90.2969C52.6083 90.7645 52.8581 91.2432 53.2022 91.7052C53.3043 91.8152 53.3668 91.9563 53.3798 92.106Z" fill="black"/>
<path d="M51.6538 96.86L51.6871 93.0245C51.6871 93.3975 52.3587 93.5812 53.0247 93.6981C53.7906 93.8595 54.612 93.9709 55.3834 94.1323C55.5888 94.1768 55.6942 94.3216 55.8441 94.4218L55.8108 98.2572C55.6609 98.157 55.5555 98.0123 55.3501 97.9677C54.5787 97.8063 53.7573 97.7005 52.9914 97.5335C52.3254 97.3888 51.6538 97.2274 51.6538 96.86Z" fill="black"/>
<path d="M51.3098 94.9784L51.2765 98.8139C51.2714 98.7093 51.2508 98.6061 51.2154 98.5077C51.0848 98.2098 50.9269 97.9246 50.7437 97.656L50.777 93.8206C50.9602 94.0892 51.1181 94.3743 51.2487 94.6723C51.2841 94.7707 51.3047 94.8739 51.3098 94.9784Z" fill="black"/>
<path d="M186.436 91.7498L186.402 95.5852C186.402 95.8413 186.147 96.0751 185.637 96.3144C185.485 96.3849 185.313 96.4554 185.12 96.526C183.866 96.9824 183.1 97.2496 182.628 97.4667C181.646 97.9232 181.951 98.1793 181.813 99.5431C181.686 99.9646 181.417 100.329 181.052 100.573L181.086 96.7375C181.451 96.4933 181.72 96.1292 181.846 95.7076C181.985 94.3494 181.679 94.0933 182.662 93.6313C183.134 93.4142 183.899 93.147 185.154 92.6905C185.35 92.62 185.522 92.5495 185.67 92.479C186.186 92.2396 186.436 92.0058 186.436 91.7498Z" fill="black"/>
<path d="M143.573 98.3908L143.54 102.226C143.54 101.558 142.879 101.358 141.159 101.464C141.004 101.474 140.851 101.493 140.698 101.519L140.732 97.6839C140.884 97.6574 141.038 97.6389 141.192 97.6282C142.913 97.5169 143.579 97.7173 143.573 98.3908Z" fill="black"/>
<path d="M174.026 102.482L174.059 98.6469C174.055 98.5987 174.055 98.5503 174.059 98.5021C174.072 98.4184 174.107 98.3396 174.159 98.2732C174.212 98.2069 174.281 98.1553 174.359 98.1236C174.674 98.0134 175.013 97.9865 175.341 98.0457C175.653 98.0795 175.967 98.0795 176.279 98.0457C176.895 97.9733 177.495 97.8787 178.094 97.7785L179.87 97.4834C180.054 97.4534 180.239 97.4367 180.425 97.4333C180.886 97.4333 181.352 97.4333 181.813 97.4333L181.779 101.269C181.319 101.269 180.852 101.269 180.392 101.269C180.206 101.272 180.02 101.289 179.837 101.319L178.061 101.614C177.461 101.709 176.856 101.803 176.246 101.881C175.934 101.915 175.62 101.915 175.308 101.881C174.979 101.822 174.641 101.849 174.326 101.959C174.247 101.991 174.178 102.042 174.126 102.109C174.073 102.175 174.039 102.254 174.026 102.338C174.022 102.386 174.022 102.434 174.026 102.482Z" fill="black"/>
<path d="M174.081 99.0867L174.048 102.922C174.049 103.02 174.03 103.116 173.993 103.206C173.892 103.366 173.745 103.49 173.571 103.562L173.604 99.7268C173.778 99.6547 173.925 99.5302 174.026 99.3706C174.064 99.2808 174.083 99.1841 174.081 99.0867Z" fill="black"/>
<path d="M150.227 100.868L150.194 104.703C150.044 104.531 149.806 104.364 149.767 104.191C149.606 103.351 147.813 102.571 145.704 102.521L145.737 98.6859C147.846 98.7249 149.622 99.5042 149.8 100.356C149.85 100.528 150.078 100.695 150.227 100.868Z" fill="black"/>
<path d="M143.501 102.622L143.534 98.7861C143.534 99.3094 144.089 99.7046 145.005 100.022L146.115 100.417L146.082 104.253L144.972 103.857C144.045 103.54 143.495 103.145 143.501 102.622Z" fill="black"/>
<path d="M152.625 99.9161L152.592 103.752C152.33 103.85 152.079 103.975 151.842 104.125C151.695 104.222 151.541 104.309 151.382 104.386L151.415 100.551C151.574 100.473 151.728 100.386 151.876 100.289C152.112 100.14 152.363 100.015 152.625 99.9161Z" fill="black"/>
<path d="M151.382 100.556L151.348 104.392C150.973 104.527 150.586 104.631 150.194 104.703L150.227 100.868C150.62 100.796 151.006 100.692 151.382 100.556Z" fill="black"/>
<path d="M141.309 99.6433L141.275 103.479C141.264 103.791 141.219 104.1 141.142 104.403C141.115 104.514 141.1 104.628 141.098 104.742L141.131 100.907C141.133 100.792 141.148 100.679 141.175 100.567C141.253 100.265 141.297 99.9552 141.309 99.6433Z" fill="black"/>
<path d="M173.604 99.7046L173.571 103.54C171.61 103.7 169.686 104.17 167.871 104.932C167.149 105.29 166.322 105.371 165.545 105.16C165.16 105.139 164.773 105.171 164.397 105.255C163.842 105.316 163.353 105.438 162.815 105.455C161.91 105.455 160.994 105.455 160.09 105.455C159.409 105.49 158.738 105.281 158.197 104.865C157.671 104.498 157.085 104.227 156.466 104.063C155.742 103.846 154.998 103.702 154.246 103.635C153.686 103.591 153.123 103.641 152.581 103.785L152.614 99.9495C153.157 99.806 153.719 99.7552 154.279 99.7992C155.031 99.8668 155.775 100.01 156.499 100.228C157.118 100.391 157.705 100.662 158.23 101.029C158.771 101.445 159.442 101.655 160.123 101.62C161.033 101.62 161.949 101.67 162.848 101.62C163.403 101.62 163.897 101.48 164.43 101.419C164.807 101.335 165.193 101.304 165.579 101.324C166.356 101.536 167.183 101.455 167.904 101.096C169.719 100.334 171.643 99.8648 173.604 99.7046Z" fill="black"/>
<path d="M145.249 104.965L145.282 101.13C145.282 101.297 145.521 101.464 145.993 101.764L145.965 105.6C145.488 105.299 145.249 105.138 145.249 104.965Z" fill="black"/>
<path d="M147.63 100.4L147.597 104.236C147.597 104.33 147.502 104.425 147.28 104.531C146.925 104.703 146.831 104.982 146.576 105.204C146.38 105.351 146.174 105.483 145.959 105.6L145.993 101.764C146.207 101.647 146.413 101.515 146.609 101.369C146.864 101.146 146.958 100.868 147.314 100.695C147.536 100.59 147.63 100.495 147.63 100.4Z" fill="black"/>
<path d="M55.9551 101.157L55.9218 104.993C55.9273 104.921 55.9273 104.848 55.9218 104.776C55.6923 103.935 55.3644 103.124 54.945 102.36C54.7872 101.942 54.6018 101.534 54.39 101.141C54.2341 100.992 54.0432 100.885 53.835 100.829C53.0469 100.567 52.17 100.35 51.4485 100.05C51.0545 99.8883 50.6937 99.6934 50.6993 99.493L50.7326 95.6576C50.7326 95.8803 51.0933 96.0695 51.4818 96.2143C52.1978 96.5149 53.0802 96.7264 53.8683 96.9936C54.0765 97.0491 54.2674 97.1563 54.4233 97.3053C54.6351 97.6989 54.8205 98.1061 54.9783 98.5244C55.3843 99.2901 55.6991 100.101 55.9163 100.94C55.9348 101.012 55.9478 101.084 55.9551 101.157Z" fill="black"/>
<path d="M142.041 102.427L142.008 106.262C142.008 106.318 142.008 106.379 142.008 106.435L142.041 102.599C142.03 102.527 142.041 102.466 142.041 102.427Z" fill="black"/>
<path d="M119.658 106.88L119.692 103.045C119.692 102.972 119.747 102.917 119.836 102.872C120.052 102.796 120.279 102.757 120.507 102.755C121.54 102.699 122.572 102.661 123.61 102.644C123.987 102.663 124.365 102.606 124.72 102.477C124.796 102.445 124.866 102.398 124.924 102.339C124.982 102.28 125.028 102.209 125.058 102.132C125.115 102.046 125.199 101.981 125.297 101.948C125.449 101.88 125.607 101.826 125.769 101.787C126.457 101.614 127.195 101.48 127.906 101.325C128.204 101.22 128.513 101.145 128.827 101.102C131.252 101.102 133.711 100.952 135.959 101.575C136.372 101.694 136.8 101.752 137.23 101.748C138.076 101.706 138.921 101.853 139.705 102.176C140.097 102.356 140.501 102.507 140.915 102.627C141.294 102.675 141.676 102.689 142.058 102.672L142.025 106.507C141.643 106.525 141.261 106.51 140.881 106.463C140.468 106.342 140.063 106.191 139.672 106.012C138.888 105.688 138.043 105.542 137.196 105.583C136.766 105.587 136.338 105.529 135.925 105.41C133.678 104.793 131.219 104.921 128.794 104.937C128.48 104.981 128.171 105.055 127.872 105.16C127.162 105.316 126.424 105.449 125.735 105.622C125.574 105.661 125.416 105.716 125.264 105.783C125.166 105.817 125.082 105.881 125.025 105.967C124.995 106.045 124.949 106.115 124.891 106.174C124.833 106.234 124.763 106.281 124.687 106.312C124.331 106.441 123.954 106.498 123.577 106.479C122.539 106.479 121.501 106.535 120.474 106.591C120.245 106.592 120.018 106.632 119.803 106.707C119.708 106.724 119.658 106.78 119.658 106.88Z" fill="black"/>
<path d="M53.1522 104.62L53.1189 108.455C53.1189 108.294 52.9302 108.149 52.7193 108.005C52.5084 107.86 52.3696 107.732 52.3696 107.615L52.4029 103.779C52.4029 103.891 52.5306 104.019 52.7526 104.169C52.9746 104.319 53.1577 104.459 53.1522 104.62Z" fill="black"/>
<path d="M52.0034 106.83L51.9701 110.665C51.9633 110.544 51.9119 110.429 51.8258 110.342C51.6653 110.186 51.5667 109.976 51.5483 109.752L51.5816 105.917C51.6 106.141 51.6986 106.35 51.8591 106.507C51.9452 106.593 51.9966 106.708 52.0034 106.83Z" fill="black"/>
<path d="M119.803 103.301L119.769 107.136C119.756 107.209 119.725 107.277 119.679 107.335C119.634 107.393 119.575 107.439 119.508 107.47C118.371 108.094 117.227 108.723 115.995 109.307C115.24 109.663 114.724 110.047 114.586 110.537C114.258 111.706 113.242 112.68 111.55 113.471C111.028 113.718 110.493 113.933 109.946 114.117C109.813 114.159 109.684 114.209 109.557 114.267C109.169 114.445 108.963 114.662 108.963 114.913L108.997 111.077C108.997 110.821 109.202 110.61 109.591 110.432C109.717 110.374 109.847 110.324 109.979 110.281C110.516 110.106 111.042 109.9 111.555 109.663C113.22 108.873 114.264 107.899 114.591 106.73C114.73 106.24 115.246 105.856 116.001 105.499C117.238 104.943 118.376 104.292 119.514 103.662C119.59 103.633 119.656 103.584 119.707 103.52C119.757 103.457 119.79 103.381 119.803 103.301Z" fill="black"/>
<path d="M49.284 110.983L49.2507 114.818C49.2394 114.663 49.1978 114.513 49.1282 114.374C49.0587 114.236 48.9627 114.112 48.8456 114.011C48.6635 113.833 48.4999 113.637 48.3572 113.426C48.2686 113.298 48.2185 113.148 48.2129 112.992L48.2462 109.157C48.2518 109.312 48.3019 109.463 48.3905 109.591C48.5332 109.802 48.6968 109.998 48.8789 110.175C48.996 110.277 49.092 110.4 49.1615 110.539C49.2311 110.677 49.2727 110.828 49.284 110.983Z" fill="black"/>
<path d="M109.174 111.89L109.141 115.725C109.107 116.032 109.001 116.327 108.832 116.585C108.663 116.843 108.436 117.058 108.169 117.212C107.997 117.34 107.914 117.457 107.914 117.574L107.947 113.738C107.947 113.621 108.025 113.504 108.203 113.376C108.47 113.223 108.697 113.008 108.865 112.75C109.034 112.491 109.14 112.197 109.174 111.89Z" fill="black"/>
<path d="M49.3341 113.927L49.3008 117.763C49.3025 117.647 49.271 117.533 49.21 117.434C49.1491 117.335 49.0611 117.256 48.9567 117.206C48.4516 116.906 48.1464 116.65 48.1519 116.327L48.1852 112.491C48.1852 112.792 48.4905 113.048 48.99 113.371C49.0944 113.421 49.1824 113.5 49.2433 113.599C49.3043 113.697 49.3358 113.811 49.3341 113.927Z" fill="black"/>
<path d="M109.707 115.347L109.674 119.182C109.674 119.338 109.513 119.483 109.213 119.622L109.246 115.787C109.546 115.653 109.707 115.503 109.707 115.347Z" fill="black"/>
<path d="M63.2199 118.776L63.1866 122.611C63.1866 122.467 63.0145 122.344 62.6316 122.261C61.6281 122.014 60.6106 121.828 59.5846 121.704C58.1361 121.548 56.6265 121.498 55.1446 121.392C53.857 121.298 52.7415 121.036 52.1643 120.485C51.1379 119.623 49.9033 119.047 48.5845 118.815C47.3913 118.537 46.8918 118.086 46.9195 117.462L46.9528 113.627C46.9528 114.25 47.4468 114.701 48.6178 114.98C49.9366 115.211 51.1712 115.787 52.1976 116.65C52.7526 117.206 53.8626 117.468 55.1779 117.557C56.6542 117.663 58.1638 117.713 59.6179 117.869C60.6438 117.992 61.6614 118.178 62.6649 118.425C63.0478 118.509 63.2199 118.631 63.2199 118.776Z" fill="black"/>
<path d="M101.748 124.437L101.782 120.602C101.778 120.569 101.778 120.535 101.782 120.502C101.992 119.561 102.831 118.726 104.251 118.047L104.89 117.746C106.299 117.089 107.753 116.455 109.241 115.798L109.207 119.633C107.726 120.296 106.266 120.93 104.856 121.582L104.218 121.882C102.797 122.561 101.959 123.402 101.748 124.337C101.745 124.37 101.745 124.404 101.748 124.437Z" fill="black"/>
<path d="M102.481 121.721L102.447 125.556C102.447 125.612 102.409 125.656 102.32 125.695L102.353 121.86C102.442 121.821 102.475 121.771 102.481 121.721Z" fill="black"/>
<path d="M100.677 126.619L100.71 122.784C100.71 122.539 100.849 122.339 101.176 122.183C101.556 122.035 101.951 121.927 102.353 121.86L102.32 125.695C101.917 125.763 101.523 125.871 101.143 126.018C100.816 126.174 100.677 126.363 100.677 126.619Z" fill="black"/>
<path d="M89.6937 125.445L89.6604 129.28C89.6604 129.03 89.3551 128.724 89.061 128.506C87.6568 127.393 85.5922 126.747 82.7673 126.625C81.5407 126.575 80.3141 126.491 79.0931 126.402C78.0657 126.397 77.0645 126.076 76.2238 125.484C75.4912 124.849 74.5588 124.615 72.9548 124.805C72.0313 124.878 71.1034 124.878 70.1798 124.805C69.6604 124.811 69.1438 124.727 68.6536 124.554C67.6324 123.953 66.1672 124.07 64.8463 123.936C63.9805 123.847 63.1369 123.708 62.0713 123.569L62.1046 119.733C63.148 119.873 63.9916 120.012 64.8796 120.101C66.2005 120.234 67.6546 120.101 68.6869 120.719C69.1771 120.891 69.6937 120.976 70.2131 120.969C71.1367 121.042 72.0646 121.042 72.9881 120.969C74.5643 120.785 75.53 121.014 76.2571 121.648C77.0978 122.241 78.099 122.561 79.1265 122.567C80.3419 122.656 81.5684 122.739 82.8005 122.789C85.62 122.912 87.6901 123.558 89.0942 124.671C89.3884 124.905 89.6937 125.189 89.6937 125.445Z" fill="black"/>
<path d="M100.76 123.168L100.727 127.004C100.673 127.306 100.536 127.587 100.333 127.816C100.04 128.301 99.6644 128.731 99.2229 129.085C99.0674 129.194 98.902 129.287 98.729 129.364C98.3091 129.549 97.877 129.705 97.4358 129.831C96.9447 129.945 96.4413 129.998 95.9373 129.987C94.8375 129.935 93.7386 130.107 92.7072 130.494C92.6066 130.541 92.5084 130.593 92.4131 130.65L92.4464 126.814C92.5417 126.757 92.6399 126.705 92.7405 126.658C93.7719 126.272 94.8708 126.099 95.9706 126.152C96.4746 126.162 96.978 126.11 97.4691 125.996C97.9103 125.87 98.3424 125.714 98.7623 125.528C98.9353 125.451 99.1007 125.358 99.2562 125.25C99.6977 124.896 100.073 124.466 100.366 123.981C100.57 123.751 100.706 123.47 100.76 123.168Z" fill="black"/>
<path d="M89.5993 59.5634L91.8193 59.0067C92.1523 59.1904 92.5685 59.4075 92.9293 59.6357C93.29 59.864 93.6175 60.1145 94.0393 60.3204C94.3089 60.4538 94.6045 60.5261 94.9051 60.532C96.0817 60.198 96.3314 60.6266 96.67 60.955C97.6078 60.6645 98.621 60.7462 99.5005 61.1833C100.755 61.7065 102.026 62.2298 103.385 62.6974C104.154 62.9064 104.935 63.0718 105.722 63.1928C105.8 62.8755 105.3 62.4914 105.633 62.3356C105.961 62.2475 106.303 62.2304 106.638 62.2855L106.821 61.7789C107.742 62.291 108.664 62.2409 109.785 62.0795C110.282 61.9597 110.798 61.9419 111.303 62.027C111.807 62.1121 112.29 62.2985 112.721 62.5749C113.603 63.0871 114.552 63.5769 115.534 64.0501C115.888 64.1892 116.265 64.2554 116.644 64.245C118.713 64.1056 120.765 64.6964 122.444 65.915C122.543 65.9855 122.635 66.0637 122.722 66.1487C123.882 65.9539 124.531 66.1988 124.997 66.6219C125.463 67.045 125.991 67.0561 126.845 66.9949C128.666 66.8668 130.569 66.9003 132.323 66.6887C134.447 66.5093 136.584 66.5466 138.7 66.8C140.87 66.967 142.702 67.2843 144.045 68.1082C144.283 68.2567 144.538 68.3746 144.805 68.4589C145.182 68.6123 145.581 68.7007 145.987 68.7205C146.258 68.5865 146.499 68.3969 146.692 68.1639L145.493 67.9134C146.459 67.8 147.43 67.7405 148.402 67.7352C148.143 67.4899 147.837 67.3004 147.502 67.1786C148.05 67.1585 148.596 67.2435 149.112 67.4291C149.883 67.7519 150.522 68.1361 151.304 68.4534C151.712 68.564 152.131 68.6239 152.553 68.6315C153.199 68.641 153.843 68.6856 154.484 68.7651C154.841 68.8908 155.227 68.9082 155.594 68.8152C155.726 68.7525 155.827 68.6406 155.877 68.5034C156.943 68.7484 157.859 69.0044 158.852 69.177C159.783 69.3324 160.723 69.4273 161.666 69.4609C162.046 69.4621 162.422 69.3922 162.776 69.255C163.059 68.9544 162.776 68.6983 162.648 68.4255C162.598 68.3364 162.393 68.2696 162.221 68.1694C162.981 68.2084 164.097 68.6927 164.33 69.0546C164.384 69.135 164.425 69.2232 164.452 69.3162C164.608 69.9062 165.007 70.385 166.117 70.7969C167.432 71.2701 168.465 71.9103 169.819 72.4391L169.308 71.849C170.002 71.7488 170.219 71.9047 170.418 72.1663C170.655 72.4236 170.94 72.6317 171.256 72.7787C172.106 73.2129 173.06 73.6081 173.865 74.0534C174.098 74.1814 173.943 74.4486 174.054 74.6435C174.204 74.89 174.391 75.1116 174.609 75.3004C175.145 75.6902 175.636 76.1382 176.074 76.6364C176.563 77.4037 177.26 78.0157 178.083 78.401C178.407 78.5747 178.673 78.8398 178.849 79.1636C179.217 79.9203 179.632 80.6528 180.092 81.3569C180.331 81.6686 180.231 81.8635 180.014 82.1251C179.965 82.2082 179.935 82.3014 179.926 82.3977C179.918 82.4941 179.931 82.5911 179.964 82.6818C180.12 83.4778 180.381 84.2738 180.458 85.0699C180.508 85.5542 180.814 85.916 181.629 86.2333C182.889 86.7232 182.889 86.7621 182.184 87.4413C181.768 87.8365 182.112 88.1482 182.523 88.4878C183.156 89.0055 183.711 89.5399 184.343 90.052C184.725 90.3509 185.128 90.6225 185.548 90.8648C186.658 91.5383 186.758 92.0282 185.67 92.5348C185.518 92.6053 185.346 92.6758 185.154 92.7463C183.899 93.2028 183.133 93.47 182.662 93.6871C181.679 94.1435 181.985 94.3996 181.846 95.7634C181.719 96.1849 181.451 96.5491 181.085 96.7933C181.316 97.0173 181.56 97.2255 181.818 97.4167C181.357 97.4167 180.891 97.4167 180.431 97.4167C180.245 97.4201 180.059 97.4368 179.876 97.4668L178.1 97.7619C177.5 97.8565 176.895 97.9511 176.285 98.0291C175.973 98.0629 175.659 98.0629 175.347 98.0291C175.018 97.9699 174.68 97.9968 174.364 98.107C174.286 98.1387 174.217 98.1903 174.165 98.2566C174.112 98.3229 174.078 98.4018 174.065 98.4855C174.015 98.7639 174.137 99.0422 174.02 99.3317C173.92 99.4913 173.772 99.6158 173.599 99.6879C171.637 99.8481 169.714 100.318 167.899 101.08C167.177 101.438 166.35 101.519 165.573 101.308C165.188 101.287 164.801 101.319 164.424 101.402C163.869 101.464 163.381 101.586 162.843 101.603C161.938 101.603 161.022 101.603 160.118 101.603C159.437 101.638 158.766 101.429 158.225 101.013C157.705 100.644 157.125 100.369 156.51 100.2C155.786 99.9826 155.043 99.839 154.29 99.7714C153.731 99.7274 153.168 99.7782 152.625 99.9217C152.363 100.02 152.112 100.145 151.876 100.295C151.728 100.392 151.574 100.479 151.415 100.556C151.039 100.692 150.653 100.796 150.261 100.868C150.111 100.695 149.872 100.528 149.833 100.356C149.672 99.5154 147.88 98.736 145.771 98.6859C146.021 98.9253 146.215 99.1313 146.448 99.3317C146.681 99.5321 147.092 99.8494 147.436 100.105C147.78 100.361 147.785 100.473 147.341 100.662C146.986 100.835 146.892 101.113 146.637 101.336C146.441 101.482 146.235 101.614 146.021 101.731C145.055 101.113 145.055 101.068 146.137 100.389L145.027 99.9941C144.017 99.6434 143.456 99.2036 143.573 98.608C143.751 97.734 143.14 97.4947 141.22 97.5893C141.065 97.5999 140.912 97.6185 140.759 97.645C140.989 98.1549 141.175 98.6838 141.314 99.2259C141.363 99.6592 141.328 100.098 141.209 100.517C141.136 100.835 141.171 101.167 141.309 101.462C141.446 101.757 141.679 101.997 141.969 102.143C142.141 102.26 142.041 102.46 142.069 102.622C141.687 102.639 141.305 102.624 140.926 102.577C140.512 102.457 140.108 102.306 139.716 102.126C138.932 101.803 138.087 101.656 137.24 101.697C136.811 101.702 136.383 101.644 135.97 101.525C133.722 100.907 131.263 101.035 128.838 101.052C128.524 101.095 128.215 101.17 127.916 101.274C127.206 101.43 126.468 101.564 125.78 101.736C125.618 101.776 125.46 101.83 125.308 101.898C125.21 101.931 125.126 101.996 125.069 102.082C125.039 102.159 124.993 102.229 124.935 102.289C124.877 102.348 124.807 102.395 124.731 102.427C124.375 102.556 123.998 102.612 123.621 102.594C122.583 102.594 121.545 102.649 120.518 102.705C120.29 102.707 120.063 102.746 119.847 102.822C119.697 102.894 119.647 103.006 119.786 103.184C119.924 103.362 119.747 103.512 119.558 103.612C118.42 104.236 117.277 104.865 116.045 105.449C115.29 105.806 114.774 106.19 114.635 106.68C114.308 107.849 113.292 108.823 111.599 109.613C111.079 109.852 110.546 110.06 110.001 110.237C109.869 110.279 109.739 110.33 109.613 110.387C109.108 110.621 108.913 110.91 109.058 111.278C109.385 112.018 109.058 112.708 108.214 113.332C107.82 113.621 107.92 113.861 108.281 114.117C108.641 114.373 109.096 114.673 109.485 114.991C109.873 115.308 109.762 115.547 109.257 115.77C107.776 116.432 106.316 117.067 104.906 117.718L104.268 118.019C102.847 118.698 102.009 119.539 101.798 120.474C101.732 120.774 101.976 121.125 102.281 121.409C102.492 121.598 102.575 121.737 102.359 121.838C101.957 121.905 101.562 122.013 101.182 122.161C101.096 122.184 101.015 122.226 100.945 122.283C100.876 122.339 100.819 122.41 100.778 122.49C100.737 122.571 100.713 122.658 100.708 122.748C100.704 122.838 100.717 122.928 100.749 123.012C100.832 123.318 100.588 123.658 100.377 123.959C100.085 124.444 99.7088 124.873 99.2674 125.228C99.1119 125.336 98.9465 125.429 98.7734 125.506C98.3535 125.691 97.9215 125.848 97.4803 125.974C96.9891 126.088 96.4858 126.14 95.9818 126.13C94.882 126.077 93.783 126.249 92.7517 126.636C92.651 126.683 92.5528 126.735 92.4575 126.792C92.2587 126.879 92.0443 126.923 91.8276 126.923C91.6109 126.923 91.3965 126.879 91.1977 126.792C90.3818 126.519 89.4827 126.308 88.7113 126.091C89.0665 125.874 89.6548 125.673 89.6992 125.445C89.7436 125.217 89.4217 124.888 89.1053 124.615C87.7012 123.502 85.6366 122.856 82.8116 122.734C81.5851 122.684 80.3585 122.6 79.1375 122.511C78.1101 122.506 77.1089 122.185 76.2682 121.593C75.5356 120.958 74.6032 120.724 72.9992 120.914C72.0757 120.987 71.1478 120.987 70.2242 120.914C69.7048 120.92 69.1882 120.836 68.698 120.663C67.6768 120.062 66.2116 120.179 64.8907 120.045C64.0249 119.956 63.1813 119.817 62.1157 119.678C62.4931 119.405 62.7095 119.232 62.9648 119.071C63.3866 118.798 63.3311 118.514 62.704 118.386C61.7004 118.139 60.6829 117.953 59.657 117.83C58.2085 117.674 56.6989 117.624 55.217 117.518C53.9294 117.423 52.8139 117.162 52.2367 116.611C51.2103 115.748 49.9756 115.172 48.6569 114.941C47.3027 114.623 46.8421 114.083 46.9919 113.326L49.3007 114.117C49.3497 113.975 49.345 113.82 49.2878 113.682C49.2305 113.543 49.1245 113.431 48.9899 113.365C48.1186 112.848 47.8411 112.38 48.7235 111.784C49.4506 111.294 49.4228 110.715 48.8734 110.159C48.6913 109.981 48.5277 109.785 48.385 109.574C48.1075 109.135 48.2074 108.734 48.9011 108.411C49.8335 108.049 50.5273 107.76 51.2488 107.487C51.9703 107.214 52.1701 106.88 51.8593 106.507C51.4097 105.995 51.4763 105.561 52.2422 105.204C52.3939 105.136 52.5496 105.076 52.7084 105.026C53.4466 104.698 53.1358 104.425 52.7584 104.169C52.381 103.913 52.2644 103.718 52.6585 103.534C52.8147 103.467 52.9762 103.413 53.1413 103.373C53.5809 103.258 54.0098 103.105 54.4234 102.917C55.5334 102.399 56.0551 101.72 55.9385 100.94C55.721 100.103 55.4062 99.2939 55.0006 98.5301C54.8428 98.1118 54.6574 97.7045 54.4456 97.311C54.2896 97.1619 54.0987 97.0547 53.8906 96.9992C53.1025 96.7376 52.2256 96.5205 51.5041 96.2199C50.8825 95.9583 50.3441 95.6632 51.1877 95.2235C51.4042 95.1177 51.3265 94.8561 51.2654 94.6668C51.1348 94.3688 50.9769 94.0837 50.7937 93.8151C51.4319 93.8763 51.9037 93.893 52.381 93.9654C53.3023 94.1157 54.1903 94.305 55.1116 94.4552C55.364 94.4655 55.6169 94.4506 55.8664 94.4107C55.7165 94.3105 55.6111 94.1658 55.4057 94.1213C54.6343 93.9598 53.8129 93.8541 53.047 93.6871C52.2811 93.5201 51.4264 93.3141 51.7982 92.7574C51.9647 92.7574 52.2256 92.7296 52.4476 92.6795C52.6554 92.6409 52.8583 92.5793 53.0525 92.4958C53.4632 92.3065 53.491 92.0449 53.219 91.6998C52.8583 91.2433 52.6252 90.759 52.3199 90.2914C52.2094 90.1442 52.0849 90.0081 51.9481 89.885C51.8092 89.5213 51.5856 89.1961 51.296 88.9365C51.0063 88.677 50.6591 88.4907 50.2831 88.3932C49.9445 88.2763 50.3108 87.8699 50.8381 87.6361C51.054 87.5291 51.291 87.472 51.5318 87.4691C51.8251 87.4959 52.1206 87.4579 52.3976 87.3577C52.4882 87.3163 52.5651 87.2498 52.6192 87.1659C52.6733 87.0821 52.7023 86.9845 52.7029 86.8846C52.7712 86.4891 52.8102 86.089 52.8194 85.6877C52.8194 85.5708 52.6252 85.4428 52.4587 85.3371C52.0757 85.1033 52.0424 84.8973 52.3366 84.7804C52.5654 84.6904 52.8071 84.6377 53.0525 84.6245C53.4965 84.5856 53.9572 84.58 54.4067 84.5689C55.3114 84.5689 56.2216 84.4909 57.1262 84.4965C58.6223 84.5468 60.1108 84.2616 61.483 83.6615C61.9749 83.4323 62.4417 83.1524 62.876 82.8265C63.3866 82.4424 63.2201 82.2698 62.2045 82.3144C61.4552 82.3144 61.2887 82.1863 61.2221 81.8746C61.0279 80.9617 60.6671 80.071 59.102 79.3863C58.9522 79.3195 58.9966 79.0523 59.1575 78.9576C60.0622 78.401 59.8124 77.9724 58.8634 77.4992C58.3916 77.2654 58.2473 77.1541 58.4582 77.0539C58.7126 76.9662 58.9746 76.9028 59.2408 76.8646C60.2268 76.6922 61.1885 76.4006 62.1046 75.9962C62.6748 75.7433 63.1968 75.3929 63.6475 74.9608C63.9416 74.6713 64.0249 74.4041 63.3644 74.1592C62.6858 73.8791 61.9326 73.8379 61.2277 74.0423C60.7226 74.1981 60.3064 74.4264 59.7736 74.56C59.3728 74.6154 58.968 74.6359 58.5637 74.6212C58.7302 74.4542 58.7968 74.2204 59.041 74.1091C62.7972 72.9987 66.6147 72.1084 70.474 71.4426C71.7616 71.22 72.9881 70.9305 74.248 70.6689C74.4937 70.6251 74.7338 70.5541 74.9639 70.4573C75.4024 70.2514 75.358 69.9953 74.8363 69.6613C74.6642 69.55 74.47 69.4498 74.3146 69.3384C73.8317 68.9989 73.7596 68.7428 74.1536 68.5647C74.5908 68.4094 75.0498 68.3248 75.5134 68.3142L74.9584 68.6426C77.6668 68.882 78.1274 69.9062 78.7934 70.8303C79.5593 71.9047 80.0533 72.9958 79.4483 74.1258C79.3484 74.3095 79.2707 74.4987 79.1486 74.7659C80.2586 74.649 80.9246 74.5544 81.6128 74.5155C82.301 74.4765 83.0447 74.4542 83.7496 74.4821C84.8041 74.5266 85.8475 74.5878 86.5246 74.2705C86.7507 74.1717 86.9435 74.0093 87.0796 73.8029C87.3053 73.7236 87.5374 73.664 87.7733 73.6248L87.629 74.2093C88.2635 74.176 88.8954 74.1054 89.5216 73.9977C90.8272 73.6499 92.1856 73.5461 93.5287 73.6916C94.3927 73.7737 95.2628 73.6219 96.0484 73.2518C97.3693 72.7285 97.3693 72.7453 98.8567 73.1238C99.2399 73.2168 99.637 73.2376 100.028 73.185C101.227 72.9401 102.414 72.6673 103.519 72.35C104.407 71.9715 104.49 71.593 104.362 71.2367C104.143 70.5368 103.779 69.8909 103.296 69.3405C102.812 68.7902 102.219 68.3476 101.554 68.0414C100.932 67.7186 100.006 67.4402 100.266 66.9615C99.5282 66.6998 98.8289 66.4827 98.2073 66.2211C98.1138 66.1914 98.031 66.1351 97.9689 66.059C97.9068 65.9829 97.8682 65.8903 97.8577 65.7925C97.8577 65.5364 97.6412 65.4139 97.1473 65.4084C96.1205 65.4084 95.7209 65.1189 95.3824 64.7181C95.0196 64.4258 94.6226 64.1791 94.2002 63.9833C93.8068 63.7824 93.4349 63.5418 93.0902 63.2652C92.0246 62.1519 91.0312 61.0775 90.01 59.9809C89.8379 59.825 89.7269 59.6858 89.5993 59.5634Z" fill="#225870"/>
<path d="M92.4407 126.82L92.4074 130.655C92.2086 130.742 91.9942 130.786 91.7775 130.786C91.5607 130.786 91.3463 130.742 91.1475 130.655C90.3317 130.382 89.4326 130.171 88.6611 129.954L88.6944 126.118C89.4659 126.33 90.3594 126.547 91.1808 126.82C91.3796 126.906 91.594 126.951 91.8108 126.951C92.0275 126.951 92.2419 126.906 92.4407 126.82Z" fill="black"/>
<path d="M195.116 100.428L195.083 104.264C195.088 104.284 195.088 104.305 195.083 104.325C195.035 104.404 195.009 104.494 195.005 104.587L195.038 100.751C195.042 100.659 195.069 100.569 195.116 100.489C195.121 100.469 195.121 100.448 195.116 100.428Z" fill="black"/>
<path d="M183.788 102.343L183.755 106.179C183.755 105.967 183.355 105.85 182.906 105.739C182.678 105.683 182.406 105.655 182.201 105.583C181.896 105.472 181.646 105.338 181.357 105.21L181.391 101.375C181.668 101.497 181.946 101.636 182.234 101.747C182.434 101.82 182.706 101.848 182.939 101.903C183.389 102.009 183.794 102.132 183.788 102.343Z" fill="black"/>
<path d="M197.086 102.249L197.053 106.084C197.053 106.14 197.003 106.195 196.903 106.24C196.651 106.334 196.388 106.398 196.12 106.429C195.909 106.456 195.702 106.51 195.504 106.591C195.36 106.657 195.293 106.741 195.293 106.835L195.327 103C195.327 102.905 195.393 102.822 195.538 102.755C195.735 102.675 195.942 102.62 196.154 102.594C196.421 102.563 196.684 102.499 196.936 102.404C197.025 102.354 197.086 102.304 197.086 102.249Z" fill="black"/>
<path d="M195.787 103.874L195.754 107.709C195.754 107.832 195.665 107.927 195.482 108.016C195.109 108.158 194.722 108.262 194.328 108.327C194.061 108.383 193.773 108.428 193.545 108.5C193.328 108.583 193.094 108.615 192.862 108.594C192.63 108.573 192.406 108.499 192.208 108.377C191.634 108.056 190.964 107.953 190.321 108.088C189.534 108.255 188.714 108.114 188.028 107.693C187.246 107.08 186.08 106.813 184.698 106.674C184.354 106.641 184.038 106.552 183.588 106.462L183.622 102.627C184.077 102.716 184.393 102.8 184.732 102.839C186.141 102.983 187.307 103.245 188.062 103.857C188.747 104.278 189.568 104.42 190.354 104.253C190.997 104.118 191.667 104.22 192.241 104.542C192.44 104.663 192.664 104.738 192.895 104.759C193.127 104.78 193.361 104.748 193.578 104.664C193.817 104.592 194.1 104.548 194.361 104.492C194.755 104.427 195.142 104.322 195.515 104.18C195.704 104.097 195.787 103.996 195.787 103.874Z" fill="black"/>
<path d="M181.396 101.375L182.506 101.18C182.602 101.173 182.699 101.173 182.795 101.18C185.597 101.18 186.313 101.113 187.046 100.768C187.545 100.534 188.05 100.167 189.216 99.571C189.677 99.3316 189.771 98.9475 190.087 98.6469C190.2 98.5384 190.33 98.4482 190.47 98.3797C190.553 98.3382 190.644 98.3136 190.737 98.3073C191.138 98.2844 191.54 98.3431 191.919 98.4799C192.973 99.0366 193.945 99.5932 194.921 100.15C195.055 100.228 195.143 100.373 195.088 100.467C194.816 100.94 195.277 101.274 196.015 101.581C196.187 101.647 196.359 101.72 196.509 101.798C197.064 102.082 197.219 102.254 196.919 102.399C196.667 102.493 196.404 102.557 196.137 102.588C195.925 102.615 195.718 102.669 195.521 102.75C195.243 102.878 195.254 103.056 195.46 103.306C195.843 103.763 195.909 103.991 195.504 104.18C195.131 104.322 194.744 104.427 194.35 104.492C194.083 104.548 193.795 104.592 193.567 104.664C193.35 104.748 193.116 104.78 192.884 104.759C192.652 104.738 192.428 104.663 192.23 104.542C191.656 104.22 190.986 104.118 190.343 104.253C189.556 104.42 188.736 104.278 188.05 103.857C187.268 103.245 186.102 102.978 184.72 102.839C184.376 102.805 184.06 102.716 183.61 102.627C184.11 102.221 183.577 102.07 182.961 101.903C182.734 101.848 182.462 101.82 182.256 101.748C181.934 101.636 181.673 101.503 181.396 101.375Z" fill="#225870"/>
<path d="M159.191 76.447C158.991 76.7309 158.414 78.6236 157.02 78.3898C155.627 78.156 154.85 75.9015 153.84 76.447C152.83 76.9925 152.986 78.7794 152.292 79.5588C151.598 80.3381 150.899 81.5015 151.359 81.8912C151.82 82.2809 151.981 82.6705 152.675 82.3588C153.369 82.0471 154.534 80.0264 154.767 80.5719C155 81.1174 155.622 82.0415 157.403 82.4757C159.185 82.9099 159.107 84.0733 160.117 83.9175C161.127 83.7616 159.007 82.6761 159.496 82.4423C159.984 82.2085 161.899 81.2009 162.521 81.585C163.142 81.9691 161.966 82.4423 163.375 83.1381C164.785 83.834 166.861 84.1513 166.4 85.2368C165.939 86.3223 161.749 87.1016 162.759 88.3485C163.769 89.5955 168.959 85.8602 169.036 85.0085C169.114 84.1568 165.778 83.2216 166.261 81.9747C166.744 80.7278 167.577 77.9166 166.816 76.3691C166.816 76.3691 169.591 79.7091 171.7 78.6291C173.809 77.5492 175.419 74.0422 174.88 73.3408C174.342 72.6394 172.555 76.9146 171.55 76.3746C170.546 75.8347 167.987 72.7229 164.729 73.2629C161.472 73.8028 160.445 74.6712 159.191 76.447Z" fill="#1A6677"/>
<path d="M153.624 77.7663C153.624 77.7663 153.169 74.5042 153.624 74.0478C154.079 73.5913 154.928 77.3098 154.928 77.7663C154.928 78.2228 155.056 74.3706 155.711 74.3038C156.366 74.237 155.711 78.4176 155.711 78.4176" fill="#1A6677"/>
<path d="M161.916 81.2066C162.526 81.574 163.309 83.7561 162.643 84.3016C161.977 84.8472 159.923 85.8158 160.345 86.3056C160.767 86.7955 165.301 83.3943 165.301 83.3943L164.03 79.9374" fill="#1A6677"/>
<path d="M64.0581 93.9597L66.3558 95.6743C66.3558 95.6743 70.2131 105.455 77.3781 107.203C81.5523 108.265 85.9507 108.02 89.9822 106.501L92.2022 107.13C92.2022 107.13 114.957 94.1601 114.957 94.0043C114.957 93.8484 120.74 85.6042 120.74 85.6042L99.5892 73.313L64.0581 93.9597Z" fill="#7C605F"/>
<path d="M64.0581 91.182L66.3558 92.8966C66.3558 92.8966 70.2131 102.677 77.3781 104.425C81.5523 105.488 85.9507 105.243 89.9822 103.724L92.2022 104.353C92.2022 104.353 114.957 91.3825 114.957 91.2266C114.957 91.0707 120.768 82.832 120.768 82.832L99.5892 70.5353L64.0581 91.182Z" fill="#D89E8F"/>
<path d="M64.0581 93.9598V91.182L68.2983 92.5681L67.0995 94.5053L64.0581 93.9598Z" fill="#7C605F"/>
<path d="M120.768 82.832V85.6098L118.859 86.7231L117.649 85.1199L120.768 82.832Z" fill="#7C605F"/>
<path d="M70.2964 88.5657V91.1041C70.9152 92.1232 71.7712 92.9767 72.791 93.5914C73.8108 94.2061 74.9639 94.5636 76.1516 94.6333L77.7833 94.2492L81.8626 92.8075L84.3601 92.7128L87.0962 91.3657L90.5428 91.221L90.3097 89.6345" fill="#937471"/>
<path d="M71.0401 87.3689C70.9014 87.6417 70.2798 88.5713 70.2798 88.5713C70.2798 88.5713 71.2011 92.262 75.8298 93.0803C77.8493 92.6872 79.8241 92.0904 81.7239 91.299C81.7239 91.299 84.1215 91.2489 84.3601 91.0596C84.5988 90.8703 86.4691 89.9073 86.7133 89.8071C86.9575 89.7069 90.2653 89.6123 90.2653 89.6123L90.4984 87.3856" fill="#C9A293"/>
<path d="M71.495 87.3689C71.495 87.3689 70.94 88.8274 72.8381 90.2246C74.7362 91.6218 79.0763 89.9964 79.0763 89.9964" fill="#1A6677"/>
<path opacity="0.75" d="M71.495 87.3689C71.495 87.3689 70.94 88.8274 72.8381 90.2246C74.7362 91.6218 79.0763 89.9964 79.0763 89.9964" fill="#344E4F"/>
<path d="M99.073 73.5413C99.073 73.5413 90.9478 75.6009 87.418 79.3863L90.0931 82.2141L92.9624 80.8781" fill="#1A6677"/>
<path opacity="0.51" d="M99.073 73.5413C99.073 73.5413 90.9478 75.6009 87.418 79.3863L90.0931 82.2141L92.9624 80.8781" fill="#344E4F"/>
<path d="M89.133 80.0152C88.9887 79.8705 93.8616 74.8382 99.0731 73.5468C99.0731 73.5468 96.1094 85.5763 95.682 86.2944C95.2547 87.0125 90.8091 89.4118 90.8091 89.4118L89.9988 83.2884" fill="#1A6677"/>
<path opacity="0.32" d="M89.133 80.0152C88.9887 79.8705 93.8616 74.8382 99.0731 73.5468C99.0731 73.5468 96.1094 85.5763 95.682 86.2944C95.2547 87.0125 90.8091 89.4118 90.8091 89.4118L89.9988 83.2884" fill="white"/>
<path d="M80.2532 80.6833C80.1977 80.444 81.4908 76.0352 81.6795 75.9851C81.8682 75.935 86.6745 76.9425 88.8945 79.2917C91.1145 81.6408 91.9026 86.5283 90.8037 89.4063L89.1387 89.1669" fill="#1A6677"/>
<path d="M76.8066 83.2717C76.4514 83.5612 75.6966 85.6209 75.8964 86.3891C76.0962 87.1573 82.4898 90.0297 82.4898 90.0297L83.6831 90.2245L82.0181 85.5541" fill="#1A6677"/>
<path d="M80.2529 81.1342C80.2529 81.1342 81.0577 79.2025 82.8281 78.6737C82.8281 78.6737 88.7056 82.2197 89.1329 89.1669L80.2529 81.1342Z" fill="#1A6677"/>
<path opacity="0.51" d="M76.8066 83.2717C76.4514 83.5612 75.6966 85.6209 75.8964 86.3891C76.0962 87.1573 82.4898 90.0297 82.4898 90.0297L83.6831 90.2245L82.0181 85.5541" fill="#344E4F"/>
<path d="M78.5769 91.6607L82.4951 90.0297C82.4951 90.0297 79.0375 85.5764 76.1404 85.4762C73.2433 85.376 78.5769 91.6607 78.5769 91.6607Z" fill="#1A6677"/>
<path d="M81.1074 81.3568C81.1074 81.3568 86.552 84.3294 89.1327 89.1501C89.1327 89.1501 87.3623 88.8161 86.6963 89.1501C86.0303 89.4841 84.4041 90.4416 84.4041 90.4416L83.6882 90.2022" fill="#1A6677"/>
<path opacity="0.32" d="M78.5769 91.6607L82.4951 90.0297C82.4951 90.0297 79.0375 85.5764 76.1404 85.4762C73.2433 85.376 78.5769 91.6607 78.5769 91.6607Z" fill="white"/>
<path d="M77.5226 92.1394C77.5226 92.1394 73.2713 87.636 69.9746 87.0571C69.9746 87.0571 71.0846 84.7079 76.1407 85.4761C76.1407 85.4761 78.5771 88.2094 78.5771 91.6607L77.5226 92.1394Z" fill="#1A6677"/>
<path opacity="0.32" d="M81.1074 81.3568C81.1074 81.3568 86.552 84.3294 89.1327 89.1501C89.1327 89.1501 87.3623 88.8161 86.6963 89.1501C86.0303 89.4841 84.4041 90.4416 84.4041 90.4416L83.6882 90.2022" fill="white"/>
<path d="M83.117 90.2246H83.672C83.672 90.2246 84.0549 83.9454 81.0912 81.3569C81.0912 81.3569 76.0296 79.6869 74.0205 82.6483C74.0372 82.6483 80.8193 84.3295 83.117 90.2246Z" fill="#1A6677"/>
<path opacity="0.51" d="M80.2529 81.1342C80.2529 81.1342 81.0577 79.2025 82.8281 78.6737C82.8281 78.6737 88.7056 82.2197 89.1329 89.1669L80.2529 81.1342Z" fill="#344E4F"/>
<path d="M82.0181 94.5887V97.5613C82.0181 97.5613 84.2381 101.514 88.8834 101.681L90.7982 101.23L95.5823 99.5598L98.5071 99.4484L101.715 97.8675L105.755 97.7005L105.483 95.8412" fill="#937471"/>
<path d="M82.9058 93.1805C82.7448 93.4978 82.0122 94.5889 82.0122 94.5889C82.0122 94.5889 83.1222 98.9197 88.5446 99.8772C90.914 99.4171 93.2309 98.7177 95.4599 97.7897C95.4599 97.7897 98.2737 97.734 98.5512 97.5058C98.8287 97.2776 101.027 96.1531 101.326 96.0362C101.626 95.9193 105.489 95.808 105.489 95.808L105.761 93.1749" fill="#C9A293"/>
<path d="M83.4221 93.1804C83.4221 93.1804 82.745 94.895 84.9983 96.5204C87.2516 98.1459 92.3132 96.2532 92.3132 96.2532" fill="#1A6677"/>
<path opacity="0.75" d="M83.4221 93.1804C83.4221 93.1804 82.745 94.895 84.9983 96.5204C87.2516 98.1459 92.3132 96.2532 92.3132 96.2532" fill="#344E4F"/>
<path d="M115.757 76.9758C115.757 76.9758 106.233 79.3918 102.087 83.834L105.223 87.174L108.586 85.6097" fill="#1A6677"/>
<path opacity="0.51" d="M115.757 76.9758C115.757 76.9758 106.233 79.3918 102.087 83.834L105.223 87.174L108.586 85.6097" fill="#344E4F"/>
<path d="M104.101 84.5577C103.935 84.3907 109.651 78.49 115.756 76.9703C115.756 76.9703 112.282 91.0763 111.777 91.9168C111.272 92.7574 106.06 95.5686 106.06 95.5686L105.106 88.3764" fill="#1A6677"/>
<path opacity="0.32" d="M104.101 84.5577C103.935 84.3907 109.651 78.49 115.756 76.9703C115.756 76.9703 112.282 91.0763 111.777 91.9168C111.272 92.7574 106.06 95.5686 106.06 95.5686L105.106 88.3764" fill="white"/>
<path d="M93.6898 85.3482C93.6287 85.0698 95.1383 79.8984 95.3548 79.8427C95.5712 79.787 101.182 80.956 103.813 83.7394C106.444 86.5227 107.343 92.223 106.033 95.5964L104.074 95.318" fill="#1A6677"/>
<path d="M89.6491 88.382C89.2328 88.7215 88.3615 91.1375 88.5835 92.0337C88.8055 92.9299 96.3146 96.3033 96.3146 96.3033L97.7132 96.5315L95.7541 91.054" fill="#1A6677"/>
<path d="M93.6895 85.8714C93.6895 85.8714 94.633 83.6058 96.7087 82.9879C96.7087 82.9879 103.602 87.1462 104.101 95.2958L93.6895 85.8714Z" fill="#1A6677"/>
<path opacity="0.51" d="M89.6491 88.382C89.2328 88.7215 88.3615 91.1375 88.5835 92.0337C88.8055 92.9299 96.3146 96.3033 96.3146 96.3033L97.7132 96.5315L95.7541 91.054" fill="#344E4F"/>
<path d="M91.7193 98.2127L96.3147 96.3033C96.3147 96.3033 92.2577 91.0818 88.8611 90.9649C85.4645 90.848 91.7193 98.2127 91.7193 98.2127Z" fill="#1A6677"/>
<path d="M94.6885 86.1331C94.6885 86.1331 101.077 89.6178 104.123 95.2902C104.123 95.2902 102.053 94.895 101.265 95.2902C100.477 95.6855 98.5735 96.8099 98.5735 96.8099L97.7354 96.5316" fill="#1A6677"/>
<path opacity="0.32" d="M91.7193 98.2127L96.3147 96.3033C96.3147 96.3033 92.2577 91.0818 88.8611 90.9649C85.4645 90.848 91.7193 98.2127 91.7193 98.2127Z" fill="white"/>
<path d="M90.465 98.7749C90.465 98.7749 85.47 93.4921 81.6128 92.8186C81.6128 92.8186 82.9004 90.0631 88.8278 90.9649C88.8278 90.9649 91.686 94.1657 91.686 98.2016L90.465 98.7749Z" fill="#1A6677"/>
<path opacity="0.32" d="M94.6885 86.1331C94.6885 86.1331 101.077 89.6178 104.123 95.2902C104.123 95.2902 102.053 94.895 101.265 95.2902C100.477 95.6855 98.5735 96.8099 98.5735 96.8099L97.7354 96.5316" fill="white"/>
<path d="M97.0419 96.5316H97.7134C97.7134 96.5316 98.163 89.1669 94.6887 86.1331C94.6887 86.1331 88.7557 84.1681 86.397 87.6528C86.397 87.6472 94.3501 89.6234 97.0419 96.5316Z" fill="#1A6677"/>
<path opacity="0.51" d="M93.6895 85.8714C93.6895 85.8714 94.633 83.6058 96.7087 82.9879C96.7087 82.9879 103.602 87.1462 104.101 95.2958L93.6895 85.8714Z" fill="#344E4F"/>
<defs>
<linearGradient id="paint0_linear_australia" x1="111" y1="61.2333" x2="111" y2="134.713" gradientUnits="userSpaceOnUse">
<stop stop-color="#6CCF49"/>
<stop offset="1" stop-color="#D8D800"/>
</linearGradient>
</defs>
</svg>
