<svg width="920" height="548" viewBox="0 0 920 548" fill="none" xmlns="http://www.w3.org/2000/svg">
<rect width="920" height="548" fill="#2F3991"/>
<path fill-rule="evenodd" clip-rule="evenodd" d="M202 -5.02681e-06L208 18.4094C215 36.3906 228 73.2094 221 109.6C215 145.991 189 182.809 164 219.2C138 255.591 112 292.409 112 328.8C112 365.191 138 402.009 176 438.4C215 474.791 266 511.609 292 529.591L317 548L10 548L10 529.591C10 511.609 10 474.791 10 438.4C10 402.009 10 365.191 10 328.8C10 292.409 10 255.591 10 219.2C10 182.809 10 145.991 10.0001 109.6C10.0001 73.2094 10.0001 36.3906 10.0001 18.4094L10.0001 -1.34194e-05L202 -5.02681e-06Z" fill="#3B459D"/>
<path fill-rule="evenodd" clip-rule="evenodd" d="M192 -5.02681e-06L198 18.4094C205 36.3906 218 73.2094 211 109.6C205 145.991 179 182.809 154 219.2C128 255.591 102 292.409 102 328.8C102 365.191 128 402.009 166 438.4C205 474.791 256 511.609 282 529.591L307 548L3.0942e-05 548L3.17467e-05 529.591C3.25327e-05 511.609 3.41421e-05 474.791 3.57328e-05 438.4C3.73235e-05 402.009 3.89329e-05 365.191 4.05236e-05 328.8C4.21143e-05 292.409 4.37237e-05 255.591 4.53143e-05 219.2C4.6905e-05 182.809 4.85144e-05 145.991 5.01051e-05 109.6C5.16958e-05 73.2094 5.33052e-05 36.3906 5.40912e-05 18.4094L5.48959e-05 -1.34194e-05L192 -5.02681e-06Z" fill="#424CA6"/>
</svg>
