<svg width="1349" height="1338" viewBox="0 0 1349 1338" fill="none" xmlns="http://www.w3.org/2000/svg">
<rect width="1349" height="1338" fill="#2F3991"/>
<path fill-rule="evenodd" clip-rule="evenodd" d="M296.193 -8.22867e-06L304.991 44.9484C315.255 88.8516 334.317 178.748 324.053 267.6C315.255 356.452 277.131 446.348 240.474 535.2C202.35 624.052 164.226 713.948 164.226 802.8C164.226 891.652 202.35 981.548 258.069 1070.4C315.255 1159.25 390.037 1249.15 428.161 1293.05L464.818 1338L14.663 1338L14.663 1293.05C14.663 1249.15 14.663 1159.25 14.663 1070.4C14.663 981.548 14.663 891.652 14.663 802.8C14.663 713.948 14.663 624.052 14.663 535.2C14.663 446.348 14.663 356.452 14.663 267.6C14.663 178.748 14.663 88.8515 14.663 44.9484L14.663 -2.1967e-05L296.193 -8.22867e-06Z" fill="#3B459D"/>
<path fill-rule="evenodd" clip-rule="evenodd" d="M281.531 -8.22867e-06L290.329 44.9484C300.593 88.8516 319.655 178.748 309.391 267.6C300.593 356.452 262.469 446.348 225.811 535.2C187.687 624.052 149.563 713.948 149.563 802.8C149.563 891.652 187.687 981.548 243.407 1070.4C300.593 1159.25 375.374 1249.15 413.498 1293.05L450.156 1338L0.000374857 1338L0.000376617 1293.05C0.000378336 1249.15 0.000381856 1159.25 0.000385335 1070.4C0.000388814 981.548 0.000392334 891.652 0.000395813 802.8C0.000399292 713.948 0.000402812 624.052 0.000406291 535.2C0.00040977 446.348 0.000413289 356.452 0.000416768 267.6C0.000420247 178.748 0.000423767 88.8515 0.000425486 44.9484L0.000427246 -2.1967e-05L281.531 -8.22867e-06Z" fill="#424CA6"/>
</svg>
