<svg width="1349" height="898" viewBox="0 0 1349 898" fill="none" xmlns="http://www.w3.org/2000/svg">
<rect width="1349" height="897.052" fill="#2F3991"/>
<path fill-rule="evenodd" clip-rule="evenodd" d="M296.193 -8.22867e-06L304.991 30.1353C315.255 59.5699 334.317 119.841 324.053 179.41C315.255 238.98 277.131 299.251 240.474 358.821C202.35 418.391 164.226 478.661 164.226 538.231C164.226 597.801 202.35 658.072 258.069 717.642C315.255 777.212 390.037 837.482 428.161 866.917L464.818 897.052L14.663 897.052L14.663 866.917C14.663 837.482 14.663 777.212 14.663 717.642C14.663 658.072 14.663 597.801 14.663 538.231C14.663 478.661 14.663 418.391 14.663 358.821C14.663 299.251 14.663 238.98 14.663 179.41C14.663 119.841 14.663 59.5698 14.663 30.1353L14.663 -2.1967e-05L296.193 -8.22867e-06Z" fill="#3B459D"/>
<path fill-rule="evenodd" clip-rule="evenodd" d="M281.531 -8.22867e-06L290.329 30.1353C300.593 59.5699 319.655 119.841 309.391 179.41C300.593 238.98 262.469 299.251 225.811 358.821C187.687 418.391 149.563 478.661 149.563 538.231C149.563 597.801 187.687 658.072 243.407 717.642C300.593 777.212 375.374 837.482 413.498 866.917L450.156 897.052L0.000379009 897.052L0.000380189 866.917C0.000381342 837.482 0.000383702 777.212 0.000386034 717.642C0.000388367 658.072 0.000390726 597.801 0.000393059 538.231C0.000395391 478.661 0.000397751 418.391 0.000400084 358.821C0.000402416 299.251 0.000404776 238.98 0.000407108 179.41C0.000409441 119.841 0.000411801 59.5698 0.000412953 30.1353L0.000414133 -2.1967e-05L281.531 -8.22867e-06Z" fill="#424CA6"/>
</svg>
