<svg width="271" height="198" viewBox="0 0 271 198" fill="none" xmlns="http://www.w3.org/2000/svg">
<g>
<path d="M28.3898 46.9255C18.3703 53.3926 18.1301 73.1603 18.1301 73.1603C18.1301 73.1603 15.2096 74.4246 13.3068 73.2741C11.4041 72.1236 8.0537 72.2247 6.47334 74.8988C5.73834 76.1973 4.56358 77.1905 3.16091 77.6993C2.93712 77.7807 2.70653 77.842 2.47187 77.8826C-8.84982 59.8343 22.239 40.8251 22.239 40.8251C24.167 39.8579 29.0788 33.7512 33.0423 33.9282C33.6593 33.9141 34.2725 34.0275 34.8436 34.2614C35.4147 34.4953 35.9313 34.8446 36.3611 35.2874C36.8346 35.8176 37.1365 36.4788 37.2271 37.1839C37.2271 37.1839 38.4156 40.4901 28.3898 46.9255Z" fill="#5396FA"/>
<path d="M28.3897 46.9255C18.3702 53.3926 18.13 73.1603 18.13 73.1603C18.13 73.1603 15.2095 74.4246 13.3067 73.2741C11.404 72.1236 8.05359 72.2247 6.47323 74.8988C5.73823 76.1973 4.56347 77.1905 3.1608 77.6993C-6.2139 59.9987 23.5917 41.7544 23.5917 41.7544C25.4881 40.7682 30.4188 34.6805 34.3887 34.8575C35.0652 34.8769 35.733 35.016 36.361 35.2684C36.8345 35.7987 37.1364 36.4598 37.227 37.1649C37.227 37.1649 38.4155 40.4901 28.3897 46.9255Z" fill="url(#paint0_linear_diver_log)"/>
<path opacity="0.27" d="M267.776 173.655C264.925 181.286 260.133 187.828 253.148 192.336C228.558 208.19 180.205 184.864 137.655 192.848C102.255 199.486 50.7294 195.585 28.3894 175.331C23.8633 171.222 20.5319 166.442 18.7808 160.943C8.90043 129.891 43.6683 117.614 51.5638 47.9749C53.4602 31.2731 62.8286 16.2213 77.2921 7.64917C84.6372 3.32311 92.9003 0.793205 101.408 0.265501C138.25 -2.35166 144.331 15.6587 189.074 7.10551C233.817 -1.44766 245.904 22.5619 245.904 43.6509C245.904 64.7399 236.883 86.1133 256.018 110.736C269.761 128.361 274.982 154.444 267.776 173.655Z" fill="#5396FA"/>
<path d="M221.971 46.7296C221.971 54.0058 219.695 53.6391 219.347 54.4736C219.082 55.1057 214.979 56.4396 212.495 56.7999C211.932 56.934 211.345 56.934 210.782 56.7999C209.612 56.231 210.194 54.3471 210.681 53.0954C211.167 51.8438 214.132 51.8943 217.084 50.0547C220.036 48.2151 215.668 16.6891 215.662 13.149C215.656 9.60889 219.84 10.8795 219.84 10.8795C219.84 10.8795 219.84 10.9428 219.84 11.0565C220.03 13.4524 221.971 39.7884 221.971 46.7296Z" fill="#5396FA"/>
<path d="M221.971 46.7296C221.971 54.0058 219.695 53.6391 219.347 54.4736C219.082 55.1057 214.979 56.4396 212.495 56.7999C211.932 56.016 212.413 54.5052 212.824 53.4495C213.31 52.1851 216.275 52.2547 219.227 50.4151C222.179 48.5755 217.811 17.0495 217.805 13.503C217.805 11.7519 218.823 11.1767 219.853 11.0502C220.03 13.4525 221.971 39.7884 221.971 46.7296Z" fill="url(#paint1_linear_diver_log)"/>
<path opacity="0.27" d="M87.3116 37.3672C91.8757 33.1507 97.5144 30.287 103.235 27.8847C114.241 23.232 126.378 20.0269 138.111 22.2964C143.206 23.2826 148.054 25.2739 152.783 27.4296C162.859 32.0191 172.79 37.6011 179.965 46.0405C187.14 54.4799 191.122 66.2697 187.911 76.8837C185.382 85.2093 178.745 92.1947 178.018 100.862C177.228 110.224 183.518 118.562 189.504 125.788C191.053 127.684 192.703 129.581 194.966 130.51C197.551 131.534 200.453 131.016 203.221 130.757C213.687 129.793 224.125 132.872 232.392 139.362C240.659 145.853 246.127 155.262 247.674 165.658C248.357 170.254 248.028 175.508 244.677 178.725C242.516 180.793 239.475 181.64 236.529 182.139C221.914 184.63 207.09 180.483 192.703 176.905C173.346 172.088 153.301 168.219 133.534 170.899C116.839 173.169 100.119 180.059 83.6705 176.412C76.2554 174.768 68.7898 170.324 66.4951 163.086C65.3699 159.533 65.6101 155.677 66.3624 152.029C69.6685 135.953 81.9826 123.582 92.7607 111.179C95.4789 108.062 98.3046 104.345 97.742 100.249C97.0277 95.0584 91.509 92.2832 87.3179 89.1477C70.8948 76.8079 73.0568 50.5352 87.3116 37.3672Z" fill="#5396FA"/>
<path d="M174.705 45.029L190.389 47.4502L187.797 49.176H180.344L141.929 55.9275L139.931 52.1409L174.705 45.029Z" fill="#5396FA"/>
<path d="M174.705 45.029L190.389 47.4502L187.797 49.176H180.344L141.929 55.9275L139.931 52.1409L174.705 45.029Z" fill="url(#paint2_linear_diver_log)"/>
<path d="M189.567 51.2811C189.567 51.2811 194.353 46.6221 196.255 37.9045C198.158 29.187 207.697 28.675 211.174 30.4956C214.651 32.3162 217.641 38.3407 215.068 46.6347C212.495 54.9287 203.494 53.4621 199.397 51.8121C198.579 52.327 197.875 53.0055 197.331 53.8051C196.788 54.6047 196.415 55.5081 196.237 56.4585C196.237 56.4585 186.837 58.3803 189.567 51.2811Z" fill="url(#paint3_linear_diver_log)"/>
<path d="M202.438 39.447C202.355 40.2056 202.355 41.0464 201.806 41.5964C201.538 41.8385 201.227 42.0273 200.889 42.1527L194.068 45.206C193.929 45.0289 193.844 44.8152 193.824 44.5907C193.803 44.3663 193.849 44.1408 193.954 43.9417C194.138 43.5245 194.428 43.1641 194.586 42.7406C194.741 42.1361 194.795 41.5102 194.744 40.8883C194.772 40.1966 194.863 39.5089 195.016 38.8338C195.434 36.8362 196.281 34.6426 198.133 33.8334C198.906 33.5494 199.724 33.4059 200.548 33.4098C201.717 33.3403 206.035 32.4173 205.346 34.3518C205.093 35.0598 203.879 35.8184 203.449 36.5264C202.905 37.4153 202.56 38.4118 202.438 39.447Z" fill="#5396FA"/>
<path d="M202.438 39.447C202.355 40.2056 202.355 41.0464 201.806 41.5964C201.538 41.8385 201.227 42.0273 200.889 42.1527L194.068 45.206C193.929 45.0289 193.844 44.8152 193.824 44.5907C193.803 44.3663 193.849 44.1408 193.954 43.9417C194.138 43.5245 194.428 43.1641 194.586 42.7406C194.741 42.1361 194.795 41.5102 194.744 40.8883C194.772 40.1966 194.863 39.5089 195.016 38.8338C195.434 36.8362 196.281 34.6426 198.133 33.8334C198.906 33.5494 199.724 33.4059 200.548 33.4098C201.717 33.3403 206.035 32.4173 205.346 34.3518C205.093 35.0598 203.879 35.8184 203.449 36.5264C202.905 37.4153 202.56 38.4118 202.438 39.447Z" fill="url(#paint4_linear_diver_log)"/>
<path d="M195.471 36.6086C197.019 37.4163 198.708 37.9185 200.446 38.0879L202.197 38.6568L201.287 45.0354L199.391 44.6118C199.391 44.6118 195.699 43.8216 194.567 42.8607C193.436 41.8998 193.303 38.7896 195.471 36.6086Z" fill="#5396FA"/>
<path d="M195.471 36.6086C197.019 37.4163 198.708 37.9185 200.446 38.0879L202.197 38.6568L201.287 45.0354L199.391 44.6118C199.391 44.6118 195.699 43.8216 194.567 42.8607C193.436 41.8998 193.303 38.7896 195.471 36.6086Z" fill="url(#paint5_linear_diver_log)"/>
<path d="M194.018 42.0326C194.018 42.0326 197.52 43.436 200.029 43.398C202.539 43.3601 202.703 45.0353 202.703 45.0353C202.703 45.0353 199.353 44.7951 198.651 44.4032C197.949 44.0112 194.391 43.5181 194.018 42.0326Z" fill="url(#paint6_linear_diver_log)"/>
<path d="M204.448 35.7805C203.026 35.8563 199.947 37.8476 200.213 39.8263C200.478 41.805 199.17 43.4676 201.047 45.5853C202.924 47.7031 204.992 48.4048 208.633 46.9445C212.274 45.4842 212.596 44.2831 214.36 46.3692C216.124 48.4553 218.633 45.952 218.633 45.952C218.633 45.952 219.897 40.8947 218.835 38.3091C217.691 35.4328 206.376 35.6793 204.448 35.7805Z" fill="#5396FA"/>
<path d="M206.401 35.7805C205.169 35.8563 202.495 37.8476 202.722 39.8263C202.95 41.805 201.818 43.4676 203.449 45.5853C205.08 47.7031 206.876 48.4048 210.03 46.9445C213.184 45.4842 213.475 44.2831 215.005 46.3692C216.535 48.4553 218.716 45.952 218.716 45.952C218.716 45.952 219.79 40.8947 218.886 38.3091C217.894 35.4328 208.07 35.6793 206.401 35.7805Z" fill="url(#paint7_linear_diver_log)"/>
<path d="M205.302 37.0764C208.064 36.4443 216.939 36.4443 218.343 38.7137C219.746 40.9832 218.381 45.8951 217.711 45.8951C217.04 45.8951 216.257 46.5968 213.633 44.7825C211.01 42.9682 209.057 46.3313 206.452 46.3692C200.769 46.4577 202.539 37.7212 205.302 37.0764Z" fill="url(#paint8_linear_diver_log)"/>
<path d="M205.839 50.0674C205.045 50.7111 204.452 51.5689 204.13 52.5391C203.809 53.5093 203.772 54.5514 204.024 55.5419C204.382 56.5984 205.096 57.4977 206.044 58.0858C206.992 58.6739 208.115 58.9144 209.221 58.7659C210.316 58.56 211.311 57.993 212.047 57.1554C212.782 56.3177 213.216 55.2578 213.279 54.1448C213.255 53.0316 213.041 51.9306 212.647 50.8892C212.166 49.334 211.73 48.468 210.03 48.5375C208.503 48.576 207.031 49.1134 205.839 50.0674Z" fill="#5396FA"/>
<path d="M205.839 50.0674C205.045 50.7111 204.452 51.5689 204.13 52.5391C203.809 53.5093 203.772 54.5514 204.024 55.5419C204.382 56.5984 205.096 57.4977 206.044 58.0858C206.992 58.6739 208.115 58.9144 209.221 58.7659C210.316 58.56 211.311 57.993 212.047 57.1554C212.782 56.3177 213.216 55.2578 213.279 54.1448C213.255 53.0316 213.041 51.9306 212.647 50.8892C212.166 49.334 211.73 48.468 210.03 48.5375C208.503 48.576 207.031 49.1134 205.839 50.0674Z" fill="#5396FA"/>
<path d="M207.703 50.0674C206.911 50.7121 206.319 51.5699 205.997 52.5398C205.676 53.5098 205.638 54.5513 205.889 55.5419C206.247 56.5984 206.961 57.4977 207.909 58.0858C208.857 58.6739 209.98 58.9144 211.085 58.7659C212.182 58.5602 213.177 57.9934 213.914 57.1559C214.651 56.3184 215.086 55.2584 215.15 54.1448C215.122 53.0319 214.909 51.9315 214.518 50.8892C214.031 49.334 213.601 48.468 211.894 48.5375C210.368 48.5779 208.897 49.115 207.703 50.0674Z" fill="#5396FA"/>
<path d="M207.703 50.0674C206.911 50.7121 206.319 51.5699 205.997 52.5398C205.676 53.5098 205.638 54.5513 205.889 55.5419C206.247 56.5984 206.961 57.4977 207.909 58.0858C208.857 58.6739 209.98 58.9144 211.085 58.7659C212.182 58.5602 213.177 57.9934 213.914 57.1559C214.651 56.3184 215.086 55.2584 215.15 54.1448C215.122 53.0319 214.909 51.9315 214.518 50.8892C214.031 49.334 213.601 48.468 211.894 48.5375C210.368 48.5779 208.897 49.115 207.703 50.0674Z" fill="url(#paint9_linear_diver_log)"/>
<path d="M127.061 60.3527C127.061 60.3527 114.519 59.1326 106.643 65.2267C98.7663 71.3207 87.4636 80.2405 77.2166 77.8699C66.9695 75.4993 34.3066 88.6167 34.3066 88.6167C34.3066 88.6167 34.1676 94.4136 37.2082 94.3504L96.6297 91.8218C96.6297 91.8218 129.229 88.0288 134.881 84.8996C134.925 84.9375 132.788 70.4104 127.061 60.3527Z" fill="#5396FA"/>
<path d="M127.061 60.3527C127.061 60.3527 114.519 59.1326 106.643 65.2267C98.7663 71.3207 87.4636 80.2405 77.2166 77.8699C66.9695 75.4993 34.3066 88.6167 34.3066 88.6167C34.3066 88.6167 34.1676 94.4136 37.2082 94.3504L96.6297 91.8218C96.6297 91.8218 129.229 88.0288 134.881 84.8996C134.925 84.9375 132.788 70.4104 127.061 60.3527Z" fill="url(#paint10_linear_diver_log)"/>
<path d="M44.5786 40.8251C44.5786 40.8251 40.9059 44.9974 41.0766 46.6916L70.5787 59.455C70.5787 59.455 81.0723 63.0647 85.4025 65.7261C89.7327 68.3875 117.319 87.6622 132.655 80.9296C147.991 74.1971 127.061 60.3527 127.061 60.3527C127.061 60.3527 113.293 57.2298 98.9367 58.0137C84.5807 58.7976 82.8233 51.6415 77.5639 49.0875C72.3045 46.5336 44.5786 40.8251 44.5786 40.8251Z" fill="#5396FA"/>
<path d="M44.5786 40.8251C44.5786 40.8251 40.9059 44.9974 41.0766 46.6916L70.5787 59.455C70.5787 59.455 81.0723 63.0647 85.4025 65.7261C89.7327 68.3875 117.319 87.6622 132.655 80.9296C147.991 74.1971 127.061 60.3527 127.061 60.3527C127.061 60.3527 113.293 57.2298 98.9367 58.0137C84.5807 58.7976 82.8233 51.6415 77.5639 49.0875C72.3045 46.5336 44.5786 40.8251 44.5786 40.8251Z" fill="url(#paint11_linear_diver_log)"/>
<path d="M44.5788 40.8251L36.2282 36.6971L31.9928 40.8315L30.9751 43.0693C30.9751 43.0693 40.1538 42.6331 42.6255 46.0974L44.5788 40.8251Z" fill="url(#paint12_linear_diver_log)"/>
<path d="M34.3253 88.6547L20.5762 92.6879L22.9404 102.935C22.9404 102.935 24.5207 96.6136 28.5475 95.0522C30.704 94.1549 32.9598 93.5183 35.2672 93.1557C35.2672 93.1557 37.9285 90.2288 34.3253 88.6547Z" fill="url(#paint13_linear_diver_log)"/>
<path d="M46.2351 134.986C46.2351 135.245 44.6611 135.858 39.9137 136.649C35.1663 137.439 31.5062 142.869 31.6958 143.918C31.8855 144.968 30.6465 145.492 30.6465 145.492C25.918 145.847 18.3829 136.01 18.1237 129.903C17.8645 123.797 15.7532 111.779 13.9579 103.454C13.1108 99.5342 13.2246 97.6187 13.8251 96.4429C14.4952 95.1153 15.7721 94.7297 16.9859 93.478C19.2616 91.1138 22.6751 92.081 22.6751 92.081C22.1252 112.835 30.5769 123.948 38.1121 129.379C40.9378 131.414 42.7899 132.672 43.9973 133.469C45.9949 134.79 46.2351 134.822 46.2351 134.986Z" fill="#5396FA"/>
<path d="M43.9783 133.469C43.0616 133.677 41.8922 133.905 40.4066 134.158C35.6782 134.948 30.6084 141.541 30.7854 142.591C30.9624 143.64 29.7108 144.165 29.7108 144.165C24.9823 144.519 18.8379 133.545 18.5787 127.413C18.3196 121.281 16.2082 109.288 14.4129 100.963C14.0499 99.4815 13.8381 97.967 13.7808 96.4429C14.4508 95.1153 15.7278 94.7297 16.9415 93.478C19.2172 91.1138 22.6308 92.081 22.6308 92.081C22.0808 112.835 30.5326 123.948 38.0677 129.379C40.9187 131.414 42.7709 132.672 43.9783 133.469Z" fill="url(#paint14_linear_diver_log)"/>
<path d="M197.981 58.8228C197.981 58.8228 212.097 69.3104 221.37 71.2385L225.757 73.9252L224.493 78.5969L209.638 77.2251C209.638 77.2251 191.078 69.7087 190.534 68.7099C189.991 67.7111 190.705 56.389 197.981 58.8228Z" fill="#5396FA"/>
<path d="M225.764 73.9189L224.5 78.5906L209.644 77.2188C209.644 77.2188 191.085 69.7024 190.541 68.7036C190.313 68.2863 190.313 66.0422 190.92 63.76C190.816 64.4767 190.852 65.2068 191.028 65.9094C191.565 66.9082 210.125 74.4246 210.125 74.4246L224.986 75.7964L225.536 73.7735L225.764 73.9189Z" fill="url(#paint15_linear_diver_log)"/>
<path d="M225.764 73.9189C225.764 73.9189 233.071 72.1868 234.974 74.924C236.099 76.5487 236.649 79.2101 236.902 81.1003C236.933 81.3357 236.904 81.5752 236.816 81.7957C236.728 82.0163 236.584 82.2105 236.4 82.3597C236.215 82.5089 235.995 82.6081 235.761 82.6477C235.527 82.6873 235.286 82.666 235.063 82.5859L230.89 82.2255L228.608 78.8687L224.487 78.5906L225.764 73.9189Z" fill="url(#paint16_linear_diver_log)"/>
<path d="M109.121 46.3187L110.183 50.7438C110.587 52.4012 111.604 53.8441 113.029 54.7824C114.454 55.7206 116.181 56.0846 117.863 55.8011L171.873 46.8117C171.873 46.8117 177.512 44.6624 177.291 39.3396C177.07 34.0167 174.162 28.8014 165.072 29.7876C158.15 30.5335 128.344 35.6857 114.5 38.1005C113.595 38.2621 112.732 38.607 111.964 39.1141C111.197 39.6211 110.541 40.2796 110.038 41.0492C109.534 41.8187 109.193 42.6831 109.035 43.5892C108.877 44.4954 108.906 45.4242 109.121 46.3187Z" fill="#5396FA"/>
<path d="M177.291 39.3332C177.512 44.6561 171.873 46.8054 171.873 46.8054L117.863 55.8327C116.181 56.1162 114.453 55.7522 113.029 54.814C111.604 53.8757 110.587 52.4329 110.182 50.7754L110.069 50.2886L109.936 49.745L109.12 46.3503C108.907 45.454 108.878 44.5234 109.038 43.6158C109.197 42.7082 109.54 41.8428 110.047 41.0729C110.553 40.3031 111.212 39.645 111.982 39.1392C112.752 38.6335 113.618 38.2907 114.525 38.1321C128.344 35.7173 158.143 30.5462 165.097 29.8192C173.315 28.9278 176.475 33.0748 177.164 37.8034C177.234 38.3108 177.276 38.8214 177.291 39.3332Z" fill="url(#paint17_linear_diver_log)"/>
<path d="M177.291 39.3332C177.512 44.656 171.874 46.8054 171.874 46.8054L117.863 55.8327C116.181 56.1161 114.454 55.7522 113.029 54.8139C111.604 53.8757 110.587 52.4328 110.183 50.7754L110.069 50.2886C110.568 50.7564 112.452 51.1484 119.071 49.745C129.393 47.545 170.445 40.8567 170.445 40.8567C170.445 40.8567 175.749 40.351 177.139 37.7971C177.217 38.306 177.268 38.8188 177.291 39.3332Z" fill="url(#paint18_linear_diver_log)"/>
<path d="M152.601 29.9856L145.76 31.0911C143.783 31.4106 142.44 33.2724 142.759 35.2495L145.762 53.8307C146.082 55.8078 147.943 57.1515 149.92 56.832L156.761 55.7264C158.738 55.4069 160.081 53.5452 159.762 51.5681L156.759 32.9868C156.439 31.0097 154.578 29.666 152.601 29.9856Z" fill="#5396FA"/>
<path d="M156.481 54.9034L149.666 56.035C149.197 56.1136 148.718 56.0989 148.255 55.9917C147.792 55.8845 147.354 55.6869 146.968 55.4103C146.581 55.1336 146.253 54.7834 146.003 54.3796C145.752 53.9759 145.583 53.5266 145.507 53.0575L142.428 34.5414C142.299 33.7445 142.439 32.9273 142.826 32.2188C143.213 31.5103 143.825 30.9507 144.565 30.6283C144.83 30.5118 145.108 30.427 145.393 30.3755L152.207 29.2439C153.154 29.0885 154.123 29.3147 154.902 29.8729C155.682 30.431 156.209 31.2756 156.367 32.2214L159.439 50.7375C159.598 51.6821 159.376 52.6514 158.822 53.4325C158.267 54.2135 157.425 54.7426 156.481 54.9034Z" fill="url(#paint19_linear_diver_log)"/>
<path d="M156.481 54.9034L149.667 56.035C149.008 56.1441 148.332 56.0697 147.713 55.8201L144.003 33.4478C143.835 32.4707 144.035 31.4662 144.565 30.6283C144.83 30.5118 145.108 30.427 145.393 30.3755L152.208 29.2439C153.154 29.0885 154.123 29.3147 154.903 29.8729C155.683 30.431 156.209 31.2756 156.367 32.2214L159.439 50.7375C159.599 51.6821 159.377 52.6514 158.822 53.4325C158.267 54.2135 157.425 54.7426 156.481 54.9034Z" fill="url(#paint20_linear_diver_log)"/>
<path d="M177.765 35.5149L177.095 31.2478L178.22 31.1024L178.846 35.3379L177.765 35.5149Z" fill="#5396FA"/>
<path opacity="0.27" d="M267.776 173.655C264.925 181.286 260.134 187.828 253.148 192.336C246.328 196.761 237.674 198.114 227.863 197.987C202.21 197.659 168.441 187.076 137.687 192.848C123.62 195.357 109.317 196.292 95.043 195.636C68.8027 194.517 42.6699 188.246 28.4214 175.331C28.4214 175.331 131.056 155.184 189.049 167.277C247.042 179.37 267.776 173.655 267.776 173.655Z" fill="#5396FA"/>
<path d="M70.7998 169.483C68.8654 166.171 65.9576 163.547 63.5744 160.544C57.7018 153.154 55.3565 141.864 61.147 134.411C64.0967 136.796 66.3862 139.897 67.7971 143.419C68.7769 145.891 70.1108 149.108 72.7594 148.9C75.4081 148.691 76.173 145.385 76.35 142.818L77.3867 128.279C77.5384 126.161 77.8988 123.695 79.7509 122.659C80.7302 122.171 81.852 122.052 82.9117 122.324C87.6338 123.304 90.2825 128.702 90.0486 133.513C89.8147 138.324 87.4884 142.749 85.5856 147.174C83.8192 151.268 82.3798 155.496 81.2807 159.817C80.9014 161.297 80.5664 162.877 81.0405 164.331C81.5146 165.785 83.1076 166.98 84.5489 166.48C86.7298 165.722 87.1407 161.91 89.4417 161.992C90.0122 162.038 90.5487 162.282 90.9589 162.681C93.4432 164.925 92.0588 169.173 89.6946 171.531C87.3303 173.889 84.157 175.602 82.6588 178.593C81.4641 180.995 81.5715 183.808 81.6853 186.488C81.7548 188.006 81.6853 189.782 80.4779 190.68C75.8759 194.049 74.3398 185.426 74.1565 183.094C73.8594 178.378 73.183 173.592 70.7998 169.483Z" fill="#24A200"/>
<path d="M233.583 167.473C230.979 165.374 228.046 163.68 225.555 161.455C223.064 159.229 220.972 156.252 220.801 152.908C220.631 149.564 222.951 145.954 226.282 145.657C228.223 145.467 230.663 146.169 231.794 144.576C232.205 143.861 232.388 143.039 232.319 142.218C232.376 137.161 231.864 132.034 232.913 127.09C233.963 122.147 236.984 117.209 241.795 115.648C243.407 115.123 245.335 115.06 246.643 116.141C248.584 117.759 248.116 120.794 247.579 123.259C245.96 130.607 245.222 138.122 245.379 145.644C245.455 149.374 246.011 153.565 248.944 155.835L254.438 149.222C254.58 148.994 254.769 148.799 254.993 148.65C255.216 148.501 255.469 148.4 255.734 148.356C256.13 148.394 256.497 148.579 256.764 148.875C259.76 151.694 258.212 156.802 255.677 160.051C253.142 163.301 249.703 166.246 249.14 170.33C248.767 173.049 249.772 175.748 250.708 178.34C252.604 183.681 250.417 194.473 244.867 186.337C240.455 179.863 240.429 172.998 233.583 167.473Z" fill="#24A200"/>
<path opacity="0.27" d="M227.831 197.994C202.179 197.665 168.409 187.083 137.656 192.854C123.588 195.364 109.285 196.299 95.0112 195.642L92.5396 195.01C93.5636 193.689 95.4537 193.493 97.1226 193.404L119.064 192.203C125.563 191.843 131.815 192.032 138.098 189.858C141.454 188.615 144.723 187.15 147.884 185.471L161.001 178.883C165.47 176.633 169.977 174.37 174.807 173.055C180.566 171.481 186.634 171.297 192.583 171.791C197.308 172.115 201.978 173.009 206.49 174.452C215.035 177.327 222.542 182.66 228.071 189.782C228.903 190.722 229.499 191.847 229.81 193.063C230.145 194.871 229.234 196.71 227.831 197.994Z" fill="#5396FA"/>
<path d="M222.369 81.3152C222.369 81.3152 224.986 81.1951 226.219 79.5389C227.374 78.1642 228.666 76.9103 230.075 75.7964C230.459 75.8695 230.811 76.0623 231.079 76.3474C231.347 76.6324 231.518 76.995 231.567 77.3832C232.179 77.7072 232.761 78.0859 233.305 78.5147C234.304 79.2797 235.05 82.3457 234.797 83.5025C234.409 84.8286 233.938 86.1291 233.387 87.3966C233.387 87.3966 230.107 89.6345 227.192 88.1426C225.501 87.2533 223.572 86.9193 221.68 87.188C221.68 87.188 223.526 82.3204 222.369 81.3152Z" fill="url(#paint21_linear_diver_log)"/>
<path d="M190.528 49.0875C190.528 49.0875 196.571 54.1448 197.981 58.8165C199.391 63.4882 199.555 72.9138 186.173 77.8826C172.79 82.8514 144.565 92.9218 133.18 85.6645C121.795 78.4073 127.08 60.378 127.08 60.378C127.08 60.378 128.926 54.7833 134.084 55.0488C139.242 55.3143 145.646 57.7229 152.283 55.7569C158.921 53.7908 169.655 49.8588 173.561 49.6881C177.468 49.5174 190.528 49.0875 190.528 49.0875Z" fill="#5396FA"/>
<path d="M186.172 77.8826C172.79 82.8514 144.565 92.9218 133.18 85.6645C125.897 81.0181 125.436 71.9592 126.043 66.0295C126.593 70.7075 128.445 75.5942 133.18 78.6096C144.558 85.8605 172.79 75.7965 186.172 70.8276C193.903 67.9576 197.115 63.6083 198.183 59.5435C199.378 64.4365 198.897 73.154 186.172 77.8826Z" fill="url(#paint22_linear_diver_log)"/>
<path d="M183.088 59.6636C184.184 59.0887 185.406 58.7947 186.644 58.808C187.881 58.8212 189.097 59.1413 190.18 59.7395C194.125 61.7687 197.734 74.0327 207.248 76.5677C216.762 79.1027 222.42 80.6957 222.42 80.6957C222.42 80.6957 224.183 85.399 222.42 87.3334C220.656 89.2679 201.407 87.9656 193.385 82.0296C186.906 77.2947 172.253 67.5341 183.088 59.6636Z" fill="#5396FA"/>
<path d="M223.147 84.8301C223.204 85.7405 222.925 86.6403 222.363 87.3587C220.593 89.2868 201.35 87.9909 193.328 82.0549C187.43 77.7119 174.623 69.1461 180.894 61.6866C179.295 68.3685 189.706 75.3729 194.845 79.1659C202.242 84.5898 219.145 86.1386 223.147 84.8301Z" fill="url(#paint23_linear_diver_log)"/>
<path d="M187.797 49.176C187.797 49.176 191.451 46.9761 192.399 47.5387C193.348 48.1013 196.995 54.3977 196.995 54.3977V57.5016L187.797 49.176Z" fill="#5396FA"/>
<path d="M187.797 49.176C187.797 49.176 191.451 46.9761 192.399 47.5387C193.348 48.1013 196.995 54.3977 196.995 54.3977V57.5016L187.797 49.176Z" fill="url(#paint24_linear_diver_log)"/>
<path d="M176.57 35.4897L178.53 35.2178C178.772 35.1843 179.018 35.2449 179.217 35.3872C179.415 35.5295 179.552 35.7427 179.598 35.9828L179.68 36.4316C179.705 36.5568 179.704 36.6856 179.677 36.8104C179.651 36.9352 179.6 37.0533 179.526 37.1578C179.453 37.2622 179.36 37.3509 179.252 37.4184C179.143 37.4858 179.023 37.5308 178.897 37.5505L177.171 37.7655L176.57 35.4897Z" fill="#5396FA"/>
<path d="M221.68 106.962C224.439 106.962 226.674 104.726 226.674 101.968C226.674 99.2098 224.439 96.9739 221.68 96.9739C218.922 96.9739 216.687 99.2098 216.687 101.968C216.687 104.726 218.922 106.962 221.68 106.962Z" fill="url(#paint25_linear_diver_log)"/>
<path d="M228.261 52.4443C231.019 52.4443 233.255 50.2084 233.255 47.4502C233.255 44.692 231.019 42.4561 228.261 42.4561C225.503 42.4561 223.267 44.692 223.267 47.4502C223.267 50.2084 225.503 52.4443 228.261 52.4443Z" fill="url(#paint26_linear_diver_log)"/>
<path d="M163.934 25.7417C167.139 25.7417 169.737 23.1435 169.737 19.9385C169.737 16.7334 167.139 14.1352 163.934 14.1352C160.729 14.1352 158.131 16.7334 158.131 19.9385C158.131 23.1435 160.729 25.7417 163.934 25.7417Z" fill="url(#paint27_linear_diver_log)"/>
<path d="M138.275 27.3348C141.48 27.3348 144.078 24.7366 144.078 21.5315C144.078 18.3265 141.48 15.7282 138.275 15.7282C135.07 15.7282 132.472 18.3265 132.472 21.5315C132.472 24.7366 135.07 27.3348 138.275 27.3348Z" fill="url(#paint28_linear_diver_log)"/>
<path d="M200.01 24.8504C196.508 26.5825 194.068 21.6327 190.433 20.2609C189.837 19.9691 189.196 19.7769 188.537 19.6919C188.205 19.6558 187.871 19.7305 187.586 19.9043C187.302 20.0782 187.082 20.3413 186.963 20.6528C186.742 21.4936 187.551 22.2142 188.227 22.7895C188.904 23.3648 189.492 24.3889 188.859 25.0274C188.543 25.2813 188.162 25.4431 187.759 25.4952C186.685 25.7733 185.604 26.6078 185.623 27.7141C185.623 29.1997 187.405 29.8887 188.531 30.8749C188.75 31.0305 188.914 31.252 188.998 31.5071C189.201 32.2909 188.17 33.0053 188.366 33.7828C188.505 34.2823 189.093 34.5035 189.631 34.573C191.597 34.8386 193.6 34.0673 195.547 34.4213C196.696 34.7407 197.813 35.1639 198.885 35.6857C199.991 36.1029 201.281 36.3178 202.343 35.8058C202.899 35.5276 203.348 35.0661 203.898 34.7753C204.707 34.4268 205.584 34.2647 206.465 34.3012L214.24 34.061C216.187 34.0041 218.968 31.7662 214.727 26.7279C211.907 23.3648 203.19 23.27 200.01 24.8504Z" fill="#052326"/>
<path d="M109.936 49.7133V50.0863C109.908 50.0281 109.894 49.9644 109.894 49.8998C109.894 49.8353 109.908 49.7715 109.936 49.7133Z" fill="#5396FA"/>
<path d="M158.124 55.1057C158.124 55.1057 184.251 49.4162 194.018 64.1077L197.115 68.6467L198.379 65.764C198.379 65.764 199.011 59.0125 190.408 53.677C185.232 50.4706 179.417 48.4359 173.372 47.7157L142.397 53.677L140.804 61.6613L151.715 75.7964C151.715 75.7964 173.53 82.9462 185.319 75.7964L182.886 73.3626C173.553 76.0635 163.645 76.0635 154.313 73.3626L150.039 61.6423L158.124 55.1057Z" fill="#5396FA"/>
<path d="M158.124 55.1057C158.124 55.1057 184.251 49.4162 194.018 64.1077L197.115 68.6467L198.379 65.764C198.379 65.764 199.011 59.0125 190.408 53.677C185.232 50.4706 179.417 48.4359 173.372 47.7157L142.397 53.677L140.804 61.6613L151.715 75.7964C151.715 75.7964 173.53 82.9462 185.319 75.7964L182.886 73.3626C173.553 76.0635 163.645 76.0635 154.313 73.3626L150.039 61.6423L158.124 55.1057Z" fill="url(#paint29_linear_diver_log)"/>
</g>
<defs>
<linearGradient id="paint0_linear_diver_log" x1="24.2428" y1="41.4131" x2="4.24703" y2="86.3215" gradientUnits="userSpaceOnUse">
<stop stop-opacity="0"/>
<stop offset="0.91" stop-opacity="0.8"/>
<stop offset="1"/>
</linearGradient>
<linearGradient id="paint1_linear_diver_log" x1="208.784" y1="31.1973" x2="240.581" y2="42.9422" gradientUnits="userSpaceOnUse">
<stop stop-opacity="0"/>
<stop offset="0.52" stop-opacity="0.41"/>
<stop offset="0.91" stop-opacity="0.8"/>
<stop offset="1"/>
</linearGradient>
<linearGradient id="paint2_linear_diver_log" x1="11309.2" y1="915.275" x2="15336.8" y2="915.275" gradientUnits="userSpaceOnUse">
<stop stop-opacity="0"/>
<stop offset="0.91" stop-opacity="0.8"/>
<stop offset="1"/>
</linearGradient>
<linearGradient id="paint3_linear_diver_log" x1="189.074" y1="43.1705" x2="216.035" y2="43.1705" gradientUnits="userSpaceOnUse">
<stop stop-color="#ECC4D7"/>
<stop offset="0.42" stop-color="#EFD4D1"/>
<stop offset="1" stop-color="#F2EAC9"/>
</linearGradient>
<linearGradient id="paint4_linear_diver_log" x1="3808.95" y1="1177.16" x2="3875.76" y2="961" gradientUnits="userSpaceOnUse">
<stop stop-opacity="0"/>
<stop offset="0.52" stop-opacity="0.41"/>
<stop offset="0.91" stop-opacity="0.8"/>
<stop offset="1"/>
</linearGradient>
<linearGradient id="paint5_linear_diver_log" x1="2792.85" y1="743.444" x2="2917.06" y2="757.705" gradientUnits="userSpaceOnUse">
<stop stop-opacity="0"/>
<stop offset="0.52" stop-opacity="0.41"/>
<stop offset="0.91" stop-opacity="0.8"/>
<stop offset="1"/>
</linearGradient>
<linearGradient id="paint6_linear_diver_log" x1="194.018" y1="43.5308" x2="202.703" y2="43.5308" gradientUnits="userSpaceOnUse">
<stop stop-color="white"/>
<stop offset="1" stop-color="white" stop-opacity="0"/>
</linearGradient>
<linearGradient id="paint7_linear_diver_log" x1="5553" y1="1066.14" x2="5994" y2="1066.14" gradientUnits="userSpaceOnUse">
<stop stop-opacity="0"/>
<stop offset="0.52" stop-opacity="0.41"/>
<stop offset="0.91" stop-opacity="0.8"/>
<stop offset="1"/>
</linearGradient>
<linearGradient id="paint8_linear_diver_log" x1="5656.94" y1="659.74" x2="5637.43" y2="985.298" gradientUnits="userSpaceOnUse">
<stop stop-opacity="0"/>
<stop offset="0.52" stop-opacity="0.41"/>
<stop offset="0.91" stop-opacity="0.8"/>
<stop offset="1"/>
</linearGradient>
<linearGradient id="paint9_linear_diver_log" x1="3272.57" y1="1125.98" x2="3413.57" y2="1125.98" gradientUnits="userSpaceOnUse">
<stop stop-opacity="0"/>
<stop offset="0.52" stop-opacity="0.41"/>
<stop offset="0.91" stop-opacity="0.8"/>
<stop offset="1"/>
</linearGradient>
<linearGradient id="paint10_linear_diver_log" x1="13131.3" y1="4433.32" x2="13180.7" y2="5620.21" gradientUnits="userSpaceOnUse">
<stop stop-opacity="0"/>
<stop offset="0.91" stop-opacity="0.8"/>
<stop offset="1"/>
</linearGradient>
<linearGradient id="paint11_linear_diver_log" x1="14429.7" y1="4237.13" x2="14214.8" y2="5468.63" gradientUnits="userSpaceOnUse">
<stop stop-opacity="0"/>
<stop offset="0.91" stop-opacity="0.8"/>
<stop offset="1"/>
</linearGradient>
<linearGradient id="paint12_linear_diver_log" x1="697.966" y1="839.763" x2="990.31" y2="839.763" gradientUnits="userSpaceOnUse">
<stop stop-color="#ECC4D7"/>
<stop offset="0.42" stop-color="#EFD4D1"/>
<stop offset="1" stop-color="#F2EAC9"/>
</linearGradient>
<linearGradient id="paint13_linear_diver_log" x1="529.572" y1="2537.49" x2="916.128" y2="2537.49" gradientUnits="userSpaceOnUse">
<stop stop-color="#ECC4D7"/>
<stop offset="0.42" stop-color="#EFD4D1"/>
<stop offset="1" stop-color="#F2EAC9"/>
</linearGradient>
<linearGradient id="paint14_linear_diver_log" x1="674.502" y1="10897.8" x2="2114.62" y2="10897.8" gradientUnits="userSpaceOnUse">
<stop stop-opacity="0"/>
<stop offset="0.91" stop-opacity="0.8"/>
<stop offset="1"/>
</linearGradient>
<linearGradient id="paint15_linear_diver_log" x1="12363.8" y1="1790.19" x2="12162.3" y2="2284.58" gradientUnits="userSpaceOnUse">
<stop stop-opacity="0"/>
<stop offset="0.52" stop-opacity="0.41"/>
<stop offset="0.91" stop-opacity="0.8"/>
<stop offset="1"/>
</linearGradient>
<linearGradient id="paint16_linear_diver_log" x1="4637.69" y1="1405.1" x2="4882.02" y2="1405.1" gradientUnits="userSpaceOnUse">
<stop stop-color="#ECC4D7"/>
<stop offset="0.42" stop-color="#EFD4D1"/>
<stop offset="1" stop-color="#F2EAC9"/>
</linearGradient>
<linearGradient id="paint17_linear_diver_log" x1="15452.6" y1="2073.72" x2="15514.9" y2="2761.94" gradientUnits="userSpaceOnUse">
<stop stop-color="white"/>
<stop offset="1" stop-color="white" stop-opacity="0"/>
</linearGradient>
<linearGradient id="paint18_linear_diver_log" x1="15246.6" y1="1488.7" x2="15316.8" y2="2716.83" gradientUnits="userSpaceOnUse">
<stop stop-opacity="0"/>
<stop offset="0.91" stop-opacity="0.8"/>
<stop offset="1"/>
</linearGradient>
<linearGradient id="paint19_linear_diver_log" x1="4208.79" y1="2171.42" x2="4463.58" y2="3327.39" gradientUnits="userSpaceOnUse">
<stop stop-opacity="0"/>
<stop offset="0.91" stop-opacity="0.8"/>
<stop offset="1"/>
</linearGradient>
<linearGradient id="paint20_linear_diver_log" x1="3859.67" y1="2166.24" x2="4137.35" y2="3311.25" gradientUnits="userSpaceOnUse">
<stop stop-opacity="0"/>
<stop offset="0.91" stop-opacity="0.8"/>
<stop offset="1"/>
</linearGradient>
<linearGradient id="paint21_linear_diver_log" x1="4838.95" y1="2004.9" x2="5113.21" y2="2004.9" gradientUnits="userSpaceOnUse">
<stop stop-color="#ECC4D7"/>
<stop offset="0.42" stop-color="#EFD4D1"/>
<stop offset="1" stop-color="#F2EAC9"/>
</linearGradient>
<linearGradient id="paint22_linear_diver_log" x1="18684.4" y1="3515.74" x2="18785.6" y2="4453.33" gradientUnits="userSpaceOnUse">
<stop stop-opacity="0"/>
<stop offset="0.91" stop-opacity="0.8"/>
<stop offset="1"/>
</linearGradient>
<linearGradient id="paint23_linear_diver_log" x1="14341.8" y1="3599.76" x2="14061.1" y2="4206.31" gradientUnits="userSpaceOnUse">
<stop stop-opacity="0"/>
<stop offset="0.52" stop-opacity="0.41"/>
<stop offset="0.91" stop-opacity="0.8"/>
<stop offset="1"/>
</linearGradient>
<linearGradient id="paint24_linear_diver_log" x1="3038.71" y1="1062.5" x2="2949.42" y2="1111.38" gradientUnits="userSpaceOnUse">
<stop stop-opacity="0"/>
<stop offset="0.91" stop-opacity="0.8"/>
<stop offset="1"/>
</linearGradient>
<linearGradient id="paint25_linear_diver_log" x1="3741.71" y1="1659.82" x2="3691.06" y2="1768.49" gradientUnits="userSpaceOnUse">
<stop stop-color="white"/>
<stop offset="1" stop-color="white" stop-opacity="0"/>
</linearGradient>
<linearGradient id="paint26_linear_diver_log" x1="3852.25" y1="743.826" x2="3801.61" y2="852.596" gradientUnits="userSpaceOnUse">
<stop stop-color="white"/>
<stop offset="1" stop-color="white" stop-opacity="0"/>
</linearGradient>
<linearGradient id="paint27_linear_diver_log" x1="3198.25" y1="314.976" x2="3129.88" y2="461.913" gradientUnits="userSpaceOnUse">
<stop stop-color="white"/>
<stop offset="1" stop-color="white" stop-opacity="0"/>
</linearGradient>
<linearGradient id="paint28_linear_diver_log" x1="2701.61" y1="345.818" x2="2633.13" y2="492.755" gradientUnits="userSpaceOnUse">
<stop stop-color="white"/>
<stop offset="1" stop-color="white" stop-opacity="0"/>
</linearGradient>
<linearGradient id="paint29_linear_diver_log" x1="16023.6" y1="4876.83" x2="15791.7" y2="2913.11" gradientUnits="userSpaceOnUse">
<stop stop-opacity="0"/>
<stop offset="0.91" stop-opacity="0.8"/>
<stop offset="1"/>
</linearGradient>
</defs>
</svg>
