<svg width="40" height="40" viewBox="0 0 40 40" fill="none" xmlns="http://www.w3.org/2000/svg">
<path d="M36.1523 16.4437C35.8415 16.3143 35.4818 16.3859 35.2441 16.6244L30.0993 21.7676C29.7494 22.1184 29.3066 22.3543 28.8233 22.4512L24.6566 23.2845C23.8266 23.4522 22.9867 23.1885 22.3991 22.6017C21.8067 22.0084 21.5512 21.1638 21.7155 20.3434L22.4505 16.6666H9.16664C8.70602 16.6666 8.33328 16.2939 8.33328 15.8333C8.33328 15.3727 8.70602 14.9999 9.16664 14.9999H23.1558C23.1848 14.9678 23.2016 14.9274 23.2323 14.8966L26.4628 11.6666H9.16664C8.70602 11.6666 8.33328 11.2938 8.33328 10.8332C8.33328 10.3726 8.70602 9.99985 9.16664 9.99985H27.5C27.6774 9.99985 27.8327 10.0675 27.9678 10.1619L33.3756 4.75485C33.8313 4.29829 34.3831 3.93938 35.0163 3.68712C35.3044 3.57235 35.5045 3.30626 35.5355 2.99782C35.568 2.6886 35.4248 2.38829 35.166 2.21735C34.6175 1.8568 33.9844 1.66641 33.3334 1.66641H3.33336C1.49578 1.66665 0 3.16165 0 5.00001V37.5C0 37.837 0.203438 38.1413 0.514297 38.2698C0.616875 38.313 0.725859 38.3334 0.833281 38.3334C1.04977 38.3334 1.26297 38.2488 1.4225 38.0892L9.51172 30H33.3334C35.1709 30 36.6667 28.5051 36.6667 26.6666V17.2135C36.6666 16.8766 36.4632 16.5723 36.1523 16.4437ZM19.1666 21.6666H9.16664C8.70602 21.6666 8.33328 21.2939 8.33328 20.8333C8.33328 20.3727 8.70602 19.9999 9.16664 19.9999H19.1666C19.6273 19.9999 20 20.3727 20 20.8333C20 21.294 19.6273 21.6666 19.1666 21.6666Z" fill="white"/>
<path d="M36.8099 4.99999C35.9684 4.99999 35.1464 5.34101 34.554 5.93421L24.4107 16.0759C24.2935 16.1923 24.2154 16.3403 24.1828 16.5015L23.3495 20.6698C23.2941 20.9432 23.3804 21.2256 23.5773 21.4225C23.7352 21.5804 23.9484 21.6666 24.1666 21.6666C24.2203 21.6666 24.2756 21.6609 24.3293 21.6504L28.4944 20.817C28.6571 20.7844 28.8052 20.7055 28.9208 20.5891L39.0656 10.4459C39.0656 10.4459 39.0656 10.4459 39.0656 10.4451C39.6597 9.85109 39.9999 9.02913 39.9999 8.19007C39.9999 6.4307 38.5693 4.99999 36.8099 4.99999ZM35.4881 11.6666L33.3329 9.51132L34.5113 8.33296L36.6667 10.4884L35.4881 11.6666Z" fill="white"/>
</svg>
