<svg width="274" height="259" viewBox="0 0 274 259" fill="none" xmlns="http://www.w3.org/2000/svg">
<g>
<path opacity="0.27" d="M173.061 29.6797C178.581 32.0051 183.568 35.4387 187.713 39.7688C191.858 44.0989 195.074 49.2338 197.163 54.8568C199.468 61.1533 200.381 68.1247 204.255 73.5864C206.834 77.2009 210.522 79.803 214.05 82.556C220.465 87.4938 226.542 92.858 232.24 98.6125C239.703 106.135 246.618 114.527 250.385 124.447C259.737 149.127 247.868 177.678 255.659 202.9C256.883 206.87 258.611 210.83 258.425 214.987C257.964 225.359 246.538 231.274 236.565 234.072C209.485 241.656 181.021 242.26 152.921 242.81C115.273 243.556 77.5727 244.302 39.9698 244.373C30.9458 244.373 21.2924 244.187 13.8728 239.045C4.68928 232.686 1.46262 220.315 2.34906 209.17C3.23551 198.024 7.28656 187.412 9.71542 176.506C14.6352 154.428 12.6584 131.489 11.9847 108.879C11.6124 96.3746 11.7099 83.4796 16.479 71.9257C25.2814 50.6117 48.0187 38.4273 70.2862 32.6814C89.3004 27.7792 107.88 27.6815 127.338 27.8858C142.523 28.0367 158.594 23.6851 173.061 29.6797Z" fill="#68E1FD"/>
<path d="M117.268 72.8937C117.268 72.8937 113.891 83.5507 116.187 89.2078C118.482 94.8648 106.01 98.506 99.548 92.7068C93.0858 86.9076 92.2969 84.2789 92.2969 84.2789L96.8798 54.546C96.8798 54.546 115.797 63.7021 117.268 72.8937Z" fill="url(#paint0_linear_improve)"/>
<path d="M116.382 76.224C116.382 76.224 117.596 79.8296 130.051 83.5329C142.505 87.2362 157.14 96.0726 161.298 109.82C165.455 123.568 175.507 195.564 208.572 210.466L201.303 232.1C201.303 232.1 145.324 195.982 143.099 187.039C140.874 178.096 143.099 226.754 143.099 226.754L49.065 223.077L47.5049 139.251C47.5049 139.251 51.228 78.9771 88.9905 78.2399C126.753 77.5028 116.382 76.224 116.382 76.224Z" fill="#68E1FD"/>
<path opacity="0.25" d="M116.382 76.224C116.382 76.224 117.596 79.8296 130.051 83.5329C142.505 87.2362 157.14 96.0726 161.298 109.82C165.455 123.568 175.507 195.564 208.572 210.466L201.303 232.1C201.303 232.1 145.324 195.982 143.099 187.039C140.874 178.096 143.099 226.754 143.099 226.754L49.065 223.077L47.5049 139.251C47.5049 139.251 51.228 78.9771 88.9905 78.2399C126.753 77.5028 116.382 76.224 116.382 76.224Z" fill="url(#paint1_linear_improve)"/>
<path d="M85.4975 119.58C85.9804 119.071 86.6206 118.739 87.3147 118.639C89.2028 118.577 89.4776 121.303 89.3003 123.195C88.9015 127.474 89.7028 131.78 91.614 135.628C92.3412 136.801 92.8377 138.104 93.0766 139.464C93.0824 140.586 92.8965 141.7 92.527 142.759C90.7541 149.109 90.435 156.08 93.0145 162.146C95.5941 168.211 101.498 173.087 108.084 173.131C113.172 173.176 117.835 170.467 122.214 167.883C122.437 167.307 122.471 166.674 122.312 166.077C122.153 165.48 121.808 164.949 121.328 164.561C125.538 166.08 130.13 164.02 134.624 163.878C137.071 163.798 139.579 164.295 141.937 163.647C144.295 162.998 146.449 160.538 145.598 158.238C141.087 159.481 136.346 159.642 131.761 158.709C135.693 154.587 138.435 149.474 139.695 143.914C140.906 145.551 142.598 146.769 144.535 147.395C142.837 142.081 140.025 137.192 136.287 133.057C132.549 128.921 127.971 125.634 122.861 123.417C120.37 122.36 117.72 121.525 115.663 119.775C113.923 118.214 112.765 116.106 112.382 113.797C111.998 111.488 112.412 109.118 113.553 107.076C110.894 107.609 109.334 110.202 107.871 112.458C105.001 116.889 101.484 120.864 97.4379 124.251C93.5907 120.992 98.2446 112.813 93.8921 110.309C93.0658 109.9 92.1539 109.696 91.2328 109.714C89.229 109.615 87.2269 109.938 85.3553 110.662C83.4836 111.385 81.7837 112.493 80.365 113.914C78.7073 115.69 75.7555 120.664 77.5993 123.088C79.8952 126.143 83.5828 121.214 85.4975 119.58Z" fill="url(#paint2_linear_improve)"/>
<path d="M143.116 187.039L143.923 138.665C143.923 138.665 154.915 171.266 162.99 181.293C171.066 191.319 180.382 206.275 180.382 206.275L184.38 215.946H177.333C177.333 215.946 146.777 194.472 143.116 187.039Z" fill="url(#paint3_linear_improve)"/>
<path d="M80.1786 121.614C80.1786 121.614 73.1668 152.59 80.1786 173.931C87.1904 195.271 86.8713 222.26 86.8713 222.26L49.0821 223.148L47.9209 128.39L80.1786 121.614Z" fill="url(#paint4_linear_improve)"/>
<path d="M99.5389 92.7068C99.5389 92.7068 111.453 93.0531 113.722 95.6552C115.991 98.2573 109.866 97.6978 109.866 97.6978C109.866 97.6978 101.312 96.0637 99.5389 94.5096C98.8032 93.9057 99.5389 92.7068 99.5389 92.7068Z" fill="url(#paint5_linear_improve)"/>
<path d="M93.8918 72.8937C93.8918 72.8937 23.6322 66.9969 9.67958 88.6749C-4.27305 110.353 4.0152 129.704 9.67958 134.189C15.344 138.674 42.7617 147.173 62.095 135.077C81.4284 122.981 84.2562 116.916 84.2562 116.916L79.6998 91.65L99.5119 78.0179L93.8918 72.8937Z" fill="#68E1FD"/>
<path opacity="0.25" d="M31.6905 105.753L79.6649 91.6144L91.2862 81.4725C91.2862 81.4725 35.848 91.499 26.23 99.1098C16.6121 106.721 23.1718 106.756 31.6905 105.753Z" fill="url(#paint6_linear_improve)"/>
<path d="M80.1787 94.5096C80.1787 94.5096 92.1634 90.8507 99.5032 92.7334C103.975 93.8929 108.113 96.0859 111.585 99.1365C111.585 99.1365 113.358 102.6 106.905 106.747C100.452 110.895 98.9979 115.628 96.9946 115.513C94.9912 115.397 89.0166 113.461 89.0166 113.461L83.3079 112.573L80.1787 94.5096Z" fill="url(#paint7_linear_improve)"/>
<path d="M106.249 95.6552C106.249 95.6552 119.165 95.8328 122.799 103.097L119.927 104.678C119.146 103.098 117.965 101.752 116.501 100.775C115.036 99.7972 113.341 99.2231 111.585 99.1098L106.249 95.6552Z" fill="#68E1FD"/>
<path d="M91.2856 114.118C91.2856 114.118 85.4617 125.122 98.7761 142.537C98.7761 142.537 89.6989 123.319 94.8225 115.095L91.2856 114.118Z" fill="#68E1FD"/>
<path d="M106.249 95.6552C106.249 95.6552 119.165 95.8328 122.799 103.097L119.927 104.678C119.146 103.098 117.965 101.752 116.501 100.775C115.036 99.7972 113.341 99.2231 111.585 99.1098L106.249 95.6552Z" fill="url(#paint8_linear_improve)"/>
<path d="M91.2856 114.118C91.2856 114.118 85.4617 125.122 98.7761 142.537C98.7761 142.537 89.6989 123.319 94.8225 115.095L91.2856 114.118Z" fill="url(#paint9_linear_improve)"/>
<path d="M117.649 101.676C117.649 101.676 111.878 102.209 109.254 106.721C106.63 111.232 94.0517 140.468 93.3603 147.164C92.6689 153.86 94.096 160.485 98.679 164.473C103.262 168.46 118.402 169.988 121.727 168.087C125.051 166.187 146.972 128.123 146.972 128.123C146.972 128.123 151.024 109.696 139.181 101.081L132.089 106.206C132.089 106.206 125.547 99.4296 117.649 101.676Z" fill="#68E1FD"/>
<path d="M117.649 101.676C117.649 101.676 111.878 102.209 109.254 106.721C106.63 111.232 94.0517 140.468 93.3603 147.164C92.6689 153.86 94.096 160.485 98.679 164.473C103.262 168.46 118.402 169.988 121.727 168.087C125.051 166.187 146.972 128.123 146.972 128.123C146.972 128.123 151.024 109.696 139.181 101.081L132.089 106.206C132.089 106.206 125.547 99.4296 117.649 101.676Z" fill="url(#paint10_linear_improve)"/>
<path d="M115.92 110.548C115.92 110.548 113.199 102.955 118.828 102.342C124.457 101.73 131.105 106.721 131.105 106.721L120.468 116.57L115.92 110.548Z" fill="#001316"/>
<path d="M125.547 155.654L156.076 151.089V154.393L123.18 163.514C123.18 163.514 117.977 159.748 125.547 155.654Z" fill="#68E1FD"/>
<path d="M125.547 155.654L156.076 151.089V154.393L123.18 163.514C123.18 163.514 117.977 159.748 125.547 155.654Z" fill="url(#paint11_linear_improve)"/>
<path d="M140.9 135.042L148.098 152.27L149.747 152.031L142.141 134.571C142.141 134.571 141.016 134.473 140.9 135.042Z" fill="url(#paint12_linear_improve)"/>
<path d="M159.338 139.482L156.076 151.08V154.384C156.076 154.384 166.501 163.593 167.157 163.505C168.136 163.078 169.059 162.532 169.905 161.879L163.921 138.665L159.338 139.482Z" fill="#68E1FD"/>
<path d="M162.991 136.489C162.991 136.489 159.294 136.187 159.622 140.548C159.95 144.908 164.533 162.501 167.157 163.505C167.916 163.831 168.768 163.868 169.553 163.61C170.338 163.351 171.002 162.815 171.421 162.101C171.527 161.773 167.733 136.827 162.991 136.489Z" fill="#68E1FD"/>
<path d="M164.001 136.196C164.001 136.196 160.305 135.894 160.633 140.264C160.961 144.633 165.544 162.208 168.168 163.212C168.927 163.537 169.779 163.575 170.564 163.316C171.349 163.058 172.013 162.522 172.432 161.808C172.538 161.48 168.744 136.534 164.001 136.196Z" fill="#68E1FD"/>
<path d="M159.338 139.482L156.076 151.08V154.384C156.076 154.384 166.501 163.593 167.157 163.505C168.136 163.078 169.059 162.532 169.905 161.879L163.921 138.665L159.338 139.482Z" fill="url(#paint13_linear_improve)"/>
<path d="M162.991 136.489C162.991 136.489 159.294 136.187 159.622 140.548C159.95 144.908 164.533 162.501 167.157 163.505C167.916 163.831 168.768 163.868 169.553 163.61C170.338 163.351 171.002 162.815 171.421 162.101C171.527 161.773 167.733 136.827 162.991 136.489Z" fill="url(#paint14_linear_improve)"/>
<path d="M164.001 136.196C164.001 136.196 160.305 135.894 160.633 140.264C160.961 144.633 165.544 162.208 168.168 163.212C168.927 163.537 169.779 163.575 170.564 163.316C171.349 163.058 172.013 162.522 172.432 161.808C172.538 161.48 168.744 136.534 164.001 136.196Z" fill="#68E1FD"/>
<path d="M164.001 136.196C164.001 136.196 160.305 135.894 160.633 140.264C160.961 144.633 165.544 162.208 168.168 163.212C168.927 163.537 169.779 163.575 170.564 163.316C171.349 163.058 172.013 162.522 172.432 161.808C172.538 161.48 168.744 136.534 164.001 136.196Z" fill="url(#paint15_linear_improve)"/>
<path d="M13.5626 222.216H260.083C263.776 222.216 267.318 223.686 269.93 226.302C272.542 228.918 274.009 232.467 274.009 236.167V241.682C274.009 246.278 272.187 250.685 268.943 253.934C265.7 257.183 261.301 259.009 256.714 259.009H15.7699C13.6982 259.009 11.6468 258.6 9.73294 257.805C7.81908 257.011 6.08023 255.846 4.61575 254.378C3.15127 252.91 1.98985 251.168 1.19787 249.25C0.405878 247.332 -0.00116202 245.277 2.49164e-06 243.201V235.794C2.49164e-06 232.191 1.42892 228.735 3.9724 226.187C6.51588 223.638 9.96558 222.207 13.5626 222.207V222.216Z" fill="#8C6239"/>
<path d="M13.5715 222.216H259.897C263.637 222.216 267.224 223.704 269.869 226.354C272.514 229.004 274 232.598 274 236.345V240.608H0V235.812C0 232.206 1.42985 228.748 3.97499 226.198C6.52013 223.648 9.97209 222.216 13.5715 222.216Z" fill="url(#paint16_linear_improve)"/>
<path d="M216.124 242.357H181.269C177.546 242.357 174.453 239.986 174.178 236.896L170.526 199.17C170.189 195.715 173.469 192.758 177.617 192.758H219.732C223.899 192.758 227.17 195.715 226.824 199.17L223.198 236.878C222.932 240.022 219.839 242.357 216.124 242.357Z" fill="#8C6239"/>
<path d="M216.124 242.357H181.269C177.546 242.357 174.453 239.986 174.178 236.896L170.526 199.17C170.189 195.715 173.469 192.758 177.617 192.758H219.732C223.899 192.758 227.17 195.715 226.824 199.17L223.198 236.878C222.932 240.022 219.839 242.357 216.124 242.357Z" fill="url(#paint17_linear_improve)"/>
<path d="M223.375 176.995H173.45C168.892 176.995 165.197 180.696 165.197 185.263V195.12C165.197 199.687 168.892 203.388 173.45 203.388H223.375C227.933 203.388 231.627 199.687 231.627 195.12V185.263C231.627 180.696 227.933 176.995 223.375 176.995Z" fill="#8C6239"/>
<path d="M223.375 176.995H173.45C168.892 176.995 165.197 180.696 165.197 185.263V195.12C165.197 199.687 168.892 203.388 173.45 203.388H223.375C227.933 203.388 231.627 199.687 231.627 195.12V185.263C231.627 180.696 227.933 176.995 223.375 176.995Z" fill="url(#paint18_linear_improve)"/>
<path d="M240.244 137.004C234.997 146.409 225.432 153.301 222.516 154.126C219.599 154.952 210.425 157.039 209.804 160.929C209.8 160.991 209.8 161.054 209.804 161.116C209.458 165.165 207.685 177.856 207.685 177.856L204.955 177.954L200.789 178.096L194.752 178.309C194.752 178.309 194.752 177.936 194.832 177.261C195.222 171.684 196.605 145.663 189.513 139.5C181.535 132.591 166.918 115.273 166.519 106.738C166.12 98.204 166.155 87.3694 174.683 86.0551C183.211 84.7407 183.29 103.639 182.759 104.705C182.227 105.77 192.696 117.795 192.696 117.795C192.696 117.795 192.013 86.5613 192.696 78.2666C193.236 71.6593 201.826 61.5707 207.641 61.2154C208.374 61.1471 209.111 61.2846 209.77 61.6124C210.429 61.9402 210.984 62.4455 211.373 63.0715C215.991 69.9719 211.178 89.341 209.786 92.7334C208.395 96.1259 205.975 109.607 207.703 114.571C209.432 119.536 208.59 147.191 208.59 147.191C208.59 147.191 222.214 137.28 224.182 131.045C226.15 124.811 232.382 99.474 238.277 105.291C239.671 106.755 240.751 108.49 241.45 110.388C244.437 117.866 244.349 129.678 240.244 137.004Z" fill="#24A200"/>
<path opacity="0.25" d="M200.806 178.078L194.85 177.243C195.24 171.666 196.622 145.645 189.531 139.482C181.553 132.573 166.935 115.255 166.536 106.721C166.138 98.1862 166.173 87.3517 174.701 86.0373C174.701 86.0373 176.243 100.016 174.222 106.214C172.201 112.413 193.945 133.008 193.945 133.008C193.945 133.008 206.71 147.883 200.806 178.078Z" fill="url(#paint19_linear_improve)"/>
<path opacity="0.25" d="M200.753 128.425L192.616 118.097C192.616 118.097 191.924 86.8632 192.616 78.5774C193.157 71.9701 201.746 61.8815 207.561 61.5262C205.328 68.1247 197.935 92.9554 200.753 128.425Z" fill="url(#paint20_linear_improve)"/>
<path opacity="0.25" d="M238.276 105.309C238.276 105.309 233.392 123.878 229.633 135.228C225.875 146.578 208.571 155.547 208.571 155.547V147.253C208.571 147.253 222.196 137.342 224.164 131.107C226.132 124.873 232.381 99.5361 238.276 105.309Z" fill="url(#paint21_linear_improve)"/>
<path opacity="0.25" d="M209.786 92.7068C208.394 96.1081 205.974 109.58 207.703 114.545C209.432 119.509 208.589 147.164 208.589 147.164L207.685 177.856L204.946 178.105V177.954L206.063 157.208C206.063 157.208 202.89 101.881 205.806 93.0886C208.722 84.2966 211.346 63.0626 211.346 63.0626C215.991 69.9453 211.178 89.3143 209.786 92.7068Z" fill="url(#paint22_linear_improve)"/>
<path opacity="0.25" d="M240.244 137.004C234.996 146.409 225.432 153.301 222.515 154.126C219.599 154.952 210.424 157.039 209.804 160.929C210.752 153.718 227.533 147.741 235.112 136.454C242.691 125.166 241.45 110.362 241.45 110.362C244.437 117.866 244.348 129.678 240.244 137.004Z" fill="url(#paint23_linear_improve)"/>
<path d="M143.117 34.0757C143.117 34.0757 140.094 68.2845 125.547 72.0678C111.001 75.851 100.62 65.7802 98.9095 59.7412C97.1987 53.7023 88.352 35.763 95.9931 27.9035C103.634 20.044 133.055 6.30537 143.117 34.0757Z" fill="url(#paint24_linear_improve)"/>
<path d="M151.05 30.9674C143.072 34.0757 137.444 38.4006 126.735 30.9674C116.027 23.5342 115.814 23.543 109.29 26.6069C107.07 27.617 105.273 29.3732 104.211 31.5713C102.819 34.3155 102.544 37.104 101.312 38.1076C99.2466 39.7949 99.5391 46.3046 99.5391 46.3046C99.5391 46.3046 96.5075 38.5339 94.6548 43.1341C92.8022 47.7344 98.8123 55.514 98.8123 55.514C98.8123 55.514 98.8654 53.7378 98.9452 59.7412C99.025 65.7447 100.488 67.5741 95.8249 70.6202C91.1622 73.6663 85.6752 69.8742 81.367 72.0678C77.0589 74.2613 69.9585 83.1333 64.17 74.5722C58.3815 66.0111 46.8932 66.2331 41.1845 68.995C40.9115 69.1235 40.6302 69.2333 40.3424 69.3236C34.1373 71.3218 20.1935 66.4196 26.5759 47.9386C33.2597 28.5696 38.9861 26.0119 48.604 26.9355C58.222 27.8591 63.8509 28.3564 64.498 24.4134C65.1451 20.4703 66.2 16.4206 68.9302 14.2892C68.9302 14.2892 71.3236 6.24322 78.2999 8.13483C85.2762 10.0264 89.088 12.5752 92.3235 11.6872C95.559 10.7991 92.9795 4.94662 104.441 6.58069C104.441 6.58069 107.012 -1.03904 127.489 0.0799391C147.966 1.19892 150.377 5.86135 153.134 12.3355C155.89 18.8096 158.984 27.868 151.05 30.9674Z" fill="#052326"/>
<path d="M98.209 48.3471C98.2355 47.942 98.2355 47.5356 98.209 47.1305C98.1652 46.766 98.0322 46.4181 97.8219 46.1176C97.6116 45.817 97.3305 45.5731 97.0035 45.4076C96.9151 45.3561 96.8126 45.3343 96.711 45.3454C96.5868 45.3454 96.5071 45.5053 96.4096 45.6118C96.3121 45.7184 96.055 45.8605 95.9043 46.0115C95.752 46.2422 95.6636 46.5093 95.648 46.7854C95.6324 47.0616 95.6903 47.3369 95.8156 47.5834C96.3226 49.0752 97.1382 50.4431 98.209 51.5975C98.2787 51.6802 98.3628 51.7494 98.4572 51.8018C98.5653 51.8516 98.686 51.8673 98.8032 51.8467C98.9204 51.8261 99.0286 51.7701 99.1132 51.6863C99.3408 51.4469 99.4678 51.1289 99.4678 50.7982C99.4678 50.4676 99.3408 50.1496 99.1132 49.9102C98.5725 49.4217 98.209 49.173 98.209 48.3471Z" fill="url(#paint25_linear_improve)"/>
<path d="M205.097 64.5635C205.363 65.0519 199.778 62.3433 199.965 64.5635C200.151 66.7837 205.097 66.1532 205.097 66.1532C205.097 66.1532 201.312 69.2348 204.388 70.0074C207.464 70.7801 206.648 66.7304 206.648 66.7304C206.648 66.7304 209.006 69.963 210.451 68.1513C211.896 66.3397 208.377 65.1496 208.377 65.1496C208.377 65.1496 210.868 63.0715 209.893 61.9792C208.918 60.8868 206.684 63.1603 206.666 63.6132C206.648 64.0662 206.56 59.8922 205.381 60.4428C204.202 60.9934 203.448 61.6239 205.097 64.5635Z" fill="white"/>
<path d="M206.418 66.7038C207.221 66.7038 207.871 66.0517 207.871 65.2473C207.871 64.443 207.221 63.7909 206.418 63.7909C205.615 63.7909 204.964 64.443 204.964 65.2473C204.964 66.0517 205.615 66.7038 206.418 66.7038Z" fill="#FFFE73"/>
<path d="M195.665 90.5399C195.86 90.8951 191.845 88.9414 191.969 90.5399C192.093 92.1384 195.665 91.6855 195.665 91.6855C195.665 91.6855 192.944 93.9057 195.16 94.4652C197.376 95.0247 196.782 92.1029 196.782 92.1029C196.782 92.1029 198.484 94.4297 199.53 93.1242C200.576 91.8187 198.032 90.9662 198.032 90.9662C198.032 90.9662 199.805 89.4653 199.122 88.6838C198.44 87.9023 196.809 89.5275 196.8 89.8561C196.791 90.1847 196.72 87.1918 195.869 87.5648C195.018 87.9378 194.477 88.4263 195.665 90.5399Z" fill="white"/>
<path d="M196.551 91.9786C197.075 91.9786 197.5 91.5531 197.5 91.0283C197.5 90.5035 197.075 90.0781 196.551 90.0781C196.027 90.0781 195.603 90.5035 195.603 91.0283C195.603 91.5531 196.027 91.9786 196.551 91.9786Z" fill="#FFFE73"/>
<path d="M170.011 92.7689C170.339 92.991 166.014 93.0709 166.82 94.3941C167.627 95.7174 170.517 93.7636 170.517 93.7636C170.517 93.7636 169.143 96.8719 171.297 96.3834C173.451 95.895 171.66 93.6304 171.66 93.6304C171.66 93.6304 174.151 94.8914 174.479 93.3018C174.807 91.7121 172.245 92.094 172.245 92.094C172.245 92.094 173.132 90.0159 172.183 89.6429C171.235 89.2699 170.561 91.4191 170.694 91.6855C170.827 91.9519 169.453 89.4031 168.921 90.1136C168.389 90.824 168.07 91.4635 170.011 92.7689Z" fill="white"/>
<path d="M171.04 93.4439C171.451 93.4439 171.784 93.1099 171.784 92.6979C171.784 92.2859 171.451 91.9519 171.04 91.9519C170.628 91.9519 170.295 92.2859 170.295 92.6979C170.295 93.1099 170.628 93.4439 171.04 93.4439Z" fill="#FFFE73"/>
<path d="M202.26 111.543C202.765 111.543 198.112 114.651 199.911 115.53C201.711 116.41 203.457 112.271 203.457 112.271C203.457 112.271 204.122 116.614 206.116 114.58C208.111 112.546 204.609 111.33 204.609 111.33C204.609 111.33 208.155 110.975 207.446 109.021C206.737 107.067 204.175 109.261 204.175 109.261C204.175 109.261 203.705 106.374 202.402 106.596C201.099 106.818 201.852 109.634 202.198 109.856C202.544 110.078 199.264 108.239 199.149 109.403C199.034 110.566 199.229 111.481 202.26 111.543Z" fill="white"/>
<path d="M203.315 111.712C203.844 111.712 204.272 111.282 204.272 110.753C204.272 110.223 203.844 109.793 203.315 109.793C202.786 109.793 202.357 110.223 202.357 110.753C202.357 111.282 202.786 111.712 203.315 111.712Z" fill="#FFFE73"/>
<path d="M227.506 130.273C227.834 130.273 224.785 132.306 225.964 132.884C227.143 133.461 228.313 130.743 228.313 130.743C228.313 130.743 228.747 133.603 230.085 132.262C231.424 130.921 229.102 130.131 229.102 130.131C229.102 130.131 231.451 129.891 230.963 128.612C230.476 127.333 228.818 128.772 228.818 128.772C228.818 128.772 228.508 126.871 227.657 127.049C226.806 127.227 227.293 129.038 227.524 129.18C227.754 129.322 225.6 128.123 225.52 128.887C225.441 129.651 225.52 130.228 227.506 130.273Z" fill="white"/>
<path d="M228.242 130.21C228.589 130.21 228.871 129.928 228.871 129.58C228.871 129.232 228.589 128.949 228.242 128.949C227.894 128.949 227.612 129.232 227.612 129.58C227.612 129.928 227.894 130.21 228.242 130.21Z" fill="#FFFE73"/>
<path d="M236.583 113.834C236.813 114.243 232.151 111.96 232.275 113.834C232.399 115.708 236.583 115.166 236.583 115.166C236.583 115.166 233.41 117.751 235.998 118.399C238.586 119.047 237.886 115.655 237.886 115.655C237.886 115.655 239.872 118.319 241.095 116.836C242.318 115.353 239.322 114.323 239.322 114.323C239.322 114.323 241.414 112.547 240.59 111.658C239.765 110.77 237.93 112.644 237.93 113.026C237.93 113.408 237.833 109.909 236.849 110.362C235.865 110.815 235.209 111.356 236.583 113.834Z" fill="white"/>
<path d="M237.726 115.202C238.221 115.202 238.622 114.8 238.622 114.305C238.622 113.81 238.221 113.408 237.726 113.408C237.232 113.408 236.831 113.81 236.831 114.305C236.831 114.8 237.232 115.202 237.726 115.202Z" fill="#FFFE73"/>
<path d="M91.2861 71.3307L95.9932 68.329L103.51 75.2294C104.573 76.2258 105.831 76.9899 107.205 77.473C108.578 77.9562 110.037 78.1478 111.488 78.0357C113.713 77.8492 115.92 77.1476 116.63 75.0962L120.175 79.5366C120.175 79.5366 117.72 82.8935 111.869 83.3376C98.7766 84.3322 91.2861 71.3307 91.2861 71.3307Z" fill="#68E1FD"/>
<path opacity="0.25" d="M91.2861 71.3307L95.9932 68.329L103.51 75.2294C104.573 76.2258 105.831 76.9899 107.205 77.473C108.578 77.9562 110.037 78.1478 111.488 78.0357C113.713 77.8492 115.92 77.1476 116.63 75.0962L120.175 79.5366C120.175 79.5366 117.72 82.8935 111.869 83.3376C98.7766 84.3322 91.2861 71.3307 91.2861 71.3307Z" fill="url(#paint26_linear_improve)"/>
<path d="M101.312 38.1076C99.2466 39.7949 99.5391 46.3046 99.5391 46.3046C99.5391 46.3046 96.5075 38.5339 94.6548 43.1341C92.8021 47.7344 98.8122 55.514 98.8122 55.514C98.8122 55.514 98.8654 53.7378 98.9452 59.7412C99.025 65.7447 100.488 67.5741 95.8249 70.6202C91.1622 73.6664 85.6751 69.8743 81.367 72.0678C77.0589 74.2614 69.9584 83.1333 64.17 74.5722C58.3815 66.0111 46.8932 66.2331 41.1845 68.9951C40.9115 69.1235 40.6301 69.2333 40.3423 69.3236C39.7041 64.8832 43.2321 59.8034 47.8948 59.5548C49.3397 59.4837 50.8378 59.7945 52.2118 59.3327C53.8429 58.791 54.9421 57.3079 56.2274 56.1623C62.1311 50.9315 71.297 53.205 78.9913 51.5798C80.1966 51.3783 81.3468 50.9277 82.3687 50.2565C84.1416 48.9688 84.9837 46.7841 85.7815 44.7416C87.5544 40.1324 90.0896 35.2391 94.6459 33.3652C97.6563 32.0677 100.918 31.4608 104.193 31.5891C102.783 34.3155 102.509 37.1041 101.312 38.1076Z" fill="#001316"/>
<path d="M164.838 140.941C165.004 140.897 165.05 140.529 164.941 140.12C164.831 139.711 164.608 139.415 164.442 139.46C164.275 139.504 164.229 139.872 164.339 140.281C164.448 140.69 164.672 140.986 164.838 140.941Z" fill="#68E1FD"/>
<path d="M164.491 143.325C164.658 143.28 164.703 142.912 164.594 142.503C164.485 142.094 164.261 141.798 164.095 141.843C163.929 141.888 163.883 142.255 163.992 142.665C164.102 143.074 164.325 143.369 164.491 143.325Z" fill="#68E1FD"/>
<path d="M164.499 146.541C164.665 146.496 164.711 146.128 164.602 145.719C164.492 145.31 164.269 145.015 164.103 145.059C163.936 145.104 163.89 145.472 164 145.881C164.109 146.29 164.333 146.586 164.499 146.541Z" fill="#68E1FD"/>
<path d="M165.262 149.92C165.428 149.876 165.474 149.508 165.365 149.099C165.255 148.69 165.032 148.394 164.865 148.439C164.699 148.483 164.653 148.851 164.763 149.26C164.872 149.67 165.096 149.965 165.262 149.92Z" fill="#68E1FD"/>
<path d="M166.277 153.685C166.444 153.641 166.49 153.273 166.38 152.864C166.271 152.454 166.047 152.159 165.881 152.204C165.715 152.248 165.669 152.616 165.778 153.025C165.888 153.434 166.111 153.73 166.277 153.685Z" fill="#68E1FD"/>
<path d="M167.402 156.559C167.569 156.514 167.615 156.146 167.505 155.737C167.396 155.328 167.172 155.033 167.006 155.077C166.84 155.122 166.794 155.49 166.903 155.899C167.013 156.308 167.236 156.603 167.402 156.559Z" fill="#68E1FD"/>
<path d="M168.91 158.855C169.076 158.811 169.122 158.443 169.013 158.034C168.904 157.624 168.68 157.329 168.514 157.374C168.348 157.418 168.302 157.786 168.411 158.195C168.521 158.604 168.744 158.9 168.91 158.855Z" fill="#68E1FD"/>
<path d="M164.281 139.4C164.447 139.356 164.493 138.99 164.385 138.582C164.276 138.175 164.054 137.88 163.889 137.924C163.723 137.968 163.677 138.335 163.785 138.742C163.893 139.15 164.115 139.444 164.281 139.4Z" fill="#68E1FD"/>
<path d="M165.048 142.318C165.213 142.274 165.26 141.908 165.151 141.5C165.043 141.093 164.821 140.798 164.655 140.842C164.49 140.886 164.443 141.253 164.552 141.66C164.66 142.068 164.882 142.362 165.048 142.318Z" fill="#68E1FD"/>
<path d="M165.796 145.122C165.961 145.078 166.008 144.712 165.899 144.304C165.791 143.897 165.569 143.602 165.403 143.646C165.238 143.69 165.191 144.057 165.3 144.464C165.408 144.872 165.63 145.166 165.796 145.122Z" fill="#68E1FD"/>
<path d="M166.545 147.924C166.71 147.88 166.757 147.514 166.648 147.106C166.54 146.699 166.318 146.404 166.152 146.448C165.987 146.492 165.94 146.859 166.049 147.266C166.157 147.674 166.379 147.968 166.545 147.924Z" fill="#68E1FD"/>
<path d="M164.63 146.606C164.795 146.562 164.842 146.196 164.733 145.788C164.625 145.381 164.403 145.086 164.237 145.13C164.072 145.174 164.025 145.541 164.134 145.948C164.242 146.356 164.464 146.65 164.63 146.606Z" fill="#68E1FD"/>
<path d="M167.152 146.193C167.318 146.149 167.364 145.783 167.256 145.375C167.147 144.967 166.925 144.673 166.76 144.717C166.594 144.761 166.548 145.127 166.656 145.535C166.764 145.943 166.986 146.237 167.152 146.193Z" fill="#68E1FD"/>
<path d="M168.111 149.262C168.277 149.218 168.323 148.852 168.215 148.444C168.106 148.037 167.884 147.742 167.719 147.786C167.553 147.83 167.507 148.197 167.615 148.604C167.723 149.012 167.945 149.306 168.111 149.262Z" fill="#68E1FD"/>
<path d="M169.013 152.276C169.179 152.232 169.225 151.865 169.117 151.458C169.009 151.05 168.787 150.756 168.621 150.8C168.456 150.844 168.409 151.21 168.517 151.618C168.626 152.025 168.848 152.32 169.013 152.276Z" fill="#68E1FD"/>
<path d="M169.753 155.08C169.918 155.036 169.965 154.669 169.856 154.262C169.748 153.854 169.526 153.56 169.36 153.604C169.195 153.648 169.148 154.014 169.257 154.422C169.365 154.829 169.587 155.124 169.753 155.08Z" fill="#68E1FD"/>
<path d="M165.485 149.702C165.651 149.657 165.697 149.291 165.589 148.884C165.48 148.476 165.258 148.181 165.093 148.226C164.927 148.27 164.881 148.636 164.989 149.044C165.097 149.451 165.319 149.746 165.485 149.702Z" fill="#68E1FD"/>
<path d="M166.465 152.403C166.63 152.359 166.677 151.993 166.568 151.585C166.46 151.178 166.238 150.883 166.072 150.927C165.907 150.971 165.86 151.338 165.969 151.745C166.077 152.153 166.299 152.447 166.465 152.403Z" fill="#68E1FD"/>
<path d="M167.548 156.455C167.713 156.411 167.76 156.045 167.651 155.637C167.543 155.229 167.321 154.935 167.155 154.979C166.99 155.023 166.943 155.389 167.052 155.797C167.16 156.205 167.382 156.499 167.548 156.455Z" fill="#68E1FD"/>
<path d="M167.294 150.737C167.459 150.693 167.506 150.327 167.397 149.919C167.289 149.511 167.067 149.217 166.901 149.261C166.736 149.305 166.689 149.671 166.798 150.079C166.906 150.487 167.128 150.781 167.294 150.737Z" fill="#68E1FD"/>
<path d="M168.033 153.541C168.198 153.497 168.245 153.131 168.137 152.723C168.028 152.316 167.806 152.021 167.641 152.065C167.475 152.109 167.429 152.476 167.537 152.883C167.645 153.291 167.867 153.585 168.033 153.541Z" fill="#68E1FD"/>
<path d="M168.782 156.345C168.948 156.301 168.994 155.935 168.886 155.527C168.777 155.12 168.555 154.825 168.39 154.869C168.224 154.913 168.178 155.28 168.286 155.687C168.394 156.095 168.616 156.389 168.782 156.345Z" fill="#68E1FD"/>
<path d="M169.522 159.158C169.688 159.114 169.734 158.748 169.626 158.34C169.518 157.933 169.295 157.638 169.13 157.682C168.964 157.726 168.918 158.093 169.026 158.5C169.135 158.908 169.357 159.202 169.522 159.158Z" fill="#68E1FD"/>
<path d="M166.783 139.967C166.95 139.922 166.996 139.555 166.886 139.145C166.777 138.736 166.553 138.441 166.387 138.485C166.221 138.53 166.175 138.898 166.284 139.307C166.394 139.716 166.617 140.012 166.783 139.967Z" fill="#68E1FD"/>
<path d="M168.022 141.923C168.188 141.879 168.234 141.511 168.124 141.102C168.015 140.693 167.791 140.397 167.625 140.442C167.459 140.486 167.413 140.854 167.522 141.263C167.632 141.673 167.855 141.968 168.022 141.923Z" fill="#68E1FD"/>
<path d="M169.225 144.615C169.391 144.57 169.437 144.202 169.327 143.793C169.218 143.384 168.994 143.089 168.828 143.133C168.662 143.178 168.616 143.546 168.726 143.955C168.835 144.364 169.058 144.66 169.225 144.615Z" fill="#68E1FD"/>
<path d="M169.991 147.46C170.158 147.415 170.204 147.047 170.094 146.638C169.985 146.229 169.761 145.933 169.595 145.978C169.429 146.023 169.383 146.391 169.492 146.8C169.602 147.209 169.825 147.504 169.991 147.46Z" fill="#68E1FD"/>
<path d="M170.922 150.512C171.088 150.467 171.134 150.099 171.025 149.69C170.915 149.281 170.692 148.986 170.526 149.03C170.359 149.075 170.313 149.443 170.423 149.852C170.532 150.261 170.756 150.556 170.922 150.512Z" fill="#68E1FD"/>
<path d="M171.656 153.674C171.823 153.629 171.869 153.261 171.759 152.852C171.65 152.443 171.426 152.147 171.26 152.192C171.094 152.237 171.048 152.605 171.157 153.014C171.267 153.423 171.49 153.718 171.656 153.674Z" fill="#68E1FD"/>
<path d="M172.274 161.718C172.44 161.673 172.486 161.305 172.376 160.896C172.267 160.487 172.043 160.191 171.877 160.236C171.711 160.281 171.665 160.649 171.774 161.058C171.884 161.467 172.107 161.762 172.274 161.718Z" fill="#68E1FD"/>
<path d="M172.739 159.251C172.906 159.206 172.952 158.838 172.842 158.429C172.733 158.02 172.509 157.725 172.343 157.769C172.177 157.814 172.131 158.182 172.24 158.591C172.35 159 172.573 159.296 172.739 159.251Z" fill="#68E1FD"/>
<path d="M172.376 156.366C172.542 156.321 172.588 155.953 172.479 155.544C172.369 155.135 172.146 154.839 171.98 154.884C171.813 154.929 171.767 155.297 171.877 155.706C171.986 156.115 172.21 156.41 172.376 156.366Z" fill="#68E1FD"/>
<path d="M170.593 161.13C170.759 161.086 170.805 160.718 170.696 160.309C170.586 159.9 170.363 159.604 170.196 159.649C170.03 159.693 169.984 160.061 170.094 160.47C170.203 160.879 170.427 161.175 170.593 161.13Z" fill="#68E1FD"/>
<path d="M166.82 141.054C167.246 140.932 167.678 140.834 168.115 140.761" stroke="white" stroke-miterlimit="10"/>
<path d="M172.432 140.406C178.599 140.5 184.603 142.405 189.7 145.885C198.094 151.382 200.887 158.487 201.817 162.652" stroke="white" stroke-miterlimit="10" stroke-dasharray="2.94 4.9"/>
<path d="M202.189 164.783C202.245 165.222 202.275 165.664 202.278 166.107" stroke="white" stroke-miterlimit="10"/>
<path d="M165.862 144.997C165.862 144.997 166.341 144.997 167.183 145.139" stroke="white" stroke-miterlimit="10"/>
<path d="M171.606 146.08C178.024 147.958 183.76 151.66 188.121 156.737C192.802 162.128 196.642 168.198 199.512 174.739" stroke="white" stroke-miterlimit="10" stroke-dasharray="3.07 5.11"/>
<path d="M200.354 176.826C200.656 177.634 200.789 178.078 200.789 178.078" stroke="white" stroke-miterlimit="10"/>
<path d="M167.388 149.917C167.388 149.917 184.709 156 185.87 177.305" stroke="white" stroke-miterlimit="10" stroke-dasharray="3 5"/>
<path d="M164.249 139.402C164.249 139.402 177.971 132.297 192.305 137.626" stroke="white" stroke-miterlimit="10" stroke-dasharray="3 5"/>
<path d="M163.292 145.654C163.292 145.654 178.982 161.222 178.308 177.003" stroke="white" stroke-miterlimit="10" stroke-dasharray="3 5"/>
</g>
<defs>
<linearGradient id="paint0_linear_improve" x1="119.582" y1="68.551" x2="95.3599" y2="78.5193" gradientUnits="userSpaceOnUse">
<stop stop-color="#ECC4D7"/>
<stop offset="0.42" stop-color="#EFD4D1"/>
<stop offset="1" stop-color="#F2EAC9"/>
</linearGradient>
<linearGradient id="paint1_linear_improve" x1="108.04" y1="158.034" x2="50.3845" y2="162.52" gradientUnits="userSpaceOnUse">
<stop stop-opacity="0"/>
<stop offset="0.91" stop-opacity="0.8"/>
<stop offset="1"/>
</linearGradient>
<linearGradient id="paint2_linear_improve" x1="15765.1" y1="11980" x2="-1022.6" y2="20653.4" gradientUnits="userSpaceOnUse">
<stop stop-opacity="0"/>
<stop offset="0.91" stop-opacity="0.8"/>
<stop offset="1"/>
</linearGradient>
<linearGradient id="paint3_linear_improve" x1="11104.1" y1="17829.8" x2="5227.68" y2="20674.5" gradientUnits="userSpaceOnUse">
<stop stop-opacity="0"/>
<stop offset="0.91" stop-opacity="0.8"/>
<stop offset="1"/>
</linearGradient>
<linearGradient id="paint4_linear_improve" x1="7272.46" y1="22938.4" x2="-1869.4" y2="24117.7" gradientUnits="userSpaceOnUse">
<stop stop-opacity="0"/>
<stop offset="0.91" stop-opacity="0.8"/>
<stop offset="1"/>
</linearGradient>
<linearGradient id="paint5_linear_improve" x1="2885.58" y1="852.225" x2="2901.53" y2="791.312" gradientUnits="userSpaceOnUse">
<stop stop-color="#ECC4D7"/>
<stop offset="0.42" stop-color="#EFD4D1"/>
<stop offset="1" stop-color="#F2EAC9"/>
</linearGradient>
<linearGradient id="paint6_linear_improve" x1="9095.9" y1="3463.82" x2="9105.81" y2="4272.59" gradientUnits="userSpaceOnUse">
<stop stop-opacity="0"/>
<stop offset="0.91" stop-opacity="0.8"/>
<stop offset="1"/>
</linearGradient>
<linearGradient id="paint7_linear_improve" x1="4700.32" y1="4055.87" x2="5530.95" y2="3513.5" gradientUnits="userSpaceOnUse">
<stop stop-color="#ECC4D7"/>
<stop offset="0.42" stop-color="#EFD4D1"/>
<stop offset="1" stop-color="#F2EAC9"/>
</linearGradient>
<linearGradient id="paint8_linear_improve" x1="106.249" y1="100.167" x2="122.799" y2="100.167" gradientUnits="userSpaceOnUse">
<stop stop-color="white"/>
<stop offset="1" stop-color="white" stop-opacity="0"/>
</linearGradient>
<linearGradient id="paint9_linear_improve" x1="1563.73" y1="5406.23" x2="1650.26" y2="5406.23" gradientUnits="userSpaceOnUse">
<stop stop-color="white"/>
<stop offset="1" stop-color="white" stop-opacity="0"/>
</linearGradient>
<linearGradient id="paint10_linear_improve" x1="10174.3" y1="12726.1" x2="13151.6" y2="13562.8" gradientUnits="userSpaceOnUse">
<stop stop-color="white"/>
<stop offset="1" stop-color="white" stop-opacity="0"/>
</linearGradient>
<linearGradient id="paint11_linear_improve" x1="7860.99" y1="2864.92" x2="7857.17" y2="2797.03" gradientUnits="userSpaceOnUse">
<stop stop-color="white"/>
<stop offset="1" stop-color="white" stop-opacity="0"/>
</linearGradient>
<linearGradient id="paint12_linear_improve" x1="2137.25" y1="3732.75" x2="2225.54" y2="3732.75" gradientUnits="userSpaceOnUse">
<stop stop-color="white"/>
<stop offset="1" stop-color="white" stop-opacity="0"/>
</linearGradient>
<linearGradient id="paint13_linear_improve" x1="3513.37" y1="5401.33" x2="3729.1" y2="5401.33" gradientUnits="userSpaceOnUse">
<stop stop-color="white"/>
<stop offset="1" stop-color="white" stop-opacity="0"/>
</linearGradient>
<linearGradient id="paint14_linear_improve" x1="3076.52" y1="5889.65" x2="3234.22" y2="5889.65" gradientUnits="userSpaceOnUse">
<stop stop-color="white"/>
<stop offset="1" stop-color="white" stop-opacity="0"/>
</linearGradient>
<linearGradient id="paint15_linear_improve" x1="3252.5" y1="5791.91" x2="3021.7" y2="5839.33" gradientUnits="userSpaceOnUse">
<stop stop-color="white"/>
<stop offset="1" stop-color="white" stop-opacity="0"/>
</linearGradient>
<linearGradient id="paint16_linear_improve" x1="41626.1" y1="4361.74" x2="41636.3" y2="6860.5" gradientUnits="userSpaceOnUse">
<stop stop-opacity="0"/>
<stop offset="0.91" stop-opacity="0.8"/>
<stop offset="1"/>
</linearGradient>
<linearGradient id="paint17_linear_improve" x1="14767.2" y1="14413.9" x2="18350.9" y2="14413.9" gradientUnits="userSpaceOnUse">
<stop stop-opacity="0"/>
<stop offset="0.91" stop-opacity="0.8"/>
<stop offset="1"/>
</linearGradient>
<linearGradient id="paint18_linear_improve" x1="15023.6" y1="5747.14" x2="15035.5" y2="6353.06" gradientUnits="userSpaceOnUse">
<stop stop-opacity="0"/>
<stop offset="0.91" stop-opacity="0.8"/>
<stop offset="1"/>
</linearGradient>
<linearGradient id="paint19_linear_improve" x1="9314.17" y1="17613.4" x2="10773.2" y2="17613.4" gradientUnits="userSpaceOnUse">
<stop stop-opacity="0"/>
<stop offset="0.91" stop-opacity="0.8"/>
<stop offset="1"/>
</linearGradient>
<linearGradient id="paint20_linear_improve" x1="4519.21" y1="10007.4" x2="4781.71" y2="10007.4" gradientUnits="userSpaceOnUse">
<stop stop-opacity="0"/>
<stop offset="0.91" stop-opacity="0.8"/>
<stop offset="1"/>
</linearGradient>
<linearGradient id="paint21_linear_improve" x1="9180" y1="9714.53" x2="10174.8" y2="9714.53" gradientUnits="userSpaceOnUse">
<stop stop-opacity="0"/>
<stop offset="0.91" stop-opacity="0.8"/>
<stop offset="1"/>
</linearGradient>
<linearGradient id="paint22_linear_improve" x1="2807.79" y1="20481.9" x2="2893.98" y2="20481.9" gradientUnits="userSpaceOnUse">
<stop stop-opacity="0"/>
<stop offset="0.91" stop-opacity="0.8"/>
<stop offset="1"/>
</linearGradient>
<linearGradient id="paint23_linear_improve" x1="10441.6" y1="9944.2" x2="11724.5" y2="9944.2" gradientUnits="userSpaceOnUse">
<stop stop-opacity="0"/>
<stop offset="0.91" stop-opacity="0.8"/>
<stop offset="1"/>
</linearGradient>
<linearGradient id="paint24_linear_improve" x1="9947.81" y1="3880.76" x2="10543.4" y2="6040.07" gradientUnits="userSpaceOnUse">
<stop stop-color="#ECC4D7"/>
<stop offset="0.42" stop-color="#EFD4D1"/>
<stop offset="1" stop-color="#F2EAC9"/>
</linearGradient>
<linearGradient id="paint25_linear_improve" x1="164.488" y1="48.5958" x2="164.985" y2="48.5958" gradientUnits="userSpaceOnUse">
<stop stop-color="#ECC4D7"/>
<stop offset="0.42" stop-color="#EFD4D1"/>
</linearGradient>
<linearGradient id="paint26_linear_improve" x1="4993.5" y1="1983.42" x2="5932.98" y2="1983.42" gradientUnits="userSpaceOnUse">
<stop stop-opacity="0"/>
<stop offset="0.91" stop-opacity="0.8"/>
<stop offset="1"/>
</linearGradient>
</defs>
</svg>
