<svg width="156" height="187" viewBox="0 0 156 187" fill="none" xmlns="http://www.w3.org/2000/svg">
<g clip-path="url(#clip0)">
<path opacity="0.18" d="M23.34 72.3186C19.8754 75.3105 15.9548 77.7532 12.5584 80.8236C7.90837 85.0293 4.36471 90.3104 2.23887 96.2029C0.113032 102.095 -0.529894 108.419 0.366599 114.617C1.26309 120.816 3.67156 126.7 7.38031 131.752C11.0891 136.804 15.9846 140.869 21.6365 143.591C28.9273 147.106 37.1301 148.225 44.7511 150.966C54.9037 154.628 64.0814 161.161 74.732 162.918C87.4371 165.01 100.483 159.816 110.531 151.777C120.579 143.738 128.116 133.072 135.417 122.486C141.639 113.473 147.839 104.309 151.833 94.1146C155.827 83.9201 157.489 72.4703 154.391 61.9724C151.45 52.0342 144.432 43.6339 136.245 37.2473C128.058 30.8607 118.624 26.263 109.278 21.6809C102.349 18.2915 95.1839 14.8393 87.4529 14.515C74.0139 13.9606 56.2193 24.3276 46.7009 33.4446C41.8631 38.0789 40.6995 45.8046 37.9373 51.7518C34.3836 59.4303 29.8026 66.7271 23.34 72.3186Z" fill="#68E1FD"/>
<path d="M39.2162 125.054L22.5747 167.851L86.7138 137.11L101.715 95.7779L39.2162 125.054Z" fill="#68E1FD"/>
<path d="M39.2163 125.075C38.8914 124.102 28.1465 97.1327 28.1465 97.1327L90.6555 70.8174L98.4704 97.457L39.2163 125.075Z" fill="#68E1FD"/>
<path d="M39.2163 125.075C38.8914 124.102 28.1465 97.1327 28.1465 97.1327L90.6555 70.8174L98.4704 97.457L39.2163 125.075Z" fill="url(#paint0_linear)"/>
<path d="M47.1256 72.2558L28.1465 97.1117L90.6608 70.7965L107.528 45.9406L47.1256 72.2558Z" fill="#68E1FD"/>
<path d="M45.0027 35.7147L43.2153 19.2853L106.925 1.52588e-05L107.234 24.4898L107.527 45.9406L47.1254 72.2558L45.0027 35.7147Z" fill="#68E1FD"/>
<path d="M45.0027 35.7147L43.2153 19.2853L106.925 1.52588e-05L107.234 24.4898L107.527 45.9406L47.1254 72.2558L45.0027 35.7147Z" fill="url(#paint1_linear)"/>
<path d="M47.8331 22.5126L51.2295 69.6301C51.2295 69.6301 33.8595 93.5392 33.5136 94.5801C33.1676 95.621 43.2364 121.256 43.2364 121.256C43.2364 121.256 29.3414 160.774 29.6926 159.733C30.0438 158.692 86.2998 132.696 86.2998 132.696L90.8284 99.4446L81.7974 76.2206L103.68 46.0609L103.319 5.43987L47.8331 22.5126Z" fill="url(#paint2_linear)"/>
<path opacity="0.44" d="M58.494 76.5292C53.7768 69.787 47.2722 62.4066 49.526 54.4926C58.6796 61.7355 69.005 67.3661 80.0572 71.1417C84.3184 65.8483 74.952 57.8768 78.034 51.8302C78.5776 50.7682 79.464 49.92 80.5501 49.4226C81.6362 48.9252 82.8586 48.8075 84.0199 49.0886C85.1812 49.3697 86.2137 50.0332 86.9507 50.972C87.6877 51.9107 88.0862 53.0699 88.0818 54.2625C90.3222 54.1433 92.508 53.5281 94.4807 52.4615C96.4534 51.3949 98.1635 49.9035 99.4871 48.0956C99.7649 57.2439 92.6418 64.6714 86.588 71.5497C85.7965 72.4494 84.9789 73.438 84.8635 74.6253C84.7692 75.6087 85.1728 76.5659 85.5449 77.4865C93.0401 95.9453 90.1679 116.763 87.175 136.456C87.175 138.863 72.6091 143.513 70.1876 139.475C67.5197 135.018 70.89 123.678 70.8271 118.552C70.6541 103.744 67.0952 88.7689 58.494 76.5292Z" fill="url(#paint3_linear)"/>
<path d="M52.5819 43.0219C51.1398 43.454 49.8019 44.1768 48.6509 45.1455C48.08 45.6358 47.635 46.2554 47.3533 46.9525C47.0715 47.6495 46.9611 48.4038 47.0313 49.1522C47.2748 50.1806 47.7418 51.1431 48.3993 51.9715C55.1554 61.8678 62.2942 72.1251 72.7928 77.9258C76.5142 79.9762 80.5606 81.4094 84.2138 83.5749C87.8671 85.7404 91.2425 88.8317 92.4428 92.9011C94.0152 98.1631 91.7247 104.267 94.3192 109.116C94.6559 109.817 95.1733 110.416 95.8183 110.853C96.6202 111.263 97.5066 111.481 98.4075 111.491C104.64 112.014 111.176 112.411 116.894 109.88C117.744 109.565 118.5 109.04 119.09 108.352C119.572 107.616 119.888 106.785 120.018 105.915C122.491 94.5483 122.975 82.8404 121.449 71.3091C119.536 56.9406 118.304 40.7623 110.898 28.2977C108.623 32.1788 109.771 37.0485 110.552 41.4789C111.134 44.8055 111.469 48.1688 111.805 51.5321C112.088 54.341 112.329 57.359 110.945 59.8226C109.981 61.5331 108.324 62.7623 106.621 63.7195C102.097 66.2406 96.8718 67.1874 91.73 67.8307C86.693 68.4636 81.3363 68.7932 76.7553 66.6015C73.5737 65.0742 71.0684 62.4693 68.6363 59.9168C63.2115 54.2363 57.9701 48.7076 52.5819 43.0219Z" fill="white"/>
<path d="M94.8801 50.4389C94.6137 51.1436 94.4085 51.8698 94.2669 52.6096C94.0771 53.926 94.2802 55.2689 94.8506 56.4708C95.4211 57.6727 96.3338 58.6802 97.4746 59.3676C98.0231 59.633 98.549 59.9426 99.047 60.2934C99.4437 60.6577 99.7631 61.0977 99.9864 61.5873C100.21 62.077 100.332 62.6063 100.347 63.1441C100.371 64.2184 100.253 65.2912 99.9957 66.3348C99.9433 66.5963 99.9328 66.9468 100.179 67.0566C100.255 67.0827 100.335 67.0934 100.415 67.088C102.701 67.0782 104.939 66.4334 106.878 65.2259C107.494 64.8778 108.021 64.3927 108.419 63.8084C109.032 62.7622 108.943 61.5069 108.885 60.3143C108.791 57.1759 109.331 54.0376 109.131 50.8992C108.932 47.7608 107.805 44.4551 105.195 42.6976C104.069 41.964 102.77 41.5367 101.427 41.4579C100.52 41.3899 98.6434 41.2905 97.9044 41.9339C97.5008 42.2896 97.3803 43.2154 97.2073 43.7019C96.9347 44.4865 96.6639 45.2711 96.3949 46.0556L94.8801 50.4389Z" fill="url(#paint4_linear)"/>
<path d="M102.82 35.0504C105.593 35.3015 108.492 35.155 111.034 36.2953C114.781 37.9796 116.883 42.1955 117.124 46.2858C117.36 49.3048 116.554 52.3135 114.839 54.8117C113.972 56.0436 112.828 57.0566 111.5 57.7703C110.172 58.484 108.695 58.8787 107.187 58.923C105.688 58.923 103.963 58.2901 103.554 56.8307C103.384 55.9241 103.571 54.9868 104.078 54.2154C104.451 53.5407 104.933 52.8188 104.781 52.0656C104.678 51.713 104.474 51.3978 104.195 51.1583C103.916 50.9188 103.573 50.7652 103.208 50.7161C102.484 50.6231 101.748 50.6747 101.044 50.8678C101.432 49.0737 101.788 47.0809 100.86 45.496C99.5446 43.2573 96.2425 42.8284 94.906 40.6001C94.3818 39.6848 94.429 38.2045 95.4301 37.8854C95.6245 37.8516 95.811 37.7824 95.9805 37.6814C96.2845 37.4094 96.101 36.923 95.9333 36.5516C95.5769 35.7618 95.1418 34.292 95.4878 33.4132C96.0119 32.1003 96.1691 32.6966 97.1703 33.2563C98.8989 34.2609 100.828 34.8735 102.82 35.0504Z" fill="#3E3E54"/>
<path d="M48.897 37.9639C48.7807 37.5889 48.6036 37.2356 48.3728 36.9177C48.25 36.7639 48.0876 36.6461 47.903 36.5771C47.7184 36.508 47.5185 36.4901 47.3246 36.5255C47.2313 36.5524 47.1452 36.5997 47.0725 36.6639C46.9998 36.7281 46.9423 36.8076 46.9042 36.8967C46.8661 36.9858 46.8483 37.0823 46.8521 37.1791C46.8559 37.2759 46.8812 37.3707 46.9262 37.4565C46.6298 37.1323 46.3631 36.7822 46.1295 36.4104C46.0131 36.2198 45.8531 36.0593 45.6628 35.9421C45.4724 35.8248 45.257 35.7541 45.0341 35.7356C44.7821 35.7621 44.545 35.8674 44.3567 36.0365C44.1684 36.2057 44.0386 36.4299 43.9858 36.6771C43.8784 37.1718 43.8784 37.6837 43.9858 38.1783C44.2297 39.372 44.3177 40.5921 44.2479 41.8084C44.143 42.8545 43.8023 43.9477 44.0644 44.9781C44.3789 46.2596 45.9041 47.2273 47.0887 46.6415C47.5363 46.3633 47.9318 46.0092 48.2575 45.5954C49.3058 44.5074 50.5375 43.932 51.8636 43.2782C51.5911 42.4465 50.7524 41.5939 50.2912 40.8041C49.7586 39.8921 49.2926 38.9429 48.897 37.9639Z" fill="url(#paint5_linear)"/>
<path d="M109.608 25.6928C109.255 24.5244 108.5 23.5183 107.475 22.8526L107.239 24.4898C107.23 24.6409 107.181 24.787 107.098 24.9135C107.026 25.0027 106.932 25.0713 106.825 25.1122C106.302 25.2855 105.751 25.36 105.2 25.3319C104.926 25.3221 104.653 25.3766 104.404 25.491C104.154 25.6055 103.935 25.7767 103.764 25.991C103.648 26.2363 103.599 26.508 103.623 26.7783C103.647 27.0486 103.743 27.3076 103.9 27.5288C104.118 27.8921 104.413 28.203 104.765 28.4389C105.279 28.6953 105.772 28.9927 106.238 29.3281C106.977 30.0081 107.05 31.117 107.25 32.0951C107.449 33.0732 108.041 34.1874 109.042 34.2292C109.613 33.7061 109.703 32.864 109.76 32.0951C109.839 31.0019 110.284 29.9558 110.352 28.8835C110.421 27.8112 109.938 26.6396 109.608 25.6928Z" fill="url(#paint6_linear)"/>
<path d="M127.099 166.119C127.99 167.772 127.718 169.885 127.277 171.716C126.837 173.547 125.396 175.278 123.519 175.404C120.762 175.587 119.945 171.967 118.005 170.006C111.013 162.923 107.292 157.138 106.275 149.993C105.636 145.458 105.678 140.798 104.378 136.394C103.366 132.978 101.568 129.845 100.525 126.456C99.0943 121.811 99.1205 116.868 99.152 112.009C102.506 111.66 105.847 111.194 109.174 110.612C111.129 110.277 117.088 107.997 118.833 108.687C121.868 109.932 120.809 123.139 120.464 126.529C118.923 141.53 118.923 150.956 127.099 166.119Z" fill="#3E3E54"/>
<path d="M127.099 166.119C127.99 167.772 127.718 169.885 127.277 171.716C126.837 173.547 125.396 175.278 123.519 175.404C120.762 175.587 119.945 171.967 118.005 170.006C111.013 162.923 107.292 157.138 106.275 149.993C105.636 145.458 105.678 140.798 104.378 136.394C103.366 132.978 101.568 129.845 100.525 126.456C99.0943 121.811 99.1205 116.868 99.152 112.009C102.506 111.66 105.847 111.194 109.174 110.612C111.129 110.277 117.088 107.997 118.833 108.687C121.868 109.932 120.809 123.139 120.464 126.529C118.923 141.53 118.923 150.956 127.099 166.119Z" fill="url(#paint7_linear)"/>
<path d="M89.686 181.079C89.9166 174.802 92.1547 174.698 92.9776 168.447C93.3654 165.486 93.2501 162.447 93.9682 159.555C94.5625 157.465 95.3869 155.448 96.4264 153.54C102.533 141.41 111.999 132.042 114.719 118.74C115.075 116.993 115.935 109.566 116.05 108.996C116.05 108.996 106.81 110.758 105.043 110.711L96.809 110.492C96.0679 110.414 95.3189 110.513 94.6234 110.779C93.8311 111.247 93.213 111.96 92.8623 112.809C90.4617 117.569 90.4145 123.103 89.6178 128.37C88.1922 137.832 84.2559 146.756 82.5314 156.171C81.8553 159.895 81.5251 163.671 81.1949 167.437C80.786 172.145 81.1949 171.099 80.7756 175.806C80.6632 176.428 80.7323 177.069 80.9747 177.653C81.2885 178.13 81.7223 178.516 82.2327 178.772C84.5913 180.263 87.0862 182.088 89.686 181.079Z" fill="#3E3E54"/>
<path d="M72.0537 182.088C72.0013 183.354 73.3955 184.128 74.5958 184.542C78.2761 185.82 82.0993 186.643 85.9801 186.995C86.2583 187.034 86.5406 187.034 86.8187 186.995C88.019 186.749 88.4278 185.269 88.6008 184.055L88.8838 182.041C88.9168 181.924 88.9231 181.8 88.9023 181.68C88.8814 181.56 88.8339 181.445 88.7633 181.346C88.5798 181.157 88.2706 181.199 88.0033 181.231C84.8584 181.597 82.9296 178.338 79.8686 178.521C78.0498 178.605 72.1637 179.709 72.0537 182.088Z" fill="#3E3E54"/>
<path d="M115.269 174.766C114.745 174.923 114.168 175.174 114.032 175.697C113.982 176.067 114.078 176.442 114.299 176.743C115.246 178.118 116.695 179.068 118.335 179.389C119.962 179.696 121.622 179.785 123.273 179.656L125.479 179.588C125.844 179.607 126.206 179.525 126.527 179.353C126.731 179.171 126.892 178.947 127.001 178.697C127.11 178.447 127.163 178.176 127.156 177.904C127.262 176.622 127.239 175.332 127.088 174.054C127.062 173.855 127.01 173.625 126.826 173.531C126.643 173.437 126.365 173.651 126.182 173.819C124.667 175.184 122.581 174.049 120.882 173.85C119.074 173.672 116.962 174.243 115.269 174.766Z" fill="#3E3E54"/>
<path d="M64.2598 42.3785C64.2598 42.3785 64.5376 42.98 64.9569 44.0419" stroke="white" stroke-width="0.58" stroke-miterlimit="10"/>
<path d="M66.1569 47.3633C68.5679 54.7803 71.5451 68.8089 63.5886 77.7009C52.3615 90.2544 45.5529 88.9049 48.2785 100.109C50.1549 107.835 52.9957 116.533 54.5681 121.188" stroke="white" stroke-width="0.58" stroke-miterlimit="10" stroke-dasharray="6.74 6.74"/>
<path d="M55.1604 122.852C55.5377 123.934 55.7631 124.557 55.7631 124.557C55.7631 124.557 55.3124 125.08 54.6362 125.969" stroke="white" stroke-width="0.58" stroke-miterlimit="10"/>
<path d="M52.5086 128.898C49.1278 133.878 45.3121 141.311 53.0327 140.855C64.6005 140.175 81.2734 127.952 78.5531 121.162C75.8328 114.373 67.6615 110.633 64.9254 104.858C62.1894 99.0837 70.691 101.464 75.4712 94.3343C80.2513 87.205 76.8339 84.485 75.1305 77.0157C73.427 69.5464 80.2356 75.9696 83.6425 58.3371C87.0494 40.7047 81.2577 36.9439 76.8287 34.9092C73.5947 33.4185 81.6455 26.4774 86.2055 22.8526" stroke="white" stroke-width="0.58" stroke-miterlimit="10" stroke-dasharray="6.92 6.92"/>
<path d="M87.668 21.7332C88.5538 21.0533 89.1094 20.6453 89.1094 20.6453" stroke="white" stroke-width="0.58" stroke-miterlimit="10"/>
<path d="M88.9834 16.2306L90.1313 24.3799" stroke="white" stroke-width="2.31" stroke-miterlimit="10"/>
<path d="M84.9424 19.8816H92.773" stroke="white" stroke-width="2.31" stroke-miterlimit="10"/>
<path d="M77.0329 102.144C77.8782 102.144 78.5634 101.46 78.5634 100.616C78.5634 99.7727 77.8782 99.0889 77.0329 99.0889C76.1877 99.0889 75.5024 99.7727 75.5024 100.616C75.5024 101.46 76.1877 102.144 77.0329 102.144Z" fill="white"/>
<path d="M61.2932 79.4741C62.1385 79.4741 62.8237 78.7903 62.8237 77.9468C62.8237 77.1032 62.1385 76.4194 61.2932 76.4194C60.4479 76.4194 59.7627 77.1032 59.7627 77.9468C59.7627 78.7903 60.4479 79.4741 61.2932 79.4741Z" fill="white"/>
</g>
<defs>
<linearGradient id="paint0_linear" x1="60.8371" y1="66.0628" x2="67.9572" y2="156.393" gradientUnits="userSpaceOnUse">
<stop stop-opacity="0"/>
<stop offset="0.99"/>
</linearGradient>
<linearGradient id="paint1_linear" x1="8909.92" y1="2434.3" x2="13318" y2="17713.4" gradientUnits="userSpaceOnUse">
<stop stop-opacity="0"/>
<stop offset="0.99"/>
</linearGradient>
<linearGradient id="paint2_linear" x1="191.385" y1="-71.4032" x2="-38.0854" y2="204.799" gradientUnits="userSpaceOnUse">
<stop offset="0.02" stop-color="white" stop-opacity="0"/>
<stop offset="0.58" stop-color="white" stop-opacity="0.39"/>
<stop offset="0.68" stop-color="white" stop-opacity="0.68"/>
<stop offset="1" stop-color="white"/>
</linearGradient>
<linearGradient id="paint3_linear" x1="-3276.26" y1="8192.99" x2="32155.4" y2="15576.3" gradientUnits="userSpaceOnUse">
<stop stop-opacity="0"/>
<stop offset="0.99"/>
</linearGradient>
<linearGradient id="paint4_linear" x1="94.1882" y1="54.252" x2="109.173" y2="54.252" gradientUnits="userSpaceOnUse">
<stop stop-color="#E5C5D5"/>
<stop offset="0.42" stop-color="#EAD4D1"/>
<stop offset="1" stop-color="#F0E9CB"/>
</linearGradient>
<linearGradient id="paint5_linear" x1="991.983" y1="1008.09" x2="1113.11" y2="1008.09" gradientUnits="userSpaceOnUse">
<stop stop-color="#E5C5D5"/>
<stop offset="0.42" stop-color="#EAD4D1"/>
<stop offset="1" stop-color="#F0E9CB"/>
</linearGradient>
<linearGradient id="paint6_linear" x1="1674.86" y1="744.698" x2="1761.7" y2="744.698" gradientUnits="userSpaceOnUse">
<stop stop-color="#E5C5D5"/>
<stop offset="0.42" stop-color="#EAD4D1"/>
<stop offset="1" stop-color="#F0E9CB"/>
</linearGradient>
<linearGradient id="paint7_linear" x1="8633.55" y1="19468.4" x2="7304.64" y2="19310.9" gradientUnits="userSpaceOnUse">
<stop stop-opacity="0"/>
<stop offset="0.99"/>
</linearGradient>
<clipPath id="clip0">
<rect width="156" height="187" fill="white"/>
</clipPath>
</defs>
</svg>
