<svg width="4311" height="793" viewBox="0 0 4311 793" fill="none" xmlns="http://www.w3.org/2000/svg">
<rect x="0.000976562" y="293" width="4309.89" height="500" fill="url(#paint0_linear)"/>
<path fill-rule="evenodd" clip-rule="evenodd" d="M4310.37 150L4130.24 131.481C3951.38 112.593 3592.4 75.1852 3232.14 68.8889C2873.15 62.5926 2514.17 87.7778 2155.18 112.593C1796.2 137.407 1437.21 162.593 1076.95 143.704C717.968 125.185 358.984 62.5926 180.131 31.4815L-0.000176296 0V300H180.131C358.984 300 717.968 300 1076.95 300C1437.21 300 1796.2 300 2155.18 300C2514.17 300 2873.15 300 3232.14 300C3592.4 300 3951.38 300 4130.24 300H4310.37V150Z" fill="#1958D1"/>
<defs>
<linearGradient id="paint0_linear" x1="2154.95" y1="395.829" x2="2154.95" y2="793" gradientUnits="userSpaceOnUse">
<stop stop-color="#1958D1"/>
<stop offset="1" stop-color="#01266C"/>
</linearGradient>
</defs>
</svg>
