<svg width="3935" height="947" viewBox="0 0 3935 947" fill="none" xmlns="http://www.w3.org/2000/svg">
<rect y="355" width="3935" height="592" fill="url(#paint0_linear)"/>
<path fill-rule="evenodd" clip-rule="evenodd" d="M0 0L164.444 17.8903C327.722 35.4298 655.445 70.8597 984.333 100.677C1312.06 130.143 1639.78 153.997 1967.5 136.107C2295.22 118.216 2622.94 59.2836 2951.83 35.4298C3279.56 11.9269 3607.28 23.503 3770.56 29.4664L3935 35.4298V355H3770.56C3607.28 355 3279.56 355 2951.83 355C2622.94 355 2295.22 355 1967.5 355C1639.78 355 1312.06 355 984.333 355C655.445 355 327.722 355 164.444 355H0V0Z" fill="url(#paint1_linear)"/>
<defs>
<linearGradient id="paint0_linear" x1="1967.5" y1="476.749" x2="1967.5" y2="947" gradientUnits="userSpaceOnUse">
<stop stop-color="#1958D1"/>
<stop offset="1" stop-color="#01266C"/>
</linearGradient>
<linearGradient id="paint1_linear" x1="1967.5" y1="73.0084" x2="1967.5" y2="355" gradientUnits="userSpaceOnUse">
<stop stop-color="#1958D1"/>
<stop offset="1" stop-color="#01266C"/>
</linearGradient>
</defs>
</svg>
