<svg width="5824" height="940" viewBox="0 0 5824 940" fill="none" xmlns="http://www.w3.org/2000/svg">
<rect x="0.00146484" y="347.806" width="5822.73" height="592.089" fill="url(#paint0_linear)"/>
<path fill-rule="evenodd" clip-rule="evenodd" d="M5823.37 178.468L5580.01 156.539C5338.37 134.171 4853.38 89.8744 4366.66 82.4185C3881.67 74.9626 3396.68 104.786 2911.68 134.171C2426.69 163.557 1941.7 193.38 1454.98 171.013C969.986 149.083 484.993 74.9626 243.359 38.1215L-9.71155e-05 0.841797V356.095H243.359C484.993 356.095 969.986 356.095 1454.98 356.095C1941.7 356.095 2426.69 356.095 2911.68 356.095C3396.68 356.095 3881.67 356.095 4366.66 356.095C4853.38 356.095 5338.37 356.095 5580.01 356.095H5823.37V178.468Z" fill="#1958D1"/>
<defs>
<linearGradient id="paint0_linear" x1="2911.36" y1="469.574" x2="2911.36" y2="939.895" gradientUnits="userSpaceOnUse">
<stop stop-color="#1958D1"/>
<stop offset="1" stop-color="#01266C"/>
</linearGradient>
</defs>
</svg>
