<svg width="24" height="39" viewBox="0 0 24 39" fill="none" xmlns="http://www.w3.org/2000/svg">
<circle cx="12" cy="12" r="11.9" fill="#54C1FF" stroke="#0094FF" stroke-width="0.2"/>
<path d="M12 38.5C8.47738 33.7269 -0.120001 17.4706 0.198817 13H23.8269C23.4507 18.4556 21.493 22.0875 12 38.5Z" fill="#54C1FF" stroke="#0094FF" stroke-width="0.2"/>
<path d="M0.198822 12H23.7697C23.8105 13.4131 23.6513 13.9725 23 14.5L1 14C0.259936 14.1777 0.25923 13.5316 0.198822 12Z" fill="#54C1FF"/>
<circle cx="12" cy="12" r="10" fill="#12AEF1"/>
<circle cx="12" cy="12" r="10" fill="url(#paint0_linear)"/>
<path d="M10.4338 8.30925V12.0414H8.33447C8.38362 10.2346 8.86165 9.42576 10.4338 8.30925Z" fill="#D7DB08" stroke="#DDE120"/>
<path d="M10.967 5.07692V12.0414H15.7322C14.7176 8.97582 13.7046 7.43857 10.967 5.07692Z" fill="#D7DB08" stroke="#DDE120"/>
<path d="M18.3314 12.6079H5.66864C6.41732 15.153 9.08841 15.9489 10.2006 15.8069H14.0327C15.4129 15.8498 17.9013 15.1497 18.3314 12.6079Z" fill="#D7DB08" stroke="#DDE120"/>
<path d="M21.4083 15.2071C21.4083 15.2071 17.336 13.5828 13.9041 15.2071C10.4721 16.8314 5.48405 12.9911 2.76923 15.787" stroke="#0075FF" stroke-width="0.5"/>
<path d="M21.2899 15.6982C21.2899 15.6982 17.336 14.1154 13.9041 15.7396C10.4721 17.3639 5.75032 13.4053 3.03549 16.2012" stroke="#0075FF" stroke-width="0.5"/>
<path d="M21.0828 16.2012C21.0828 16.2012 17.336 14.6479 13.9041 16.2722C10.4721 17.8964 6.0166 13.8787 3.30177 16.6746" stroke="#0075FF" stroke-width="0.5"/>
<path d="M21.3787 15.432C21.3787 15.432 17.336 13.8195 13.9041 15.4438C10.4721 17.068 5.6024 13.1686 2.88757 15.9645" stroke="#2484F4" stroke-width="0.5"/>
<path d="M21.1716 15.9349C21.1716 15.9349 17.336 14.3521 13.9041 15.9763C10.4721 17.6006 5.86867 13.6124 3.15384 16.4083" stroke="#2484F4" stroke-width="0.5"/>
<path d="M20.9349 16.4379C20.9349 16.4379 17.336 14.8846 13.9041 16.5089C10.4721 18.1331 6.16452 14.145 3.44969 16.9408" stroke="#2484F4" stroke-width="0.5"/>
<circle cx="12" cy="12" r="9.9" stroke="#0094FF" stroke-width="0.2"/>
<circle cx="12" cy="12" r="9.9" stroke="#0094FF" stroke-width="0.2"/>
<defs>
<linearGradient id="paint0_linear" x1="12.3846" y1="22" x2="12" y2="2" gradientUnits="userSpaceOnUse">
<stop stop-color="#0038FF"/>
<stop offset="0.495971" stop-color="#21CFF5"/>
<stop offset="1" stop-color="#59E1FF"/>
</linearGradient>
</defs>
</svg>
