<svg width="100" height="100" viewBox="0 0 100 100" fill="none" xmlns="http://www.w3.org/2000/svg">
<circle cx="50" cy="50" r="50" fill="#12AEF1"/>
<circle cx="50" cy="50" r="50" fill="url(#paint0_linear)"/>
<path d="M42.1691 31.5462V50.2071H31.6724C31.9181 41.173 34.3083 37.1288 42.1691 31.5462Z" fill="#D7DB08" stroke="#DDE120" stroke-width="2"/>
<path d="M44.8349 15.3846V50.2071H68.6609C63.5882 34.8791 58.5229 27.1929 44.8349 15.3846Z" fill="#D7DB08" stroke="#DDE120" stroke-width="2"/>
<path d="M81.6568 53.0396H18.3432C22.0866 65.7649 35.4421 69.7445 41.0028 69.0346H60.1635C67.0646 69.2489 79.5066 65.7483 81.6568 53.0396Z" fill="#D7DB08" stroke="#DDE120" stroke-width="2"/>
<path d="M97.0414 66.0355C97.0414 66.0355 76.6802 57.9142 59.5204 66.0355C42.3607 74.1568 17.4203 54.9556 3.84615 68.9349" stroke="#0075FF" stroke-width="1.5"/>
<path d="M96.4497 68.4911C96.4497 68.4911 76.6802 60.5769 59.5204 68.6982C42.3607 76.8195 18.7517 57.0266 5.17751 71.0059" stroke="#0075FF" stroke-width="1.5"/>
<path d="M95.4142 71.0059C95.4142 71.0059 76.6802 63.2396 59.5204 71.3609C42.3607 79.4822 20.083 59.3935 6.50888 73.3728" stroke="#0075FF" stroke-width="1.5"/>
<path d="M96.8935 67.1598C96.8935 67.1598 76.6802 59.0976 59.5204 67.2189C42.3607 75.3402 18.012 55.8432 4.43787 69.8225" stroke="#2484F4" stroke-width="1.5"/>
<path d="M95.858 69.6745C95.858 69.6745 76.6802 61.7604 59.5204 69.8816C42.3607 78.0029 19.3434 58.0621 5.76923 72.0414" stroke="#2484F4" stroke-width="1.5"/>
<path d="M94.6745 72.1894C94.6745 72.1894 76.6802 64.4231 59.5204 72.5444C42.3607 80.6657 20.8227 60.7249 7.24852 74.7041" stroke="#2484F4" stroke-width="1.5"/>
<defs>
<linearGradient id="paint0_linear" x1="51.9231" y1="100" x2="50" y2="2.16409e-06" gradientUnits="userSpaceOnUse">
<stop stop-color="#0038FF"/>
<stop offset="0.495971" stop-color="#21CFF5"/>
<stop offset="1" stop-color="#59E1FF"/>
</linearGradient>
</defs>
</svg>
