<svg width="100" height="100" viewBox="0 0 100 100" fill="none" xmlns="http://www.w3.org/2000/svg">
<circle cx="50" cy="50" r="50" fill="#12AEF1"/>
<circle cx="50" cy="50" r="50" fill="url(#paint0_linear)"/>
<path d="M54.8817 39.9408L66.4201 72.7811" stroke="#F17400" stroke-width="5"/>
<path d="M79.8817 30.9172L30.4734 50.1479C29.4172 37.2909 33.2003 31.1519 48.0769 22.1894C63.1289 17.4718 69.5296 21.1212 79.8817 30.9172Z" fill="#F2DB05"/>
<path d="M48.0769 22.0414C60.6509 18.0473 71.6111 21.0373 79.8817 30.7692L30.3254 50C28.2544 41.716 35.503 26.0355 48.0769 22.0414Z" stroke="#F17400" stroke-width="5"/>
<circle cx="47.1894" cy="19.0828" r="2.81065" fill="#F17400"/>
<path d="M43.3432 25C42.7472 36.2119 43.0375 40.0686 44.2308 43.0473L67.0118 34.3195C64.4278 28.9284 61.4352 26.1136 52.8106 22.0414L43.3432 25Z" fill="#F17400"/>
<path d="M54.142 68.9349C35.0592 63.9053 5.17751 71.8935 5.17751 71.8935L6.50887 74.4083L94.2308 72.929L96.1538 68.9349C96.1538 68.9349 77.073 72.5135 66.2722 71.276C62.8113 70.8794 58.7728 70.1554 54.142 68.9349Z" fill="#FFF500"/>
<defs>
<linearGradient id="paint0_linear" x1="53.5503" y1="100" x2="50" y2="-2.66272" gradientUnits="userSpaceOnUse">
<stop offset="0.264813" stop-color="#FFF500"/>
<stop offset="0.292763" stop-color="#1DB2F2"/>
<stop offset="1" stop-color="#59E1FF"/>
</linearGradient>
</defs>
</svg>
