<svg width="24" height="39" viewBox="0 0 24 39" fill="none" xmlns="http://www.w3.org/2000/svg">
<circle cx="12" cy="12" r="11.9" fill="#FFAA05" stroke="#0094FF" stroke-width="0.2"/>
<path d="M12 38.5C8.47739 33.7269 -0.119994 17.4706 0.198825 13H23.8269C23.4507 18.4556 21.493 22.0875 12 38.5Z" fill="#FFAA05" stroke="#0094FF" stroke-width="0.2"/>
<path d="M0.198822 12H23.7697C23.8105 13.4131 23.6513 13.9725 23 14.5L1 14C0.259936 14.1777 0.25923 13.5316 0.198822 12Z" fill="#FFAA05"/>
<circle cx="12" cy="12" r="10" fill="#12AEF1"/>
<circle cx="12" cy="12" r="10" fill="url(#paint0_linear)"/>
<path d="M12.9763 9.98816L15.284 16.5562" stroke="#F17400"/>
<path d="M17.9763 8.18343L8.09467 12.0296C7.88343 9.45817 8.64005 8.23037 11.6154 6.43786C14.6258 5.49435 15.9059 6.22422 17.9763 8.18343Z" fill="#F2DB05"/>
<path d="M11.6154 6.40828C14.1302 5.60946 16.3222 6.20745 17.9763 8.15384L8.06509 12C7.65089 10.3432 9.10059 7.20709 11.6154 6.40828Z" stroke="#F17400"/>
<circle cx="11.4379" cy="5.81657" r="0.56213" fill="#F17400"/>
<path d="M10.6686 7C10.5495 9.24237 10.6075 10.0137 10.8462 10.6095L15.4024 8.8639C14.8856 7.78567 14.287 7.22272 12.5621 6.40828L10.6686 7Z" fill="#F17400"/>
<path d="M12.8284 15.787C9.01183 14.7811 3.0355 16.3787 3.0355 16.3787L3.30177 16.8817L20.8462 16.5858L21.2308 15.787C21.2308 15.787 17.4146 16.5027 15.2544 16.2552C14.5623 16.1759 13.7546 16.0311 12.8284 15.787Z" fill="#FFF500"/>
<circle cx="12" cy="12" r="9.9" stroke="#0094FF" stroke-width="0.2"/>
<defs>
<linearGradient id="paint0_linear" x1="12.7101" y1="22" x2="12" y2="1.46746" gradientUnits="userSpaceOnUse">
<stop offset="0.264813" stop-color="#FFF500"/>
<stop offset="0.292763" stop-color="#1DB2F2"/>
<stop offset="1" stop-color="#59E1FF"/>
</linearGradient>
</defs>
</svg>
