<svg width="56" height="64" viewBox="0 0 56 64" fill="currentColor" xmlns="http://www.w3.org/2000/svg">
<path d="M55.4075 48.094L53.3677 37.3007C53.2825 36.8534 52.9847 36.4757 52.5686 36.29C52.1535 36.1033 51.673 36.1333 51.2829 36.3678L41.876 42.0385C41.3249 42.3705 41.0738 43.0366 41.2678 43.6489C41.461 44.2622 42.0492 44.6615 42.6905 44.6169L46.3648 44.3606C42.8565 49.0756 37.576 51.0107 31.5193 51.5067V20.6292H34.5441C35.0319 20.9923 35.6315 21.2144 36.2862 21.2144C37.9059 21.2144 39.2196 19.9018 39.2196 18.2819C39.2196 16.6611 37.9059 15.3485 36.2862 15.3485C35.6304 15.3485 35.0306 15.5716 34.5429 15.9347H31.5192V11.694C33.2406 10.5495 34.3798 8.59673 34.3798 6.38038C34.38 2.86284 31.5174 0 27.9997 0C24.4821 0 21.6192 2.86284 21.6192 6.38038C21.6192 8.59673 22.7586 10.5495 24.4799 11.694V15.9349H21.4563C20.9685 15.5717 20.369 15.3486 19.7132 15.3486C18.0934 15.3486 16.7797 16.6612 16.7797 18.282C16.7797 19.9018 18.0934 21.2145 19.7132 21.2145C20.3679 21.2145 20.9675 20.9925 21.4552 20.6294H24.4799V51.5068C18.4233 51.0109 13.1428 49.0757 9.63469 44.3607L13.3089 44.617C13.9502 44.6616 14.5384 44.2624 14.7315 43.649C14.9256 43.0369 14.6745 42.3706 14.1234 42.0386L4.71638 36.3679C4.32617 36.1334 3.84582 36.1034 3.43069 36.2901C3.01461 36.4758 2.71683 36.8535 2.63167 37.3008L0.591698 48.0941C0.472317 48.7259 0.801219 49.3569 1.38748 49.6203C1.97373 49.8851 2.66374 49.7128 3.05813 49.2042L5.25265 46.3736C9.5432 53.3215 16.2898 59.1384 24.0711 60.6483L27.0157 63.5929C27.5595 64.1357 28.4393 64.1357 28.9821 63.5929L31.9268 60.6483C39.708 59.1395 46.4556 53.3215 50.7463 46.3736L52.9408 49.2042C53.3352 49.7128 54.0252 49.8851 54.6113 49.6203C55.198 49.3568 55.5269 48.7258 55.4075 48.094ZM27.9997 4.69424C28.9294 4.69424 29.6857 5.45067 29.6857 6.38038C29.6857 7.31009 28.9294 8.06653 27.9997 8.06653C27.07 8.06653 26.3134 7.31009 26.3134 6.38038C26.3136 5.45067 27.07 4.69424 27.9997 4.69424Z" fill="currentColor"/>
</svg>
