<svg width="512" height="512" viewBox="0 0 512 512" fill="currentColor" xmlns="http://www.w3.org/2000/svg">
<path d="M488 240V208C488 206.707 487.686 205.433 487.085 204.288C486.485 203.142 485.615 202.16 484.552 201.424L479.216 197.728C413.637 152.331 335.775 128.01 256.016 128.01C176.257 128.01 98.3947 152.331 32.816 197.728L27.48 201.424C26.4107 202.156 25.5352 203.137 24.929 204.283C24.3228 205.428 24.004 206.704 24 208V240H8V256H504V240H488ZM40 212.192L41.888 210.88C104.797 167.331 179.489 144.001 256 144.001C332.511 144.001 407.203 167.331 470.112 210.88L472 212.192V240H456V224C455.952 222.613 455.567 221.258 454.877 220.053C454.187 218.849 453.213 217.831 452.04 217.088C393.408 179.776 325.346 159.972 255.849 160C186.351 160.028 118.306 179.889 59.704 217.248C58.5684 217.971 57.6335 218.969 56.9861 220.149C56.3386 221.329 55.9994 222.654 56 224V240H40V212.192ZM104 211.04C109.288 208.48 114.6 206 120 203.712V240H104V211.04ZM88 240H72V228.416C77.24 225.168 82.616 222.208 88 219.248V240ZM136 197.296C141.28 195.36 146.64 193.696 152 192.024V240.024H136V197.296ZM168 187.44C173.312 186.056 178.624 184.624 184 183.488V240H168V187.44ZM200 180.688C205.333 179.824 210.667 179.088 216 178.48V240H200V180.688ZM232 176.832C237.312 176.472 242.656 176.4 248 176.28V240H232V176.832ZM264 176.28C269.344 176.4 274.688 176.464 280 176.832V240H264V176.28ZM296 178.48C301.36 179.099 306.693 179.835 312 180.688V240H296V178.48ZM328 183.496C333.376 184.632 338.68 186.064 344 187.448V240H328V183.496ZM360 192.04C365.36 193.712 370.72 195.384 376 197.32V240H360V192.04ZM392 203.736C397.392 206.024 402.712 208.536 408 211.064V240H392V203.736ZM424 219.264C429.376 222.216 434.76 225.176 440 228.424V240H424V219.264Z" fill="currentColor"/>
<path d="M8 288H24V304H16C13.8783 304 11.8434 304.843 10.3431 306.343C8.84285 307.843 8 309.878 8 312V376C8 378.122 8.84285 380.157 10.3431 381.657C11.8434 383.157 13.8783 384 16 384H80C82.1217 384 84.1566 383.157 85.6569 381.657C87.1571 380.157 88 378.122 88 376V312C88 309.878 87.1571 307.843 85.6569 306.343C84.1566 304.843 82.1217 304 80 304H72V288H232V304H224C221.878 304 219.843 304.843 218.343 306.343C216.843 307.843 216 309.878 216 312V376C216 378.122 216.843 380.157 218.343 381.657C219.843 383.157 221.878 384 224 384H288C290.122 384 292.157 383.157 293.657 381.657C295.157 380.157 296 378.122 296 376V312C296 309.878 295.157 307.843 293.657 306.343C292.157 304.843 290.122 304 288 304H280V288H440V304H432C429.878 304 427.843 304.843 426.343 306.343C424.843 307.843 424 309.878 424 312V376C424 378.122 424.843 380.157 426.343 381.657C427.843 383.157 429.878 384 432 384H496C498.122 384 500.157 383.157 501.657 381.657C503.157 380.157 504 378.122 504 376V312C504 309.878 503.157 307.843 501.657 306.343C500.157 304.843 498.122 304 496 304H488V288H504V272H8V288ZM72 368H24V320H72V368ZM56 304H40V288H56V304ZM280 368H232V320H280V368ZM264 304H248V288H264V304ZM488 368H440V320H488V368ZM472 304H456V288H472V304Z" fill="currentColor"/>
</svg>
