<svg width="512" height="512" viewBox="0 0 512 512" fill="currentColor" xmlns="http://www.w3.org/2000/svg">
<g>
<path d="M494.934 0H17.0668C7.59323 0.0610865 -0.0423768 7.78069 0.000177005 17.2544V50.7477C-0.003208 52.5849 0.284815 54.4109 0.85351 56.1579L18.654 110.771C20.8323 117.66 27.1296 122.418 34.3518 122.632C41.5741 122.845 48.1412 118.467 50.7223 111.718L69.1202 64.5632L87.117 101.385C89.9517 107.256 95.8969 110.988 102.417 110.988C108.938 110.988 114.883 107.256 117.718 101.385L119.424 97.7067L146.236 152.516C149.037 158.412 154.992 162.16 161.519 162.133H162.006C168.725 161.974 174.711 157.845 177.246 151.62L214.562 62.3957L224.256 78.9163C227.294 84.1467 232.885 87.3655 238.934 87.3655C244.982 87.3655 250.573 84.1467 253.611 78.9163L263.851 61.4059L290.816 116.548C293.789 122.718 300.175 126.499 307.014 126.139C313.853 125.779 319.807 121.349 322.116 114.901L332.356 86.9205L351.062 144.265C353.223 151.288 359.687 156.102 367.036 156.16H367.224C374.507 156.202 380.994 151.563 383.309 144.657L410.872 65.5189L419.9 83.968C422.73 89.8457 428.677 93.5827 435.2 93.5827C441.724 93.5827 447.67 89.8457 450.5 83.968L459.204 66.1163L470.195 99.8229C472.425 106.901 478.988 111.715 486.409 111.715C493.83 111.715 500.393 106.901 502.622 99.8229L511.155 73.6597C511.728 71.9109 512.016 70.0813 512.009 68.2411V17.2544C512.051 7.77738 504.41 0.0564 494.934 0V0ZM494.934 68.3093L486.4 94.4896L475.426 60.7744C473.313 54.1426 467.373 49.4676 460.43 48.9732C453.487 48.4787 446.944 52.2647 443.913 58.5301L435.2 76.4331L426.206 58.0267C423.21 51.8156 416.758 48.0313 409.875 48.4486C402.992 48.8659 397.044 53.4021 394.82 59.9296L367.232 139.017L348.536 81.6213C346.317 74.6758 339.918 69.9172 332.628 69.7917C325.338 69.6662 318.779 74.2016 316.322 81.0667L306.082 109.082L279.117 53.9392C276.391 48.2883 270.771 44.6019 264.501 44.3536C258.232 44.1052 252.338 47.3355 249.174 52.7531L238.934 70.272L229.282 53.76C226.04 48.1641 219.899 44.8973 213.446 45.3358C206.993 45.7743 201.351 49.8419 198.895 55.8251L161.579 145.067L134.767 90.2485C131.932 84.3766 125.987 80.645 119.467 80.645C112.946 80.645 107.001 84.3766 104.167 90.2485L102.4 93.8667L84.4802 57.0709C81.5338 50.9631 75.239 47.1908 68.4635 47.4727C61.688 47.7545 55.7283 52.0366 53.2994 58.368L34.8844 105.455L17.0668 50.7477V17.0667L494.934 17.2544V68.3093Z" fill="currentColor"/>
<path d="M213.333 298.667C199.195 298.667 187.733 310.128 187.733 324.267C187.733 338.405 199.195 349.867 213.333 349.867C227.472 349.867 238.933 338.405 238.933 324.267C238.933 310.128 227.472 298.667 213.333 298.667ZM213.333 332.8C208.621 332.8 204.8 328.979 204.8 324.267C204.8 319.554 208.621 315.733 213.333 315.733C218.046 315.733 221.867 319.554 221.867 324.267C221.867 328.979 218.046 332.8 213.333 332.8Z" fill="currentColor"/>
<path d="M196.267 179.2C177.415 179.2 162.133 194.482 162.133 213.333C162.133 232.185 177.415 247.467 196.267 247.467C215.118 247.467 230.4 232.185 230.4 213.333C230.4 194.482 215.118 179.2 196.267 179.2ZM196.267 230.4C186.841 230.4 179.2 222.759 179.2 213.333C179.2 203.908 186.841 196.267 196.267 196.267C205.692 196.267 213.333 203.908 213.333 213.333C213.333 222.759 205.692 230.4 196.267 230.4Z" fill="currentColor"/>
<path d="M230.4 273.067C235.113 273.067 238.933 269.246 238.933 264.533C238.933 259.821 235.113 256 230.4 256C225.687 256 221.867 259.821 221.867 264.533C221.867 269.246 225.687 273.067 230.4 273.067Z" fill="currentColor"/>
<path d="M452.267 264.533C466.405 264.533 477.867 253.072 477.867 238.933C477.867 224.795 466.405 213.333 452.267 213.333C438.128 213.333 426.667 224.795 426.667 238.933C426.667 253.072 438.128 264.533 452.267 264.533ZM452.267 230.4C456.979 230.4 460.8 234.22 460.8 238.933C460.8 243.646 456.979 247.467 452.267 247.467C447.554 247.467 443.733 243.646 443.733 238.933C443.733 234.22 447.554 230.4 452.267 230.4Z" fill="currentColor"/>
<path d="M477.867 128C459.015 128 443.733 143.282 443.733 162.133C443.733 180.985 459.015 196.267 477.867 196.267C496.718 196.267 512 180.985 512 162.133C512 143.282 496.718 128 477.867 128ZM477.867 179.2C468.441 179.2 460.8 171.559 460.8 162.133C460.8 152.708 468.441 145.067 477.867 145.067C487.292 145.067 494.933 152.708 494.933 162.133C494.933 171.559 487.292 179.2 477.867 179.2Z" fill="currentColor"/>
<path d="M426.667 196.267C431.379 196.267 435.2 192.446 435.2 187.733C435.2 183.021 431.379 179.2 426.667 179.2C421.954 179.2 418.133 183.021 418.133 187.733C418.133 192.446 421.954 196.267 426.667 196.267Z" fill="currentColor"/>
<path d="M477.866 443.733C474.175 443.734 470.509 444.336 467.012 445.517C461.597 428.191 447.366 415.059 429.662 411.051C430.199 409.344 430.609 407.637 431.061 405.879C432.667 406.028 434.248 406.384 435.763 406.938C441.082 408.719 446.657 409.619 452.266 409.6C459.115 409.8 465.744 407.168 470.589 402.323C475.434 397.477 478.067 390.849 477.866 384C477.862 379.342 474.102 375.559 469.444 375.526H469.333C464.694 375.553 460.915 379.26 460.8 383.898C461.051 386.238 460.238 388.567 458.583 390.241C456.929 391.915 454.609 392.757 452.266 392.533C448.352 392.551 444.462 391.905 440.764 390.622C438.667 389.955 436.521 389.453 434.346 389.12C434.897 384.589 435.182 380.031 435.2 375.467C435.2 374.494 435.089 373.675 435.063 372.736C451.736 366.839 462.317 350.42 460.8 332.8C460.426 325.769 462.564 318.833 466.833 313.233C470.067 309.885 470.021 304.562 466.729 301.271C463.437 297.979 458.115 297.933 454.767 301.167C447.18 309.913 443.231 321.233 443.733 332.8C444.828 341.812 440.47 350.615 432.64 355.209C429.268 343.844 423.307 333.416 415.223 324.745C414.652 324.062 414.105 323.379 413.517 322.697C421.117 313.437 425.706 302.075 426.666 290.133C426.667 285.469 422.9 281.679 418.236 281.651C415.963 281.565 413.754 282.413 412.122 283.997C410.491 285.582 409.579 287.765 409.6 290.039C409.023 296.179 406.974 302.089 403.626 307.268C399.684 296.733 398.779 285.303 401.015 274.278C401.684 269.613 398.445 265.288 393.779 264.619C389.113 263.949 384.788 267.189 384.119 271.855C380.33 298.368 386.039 313.361 393.642 324.651C390.562 324.412 387.413 324.267 384 324.267C379.379 324.559 374.857 322.847 371.589 319.568C368.321 316.288 366.624 311.76 366.933 307.14C366.917 302.427 363.083 298.62 358.37 298.637C353.657 298.653 349.85 302.487 349.866 307.2C349.597 316.333 353.106 325.172 359.567 331.633C366.028 338.093 374.867 341.603 384 341.333C392.384 341.32 400.74 342.323 408.883 344.32C412.672 349.511 415.347 355.429 416.742 361.702C411.773 359.619 406.454 358.498 401.066 358.4C396.354 358.4 392.533 362.221 392.533 366.933C392.533 371.646 396.354 375.467 401.066 375.467C407.126 375.913 412.954 377.976 417.945 381.44C417.275 391.207 415.291 400.84 412.049 410.078C403.428 411.042 395.2 414.207 388.156 419.268C366.178 406.582 341.097 400.279 315.733 401.067C288.426 401.067 254.413 407.612 235.102 425.438C218.467 414.695 198.997 409.179 179.2 409.6C163.323 409.481 147.618 412.894 133.222 419.593C124.848 409.523 112.943 403.033 99.9422 401.451C96.6989 392.216 94.7155 382.586 94.0457 372.821C99.0381 369.353 104.871 367.29 110.933 366.848C115.646 366.848 119.466 363.028 119.466 358.315C119.466 353.602 115.646 349.781 110.933 349.781C105.546 349.879 100.226 351 95.2574 353.084C96.6507 346.81 99.3264 340.892 103.117 335.701C111.26 333.706 119.615 332.703 128 332.715C137.132 332.984 145.972 329.475 152.433 323.014C158.893 316.554 162.403 307.714 162.133 298.581C162.133 293.895 158.354 290.085 153.668 290.048H153.6C148.923 290.048 145.118 293.811 145.066 298.487C145.375 303.107 143.679 307.635 140.411 310.915C137.143 314.194 132.62 315.907 128 315.614C124.629 315.614 121.438 315.767 118.391 315.998C125.994 304.717 131.703 289.715 127.914 263.211C127.248 258.545 122.925 255.303 118.259 255.97C113.593 256.637 110.352 260.96 111.018 265.626C113.252 276.669 112.335 288.119 108.373 298.667C105.039 293.509 102.991 287.627 102.4 281.515C102.4 276.802 98.5793 272.981 93.8665 272.981C89.1536 272.981 85.3331 276.802 85.3331 281.515C86.2852 293.454 90.8612 304.819 98.4488 314.086C97.8856 314.769 97.3481 315.443 96.7422 316.126C88.6694 324.802 82.7193 335.233 79.3598 346.598C71.5295 342 67.1725 333.196 68.2665 324.181C68.764 312.615 64.8161 301.296 57.2328 292.548C53.9416 289.247 48.6009 289.228 45.2862 292.506C41.9533 295.777 41.8397 301.11 45.0302 304.521C49.3846 310.119 51.575 317.099 51.1998 324.181C49.6823 341.801 60.2635 358.22 76.9363 364.117C76.9363 365.056 76.7998 365.875 76.7998 366.848C76.8311 371.413 77.1303 375.972 77.6958 380.501C75.5078 380.835 73.3483 381.334 71.236 381.995C67.538 383.281 63.6484 383.93 59.7331 383.915C57.3934 384.138 55.0773 383.298 53.4236 381.628C51.77 379.958 50.9537 377.633 51.1998 375.296C51.1762 370.583 47.3366 366.782 42.6238 366.805C37.911 366.829 34.1096 370.669 34.1331 375.381C33.9328 382.23 36.5656 388.859 41.4106 393.704C46.2556 398.549 52.8841 401.182 59.7331 400.981C65.3427 401 70.9175 400.101 76.2366 398.319C77.7519 397.766 79.3322 397.41 80.9384 397.261C81.3992 399.019 81.7918 400.777 82.3635 402.526C61.8172 407.255 46.2706 424.096 43.1955 444.954C30.3811 441.432 16.6877 445.668 8.10029 455.81C-0.487113 465.953 -2.40708 480.157 3.17955 492.216C8.76618 504.274 20.8436 511.993 34.1331 512H477.866C496.718 512 512 496.718 512 477.867C512 459.015 496.718 443.733 477.866 443.733V443.733ZM477.866 494.933H34.1331C26.4465 494.937 19.706 489.802 17.6687 482.39C15.6314 474.978 18.8002 467.119 25.4087 463.194C32.0172 459.268 40.4345 460.244 45.9689 465.579C48.6828 468.188 52.7861 468.71 56.0674 466.864C59.3486 465.018 61.0323 461.24 60.211 457.566C59.8575 455.822 59.6972 454.045 59.7331 452.267C59.7331 433.415 75.0151 418.133 93.8665 418.133C105.056 418.176 115.509 423.714 121.83 432.947C125.745 438.586 127.814 445.3 127.752 452.164C127.725 454.43 128.6 456.614 130.185 458.234C131.77 459.854 133.934 460.778 136.2 460.8H136.303C140.979 460.8 144.785 457.037 144.836 452.361C144.878 446.314 143.829 440.31 141.738 434.637C153.5 429.296 166.283 426.577 179.2 426.667C195.303 426.235 211.175 430.566 224.828 439.117C222.855 443.19 221.781 447.64 221.679 452.164C221.651 454.427 222.524 456.609 224.105 458.228C225.687 459.848 227.846 460.773 230.11 460.8H230.212C234.888 460.8 238.694 457.037 238.745 452.361C238.98 448.477 240.516 444.785 243.106 441.882C256.213 425.506 288.896 418.133 315.733 418.133C343.304 418.133 369.135 425.242 383.146 436.685C386.498 439.43 391.374 439.228 394.487 436.215C400.746 430.144 409.107 426.723 417.826 426.667C417.928 426.667 418.031 426.726 418.133 426.726C418.236 426.726 418.364 426.726 418.492 426.675C436.62 426.793 451.456 441.133 452.19 459.247C452.325 462.557 454.363 465.49 457.419 466.77C460.475 468.05 463.995 467.446 466.449 465.22C472.1 460.099 480.462 459.349 486.934 463.382C493.407 467.414 496.418 475.252 494.312 482.581C492.205 489.91 485.492 494.952 477.866 494.933Z" fill="currentColor"/>
</g>
</svg>
