<svg height="512" viewBox="0 0 60 59" width="512" xmlns="http://www.w3.org/2000/svg"><g id="Page-1" fill="none" fill-rule="evenodd"><g id="029---Underwater-Cave" fill="rgb(0,0,0)" fill-rule="nonzero"><path id="Shape" d="m3.137 11.668c.12495249.4056737.49417211.6868898.91846446.6995485.42429234.0126587.80962041-.2460456.95853554-.6435485l2.159-5.519c.13826732-.37497459.48824137-.63019784.88753224-.64724474.39929088-.0170469.76974427.20741918.93946776.56924474l2.11 4.315c.1635204.3456389.5116321.566052.894.566052s.7304796-.2204131.894-.566052l.212-.432c.1635204-.3456389.5116321-.56605201.894-.56605201s.7304796.22041311.894.56605201l3.142 6.425c.1691776.3545274.531793.5756616.9244364.5637502s.7411876-.2546197.8885636-.6187502l4.377-10.451c.1416491-.35131553.4713458-.59100721.8492227-.61739051.377877-.0263833.737683.16516742.9267773.49339051l1.137 1.937c.1761279.307026.5030424.49637514.857.49637514s.6808721-.18934914.857-.49637514l1.206-2.054c.1836737-.31892891.5291074-.50964481.89686-.49516141.3677525.01448341.6971174.23177528.85514.56416141l3.159 6.462c.1733249.3622549.5479579.584274.9489448.5623741s.7492126-.2833979.8820552-.6623741l1.2-3.281c.1423134-.40380846.527427-.67093152.9555012-.66275609.4280742.00817542.8027076.28980824.9294988.69875609l2.191 6.72c.1277318.4116195.506398.6938516.937354.69864s.8157998-.2689603.952646-.67764l3.238-9.27c.1273815-.38428673.4757065-.6524501.8797905-.67732019.4040839-.02487009.7826646.19855453.9562095.56432019l1.061 2.168c.1640951.34495081.5120075.56471892.894.56471892s.7299049-.21976811.894-.56471892l1.026-2.1c.1757289-.36872465.5595029-.59204439.9669022-.56264444.4073992.02939994.755132.30550884.8760978.69564444l1.288 3.951c.1272288.418156.5129169.7039516.95.7039516s.8227712-.2857956.95-.7039516l1-3.067c.0332925-.10508946.0498284-.21476615.049-.325v-5.969c.0061103-.55853938-.4414661-1.01641003-1-1.023h-56c-.55853393.00658997-1.00611032.46446062-1 1.023v3.924c-.00015559.10968369.01705755.21870021.051.323z"/><path id="Shape" d="m25 40c1.6568542 0 3-1.3431458 3-3s-1.3431458-3-3-3-3 1.3431458-3 3 1.3431458 3 3 3zm0-4c.5522847 0 1 .4477153 1 1s-.4477153 1-1 1-1-.4477153-1-1 .4477153-1 1-1z"/><path id="Shape" d="m27 24c0-2.209139-1.790861-4-4-4s-4 1.790861-4 4 1.790861 4 4 4 4-1.790861 4-4zm-6 0c0-1.1045695.8954305-2 2-2s2 .8954305 2 2-.8954305 2-2 2-2-.8954305-2-2z"/><circle id="Oval" cx="27" cy="30" r="1"/><path id="Shape" d="m53 30c1.6568542 0 3-1.3431458 3-3s-1.3431458-3-3-3-3 1.3431458-3 3 1.3431458 3 3 3zm0-4c.5522847 0 1 .4477153 1 1s-.4477153 1-1 1-1-.4477153-1-1 .4477153-1 1-1z"/><path id="Shape" d="m60 18c0-2.209139-1.790861-4-4-4s-4 1.790861-4 4 1.790861 4 4 4 4-1.790861 4-4zm-6 0c0-1.1045695.8954305-2 2-2s2 .8954305 2 2-.8954305 2-2 2-2-.8954305-2-2z"/><circle id="Oval" cx="50" cy="21" r="1"/><path id="Shape" d="m56 51c-.4325443.0000308-.8621868.0706246-1.272.209-.634586-2.0303858-2.3022636-3.5692823-4.377-4.039.063-.2.111-.4.164-.606.1882471.017389.3734521.0590685.551.124.6233333.2087933 1.2766308.3141856 1.934.312.8026156.0234737 1.5793921-.2850527 2.1471697-.8528303s.876304-1.3445541.8528303-2.1471697c-.0005356-.545859-.4411543-.9891562-.987-.993h-.013c-.5436474.0030748-.9864984.4375116-1 .981.029492.2742386-.0658859.5472041-.2597533.7433979s-.4656758.2948208-.7402467.2686021c-.4587695.0021259-.9145734-.073616-1.348-.224-.2457134-.078115-.4971414-.1369598-.752-.176.0645358-.5309242.0979263-1.0651719.1-1.6 0-.114-.013-.21-.016-.32 1.9538488-.691073 3.1938285-2.6151794 3.016-4.68-.0438054-.8240015.2067849-1.6367362.707-2.293.3789722-.3923789.3735524-1.0160848-.0121814-1.4018186s-1.0094397-.3911536-1.4018186-.0121814c-.8891105 1.0248991-1.351816 2.3514645-1.293 3.707.1283188 1.0561191-.3823568 2.0876839-1.3 2.626-.3951036-1.3318226-1.0937454-2.5538469-2.041-3.57-.067-.08-.131-.16-.2-.24.8907035-1.0851431 1.4283965-2.4166399 1.541-3.816.00001-.5466364-.4413736-.9907004-.988-.994-.26633-.0101248-.5251953.0892186-.7163744.2749192-.1911791.1857007-.2980048.441569-.2956256.7080808-.067567.7195014-.3076913 1.4120886-.7 2.019-.461982-1.2345927-.5680063-2.5741025-.306-3.866.0784244-.5467619-.3012381-1.0535756-.848-1.132s-1.0535756.3012381-1.132.848c-.444 3.107.225 4.864 1.116 6.187-.361-.028-.73-.045-1.13-.045-.5414631.0343089-1.0714541-.1663519-1.4544234-.5506616-.3829692-.3843096-.581777-.9149985-.5455766-1.4563384-.001933-.5522847-.4512153-.998433-1.0035-.9965s-.998433.4512153-.9965 1.0035c-.0315929 1.0702387.3796808 2.1061138 1.1367835 2.8632165s1.7929778 1.1683764 2.8632165 1.1367835c.9825685-.0015342 1.9617034.1159889 2.916.35.4439811.6083424.7575307 1.3018282.921 2.037-.5822904-.2442002-1.2056805-.3755296-1.837-.387-.5522847 0-1 .4477153-1 1s.4477153 1 1 1c.7100566.0523044 1.3931032.2940297 1.978.7-.0786123 1.1446172-.311035 2.2734313-.691 3.356-1.0102377.1129892-1.9744469.4838653-2.8 1.077-2.5755003-1.4866464-5.5146618-2.2253328-8.487-2.133-3.2 0-7.186.767-9.449 2.856-1.9493581-1.2589095-4.2309964-1.9053331-6.551-1.856-1.8606031-.0139362-3.7010225.386051-5.388 1.171-.9813402-1.1800512-2.3764628-1.9405719-3.9-2.126-.3800769-1.0821934-.612504-2.2106926-.691-3.355.5850488-.4064019 1.2685372-.6481613 1.979-.7.5522847 0 1-.4477153 1-1s-.4477153-1-1-1c-.6313195.0114704-1.2547096.1427998-1.837.387.1632771-.7352358.4768438-1.4287596.921-2.037.9543212-.2338757 1.9334397-.3513968 2.916-.35 1.0702387.0315929 2.1061138-.3796808 2.8632165-1.1367835s1.1683764-1.7929778 1.1367835-2.8632165c.0000176-.5491756-.442842-.9956066-.992-1h-.008c-.5480173-.0000332-.9939718.4410158-1 .989.0362004.5413399-.1626074 1.0720288-.5455766 1.4563384-.3829693.3843097-.9129603.5849705-1.4544234.5506616-.395 0-.769.018-1.126.045.891-1.322 1.56-3.08 1.116-6.186-.0781483-.5467619-.5847381-.9266483-1.1315-.8485s-.9266483.5847381-.8485 1.1315c.2617178 1.2942053.1542974 2.635921-.31 3.872-.3907037-.604386-.630751-1.2936646-.7-2.01 0-.5522847-.4477153-1-1-1s-1 .4477153-1 1c.1115733 1.3991898.6478272 2.7309279 1.537 3.817-.066.08-.129.159-.2.239-.9460332 1.0167791-1.64330818 2.2391497-2.037 3.571-.91760637-.5388395-1.42820014-1.5706316-1.3-2.627.05830362-1.35546-.40433762-2.6818413-1.293-3.707-.38568795-.3868567-1.01155867-.3890919-1.4-.005-.39056863.3833676-.4038849 1.0083443-.03 1.408.51027758.6560395.76696703 1.4740374.723 2.304-.17782846 2.0648206 1.06215122 3.988927 3.016 4.68 0 .11-.016.206-.016.32.00367536.534928.03873561 1.0691794.105 1.6-.25640665.039049-.50947044.0975512-.757.175-.43336772.1507242-.88917313.2268044-1.348.225-.27418514.0261168-.5456088-.0722548-.73939318-.267977-.19378439-.1957223-.28945048-.4681113-.26060682-.742023-.00276144-.5522847-.45271526-.9977614-1.005-.995s-.99776141.4527153-.995 1.005c-.02347369.8026156.28505273 1.5793921.85283031 2.1471697.56777759.5677776 1.34455411.876304 2.14716969.8528303.6573692.0021856 1.3106667-.1032067 1.934-.312.17757629-.0648349.36276861-.1065116.551-.124.054.206.1.412.167.617-2.40776881.5541998-4.22963964 2.5276947-4.59 4.972-1.50169071-.4126924-3.10638602.0837271-4.11272192 1.2722885-1.0063359 1.1885613-1.23133188 2.8531502-.57664896 4.2662249.65468291 1.4130748 2.07000472 2.3176982 3.62737088 2.3184866h52c2.209139 0 4-1.790861 4-4s-1.790861-4-4-4z"/></g></g></svg>