<svg width="43" height="60" viewBox="0 0 43 60" fill="none" xmlns="http://www.w3.org/2000/svg">
<path d="M6.33523 15.8057C7.28555 15.6416 7.92258 14.7385 7.75889 13.7882C6.82903 8.40007 10.9854 3.49207 16.4186 3.49207C21.8354 3.49207 25.9991 8.37688 25.0819 13.7669C24.9205 14.7176 25.5598 15.6193 26.5106 15.7812C27.4614 15.9435 28.363 15.3033 28.5249 14.3525C29.8008 6.85046 24.0107 0 16.4186 0C8.83516 0 3.01731 6.84956 4.31774 14.3821C4.48189 15.3351 5.38855 15.9694 6.33523 15.8057Z" fill="url(#paint0_linear)"/>
<path d="M34.998 28.0116C33.6894 25.443 30.5724 24.4177 28.0138 25.6836C26.8244 23.3487 24.1039 22.2456 21.6313 23.1041V12.411C21.6313 9.56092 19.341 7.17967 16.525 7.10237C13.5745 7.01871 11.1296 9.38177 11.1296 12.3387V39.2372L9.07845 37.0892C7.10961 35.028 3.81306 34.883 1.72918 36.7668C-0.469736 38.7543 -0.579318 42.1386 1.44545 44.2657L13.2339 56.8394C14.8777 58.5923 17.1993 59.5981 19.6029 59.5981H33.8208C38.6347 59.5981 42.551 55.6817 42.551 50.8679V32.7091C42.551 28.841 38.471 26.2933 34.998 28.0116ZM39.0589 50.8679C39.0589 53.7561 36.709 56.106 33.8208 56.106H19.6029C18.1606 56.106 16.7678 55.5026 15.7816 54.4504C15.7393 54.4059 4.01903 41.9049 3.97675 41.8603C3.30152 41.1528 3.3338 40.0238 4.07041 39.3572C4.76474 38.7302 5.87829 38.7948 6.5526 39.5009L11.6125 44.7995C12.6974 45.9362 14.6212 45.1651 14.6212 43.5941V12.3387C14.6212 11.3574 15.4351 10.5653 16.43 10.5931C17.3726 10.619 18.1392 11.4343 18.1392 12.411C18.1392 31.6237 18.1065 22.9149 18.1065 33.2911C18.1065 34.2582 18.894 35.0462 19.8689 35.0362C20.8424 35.0462 21.6313 34.2587 21.6313 33.2911V27.7211C21.7868 26.9163 22.4952 26.307 23.3446 26.307C24.3072 26.307 25.0906 27.0904 25.0906 28.053V33.2911C25.0906 34.2555 25.8722 35.0371 26.8366 35.0371C27.8011 35.0371 28.5827 34.2555 28.5827 33.2911V30.381C28.5827 29.4184 29.3661 28.635 30.3287 28.635C31.2913 28.635 32.0747 29.4184 32.0747 30.381V33.2911C32.0747 34.2555 32.8564 35.0371 33.8208 35.0371C34.7852 35.0371 35.5668 34.2555 35.5668 33.2911V32.7091C35.5668 31.7465 36.3503 30.9631 37.3129 30.9631C38.2754 30.9631 39.0589 31.7465 39.0589 32.7091V50.8679Z" fill="url(#paint1_linear)"/>
<defs>
<linearGradient id="paint0_linear" x1="16.4185" y1="0" x2="16.4185" y2="15.8314" gradientUnits="userSpaceOnUse">
<stop stop-color="white"/>
<stop offset="1" stop-color="#E7E7E7"/>
</linearGradient>
<linearGradient id="paint1_linear" x1="21.2755" y1="7.10022" x2="21" y2="67.5" gradientUnits="userSpaceOnUse">
<stop stop-color="white"/>
<stop offset="1" stop-color="#E7E7E7"/>
</linearGradient>
</defs>
</svg>
