<svg width="513" height="513" viewBox="0 0 513 513" fill="currentColor" xmlns="http://www.w3.org/2000/svg">
<g>
<path d="M462.001 326C456.481 326 452.001 330.48 452.001 336C452.001 341.52 456.481 346 462.001 346C467.521 346 472.001 341.52 472.001 336C472.001 330.48 467.521 326 462.001 326Z" fill="currentColor"/>
<path d="M416.001 226C410.481 226 406.001 230.48 406.001 236C406.001 241.52 410.481 246 416.001 246C421.521 246 426.001 241.52 426.001 236C426.001 230.48 421.521 226 416.001 226Z" fill="currentColor"/>
<path d="M376.001 166C370.481 166 366.001 170.48 366.001 176C366.001 181.52 370.481 186 376.001 186C381.521 186 386.001 181.52 386.001 176C386.001 170.48 381.521 166 376.001 166Z" fill="currentColor"/>
<path d="M286.001 326C263.945 326 246.001 343.944 246.001 366C246.001 388.056 263.945 406 286.001 406C308.057 406 326.001 388.056 326.001 366C326.001 343.944 308.057 326 286.001 326ZM286.001 386C274.973 386 266.001 377.028 266.001 366C266.001 354.972 274.973 346 286.001 346C297.029 346 306.001 354.972 306.001 366C306.001 377.028 297.029 386 286.001 386Z" fill="currentColor"/>
<path d="M386.001 326C363.945 326 346.001 343.944 346.001 366C346.001 388.056 363.945 406 386.001 406C408.057 406 426.001 388.056 426.001 366C426.001 343.944 408.057 326 386.001 326ZM386.001 386C374.973 386 366.001 377.028 366.001 366C366.001 354.972 374.973 346 386.001 346C397.029 346 406.001 354.972 406.001 366C406.001 377.028 397.029 386 386.001 386Z" fill="currentColor"/>
<path d="M186.001 326C163.945 326 146.001 343.944 146.001 366C146.001 388.056 163.945 406 186.001 406C208.057 406 226.001 388.056 226.001 366C226.001 343.944 208.057 326 186.001 326ZM186.001 386C174.973 386 166.001 377.028 166.001 366C166.001 354.972 174.973 346 186.001 346C197.029 346 206.001 354.972 206.001 366C206.001 377.028 197.029 386 186.001 386Z" fill="currentColor"/>
<path d="M423.88 270.1L385.851 271.628C383.585 235.06 353.13 205.999 316.001 205.999H306.001V145.197C309.198 146.177 312.56 146.701 316.001 146.701C327.41 146.701 337.997 141.035 344.322 131.545C346.968 127.574 351.225 125.297 356.001 125.297C360.777 125.297 365.033 127.574 367.68 131.545C374.005 141.035 384.592 146.701 396.001 146.701C407.41 146.701 417.997 141.035 424.322 131.545C426.929 127.633 431.856 125.297 437.501 125.297C443.146 125.297 448.072 127.633 450.68 131.545C457.005 141.035 468.153 146.701 480.501 146.701C492.849 146.701 503.997 141.035 510.322 131.545C513.385 126.95 512.143 120.741 507.547 117.679C502.952 114.618 496.743 115.86 493.68 120.454C491.073 124.366 486.146 126.702 480.501 126.702C474.856 126.702 469.93 124.366 467.322 120.454C460.997 110.964 449.849 105.298 437.501 105.298C425.153 105.298 414.005 110.964 407.68 120.454C405.034 124.425 400.777 126.702 396.001 126.702C391.225 126.702 386.969 124.425 384.322 120.454C377.997 110.964 367.41 105.298 356.001 105.298C344.592 105.298 334.005 110.964 327.68 120.454C325.034 124.425 320.777 126.702 316.001 126.702C312.126 126.702 308.61 125.182 306.001 122.495V96C306.001 90.486 310.487 86 316.001 86H356.001C361.523 86 366.001 81.522 366.001 76V36C366.001 30.478 361.523 26 356.001 26H316.001C277.402 26 246.001 57.401 246.001 96V122.495C243.392 125.182 239.876 126.702 236.001 126.702C231.226 126.702 226.969 124.425 224.322 120.454C217.997 110.964 207.41 105.298 196.001 105.298C184.592 105.298 174.005 110.964 167.68 120.454C165.034 124.425 160.777 126.702 156.001 126.702C151.225 126.702 146.969 124.425 144.322 120.454C137.997 110.964 127.41 105.298 116.001 105.298C104.592 105.298 94.005 110.964 87.68 120.454C85.073 124.366 80.146 126.702 74.501 126.702C68.856 126.702 63.93 124.366 61.322 120.454C54.997 110.964 43.849 105.298 31.501 105.298C19.153 105.298 8.005 110.964 1.68 120.454C-1.383 125.05 -0.14 131.259 4.455 134.321C9.052 137.384 15.259 136.142 18.322 131.546C20.929 127.634 25.856 125.298 31.501 125.298C37.146 125.298 42.072 127.634 44.68 131.546C51.005 141.036 62.153 146.702 74.501 146.702C86.849 146.702 97.997 141.036 104.322 131.546C106.968 127.575 111.225 125.298 116.001 125.298C120.777 125.298 125.033 127.575 127.68 131.546C134.005 141.036 144.592 146.702 156.001 146.702C167.41 146.702 177.997 141.036 184.322 131.546C186.968 127.575 191.225 125.298 196.001 125.298C200.777 125.298 205.033 127.575 207.68 131.546C214.005 141.036 224.592 146.702 236.001 146.702C239.442 146.702 242.804 146.178 246.001 145.198V206H236.001C197.403 206 166.001 237.402 166.001 276V280.463L119.501 282.328C119.457 282.33 119.414 282.332 119.37 282.334C115.999 282.514 112.647 282.9 109.341 283.475L88.437 250.631C86.601 247.746 83.419 246 80 246H50C47.035 246 44.223 247.315 42.322 249.593C40.423 251.869 39.631 254.871 40.161 257.788L51.981 322.809C51.346 323.863 50.743 324.937 50.155 326.018C48.029 325.985 45.919 326.615 44.15 327.89C41.544 329.769 40 332.786 40 336V356H20V316C20 310.478 15.522 306 10 306C4.478 306 0 310.478 0 316V416C0 421.522 4.478 426 10 426C15.522 426 20 421.522 20 416V376H40V396C40 399.214 41.544 402.231 44.15 404.11C45.876 405.354 47.926 406 50.001 406C50.054 406 50.108 405.994 50.162 405.994C50.748 407.071 51.349 408.141 51.981 409.192L40.161 474.213C39.631 477.13 40.423 480.132 42.322 482.408C44.222 484.685 47.035 486.001 50 486.001H80C83.419 486.001 86.601 484.255 88.437 481.37L109.341 448.526C112.647 449.101 115.999 449.487 119.37 449.667C119.411 449.669 119.451 449.671 119.492 449.672L417.876 461.899C465.671 464.383 512.001 426.417 512.001 378.23V353.769C512.001 305.773 471.854 267.584 423.88 270.1ZM266.001 96C266.001 68.43 288.431 46 316.001 46H346.001V66H316.001C299.459 66 286.001 79.458 286.001 96V106.802C282.804 105.822 279.442 105.298 276.001 105.298C272.56 105.298 269.198 105.822 266.001 106.802V96ZM266.001 129.505C268.61 126.818 272.126 125.298 276.001 125.298C279.876 125.298 283.392 126.818 286.001 129.505V206H266.001V129.505ZM186.001 276C186.001 248.43 208.431 226 236.001 226C259.457 226 291.046 226 316.001 226C342.37 226 364.022 246.522 365.86 272.432L186.001 279.66V276V276ZM74.512 266L89.505 289.557C81.937 292.951 74.922 297.442 68.688 302.888L61.982 266H74.512ZM60.001 349.871L100.001 363.207V368.793L60.001 382.129V349.871V349.871ZM74.512 466H61.982L68.688 429.112C74.922 434.559 81.937 439.049 89.505 442.443L74.512 466ZM492.001 378.23C492.001 394.161 484.967 409.608 472.193 421.727C472.13 421.787 472.063 421.841 472.001 421.9V375.999C472.001 370.477 467.523 365.999 462.001 365.999C456.479 365.999 452.001 370.477 452.001 375.999V435.307C441.504 440.122 430.023 442.504 418.866 441.923C418.827 441.921 418.789 441.919 418.75 441.918L120.373 429.689C99.846 428.581 81.02 417.76 69.796 399.941L113.164 385.485C117.247 384.124 120.001 380.302 120.001 375.999V355.999C120.001 351.695 117.247 347.874 113.164 346.513L69.797 332.055C70.135 331.518 70.465 330.976 70.819 330.45C81.806 314.11 99.866 303.421 120.37 302.309C123.953 302.166 350.69 293.08 424.742 290.082C424.783 290.08 424.824 290.078 424.866 290.076C461.332 288.149 492.001 317.12 492.001 353.769V378.23V378.23Z" fill="currentColor"/>
<path d="M136.001 166C119.459 166 106.001 179.458 106.001 196C106.001 212.542 119.459 226 136.001 226C152.543 226 166.001 212.542 166.001 196C166.001 179.458 152.543 166 136.001 166ZM136.001 206C130.487 206 126.001 201.514 126.001 196C126.001 190.486 130.487 186 136.001 186C141.515 186 146.001 190.486 146.001 196C146.001 201.514 141.515 206 136.001 206Z" fill="currentColor"/>
</g>
</svg>
