<svg width="35" height="35" viewBox="0 0 35 35" fill="currentColor" xmlns="http://www.w3.org/2000/svg">
<g>
<path d="M34.2811 4.17004C33.0096 4.17004 32.3261 4.63844 31.7769 5.01483C31.2936 5.3461 30.9118 5.60778 30.0855 5.60778C29.2593 5.60778 28.8775 5.3461 28.3942 5.01483C27.845 4.63844 27.1616 4.17004 25.89 4.17004C24.6184 4.17004 23.935 4.63844 23.3859 5.01483C22.9025 5.3461 22.5207 5.60778 21.6946 5.60778C20.8685 5.60778 20.4868 5.3461 20.0034 5.01483C19.4543 4.63851 18.7709 4.17004 17.4994 4.17004C16.2279 4.17004 15.5446 4.63844 14.9954 5.01483C14.5121 5.3461 14.1304 5.60778 13.3043 5.60778C12.4783 5.60778 12.0965 5.3461 11.6132 5.01483C11.064 4.63851 10.3806 4.17004 9.10909 4.17004C7.83761 4.17004 7.15422 4.63844 6.60509 5.01483C6.12172 5.3461 5.74 5.60778 4.91388 5.60778C4.08782 5.60778 3.70604 5.3461 3.22273 5.01483C2.6736 4.63851 1.99028 4.17004 0.718799 4.17004C0.321836 4.17004 0 4.49188 0 4.88891C0 5.28594 0.321836 5.60778 0.718867 5.60778C1.54492 5.60778 1.92671 5.86946 2.41001 6.20073C2.95914 6.57705 3.64253 7.04551 4.91395 7.04551C6.18543 7.04551 6.86882 6.57711 7.41795 6.20073C7.90132 5.86946 8.28304 5.60778 9.10916 5.60778C9.93528 5.60778 10.317 5.86946 10.8004 6.20073C11.3495 6.57711 12.0328 7.04551 13.3043 7.04551C14.5758 7.04551 15.2592 6.57711 15.8082 6.20073C16.2915 5.86946 16.6733 5.60778 17.4993 5.60778C18.3254 5.60778 18.7072 5.86946 19.1905 6.20073C19.7397 6.57705 20.423 7.04551 21.6945 7.04551C22.9661 7.04551 23.6495 6.57711 24.1986 6.20073C24.682 5.86946 25.0638 5.60778 25.8899 5.60778C26.7161 5.60778 27.0979 5.86946 27.5813 6.20073C28.1304 6.57711 28.8139 7.04551 30.0854 7.04551C31.357 7.04551 32.0404 6.57711 32.5896 6.20073C33.073 5.86946 33.4548 5.60778 34.2811 5.60778C34.6781 5.60778 34.9999 5.28594 34.9999 4.88891C34.9999 4.49188 34.6782 4.17004 34.2811 4.17004Z" fill="currentColor"/>
<path d="M0.718867 2.22313C1.54492 2.22313 1.92671 2.48481 2.41001 2.81608C2.95914 3.1924 3.64253 3.66087 4.91395 3.66087C6.18543 3.66087 6.86882 3.19247 7.41795 2.81608C7.90132 2.48481 8.28304 2.22313 9.10916 2.22313C9.93528 2.22313 10.317 2.48481 10.8004 2.81608C11.3495 3.19247 12.0328 3.66087 13.3043 3.66087C14.5758 3.66087 15.2592 3.19247 15.8082 2.81608C16.2915 2.48481 16.6733 2.22313 17.4993 2.22313C18.3254 2.22313 18.7072 2.48481 19.1905 2.81608C19.7397 3.1924 20.423 3.66087 21.6945 3.66087C22.9661 3.66087 23.6495 3.19247 24.1986 2.81608C24.682 2.48481 25.0638 2.22313 25.8899 2.22313C26.7161 2.22313 27.0979 2.48481 27.5813 2.81608C28.1304 3.19247 28.8139 3.66087 30.0854 3.66087C31.357 3.66087 32.0404 3.19247 32.5896 2.81608C33.073 2.48481 33.4548 2.22313 34.2811 2.22313C34.6781 2.22313 34.9999 1.9013 34.9999 1.50427C34.9999 1.10724 34.6781 0.7854 34.2811 0.7854C33.0095 0.7854 32.3261 1.2538 31.7769 1.63019C31.2935 1.96145 30.9117 2.22313 30.0854 2.22313C29.2592 2.22313 28.8775 1.96145 28.3941 1.63019C27.845 1.2538 27.1615 0.7854 25.8899 0.7854C24.6183 0.7854 23.9349 1.2538 23.3858 1.63019C22.9024 1.96145 22.5207 2.22313 21.6945 2.22313C20.8684 2.22313 20.4867 1.96145 20.0033 1.63019C19.4542 1.25387 18.7708 0.7854 17.4993 0.7854C16.2278 0.7854 15.5445 1.2538 14.9954 1.63019C14.5121 1.96145 14.1304 2.22313 13.3042 2.22313C12.4782 2.22313 12.0964 1.96145 11.6131 1.63019C11.064 1.25387 10.3806 0.7854 9.10902 0.7854C7.83754 0.7854 7.15415 1.2538 6.60502 1.63019C6.12165 1.96145 5.73993 2.22313 4.91381 2.22313C4.08775 2.22313 3.70597 1.96145 3.22267 1.63019C2.67354 1.25387 1.99021 0.7854 0.71873 0.7854C0.321836 0.7854 0 1.10724 0 1.50427C0 1.9013 0.321836 2.22313 0.718867 2.22313Z" fill="currentColor"/>
<path d="M33.9049 31.7988L30.3743 29.4351C30.8752 30.0996 30.957 31.0267 30.5084 31.7884C30.3742 32.0164 30.2036 32.2097 30.0088 32.366L32.4368 33.9916C33.0403 34.3956 33.8604 34.2368 34.2672 33.6292C34.6726 33.0237 34.5104 32.2042 33.9049 31.7988Z" fill="currentColor"/>
<path d="M7.99897 15.1277C7.43678 14.487 6.4615 14.4235 5.82091 14.9857C5.2538 15.4833 5.13984 16.304 5.51076 16.9304L9.79792 17.1776L7.99897 15.1277Z" fill="currentColor"/>
<path d="M33.0905 21.6858C33.3388 21.6858 33.5856 21.7251 33.8217 21.7998C33.3473 21.0849 32.5449 20.6036 31.6221 20.5775C31.5957 20.5768 31.5696 20.5764 31.5435 20.5764C30.0707 20.5765 28.8562 21.7492 28.8143 23.2309C28.7718 24.7389 29.9597 25.996 31.4677 26.0386C31.494 26.0394 31.5202 26.0397 31.5463 26.0397C31.5595 26.0397 31.5723 26.0389 31.5854 26.0387C31.1783 25.7208 30.884 25.2831 30.7427 24.7763C30.5679 24.1496 30.6476 23.4923 30.9672 22.9255C31.3984 22.1609 32.212 21.6858 33.0905 21.6858Z" fill="currentColor"/>
<path d="M29.3508 29.5754L25.2319 27.1496L25.4635 23.7764L25.7986 26.5535L28.9311 28.3984L27.2282 24.3474L27.9145 22.7466C28.3087 21.8272 27.8829 20.7623 26.9635 20.3681L18.3564 16.6868C17.448 16.2983 16.4279 16.2627 15.4948 16.587C13.9315 17.1305 11.9097 17.8333 11.0907 18.1181L3.84024 17.7001C2.9891 17.6519 2.25957 18.3012 2.21048 19.1521C2.16147 20.0031 2.81157 20.7328 3.66257 20.7819L11.2192 21.2175C11.4258 21.2293 11.6272 21.1998 11.815 21.1344L15.8498 19.7312L15.7744 19.7758L11.754 22.1606L14.9262 22.7573L14.9261 22.7575L22.2279 25.8881L22.8309 23.5956L22.5434 27.7822C22.5091 28.2808 22.7595 28.7559 23.1901 29.0095L28.0116 31.8491C28.6367 32.2172 29.4467 32.0124 29.8181 31.3818C30.1879 30.7539 29.9787 29.9451 29.3508 29.5754Z" fill="currentColor"/>
<path d="M34.6115 23.1743L33.8618 22.7516C33.6176 22.6138 33.3523 22.5485 33.0906 22.5485C32.5412 22.5485 32.0078 22.8367 31.7187 23.3493C31.292 24.1062 31.5596 25.0657 32.3164 25.4924L33.0662 25.9151C33.2136 25.9983 33.4006 25.9461 33.4837 25.7987L34.728 23.5918C34.8111 23.4443 34.759 23.2574 34.6115 23.1743Z" fill="currentColor"/>
<path d="M28.8269 15.7719L22.1835 13.0345C21.2212 12.6379 20.1195 13.0966 19.723 14.059C19.3264 15.0214 19.7851 16.1231 20.7475 16.5196L27.3908 19.2571C28.3532 19.6536 29.4549 19.195 29.8514 18.2326C30.248 17.2702 29.7893 16.1685 28.8269 15.7719Z" fill="currentColor"/>
</g>
</svg>
