<svg width="176" height="95" viewBox="0 0 176 95" fill="currentColor" xmlns="http://www.w3.org/2000/svg">
<path d="M147.078 2.87006C147.078 1.28497 145.793 0 144.208 0C142.623 0 141.338 1.28497 141.338 2.87006V18.8581C143.369 19.181 145.307 19.8454 147.079 20.8081V2.87006H147.078Z" fill="currentColor"/>
<path d="M169.581 67.7017L148.438 66.0798C152.245 67.7414 154.873 71.5714 154.79 75.9824C154.765 77.3027 154.498 78.5611 154.034 79.7184C169.33 80.8849 168.617 80.8533 169.085 80.8533C172.493 80.8533 175.379 78.2262 175.644 74.7714C175.922 71.145 173.208 67.9801 169.581 67.7017V67.7017Z" fill="currentColor"/>
<path d="M6.27079 63.4506C5.02579 67.0036 6.53935 70.8529 9.68605 72.667L28.934 63.2304L16.0881 58.7283C12.0744 57.322 7.67812 59.4354 6.27079 63.4506V63.4506Z" fill="currentColor"/>
<path d="M132.15 24.513C125.49 28.0243 122.937 36.2706 126.448 42.931C128.89 47.564 133.623 50.2093 138.52 50.2093C140.904 50.2093 143.251 49.5866 145.381 48.3448C139.545 47.4574 135.059 42.4058 135.059 36.326C135.059 30.4828 139.203 25.5904 144.706 24.4306C140.801 22.4416 136.141 22.4094 132.15 24.513V24.513Z" fill="currentColor"/>
<path d="M144.332 69.1988L120.479 68.7496L113.217 53.5168L121.481 64.7689L139.623 65.1107L122.288 51.6734L121.348 43.0316C120.808 38.0681 116.347 34.4821 111.383 35.0224L61.5982 40.4392C59.3519 40.3411 57.0824 41.219 55.4791 43.0369L49.949 49.3082L36.8605 64.1507L4.31405 80.1072C0.493846 81.9801 -1.08458 86.5948 0.788355 90.415C2.66445 94.2415 7.28263 95.8105 11.0962 93.9407L45.017 77.3107C45.9243 76.8658 46.7353 76.247 47.4036 75.4886L63.0399 57.7567L61.5042 59.4982L61.2862 59.8768L61.8815 59.6745L49.5146 80.1471L64.9069 74.9182V74.9189L104.326 70.6299L101.328 59.1851L110.341 78.0912C111.414 80.3428 113.668 81.7943 116.161 81.8416L144.084 82.3675C144.126 82.3682 144.168 82.3686 144.21 82.3686C147.789 82.3686 150.724 79.5013 150.792 75.9073C150.86 72.2708 147.968 69.2675 144.332 69.1988V69.1988Z" fill="currentColor"/>
<path d="M151.512 44.1785C152.357 44.1785 153.042 43.4934 153.042 42.6484V30.0042C153.042 29.1592 152.357 28.4745 151.512 28.4745H147.217C142.88 28.4745 139.364 31.99 139.364 36.3267C139.364 40.6633 142.88 44.1788 147.217 44.1788H151.512V44.1785Z" fill="currentColor"/>
</svg>
