<svg width="56" height="44" viewBox="0 0 56 44" fill="none" xmlns="http://www.w3.org/2000/svg">
<path d="M25.8745 17.9102L27.0843 23.2538L30.5715 22.4374L29.3625 17.0935L25.8745 17.9102ZM4.60115 29.3602C6.40526 29.0133 6.93244 26.2672 5.68503 22.0097C6.74305 20.2565 15.6664 25.393 15.6664 25.393L15.6504 25.5021C17.5118 26.1266 19.3892 26.6942 21.266 27.2628C19.8287 25.2771 18.4169 23.2673 17.0938 21.1958C17.0538 21.1302 17.0169 21.0663 16.9834 21.0014L9.63855 17.4732C13.0375 14.7178 10.9146 12.9632 14.6104 9.91409C15.9803 9.91431 19.5063 17.0264 20.2472 18.5449C20.3765 18.6649 20.4942 18.8068 20.6032 18.9751C22.0499 21.246 23.608 23.4367 25.186 25.6122C30.3828 22.1981 36.6196 21.283 42.7407 21.0176C45.9296 20.8795 46.9592 24.3596 45.7119 26.502C45.6047 26.9579 45.2984 27.3743 44.7296 27.6606C41.4722 29.2984 38.8553 31.6637 36.6172 34.5465C34.9632 36.6728 31.9675 33.799 33.6035 31.6919C34.3779 30.6949 35.2144 29.7524 36.0994 28.861C33.078 29.4689 30.2036 30.5538 27.6068 32.5489C26.4748 33.4162 24.8815 33.2155 23.7513 32.4358C20.4663 31.3343 17.112 30.4413 13.836 29.2996C13.7492 29.2691 13.6683 29.2341 13.5933 29.1973C10.3585 29.3365 3.19643 29.6303 4.60115 29.3602ZM48.1407 21.3069C45.7575 18.6852 44.1036 19.1925 41.8495 19.8794C40.871 20.1798 39.7728 20.5164 38.5309 20.579L31.2083 22.2933L29.9988 16.9478L39.4791 14.7275C40.9406 14.3854 42.395 15.3048 42.7288 16.7808C42.8134 17.1559 42.817 17.5298 42.7526 17.885C44.8172 17.3825 47.0088 17.4251 49.6385 20.4891C51.0889 20.0936 52.6898 20.6167 53.6062 21.9275C54.2396 22.8318 54.4134 23.9226 54.183 24.9252L55.0853 26.2156L52.0701 28.3775L51.5834 27.6804C51.4338 27.7229 51.2832 27.7556 51.1306 27.7789C50.7487 28.3974 49.9667 28.6484 49.2983 28.3355C48.8182 28.1121 48.5234 27.6497 48.4756 27.1528C48.1359 26.9143 47.8282 26.6149 47.5747 26.2535C46.4782 24.6861 46.7501 22.5551 48.1407 21.3069Z" fill="#FEFEFF"/>
</svg>
