<svg width="512" height="512" viewBox="0 0 512 512" fill="currentColor" xmlns="http://www.w3.org/2000/svg">
<g>
<path d="M482.262 393.702C467.061 393.702 455.733 385.773 448.906 379.122C442.381 372.765 431.983 372.766 425.459 379.122C419.761 384.674 410.916 391.097 399.31 393.075V351.09C412.673 349.802 425.64 344.97 437.182 337C450.791 346.396 466.379 351.452 482.261 351.452C491.539 351.452 499.06 343.931 499.06 334.653C499.06 325.375 491.539 317.854 482.261 317.854C467.06 317.854 455.732 309.925 448.905 303.274C442.38 296.917 431.982 296.918 425.458 303.274C419.76 308.826 410.915 315.249 399.309 317.227V207.84C399.309 198.563 391.788 191.041 382.51 191.041H319.323L305.166 72.685C307.822 70.462 310.141 67.782 312.002 64.692C317.763 55.129 318.085 43.531 312.867 33.667C301.881 12.901 280.473 0 256.995 0C233.517 0 212.108 12.901 201.123 33.666C195.905 43.53 196.228 55.128 201.988 64.691C203.848 67.781 206.168 70.461 208.824 72.684L194.667 191.043H33.0921C23.8141 191.043 16.2931 198.564 16.2931 207.842C16.2931 217.12 23.8141 224.641 33.0921 224.641H63.5641H365.711V242.56H96.0691H29.7321C20.4541 242.56 12.9331 250.081 12.9331 259.359C12.9331 268.636 20.4541 276.158 29.7321 276.158H157.013H365.711V384.926C363.031 383.027 360.693 381.019 358.736 379.111C353.322 373.833 345.237 372.95 338.913 376.435C337.617 377.148 336.391 378.032 335.281 379.114C328.458 385.768 317.135 393.699 301.931 393.699C286.725 393.699 275.394 385.767 268.566 379.111C262.042 372.752 251.636 372.752 245.112 379.113C238.288 385.767 226.965 393.699 211.762 393.699C196.56 393.699 185.233 385.77 178.406 379.12C171.884 372.763 161.483 372.763 154.959 379.12C148.132 385.771 136.804 393.7 121.603 393.7C106.397 393.7 95.0661 385.768 88.2381 379.112C81.7141 372.753 71.3081 372.753 64.7841 379.114C57.9601 385.768 46.6371 393.7 31.4341 393.7C22.1561 393.7 14.6351 401.221 14.6351 410.499C14.6351 419.776 22.1561 427.298 31.4341 427.298C47.3191 427.298 62.9091 422.239 76.5161 412.84C90.1271 422.241 105.718 427.298 121.604 427.298C137.486 427.298 153.074 422.243 166.683 412.846C180.291 422.242 195.878 427.298 211.762 427.298C227.647 427.298 243.237 422.239 256.844 412.84C270.455 422.241 286.046 427.298 301.932 427.298C317.818 427.298 333.407 422.24 347.014 412.841C360.625 422.241 376.216 427.298 392.102 427.298C407.986 427.298 423.573 422.243 437.181 412.846C450.79 422.242 466.378 427.298 482.26 427.298C491.538 427.298 499.059 419.777 499.059 410.499C499.062 401.222 491.539 393.702 482.262 393.702ZM256.995 33.792C266.812 33.793 275.86 38.733 281.35 46.573H232.64C238.129 38.733 247.176 33.792 256.995 33.792ZM230.78 172.005L241.788 80.171H272.201L283.209 172.005H230.78Z" fill="currentColor"/>
<path d="M482.262 478.402C467.061 478.402 455.733 470.473 448.906 463.822C442.381 457.465 431.983 457.466 425.459 463.822C418.632 470.472 407.305 478.401 392.103 478.401C376.897 478.401 365.566 470.469 358.738 463.813C352.213 457.454 341.809 457.453 335.284 463.816C328.461 470.47 317.137 478.401 301.934 478.401C286.728 478.401 275.397 470.469 268.569 463.813C262.043 457.454 251.639 457.454 245.115 463.815C238.291 470.469 226.967 478.4 211.765 478.4C196.563 478.4 185.236 470.471 178.409 463.821C171.886 457.464 161.486 457.464 154.962 463.821C148.135 470.472 136.807 478.401 121.606 478.401C106.4 478.401 95.0692 470.469 88.2412 463.813C81.7152 457.454 71.3112 457.454 64.7872 463.815C57.9632 470.469 46.6392 478.4 31.4372 478.4C22.1592 478.4 14.6382 485.921 14.6382 495.199C14.6382 504.477 22.1592 511.998 31.4372 511.998C47.3222 511.998 62.9122 506.939 76.5192 497.541C90.1302 506.941 105.721 511.998 121.607 511.998C137.489 511.998 153.077 506.943 166.686 497.546C180.294 506.942 195.881 511.998 211.765 511.998C227.65 511.998 243.24 506.939 256.847 497.541C270.457 506.941 286.049 511.998 301.935 511.998C317.821 511.998 333.41 506.94 347.017 497.541C360.628 506.941 376.219 511.998 392.105 511.998C407.989 511.998 423.576 506.943 437.184 497.546C450.793 506.942 466.381 511.998 482.263 511.998C491.541 511.998 499.062 504.477 499.062 495.199C499.062 485.921 491.539 478.402 482.262 478.402Z" fill="currentColor"/>
</g>

</svg>
