<svg width="512" height="512" viewBox="0 0 512 512" fill="currentColor" xmlns="http://www.w3.org/2000/svg">
<g>
<path d="M503.467 443.733C493.846 443.763 484.634 439.842 477.986 432.887C457.736 413.21 425.507 413.21 405.257 432.887C398.609 439.838 389.402 443.758 379.785 443.733C378.222 443.734 376.66 443.643 375.108 443.46C387.809 434.329 394.364 418.881 392.106 403.402C389.848 387.923 379.153 374.992 364.373 369.869L379.366 353.493L431.42 393.916C446.333 405.035 467.405 402.165 478.801 387.462C490.197 372.758 487.721 351.637 473.233 339.968L396.433 280.235C382.383 269.423 362.41 271.095 350.353 284.092L277.82 363.213L221.85 312.866L237.508 297.207C243.916 290.812 247.502 282.12 247.467 273.067V214.741C247.853 196.155 233.586 180.536 215.04 179.243C205.703 178.775 196.582 182.158 189.809 188.601C183.035 195.045 179.2 203.984 179.2 213.333V255.42C179.2 257.683 178.3 259.853 176.7 261.453L170.607 267.546C169.947 237.233 145.069 213.068 114.751 213.288C84.4322 213.508 59.9083 238.032 59.6882 268.351C59.4681 298.669 83.6334 323.547 113.946 324.207L107.853 330.3C106.247 331.892 104.081 332.789 101.82 332.8H61.1413C42.5716 332.408 26.9574 346.648 25.6427 365.175C25.1607 374.521 28.5371 383.655 34.982 390.44C41.4269 397.226 50.3751 401.067 59.7333 401.067H119.467C119.774 401.067 120.073 400.981 120.38 400.981C116.931 417.168 123.405 433.858 136.866 443.486C135.365 443.655 133.855 443.737 132.343 443.733C122.715 443.763 113.495 439.843 106.837 432.887C86.5585 413.215 54.3183 413.215 34.0395 432.887C27.3825 439.845 18.1623 443.765 8.53333 443.733C3.8205 443.733 0 447.554 0 452.267C0 456.979 3.8205 460.8 8.53333 460.8C22.127 460.828 35.1912 455.532 44.928 446.046C51.6049 439.115 60.8145 435.199 70.4384 435.199C80.0623 435.199 89.2719 439.115 95.9488 446.046C105.689 455.527 118.751 460.822 132.343 460.8C143.642 461.013 154.659 457.263 163.482 450.202L163.61 450.108C165.41 448.734 167.117 447.36 168.73 446.046C175.401 439.117 184.605 435.202 194.223 435.202C203.841 435.202 213.045 439.117 219.716 446.046C239.976 465.717 272.203 465.717 292.463 446.046C299.131 439.118 308.332 435.203 317.948 435.203C327.563 435.203 336.765 439.118 343.433 446.046C344.883 447.249 346.436 448.503 348.066 449.758C348.16 449.843 348.271 449.911 348.373 449.988C357.243 457.18 368.367 461.009 379.785 460.8C393.368 460.827 406.421 455.53 416.145 446.046C422.81 439.119 432.008 435.204 441.621 435.204C451.234 435.204 460.433 439.119 467.098 446.046C476.822 455.535 489.88 460.832 503.467 460.8C508.18 460.8 512 456.979 512 452.267C512 447.554 508.18 443.733 503.467 443.733V443.733ZM362.88 295.654C368.903 289.149 378.891 288.305 385.92 293.709L462.72 353.442C470.171 359.222 471.525 369.948 465.745 377.399C459.965 384.85 449.239 386.205 441.788 380.425L383.59 335.198C380.08 332.477 375.07 332.904 372.07 336.179L343.893 366.933H297.532L362.88 295.654ZM115.2 307.2C96.8308 307.318 80.9168 294.489 77.1334 276.513C73.3499 258.538 82.7424 240.382 99.6007 233.086C116.459 225.789 136.124 231.367 146.64 246.429C157.156 261.49 155.617 281.873 142.959 295.185L141.594 296.559C134.495 303.373 125.04 307.185 115.2 307.2ZM59.7333 384C55.0552 384.006 50.5797 382.091 47.3534 378.703C44.127 375.316 42.4328 370.752 42.6667 366.08C43.6204 356.667 51.6843 349.59 61.1413 349.867H101.82C108.612 349.883 115.129 347.182 119.919 342.366L153.071 309.205C153.953 308.397 154.806 307.544 155.631 306.645L188.791 273.493C193.593 268.706 196.284 262.2 196.267 255.42V213.333C196.246 208.651 198.164 204.169 201.566 200.951C204.967 197.722 209.545 196.028 214.229 196.267C223.623 197.245 230.674 205.301 230.4 214.741V273.067C230.415 277.605 228.611 281.96 225.391 285.158L203.375 307.174C201.721 308.829 200.818 311.091 200.88 313.431C200.941 315.77 201.96 317.982 203.699 319.548L256.384 366.933H167.492C170.502 363.465 170.198 358.228 166.805 355.133C163.413 352.037 158.171 352.21 154.991 355.524L131.49 379.017C128.307 382.214 123.979 384.008 119.467 384H59.7333ZM317.943 418.133C304.365 418.112 291.318 423.412 281.6 432.896C274.928 439.823 265.724 443.736 256.107 443.736C246.489 443.736 237.285 439.823 230.613 432.896C210.353 413.22 178.119 413.22 157.858 432.896L156.271 434.193C144.872 431.426 136.768 421.327 136.533 409.6C136.543 402.809 139.315 396.315 144.213 391.612C149.353 386.686 156.209 383.956 163.328 384H348.672C363.131 383.695 375.113 395.142 375.467 409.6C375.208 421.278 367.172 431.341 355.84 434.176L354.278 432.887C344.561 423.409 331.518 418.113 317.943 418.133Z" fill="currentColor"/>
<path d="M503.467 494.933C493.846 494.963 484.634 491.042 477.986 484.087C457.736 464.41 425.507 464.41 405.257 484.087C398.592 491.015 389.393 494.929 379.78 494.929C370.167 494.929 360.969 491.015 354.304 484.087C334.051 464.409 301.819 464.409 281.566 484.087C274.894 491.014 265.69 494.928 256.073 494.928C246.455 494.928 237.251 491.014 230.579 484.087C210.318 464.411 178.085 464.411 157.824 484.087C151.152 491.014 141.948 494.928 132.331 494.928C122.713 494.928 113.509 491.014 106.837 484.087C86.5585 464.415 54.3183 464.415 34.0395 484.087C27.3825 491.045 18.1623 494.965 8.53333 494.933C3.8205 494.933 0 498.754 0 503.467C0 508.18 3.8205 512 8.53333 512C22.127 512.028 35.1912 506.732 44.928 497.246C51.6049 490.315 60.8145 486.399 70.4384 486.399C80.0623 486.399 89.2719 490.315 95.9488 497.246C116.214 516.919 148.447 516.919 168.713 497.246C175.383 490.317 184.587 486.402 194.206 486.402C203.824 486.402 213.028 490.317 219.699 497.246C239.959 516.917 272.186 516.917 292.446 497.246C299.114 490.318 308.315 486.403 317.931 486.403C327.546 486.403 336.748 490.318 343.415 497.246C363.666 516.923 395.895 516.923 416.145 497.246C422.81 490.319 432.008 486.404 441.621 486.404C451.234 486.404 460.433 490.319 467.098 497.246C476.822 506.735 489.88 512.032 503.467 512C508.18 512 512 508.18 512 503.467C512 498.754 508.18 494.933 503.467 494.933Z" fill="currentColor"/>
<path d="M456.252 88.081C445.347 61.7521 417.363 46.7927 389.412 52.3517C361.462 57.9107 341.331 82.4398 341.331 110.938C341.331 139.435 361.462 163.964 389.412 169.523C417.363 175.082 445.347 160.123 456.252 133.794C462.356 119.168 462.356 102.707 456.252 88.081ZM440.482 127.266C432.691 146.07 412.702 156.752 392.739 152.78C372.776 148.807 358.399 131.287 358.399 110.933C358.399 90.5791 372.776 73.0591 392.739 69.087C412.702 65.1148 432.691 75.7967 440.482 94.6005C444.853 105.05 444.853 116.816 440.482 127.266Z" fill="currentColor"/>
<path d="M358.613 8.448C356.515 9.31418 354.849 10.9804 353.983 13.0782C353.116 15.1761 353.121 17.5326 353.997 19.6267L360.525 35.3963C362.337 39.758 367.342 41.8249 371.703 40.0128C376.065 38.2007 378.132 33.1959 376.32 28.8341L369.792 13.0645C368.926 10.9666 367.259 9.30025 365.162 8.4339C363.064 7.56755 360.707 7.57262 358.613 8.448V8.448Z" fill="currentColor"/>
<path d="M430.455 181.888C426.105 183.692 424.038 188.68 425.839 193.032L432.367 208.802C434.169 213.157 439.161 215.226 443.516 213.423C447.87 211.62 449.939 206.629 448.136 202.274L441.608 186.504C440.742 184.413 439.08 182.751 436.988 181.886C434.897 181.02 432.546 181.021 430.455 181.888V181.888Z" fill="currentColor"/>
<path d="M479.906 86.8181C481.028 86.8161 482.139 86.5928 483.174 86.1611L498.944 79.6331C503.299 77.8186 505.358 72.8176 503.543 68.4629C501.729 64.1083 496.728 62.049 492.373 63.8635L476.604 70.4C472.841 71.9573 470.702 75.9566 471.498 79.9508C472.293 83.9449 475.799 86.8206 479.872 86.8181H479.906Z" fill="currentColor"/>
<path d="M318.959 135.68L303.189 142.208C298.835 144.013 296.768 149.006 298.573 153.361C300.378 157.716 305.371 159.783 309.726 157.978L325.495 151.441C328.376 150.318 330.424 147.724 330.849 144.661C331.273 141.598 330.007 138.545 327.539 136.681C325.072 134.818 321.789 134.434 318.959 135.68V135.68Z" fill="currentColor"/>
<path d="M476.638 151.467L492.407 158.003C496.762 159.808 501.755 157.741 503.56 153.387C505.365 149.032 503.298 144.039 498.944 142.234L483.174 135.68C480.344 134.434 477.061 134.818 474.594 136.681C472.126 138.545 470.86 141.598 471.284 144.661C471.709 147.724 473.757 150.318 476.638 151.441V151.467Z" fill="currentColor"/>
<path d="M325.495 70.4L309.76 63.8634C305.405 62.0584 300.412 64.1253 298.607 68.48C296.802 72.8346 298.869 77.828 303.223 79.633L318.993 86.161C321.823 87.4066 325.106 87.0234 327.573 85.1596C330.041 83.2959 331.307 80.243 330.883 77.18C330.459 74.117 328.411 71.5231 325.53 70.4H325.495Z" fill="currentColor"/>
<path d="M433.724 40.6357C437.177 40.6351 440.289 38.5534 441.609 35.3621L448.137 19.6266C449.939 15.272 447.87 10.2805 443.516 8.47784C439.161 6.67518 434.17 8.74399 432.367 13.0986L425.813 28.8341C424.721 31.4676 425.017 34.4724 426.601 36.8429C428.184 39.2134 430.847 40.6364 433.698 40.6357H433.724Z" fill="currentColor"/>
<path d="M360.525 186.505L353.997 202.24C352.831 205.057 353.256 208.282 355.112 210.7C356.969 213.119 359.974 214.363 362.997 213.964C366.02 213.566 368.6 211.585 369.766 208.768L376.294 192.998C378.097 188.644 376.028 183.652 371.673 181.85C367.319 180.047 362.327 182.116 360.525 186.47V186.505Z" fill="currentColor"/>
<path d="M47.5305 136.533H83.6265C90.9322 147.217 103.042 153.604 115.985 153.6H215.612C234.681 153.7 251.022 139.983 254.226 121.184C257.43 102.386 246.557 84.0297 228.531 77.8069C226.477 57.8275 209.635 42.6446 189.551 42.6666C189.261 42.6666 188.979 42.7349 188.697 42.7349C183.887 27.3633 172.466 14.9416 157.551 8.86024C142.637 2.77888 125.786 3.67284 111.599 11.2981C97.935 -0.30315 78.9145 -3.24988 62.3809 3.67306C45.8473 10.596 34.601 26.216 33.2798 44.0917C10.8846 51.0112 -3.05857 73.2961 0.512694 96.4623C4.08396 119.628 24.0911 136.68 47.5305 136.533V136.533ZM211.627 81.6554C211.629 82.3194 211.598 82.983 211.533 83.6437C211.089 88.1814 214.291 92.2663 218.803 92.9194C230.229 94.5237 238.453 104.712 237.611 116.219C236.769 127.726 227.149 136.609 215.612 136.533H115.976C104.642 136.661 95.0833 128.121 93.9372 116.844C92.7912 105.568 100.437 95.2796 111.565 93.1242C115.041 92.4229 117.722 89.6439 118.297 86.144C119.904 76.8682 126.186 69.0795 134.912 65.5458C143.638 62.0122 153.569 63.2346 161.177 68.7786C164.786 71.4104 169.812 70.815 172.706 67.4133C178.742 60.4772 188.432 57.9833 197.066 61.1431C205.701 64.3029 211.493 72.4615 211.627 81.6554V81.6554ZM43.1273 59.3066C45.37 58.9817 47.3913 57.7781 48.7456 55.9612C50.0999 54.1443 50.6758 51.8633 50.3465 49.6213C50.2625 48.8421 50.234 48.0579 50.2612 47.2746C50.3505 30.5283 63.9787 17.0146 80.7252 17.0666C89.6517 17.0724 98.1373 20.9479 103.987 27.6906C106.886 31.0431 111.87 31.6178 115.456 29.0133C121.815 24.4244 129.459 21.9552 137.301 21.9562C153.046 21.9627 167.054 31.9545 172.185 46.8394C169.663 48.0319 167.277 49.4939 165.069 51.2C153.382 45.3333 139.703 44.9199 127.684 50.0701C115.664 55.2203 106.529 65.4098 102.716 77.9178C87.2212 83.4833 76.8641 98.1477 76.7998 114.611C76.8603 116.239 77.0256 117.86 77.2948 119.467H47.5305C31.6049 119.589 18.3169 107.332 17.1543 91.4488C15.9918 75.5652 27.3536 61.5047 43.1273 59.3066V59.3066Z" fill="currentColor"/>
</g>
</svg>
