<svg width="49" height="49" viewBox="0 0 49 49" fill="currentColor" xmlns="http://www.w3.org/2000/svg">
<g>
<path d="M30.1503 20.0664C30.3245 19.5093 30.4185 18.9172 30.4185 18.3033C30.4185 17.6896 30.3245 17.0974 30.1503 16.5403L30.2875 16.4032C30.5716 16.119 30.5716 15.6582 30.2875 15.3742C30.0845 15.1713 29.7919 15.114 29.5373 15.2008C29.0517 14.415 28.3877 13.751 27.6019 13.2654C27.6887 13.0111 27.6315 12.7183 27.4286 12.5154C27.1445 12.2314 26.6838 12.2312 26.3995 12.5154L26.2625 12.6525C25.7054 12.4783 25.1133 12.3843 24.4995 12.3843C23.8857 12.3843 23.2936 12.4783 22.7364 12.6525L22.5992 12.5152C22.315 12.2311 21.8542 12.2311 21.5702 12.5152C21.3673 12.7181 21.3101 13.0108 21.3969 13.2653C20.6111 13.7509 19.9472 14.4148 19.4615 15.2007C19.2071 15.1139 18.9143 15.1711 18.7114 15.374C18.4274 15.6581 18.4274 16.1189 18.7115 16.4031L18.8487 16.5403C18.6745 17.0974 18.5805 17.6895 18.5805 18.3033C18.5805 18.9172 18.6745 19.5092 18.8487 20.0664L18.7115 20.2036C18.4274 20.4878 18.4504 20.9272 18.7115 21.2326C18.9671 21.5313 19.2547 21.5082 19.4675 21.4153C19.9523 22.1963 20.6134 22.8567 21.3952 23.3404C21.3016 23.6006 21.3524 23.9021 21.5702 24.0915C22.0415 24.5013 22.4572 24.2335 22.5992 24.0915L22.7363 23.9543C23.2934 24.1285 23.8855 24.2225 24.4994 24.2225C25.1131 24.2225 25.7052 24.1285 26.2624 23.9543L26.3994 24.0914C26.5416 24.2335 26.9572 24.5012 27.4285 24.0914C27.6464 23.902 27.6971 23.6005 27.6035 23.3403C28.3886 22.8547 29.052 22.191 29.5373 21.4057C29.7467 21.4844 30.0279 21.4942 30.2873 21.2326C30.5703 20.9472 30.5714 20.4877 30.2873 20.2036L30.1503 20.0664ZM26.6047 14.3686C27.3797 14.7848 28.0181 15.4233 28.4344 16.1982L27.3583 17.2743L25.5286 15.4448L26.6047 14.3686ZM26.3294 18.3033L24.4997 20.133L22.6701 18.3033L24.4997 16.4737L26.3294 18.3033ZM25.0414 13.8737L24.4996 14.4155L23.9579 13.8737C24.439 13.7561 24.8637 13.8521 25.0414 13.8737ZM22.3945 14.3685L23.4705 15.4446L21.641 17.2743L20.5649 16.1983C20.9812 15.4233 21.6195 14.7849 22.3945 14.3685ZM20.07 18.8451C20.0484 18.6674 19.988 18.1585 20.07 17.7616L20.6118 18.3033L20.07 18.8451ZM22.3945 22.2382C21.6196 21.8219 20.9812 21.1834 20.5649 20.4085L21.641 19.3324L23.4705 21.1621L22.3945 22.2382ZM23.9579 22.733L24.4996 22.1912L25.0414 22.733C24.8637 22.7546 24.439 22.8399 23.9579 22.733ZM26.6047 22.2381L25.5286 21.162L27.3583 19.3323L28.4344 20.4084C28.0181 21.1834 27.3797 21.8219 26.6047 22.2381ZM28.9293 18.8451L28.3875 18.3033L28.9293 17.7616C29.0597 18.098 28.9509 18.6674 28.9293 18.8451Z" fill="currentColor"/>
<path d="M25.1345 29.7126C24.776 29.7188 24.4129 29.7197 24.0556 29.7153C23.6571 29.709 23.3241 30.0324 23.3193 30.4342C23.3145 30.836 23.6364 31.1657 24.0382 31.1705C24.1909 31.1723 24.9398 31.1714 25.1591 31.1677C25.5609 31.161 25.8811 30.8297 25.8743 30.4279C25.8676 30.0261 25.5323 29.708 25.1345 29.7126Z" fill="currentColor"/>
<path d="M34.8135 15.9294V15.0419C34.8135 14.1592 34.0954 13.441 33.2126 13.441H31.6807C30.1188 11.1416 27.4826 9.62793 24.4994 9.62793C20.8602 9.62793 17.7377 11.8805 16.4518 15.0643H15.9626C14.7589 15.0643 13.7797 16.0436 13.7797 17.2473V19.3595C13.7798 20.5631 14.759 21.5424 15.9627 21.5424H16.4519C17.7379 24.7262 20.8604 26.9788 24.4995 26.9788C27.4826 26.9788 30.1188 25.4651 31.6807 23.1657H33.2126C34.0954 23.1657 34.8135 22.4475 34.8135 21.5648V20.6772C34.8135 18.9954 33.1401 19.0763 33.1401 19.0763C33.1627 18.8215 33.1749 18.5638 33.1749 18.3032C33.1749 18.0426 33.1627 17.7849 33.1401 17.5301C33.1401 17.5303 34.8135 17.6614 34.8135 15.9294ZM16.0088 20.0872C16.0088 20.0872 15.235 20.0871 15.235 19.3595V17.2473C15.235 16.5335 16.0088 16.5196 16.0088 16.5196C15.888 17.0955 15.8241 17.6921 15.8241 18.3034C15.8241 18.9148 15.888 19.5113 16.0088 20.0872ZM24.4995 25.5237C20.5184 25.5237 17.2793 22.2847 17.2793 18.3035C17.2793 14.3223 20.5184 11.0833 24.4995 11.0833C28.4807 11.0833 31.7197 14.3223 31.7197 18.3035C31.7197 22.2847 28.4807 25.5237 24.4995 25.5237ZM33.2127 20.5318C33.2916 20.5318 33.3583 20.5985 33.3583 20.6774V21.565C33.3583 21.6438 33.2917 21.7105 33.2127 21.7105H32.4775C32.6403 21.3308 32.7766 20.9371 32.8844 20.5318H33.2127ZM32.8844 16.075C32.7766 15.6698 32.6403 15.2761 32.4775 14.8964H33.2127C33.2916 14.8964 33.3583 14.963 33.3583 15.0419V15.9294C33.3583 16.0083 33.2917 16.075 33.2127 16.075H32.8844Z" fill="currentColor"/>
<path d="M43.1916 33.129C42.8948 32.5834 42.4034 32.1862 41.8079 32.0104C41.2122 31.8344 40.5839 31.901 40.0384 32.1978C39.7238 32.3689 39.4607 32.6064 39.2587 32.8895L34.7814 31.4963C34.8389 31.2149 34.9781 30.4419 34.3452 29.6972C35.7847 28.0991 36.963 26.2173 37.8067 24.2223H39.3886C40.1669 24.2222 40.9538 23.6416 41.1799 22.9011C42.2583 19.3822 42.2583 15.6623 41.1801 12.144C40.9538 11.4029 40.1669 10.8223 39.3885 10.8222H37.7828C36.3718 7.94285 34.0521 5.58636 31.1992 4.12976V2.59995C31.199 1.82179 30.6185 1.03492 29.8781 0.808774C26.3593 -0.269607 22.6395 -0.269511 19.121 0.808582C18.38 1.03502 17.7995 1.82188 17.7994 2.60005V4.13014C14.9467 5.58674 12.6272 7.94305 11.2163 10.8225H9.61056C8.8325 10.8226 8.04563 11.4032 7.81929 12.1436C6.74101 15.6625 6.741 19.3824 7.8191 22.9007C8.04544 23.6419 8.8324 24.2225 9.61066 24.2226H11.1925C12.0362 26.2176 13.2145 28.0993 14.654 29.6975C14.0858 30.2585 14.1603 31.2152 14.2178 31.4967L9.74158 32.8895C9.18124 32.1064 8.16593 31.7229 7.19138 32.0106C5.96198 32.3737 5.25713 33.6692 5.62023 34.8988C6.79871 38.8892 9.28163 42.4785 12.6117 45.0055C14.0995 46.1346 15.7254 47.042 17.4441 47.7024C17.819 47.8465 18.2402 47.6593 18.3844 47.2842C18.5285 46.9092 18.3413 46.4881 17.9662 46.3439C16.3755 45.7326 14.87 44.8923 13.4914 43.8461C10.4068 41.5053 8.10707 38.1814 7.01586 34.4865C6.88016 34.0267 7.14363 33.5421 7.60348 33.4063C8.06343 33.2707 8.54807 33.5341 8.68387 33.994C10.7377 40.9486 17.2414 45.8057 24.4997 45.8057C31.758 45.8057 38.2617 40.9485 40.3155 33.9941C40.3814 33.7713 40.8054 33.1966 41.3958 33.4062C42.0934 33.6542 42.0493 34.2637 41.9835 34.4865C40.8924 38.1814 38.5927 41.5054 35.508 43.8461C32.3196 46.2658 28.5129 47.5448 24.4999 47.5448C22.9778 47.5448 21.4699 47.3596 20.0184 46.994C19.6286 46.8958 19.2331 47.1323 19.135 47.5219C19.0368 47.9115 19.2732 48.3071 19.6629 48.4052C21.2305 48.8 22.8579 49.0003 24.4999 49.0003C28.8334 49.0003 32.9442 47.619 36.3877 45.0056C39.7178 42.4787 42.2009 38.8894 43.3792 34.8989C43.555 34.303 43.4883 33.6746 43.1916 33.129ZM38.4018 12.2777H39.3886C39.5309 12.2777 39.7475 12.4357 39.7886 12.5701C40.7815 15.81 40.7815 19.235 39.7884 22.4756C39.7476 22.6091 39.5309 22.7672 39.3887 22.7672H38.3552C38.956 20.9626 39.2827 19.1026 39.2827 17.3056C39.2827 15.541 38.9715 13.8479 38.4018 12.2777ZM19.2545 2.60024H19.2546C19.2546 2.45802 19.4127 2.24126 19.5469 2.20029C22.7869 1.20747 26.2121 1.20747 29.4524 2.20049C29.5859 2.24126 29.744 2.45802 29.744 2.60014V3.48444C28.1132 2.86361 26.3457 2.52243 24.4995 2.52243C22.6532 2.52243 20.8855 2.86371 19.2545 3.48463V2.60024ZM9.61066 22.7671C9.46835 22.7671 9.25168 22.609 9.21062 22.4748C8.2178 19.2348 8.2178 15.8098 9.21071 12.5694C9.25158 12.4358 9.46835 12.2776 9.61047 12.2776H10.5973C10.0276 13.8478 9.71641 15.5409 9.71641 17.3054C9.71641 19.1023 10.043 20.9624 10.6439 22.767H9.61066V22.7671ZM11.1719 17.3056C11.1719 9.95654 17.1507 3.97769 24.4996 3.97769C31.8486 3.97769 37.8273 9.95654 37.8273 17.3055C37.8273 21.3593 36.0174 25.7728 33.0819 28.9239C32.799 28.8653 32.5 28.8619 32.1997 28.9241C30.579 29.2598 28.9288 29.4918 27.2951 29.6136C26.8943 29.6435 26.5937 29.9926 26.6235 30.3934C26.6533 30.794 27.0016 31.0944 27.4033 31.0649C29.0995 30.9384 30.8126 30.6976 32.495 30.3491C32.8883 30.268 33.2737 30.5213 33.355 30.914C33.4364 31.307 33.183 31.6929 32.7901 31.7742C30.0519 32.3413 27.2626 32.6288 24.4996 32.6288C21.7365 32.6288 18.9472 32.3413 16.2092 31.7742C15.8163 31.6928 15.5628 31.307 15.6442 30.9141C15.7257 30.5213 16.1116 30.2681 16.5043 30.3492C18.275 30.7158 20.0779 30.963 21.863 31.0839C22.264 31.1112 22.6109 30.808 22.6381 30.407C22.6653 30.006 22.3622 29.6591 21.9612 29.6319C20.242 29.5154 18.5054 29.2774 16.7993 28.9241C16.4989 28.8618 16.2 28.8652 15.9172 28.9238C12.9818 25.7727 11.1719 21.3593 11.1719 17.3056ZM24.4996 44.3502C18.1142 44.3502 12.3698 40.2273 10.2923 34.2422L15.0056 32.7755C15.2634 32.9795 15.5708 33.1284 15.9141 33.1995C18.749 33.7867 21.6377 34.0843 24.4997 34.0843C27.3617 34.0843 30.2503 33.7867 33.0853 33.1995C33.4286 33.1284 33.736 32.9794 33.9938 32.7754L38.707 34.2421C36.6295 40.2273 30.8851 44.3502 24.4996 44.3502Z" fill="currentColor"/>
<path d="M18.9697 33.8643C17.0073 33.8643 15.4106 35.4609 15.4106 37.4233C15.4106 39.3857 17.0073 40.9824 18.9697 40.9824C20.9322 40.9824 22.5287 39.3857 22.5287 37.4233C22.5287 35.4609 20.9321 33.8643 18.9697 33.8643ZM18.9697 39.527C17.8097 39.527 16.866 38.5833 16.866 37.4233C16.866 36.2632 17.8097 35.3196 18.9697 35.3196C20.1298 35.3196 21.0734 36.2633 21.0734 37.4233C21.0734 38.5834 20.1297 39.527 18.9697 39.527Z" fill="currentColor"/>
<path d="M30.0294 33.8643C28.0669 33.8643 26.4703 35.4609 26.4703 37.4233C26.4703 39.3857 28.0669 40.9824 30.0294 40.9824C31.9919 40.9824 33.5885 39.3857 33.5885 37.4233C33.5885 35.4609 31.9919 33.8643 30.0294 33.8643ZM30.0294 39.527C28.8694 39.527 27.9257 38.5833 27.9257 37.4233C27.9257 36.2632 28.8694 35.3196 30.0294 35.3196C31.1894 35.3196 32.1332 36.2633 32.1332 37.4233C32.1332 38.5834 31.1894 39.527 30.0294 39.527Z" fill="currentColor"/>
<path d="M31.4645 7.69571C29.4275 6.21557 27.0191 5.43311 24.4996 5.43311C24.0977 5.43311 23.7719 5.75888 23.7719 6.16083C23.7719 6.56269 24.0976 6.88846 24.4996 6.88846C26.7098 6.88846 28.8225 7.57484 30.6091 8.87305C30.7383 8.96684 31.2427 9.22036 31.6255 8.71208C31.8673 8.39109 31.7897 7.93191 31.4645 7.69571Z" fill="currentColor"/>
<path d="M34.6522 11.1563C34.2708 10.5285 33.8278 9.93221 33.3357 9.38373C33.0673 9.08456 32.6071 9.05959 32.3081 9.32813C32.009 9.59648 31.9841 10.0566 32.2525 10.3557C32.6847 10.8373 33.0737 11.361 33.4085 11.912C33.5454 12.1373 33.8785 12.5031 34.4081 12.1561C34.7443 11.9357 34.8608 11.4997 34.6522 11.1563Z" fill="currentColor"/>
</g>
<defs>
<clipPath id="clip0">
<rect width="49" height="49" fill="currentColor"/>
</clipPath>
</defs>
</svg>
