<svg width="57" height="57" viewBox="0 0 57 57" fill="currentColor" xmlns="http://www.w3.org/2000/svg">
<path d="M53.2286 18.0096C52.009 16.7892 50.0702 16.7125 48.7591 17.7808C48.5696 17.9353 48.7164 17.7991 45.8296 20.6859L53.323 28.1795L56.0161 25.52C57.3182 24.2179 57.3182 22.0993 56.0161 20.7971L53.2286 18.0096Z" fill="currentColor"/>
<path d="M30.4626 36.1946L26.0546 45.6403C25.7577 46.2767 25.8905 47.0307 26.387 47.5272C26.8835 48.0237 27.6378 48.1564 28.2739 47.8596L37.7196 43.4515C38.0933 43.2771 36.962 44.3359 50.9465 30.526L43.4679 23.0472C29.6024 36.9128 30.6405 35.8136 30.4626 36.1946Z" fill="currentColor"/>
<path d="M40.5333 45.5033C40.1244 45.9071 39.653 46.2349 39.1324 46.4779L29.6867 50.886C27.8292 51.7528 25.56 51.4227 24.0264 49.8888C22.5424 48.4049 22.1416 46.1301 23.029 44.2282L27.4371 34.7822C27.6846 34.2518 28.0201 33.7729 28.4341 33.3588L42.6346 19.1584V5.00928C42.6346 2.24716 40.3874 0 37.6253 0H5.00928C2.24716 0 0 2.24716 0 5.00928V51.9852C0 54.7473 2.24716 56.9945 5.00928 56.9945H37.6253C40.3874 56.9945 42.6346 54.7473 42.6346 51.9852V43.4281L40.5333 45.5033ZM8.9055 10.7978H33.8406C34.7627 10.7978 35.5104 11.5454 35.5104 12.4675C35.5104 13.3897 34.7627 14.1373 33.8406 14.1373H8.9055C7.98335 14.1373 7.23574 13.3897 7.23574 12.4675C7.23574 11.5454 7.98335 10.7978 8.9055 10.7978ZM8.9055 19.7032H28.4974C29.4195 19.7032 30.1671 20.4508 30.1671 21.3729C30.1671 22.2951 29.4195 23.0427 28.4974 23.0427H8.9055C7.98335 23.0427 7.23574 22.2951 7.23574 21.3729C7.23574 20.4508 7.98335 19.7032 8.9055 19.7032ZM7.23574 30.2783C7.23574 29.3562 7.98335 28.6086 8.9055 28.6086H23.1541C24.0763 28.6086 24.8239 29.3562 24.8239 30.2783C24.8239 31.2005 24.0763 31.9481 23.1541 31.9481H8.9055C7.98335 31.9481 7.23574 31.2005 7.23574 30.2783Z" fill="currentColor"/>
<defs>

</defs>
</svg>
