<svg width="75" height="75" viewBox="0 0 75 75" fill="none" xmlns="http://www.w3.org/2000/svg">
<g clip-path="url(#clip0)">
<path d="M74.0808 29.2608C70.23 12.1576 55.0389 0.00811647 37.5076 0.0101666C22.1193 0.00284464 8.28937 9.40032 2.62933 23.71C-3.03071 38.0196 0.628816 54.3349 11.8585 64.8562C23.0883 75.3774 39.607 77.9675 53.518 71.3883C53.5281 71.3839 53.539 71.3861 53.5489 71.3814C53.5584 71.3769 53.5638 71.3681 53.5732 71.3634C69.4136 63.8516 77.9316 46.3638 74.0808 29.2608ZM56.6389 8.22485L49.5634 10.7016C49.4199 10.7524 49.2866 10.8288 49.1705 10.9274C47.6814 12.1111 46.3028 13.4274 45.0519 14.8605C44.2295 15.4481 43.3321 15.923 42.3836 16.2724C38.1509 16.5702 32.9864 17.0742 31.9357 17.8027C30.6495 18.6985 30.4347 21.4722 30.4804 23.642C30.4847 23.8334 30.5328 24.0213 30.6214 24.1912L34.0603 30.8054C34.6288 31.867 35.9423 32.2783 37.0147 31.7305C37.3039 31.5852 37.5968 31.4218 37.8914 31.257C38.1319 31.1228 38.3735 30.9873 38.6639 30.8384C39.0965 30.6212 39.6341 30.3563 39.8982 30.432C39.9694 30.454 40.0378 30.4843 40.1021 30.5224C40.0122 30.7414 39.8732 30.9368 39.6957 31.0935C38.8061 32.0648 37.9286 33.046 37.0488 34.0589L34.1048 37.4599C34.0048 37.5746 33.9052 37.6894 33.7612 37.8675C32.8814 39.0879 32.5079 40.6014 32.7184 42.0911L32.8412 42.9283C32.9642 43.7919 32.7392 44.6689 32.2157 45.3665L29.7519 48.7029C29.5395 48.9793 29.3563 49.277 29.2052 49.5913L26.609 54.9938H24.555C25.1417 54.3991 25.3764 53.5418 25.1743 52.7313L22.7928 43.1102H22.7945C22.7777 43.0132 22.7531 42.9178 22.7213 42.8246L21.0012 38.2008C20.9317 38.0122 20.8965 37.8124 20.8975 37.6114V37.3869C20.9043 35.7812 19.9949 34.3122 18.5545 33.6026L18.4447 33.5538C17.7249 33.1801 16.91 33.0293 16.1041 33.1206L12.7281 33.4966C12.1829 33.5579 11.6434 33.341 11.2923 32.9194L9.17255 30.4128C8.91115 30.1016 8.76735 29.7086 8.76618 29.3024V27.09C8.76032 26.6394 8.93429 26.205 9.24943 25.883L11.9817 23.1238C12.2211 22.8782 12.4313 22.606 12.6083 22.3122L13.4906 20.8137C13.7854 20.3088 14.3277 20.0002 14.9123 20.0046H18.5293C19.0064 20.0021 19.4604 20.2102 19.7698 20.5732C20.5612 21.441 21.6803 21.9373 22.8549 21.9413H24.185C24.7356 21.9413 25.2212 21.5809 25.3808 21.054L26.5365 17.2429C26.6761 16.781 26.5377 16.2801 26.1808 15.9554C25.4596 15.3026 24.8593 14.5276 24.4077 13.6661C23.5925 11.694 20.0322 10.4188 19.0565 10.2651C18.418 9.90129 17.8195 9.47135 17.2713 8.98224C28.9828 0.637075 44.6154 0.336435 56.6389 8.22485ZM18.2667 66.7281C8.43288 60.2561 2.51437 49.2713 2.51833 37.4987C2.51642 27.0635 7.17994 17.1739 15.2322 10.5366C17.5035 12.4388 18.2205 12.6848 18.703 12.7381C19.9823 13.047 21.1545 13.6954 22.0961 14.615C22.55 15.5889 23.1693 16.4766 23.9266 17.2388L23.2584 19.4416H22.8551C22.3912 19.4399 21.9487 19.2465 21.6324 18.907C20.8488 18.0141 19.7177 17.503 18.5298 17.5049H14.9127C13.4443 17.5065 12.0855 18.2819 11.3371 19.5452L10.4706 21.0181C10.3959 21.1414 10.308 21.2564 10.2089 21.3611L7.47531 24.1215C6.69435 24.9109 6.25957 25.9788 6.26718 27.0894V29.3018C6.26953 30.2958 6.6204 31.2575 7.25873 32.0194L9.38459 34.5322C10.2758 35.5905 11.637 36.1335 13.0121 35.9794L16.3802 35.6048C16.7151 35.5674 17.0535 35.6347 17.3486 35.7977L17.4711 35.8538C18.0464 36.1471 18.4057 36.7409 18.3985 37.3866V37.6111C18.3975 38.1139 18.4871 38.613 18.6633 39.084L20.348 43.6101C20.3534 43.6357 20.3583 43.6589 20.362 43.6724L22.7349 53.2776L22.4975 53.5071C21.8093 54.2556 21.6483 55.3487 22.0918 56.2638C22.4722 57.0159 23.2428 57.4909 24.0858 57.4928H26.6088C27.5179 57.4938 28.3482 56.9766 28.748 56.1602L31.4566 50.676C31.5389 50.5076 31.6382 50.3481 31.7531 50.2001L34.2206 46.8576C35.1384 45.6329 35.5321 44.094 35.3153 42.579L35.1925 41.7395C35.0728 40.9152 35.2688 40.0761 35.7417 39.3903L35.987 39.1036C36.0841 38.9926 36.181 38.8814 36.2561 38.7899L38.9372 35.6952C39.8006 34.7031 40.665 33.735 41.5303 32.7909C42.3155 32.114 42.6979 31.0812 42.5426 30.0562C42.3149 29.0915 41.587 28.3233 40.6359 28.0439C39.5441 27.8172 38.4072 28.0311 37.4728 28.6394C37.2049 28.7774 36.9371 28.9262 36.671 29.0751C36.4899 29.1763 36.3097 29.2776 36.1317 29.3728L32.9759 23.3029C32.9303 22.1372 33.0752 20.972 33.4048 19.853C36.4923 19.2717 39.6162 18.9038 42.7544 18.7523C42.8828 18.7429 43.0092 18.714 43.129 18.6669C44.6593 18.0592 46.6008 17.1366 47.153 16.2067C48.2304 15.0558 49.3846 13.9795 50.6078 12.985L59.1136 10.008C65.2042 14.7928 69.5387 21.4599 71.4405 28.968L70.9861 28.7296C70.1389 28.2811 69.1726 28.1092 68.2226 28.2379L61.7775 29.0861C60.5768 29.2242 59.672 30.2425 59.6761 31.4511V32.6006H58.3764C57.5477 32.6056 56.7782 33.0313 56.3336 33.7307L55.9168 34.3872C54.847 36.09 54.5788 38.1768 55.1835 40.0947L56.1725 43.2786L55.297 43.5813C54.6583 43.8068 54.1451 44.2924 53.8844 44.9175C53.6302 45.5335 53.6483 46.228 53.9343 46.8297L56.835 52.9839L54.9941 53.0058L51.5046 50.2223C50.8843 49.7518 50.0773 49.6042 49.3306 49.8244L44.1826 51.3767C43.4008 51.6227 42.7992 52.2517 42.588 53.0436C42.377 53.8356 42.5858 54.6805 43.1416 55.283L43.8574 56.0493C44.1195 56.3167 44.4389 56.5211 44.7915 56.6472L46.8918 57.3183V59.6419C46.8964 59.9937 46.9711 60.3409 47.1114 60.6633L51.3413 69.6314C40.5307 74.2913 28.1008 73.2002 18.2667 66.7281ZM53.5965 68.5542L49.3912 59.6418V57.3182C49.393 56.3004 48.7524 55.3922 47.7932 55.052L45.657 54.3162L45.0926 53.7109L49.9745 52.1965L53.4268 54.9507C53.8567 55.2934 54.3902 55.4801 54.9399 55.4804H56.9889C57.809 55.4846 58.5747 55.0706 59.0202 54.3821C59.4617 53.6989 59.5225 52.8373 59.1813 52.0988L56.2563 45.8934L57.1147 45.5969C58.3165 45.1688 58.9688 43.8708 58.5949 42.6509L57.5679 39.3451C57.1834 38.1265 57.3531 36.8007 58.0323 35.7182L58.3764 35.0995H59.7755C61.0933 35.1049 62.1669 34.0426 62.1754 32.7247V31.5543L68.5626 30.7135C68.9987 30.654 69.4425 30.7353 69.8293 30.9453L70.3278 31.2065C70.8518 31.476 71.4217 31.6442 72.0081 31.7022C74.5416 46.6837 67.0974 61.584 53.5965 68.5542Z" fill="#F9F9F9"/>
</g>
<defs>
<clipPath id="clip0">
<rect width="75" height="75" fill="white"/>
</clipPath>
</defs>
</svg>
