<svg width="512" height="512" viewBox="0 0 512 512" fill="currentColor" xmlns="http://www.w3.org/2000/svg">
<path d="M504.5 222.568H423.553C423.553 222.568 406.616 187.755 406.598 187.717C405.617 185.701 403.734 184.25 401.579 183.699L377.574 178.025L359.851 139.041C359.279 137.783 358.372 136.708 357.227 135.934C357.227 135.934 312.722 105.808 312.667 105.771C310.294 104.164 307.055 104.095 304.6 105.553L245.756 140.91L191.951 145.642C190.086 145.806 188.349 146.662 187.083 148.041L159.834 177.725L118.863 187.641C116.92 188.112 115.245 189.338 114.21 191.049L95.147 222.568H7.5C3.358 222.568 0 225.926 0 230.068C0 234.211 3.358 237.568 7.5 237.568H91.361L85.655 323.057C85.484 325.62 86.636 328.093 88.709 329.609L149.659 374.207L166.016 448.558C166.4 450.302 167.393 451.851 168.817 452.928L240.186 506.911C240.196 506.919 240.208 506.924 240.218 506.931C243.31 509.224 248.095 508.661 250.533 505.655L285.587 462.469C286.354 461.524 286.879 460.406 287.118 459.213L295.44 417.599L346.498 404.867C348.602 404.342 350.375 402.933 351.362 401.002L377.858 349.151L411.247 331.749C413.451 330.601 414.942 328.435 415.23 325.967L425.537 237.567H504.5C508.642 237.568 512 234.211 512 230.068C512 225.926 508.642 222.568 504.5 222.568ZM406.872 222.568H368.252L396.976 202.227L406.872 222.568ZM381.964 194.476L342.296 222.567H269.749L279.812 210.407L313.543 204.715C315.273 204.423 316.847 203.533 317.989 202.2L334.272 183.203L381.964 194.476ZM311.04 122.783L347.07 147.173L359.113 173.662L333.277 167.555C330.547 166.909 327.684 167.843 325.858 169.973L308.369 190.376L274.565 196.081C272.791 196.38 271.183 197.308 270.035 198.694L250.277 222.568H195.116L216.185 191.547L274.678 182.261C276.954 181.9 278.937 180.513 280.057 178.499L311.04 122.783ZM125.43 201.485L165.582 191.767C167.028 191.417 168.337 190.645 169.342 189.549L196.166 160.329L248.794 155.701C249.928 155.601 251.024 155.244 252 154.659L288.269 132.867L268.721 168.019L210.628 177.242C208.583 177.567 206.763 178.722 205.6 180.435L176.983 222.569H112.678L125.43 201.485ZM180.072 442.634L163.7 368.216C163.307 366.432 162.278 364.853 160.804 363.775L100.896 319.94L106.394 237.568H171.186L155.3 296.941C154.568 299.675 155.438 302.589 157.55 304.474L198.231 340.797V386.795C198.231 388.328 198.701 389.825 199.578 391.083L228.612 432.75L235.06 484.226L180.072 442.634ZM400.791 320.286L368.803 336.957C367.422 337.677 366.299 338.809 365.591 340.195L339.559 391.139L287.205 404.195C284.391 404.896 282.234 407.157 281.665 410.001L272.774 454.455L249.968 482.552L243.266 429.048C243.115 427.841 242.673 426.69 241.977 425.693L213.231 384.439V337.439C213.231 335.303 212.32 333.268 210.726 331.844L170.983 296.36L186.713 237.569H410.436L400.791 320.286Z" fill="currentColor"/>
<path d="M17.7832 113.209H245.877C248.06 113.209 250.135 112.257 251.56 110.604C252.985 108.95 253.618 106.757 253.294 104.598C249.723 80.766 228.834 62.794 204.705 62.794C201.081 62.794 197.516 63.184 194.036 63.959C189.116 41.08 168.621 23.797 144.406 23.797C126.292 23.797 109.763 33.481 100.742 48.667C96.2692 46.338 91.2572 45.077 86.1502 45.077C71.7012 45.077 59.4872 54.829 55.7442 68.097C53.3992 67.652 51.0022 67.428 48.5662 67.428C27.4572 67.428 10.2842 84.601 10.2842 105.71C10.2832 109.851 13.6412 113.209 17.7832 113.209ZM48.5652 82.427C52.1552 82.427 55.5992 83.224 58.8022 84.796C61.1952 85.971 64.0322 85.786 66.2532 84.312C68.4742 82.838 69.7462 80.295 69.5942 77.634C69.5752 77.312 69.5632 76.989 69.5632 76.663C69.5632 67.517 77.0042 60.077 86.1502 60.077C90.7432 60.077 95.0162 61.917 98.1842 65.259C99.9792 67.153 102.629 67.978 105.182 67.436C107.735 66.895 109.823 65.066 110.695 62.606C115.746 48.365 129.293 38.797 144.405 38.797C163.846 38.797 179.883 54.612 180.154 74.052C180.19 76.577 181.494 78.916 183.624 80.273C185.755 81.63 188.426 81.823 190.728 80.788C195.146 78.802 199.849 77.794 204.703 77.794C218.405 77.794 230.601 86.129 235.954 98.21H26.5222C29.6502 89.039 38.3502 82.427 48.5652 82.427Z" fill="currentColor"/>
<path d="M283.15 78.573C283.15 78.573 466.582 78.573 466.811 78.573C471.116 78.573 474.638 74.722 474.285 70.444C473.948 52.93 459.599 38.788 442.009 38.788C440.4 38.788 438.812 38.904 437.248 39.135C433.668 28.485 423.59 20.793 411.749 20.793C407.861 20.793 404.038 21.651 400.55 23.251C392.89 11.251 379.488 3.66101 364.846 3.66101C345.155 3.66101 328.412 17.369 323.788 35.742C321.334 35.287 318.833 35.059 316.298 35.059C296.153 35.059 278.714 50.064 275.733 69.961C275.064 74.428 278.642 78.572 283.15 78.573ZM316.299 50.057C320 50.057 323.584 50.825 326.951 52.339C331.8 54.52 337.452 50.9 337.526 45.603C337.734 30.747 349.99 18.66 364.847 18.66C376.396 18.66 386.75 25.972 390.61 36.856C392.447 42.034 399.34 43.498 403.121 39.509C405.393 37.113 408.457 35.793 411.749 35.793C418.306 35.793 423.641 41.128 423.642 47.685C423.642 53.364 428.574 58.411 434.412 55.546C436.788 54.38 439.345 53.788 442.01 53.788C448.854 53.788 454.782 57.787 457.58 63.571H293.495C297.976 55.483 306.648 50.057 316.299 50.057Z" fill="currentColor"/>
</svg>
