<svg width="22" height="32" viewBox="0 0 22 32" fill="none" xmlns="http://www.w3.org/2000/svg">
<path d="M21.6664 10.6666C21.6664 19.7812 10.9999 32 10.9999 32C10.9999 32 0.333496 19.9805 0.333496 10.6666C0.333496 4.77565 5.10914 0 11.0002 0C16.8913 0 21.6669 4.77565 21.6669 10.6666H21.6664Z" fill="#C8C8C8"/>
<mask id="mask0" mask-type="alpha" maskUnits="userSpaceOnUse" x="0" y="0" width="22" height="32">
<path d="M21.6664 10.6666C21.6664 19.7812 10.9999 32 10.9999 32C10.9999 32 0.333496 19.9805 0.333496 10.6666C0.333496 4.77565 5.10914 0 11.0002 0C16.8913 0 21.6669 4.77565 21.6669 10.6666H21.6664Z" fill="#C4C4C4"/>
</mask>
<g mask="url(#mask0)">
<rect x="11" width="11" height="32" fill="#D3D3D3"/>
<path d="M11 17.485C14.8794 17.485 18.0243 14.34 18.0243 10.4606C18.0243 6.58114 14.8794 3.43622 11 3.43622C7.1205 3.43622 3.97559 6.58114 3.97559 10.4606C3.97559 14.34 7.1205 17.485 11 17.485Z" fill="#E2E2E2"/>
</g>
</svg>
