<svg width="32" height="32" viewBox="0 0 32 32" fill="none" xmlns="http://www.w3.org/2000/svg">
<g clip-path="url(#clip0)">
<path d="M26.6664 10.6666C26.6664 19.7812 15.9999 32 15.9999 32C15.9999 32 5.3335 19.9805 5.3335 10.6666C5.3335 4.77565 10.1091 0 16.0002 0C21.8913 0 26.6669 4.77565 26.6669 10.6666H26.6664Z" fill="#2F7AE8"/>
<mask id="mask0" mask-type="alpha" maskUnits="userSpaceOnUse" x="5" y="0" width="22" height="32">
<path d="M26.6664 10.6666C26.6664 19.7812 15.9999 32 15.9999 32C15.9999 32 5.3335 19.9805 5.3335 10.6666C5.3335 4.77565 10.1091 0 16.0002 0C21.8913 0 26.6669 4.77565 26.6669 10.6666H26.6664Z" fill="#C4C4C4"/>
</mask>
<g mask="url(#mask0)">
<rect x="16" width="11" height="32" fill="#4C90F4"/>
<path d="M16 17.485C19.8794 17.485 23.0243 14.34 23.0243 10.4606C23.0243 6.58114 19.8794 3.43622 16 3.43622C12.1205 3.43622 8.97559 6.58114 8.97559 10.4606C8.97559 14.34 12.1205 17.485 16 17.485Z" fill="#9FC6FF"/>
</g>
<path d="M21.139 13.0176L20.7565 10.9939C20.7405 10.91 20.6847 10.8392 20.6067 10.8044C20.5288 10.7694 20.4388 10.775 20.3656 10.819L18.6018 11.8822C18.4985 11.9445 18.4514 12.0694 18.4878 12.1842C18.524 12.2992 18.6343 12.374 18.7545 12.3657L19.4435 12.3176C18.7857 13.2017 17.7956 13.5645 16.6599 13.6575V7.86798H17.2271C17.3185 7.93607 17.431 7.9777 17.5537 7.9777C17.8574 7.9777 18.1037 7.73158 18.1037 7.42786C18.1037 7.12396 17.8574 6.87784 17.5537 6.87784C17.4308 6.87784 17.3183 6.91967 17.2268 6.98776H16.6599V6.19263C16.9827 5.97804 17.1963 5.61189 17.1963 5.19632C17.1963 4.53678 16.6596 4 16 4C15.3404 4 14.8037 4.53678 14.8037 5.19632C14.8037 5.61189 15.0173 5.97804 15.34 6.19263V6.98779H14.7731C14.6817 6.9197 14.5692 6.87786 14.4463 6.87786C14.1426 6.87786 13.8963 7.12398 13.8963 7.42788C13.8963 7.73158 14.1426 7.97773 14.4463 7.97773C14.569 7.97773 14.6815 7.93609 14.7729 7.868H15.34V13.6575C14.2044 13.5645 13.2143 13.2017 12.5566 12.3176L13.2455 12.3657C13.3657 12.374 13.476 12.2992 13.5122 12.1842C13.5486 12.0694 13.5015 11.9445 13.3982 11.8822L11.6344 10.819C11.5612 10.775 11.4712 10.7694 11.3933 10.8044C11.3153 10.8392 11.2595 10.91 11.2435 10.9939L10.861 13.0176C10.8386 13.1361 10.9003 13.2544 11.0102 13.3038C11.1201 13.3535 11.2495 13.3211 11.3235 13.2258L11.7349 12.6951C12.5394 13.9978 13.8044 15.0885 15.2634 15.3716L15.8155 15.9237C15.9175 16.0254 16.0824 16.0254 16.1842 15.9237L16.7363 15.3716C18.1953 15.0887 19.4605 13.9978 20.265 12.6951L20.6765 13.2258C20.7504 13.3211 20.8798 13.3535 20.9897 13.3038C21.0997 13.2544 21.1613 13.1361 21.139 13.0176ZM16 4.88017C16.1743 4.88017 16.3161 5.022 16.3161 5.19632C16.3161 5.37064 16.1743 5.51247 16 5.51247C15.8257 5.51247 15.6838 5.37064 15.6838 5.19632C15.6839 5.022 15.8257 4.88017 16 4.88017Z" fill="#4C90F4"/>
<mask id="mask1" mask-type="alpha" maskUnits="userSpaceOnUse" x="10" y="4" width="12" height="12">
<path d="M21.139 13.0176L20.7565 10.9939C20.7405 10.91 20.6847 10.8392 20.6067 10.8044C20.5288 10.7694 20.4388 10.775 20.3656 10.819L18.6018 11.8822C18.4985 11.9445 18.4514 12.0694 18.4878 12.1842C18.524 12.2992 18.6343 12.374 18.7545 12.3657L19.4435 12.3176C18.7857 13.2017 17.7956 13.5645 16.6599 13.6575V7.86798H17.2271C17.3185 7.93607 17.431 7.9777 17.5537 7.9777C17.8574 7.9777 18.1037 7.73158 18.1037 7.42786C18.1037 7.12396 17.8574 6.87784 17.5537 6.87784C17.4308 6.87784 17.3183 6.91967 17.2268 6.98776H16.6599V6.19263C16.9827 5.97804 17.1963 5.61189 17.1963 5.19632C17.1963 4.53678 16.6596 4 16 4C15.3404 4 14.8037 4.53678 14.8037 5.19632C14.8037 5.61189 15.0173 5.97804 15.34 6.19263V6.98779H14.7731C14.6817 6.9197 14.5692 6.87786 14.4463 6.87786C14.1426 6.87786 13.8963 7.12398 13.8963 7.42788C13.8963 7.73158 14.1426 7.97773 14.4463 7.97773C14.569 7.97773 14.6815 7.93609 14.7729 7.868H15.34V13.6575C14.2044 13.5645 13.2143 13.2017 12.5566 12.3176L13.2455 12.3657C13.3657 12.374 13.476 12.2992 13.5122 12.1842C13.5486 12.0694 13.5015 11.9445 13.3982 11.8822L11.6344 10.819C11.5612 10.775 11.4712 10.7694 11.3933 10.8044C11.3153 10.8392 11.2595 10.91 11.2435 10.9939L10.861 13.0176C10.8386 13.1361 10.9003 13.2544 11.0102 13.3038C11.1201 13.3535 11.2495 13.3211 11.3235 13.2258L11.7349 12.6951C12.5394 13.9978 13.8044 15.0885 15.2634 15.3716L15.8155 15.9237C15.9175 16.0254 16.0824 16.0254 16.1842 15.9237L16.7363 15.3716C18.1953 15.0887 19.4605 13.9978 20.265 12.6951L20.6765 13.2258C20.7504 13.3211 20.8798 13.3535 20.9897 13.3038C21.0997 13.2544 21.1613 13.1361 21.139 13.0176ZM16 4.88017C16.1743 4.88017 16.3161 5.022 16.3161 5.19632C16.3161 5.37064 16.1743 5.51247 16 5.51247C15.8257 5.51247 15.6838 5.37064 15.6838 5.19632C15.6839 5.022 15.8257 4.88017 16 4.88017Z" fill="#3881EC"/>
</mask>
<g mask="url(#mask1)">
<rect x="16" y="4" width="6.6" height="12" fill="#2F7AE8"/>
</g>
</g>
<defs>
<clipPath id="clip0">
<rect width="32" height="32" fill="white"/>
</clipPath>
</defs>
</svg>
