<svg width="32" height="32" viewBox="0 0 32 32" fill="none" xmlns="http://www.w3.org/2000/svg">
<g clip-path="url(#clip0)">
<path d="M26.6664 10.6666C26.6664 19.7812 15.9999 32 15.9999 32C15.9999 32 5.3335 19.9805 5.3335 10.6666C5.3335 4.77565 10.1091 0 16.0002 0C21.8913 0 26.6669 4.77565 26.6669 10.6666H26.6664Z" fill="#2F7AE8"/>
<mask id="mask0" mask-type="alpha" maskUnits="userSpaceOnUse" x="5" y="0" width="22" height="32">
<path d="M26.6664 10.6666C26.6664 19.7812 15.9999 32 15.9999 32C15.9999 32 5.3335 19.9805 5.3335 10.6666C5.3335 4.77565 10.1091 0 16.0002 0C21.8913 0 26.6669 4.77565 26.6669 10.6666H26.6664Z" fill="#C4C4C4"/>
</mask>
<g mask="url(#mask0)">
<rect x="16" width="11" height="32" fill="#4C90F4"/>
<path d="M16 17.485C19.8794 17.485 23.0243 14.34 23.0243 10.4606C23.0243 6.58114 19.8794 3.43622 16 3.43622C12.1205 3.43622 8.97559 6.58114 8.97559 10.4606C8.97559 14.34 12.1205 17.485 16 17.485Z" fill="#9FC6FF"/>
</g>
</g>
<defs>
<clipPath id="clip0">
<rect width="32" height="32" fill="white"/>
</clipPath>
</defs>
</svg>
