<svg width="50" height="50" viewBox="0 0 50 50" fill="none" xmlns="http://www.w3.org/2000/svg">
<g clip-path="url(#clip0)">
<path d="M25 29.2969C30.6534 29.2969 35.2539 24.6964 35.2539 19.043C35.2539 13.3896 30.6534 8.78906 25 8.78906C19.3466 8.78906 14.7461 13.3896 14.7461 19.043C14.7461 24.6964 19.3466 29.2969 25 29.2969Z" fill="black"/>
<path d="M25 50L40.2248 30.4813L40.242 30.46C42.7284 27.1469 44.043 23.1987 44.043 19.043C44.043 8.54301 35.5 0 25 0C14.5 0 5.95703 8.54301 5.95703 19.043C5.95703 23.1987 7.27158 27.1469 9.77516 30.4813L25 50ZM25 5.85938C32.2697 5.85938 38.1836 11.7733 38.1836 19.043C38.1836 26.3126 32.2697 32.2266 25 32.2266C17.7303 32.2266 11.8164 26.3126 11.8164 19.043C11.8164 11.7733 17.7303 5.85938 25 5.85938Z" fill="black"/>
</g>
<defs>
<clipPath id="clip0">
<rect width="50" height="50" fill="white"/>
</clipPath>
</defs>
</svg>
