<svg width="320" height="320" viewBox="0 0 320 320" fill="currentColor" xmlns="http://www.w3.org/2000/svg">
<g>
<path d="M9 264.019C19.793 264.019 30.111 261.443 39.173 256.526C48.238 261.443 58.557 264.019 69.351 264.019C80.144 264.019 90.462 261.443 99.524 256.526C108.589 261.443 118.908 264.019 129.702 264.019C140.494 264.019 150.81 261.445 159.874 256.53C168.937 261.445 179.254 264.019 190.046 264.019C200.839 264.019 211.157 261.443 220.219 256.526C229.284 261.443 239.604 264.019 250.397 264.019C261.19 264.019 271.508 261.443 280.57 256.526C289.635 261.443 299.955 264.019 310.748 264.019C315.719 264.019 319.748 259.99 319.748 255.019C319.748 250.048 315.719 246.019 310.748 246.019C301.509 246.019 292.819 243.438 285.62 238.556C282.57 236.488 278.566 236.489 275.516 238.557C273.187 240.137 270.7 241.472 268.091 242.56L141.497 153.102V144.796C141.497 139.825 137.468 135.796 132.497 135.796H104.09C111.238 130.737 115.918 122.411 115.918 113.007C115.918 111.165 115.734 109.365 115.392 107.622C135.201 98.761 149.045 78.879 149.045 55.813V53.671C149.045 48.7 145.016 44.671 140.045 44.671H27.303C22.332 44.671 18.303 48.7 18.303 53.671C18.303 58.642 22.332 62.671 27.303 62.671H130.435C128.028 76.084 118.69 87.118 106.277 91.936C101.377 87.682 94.991 85.099 88.008 85.099C79.691 85.099 72.217 88.76 67.1 94.55H27.303C22.332 94.55 18.303 98.579 18.303 103.55C18.303 108.521 22.332 112.55 27.303 112.55H60.112C60.109 112.703 60.1 112.854 60.1 113.007C60.1 122.411 64.78 130.737 71.928 135.796H17.711C12.74 135.796 8.711 139.825 8.711 144.796C8.711 149.767 12.74 153.796 17.711 153.796H123.496V245.614C116.589 244.718 110.136 242.327 104.575 238.555C101.524 236.487 97.521 236.488 94.47 238.556C87.276 243.438 78.59 246.018 69.351 246.018C60.111 246.018 51.422 243.437 44.224 238.555C41.173 236.487 37.17 236.488 34.119 238.556C26.925 243.438 18.239 246.018 9 246.018C4.029 246.018 0 250.047 0 255.018C0 259.989 4.029 264.019 9 264.019ZM88.009 103.1C93.472 103.1 97.917 107.545 97.917 113.008C97.917 118.471 93.472 122.916 88.009 122.916C82.546 122.916 78.101 118.471 78.101 113.008C78.101 107.545 82.545 103.1 88.009 103.1ZM240.269 244.942C234.841 243.756 229.764 241.605 225.269 238.557C222.219 236.489 218.215 236.49 215.165 238.558C207.971 243.44 199.285 246.02 190.046 246.02C180.809 246.02 172.122 243.441 164.924 238.561C161.874 236.494 157.873 236.494 154.823 238.561C150.793 241.294 146.295 243.303 141.495 244.544V175.144L240.269 244.942Z" fill="currentColor"/>
<path d="M310.748 281.099C301.509 281.099 292.819 278.518 285.62 273.636C282.57 271.568 278.566 271.568 275.516 273.637C268.322 278.518 259.636 281.098 250.397 281.098C241.158 281.098 232.468 278.517 225.269 273.635C222.219 271.567 218.215 271.567 215.165 273.636C207.971 278.517 199.285 281.097 190.046 281.097C180.809 281.097 172.122 278.518 164.924 273.638C161.874 271.571 157.873 271.571 154.823 273.638C147.625 278.518 138.938 281.097 129.701 281.097C120.461 281.097 111.772 278.516 104.574 273.634C101.523 271.566 97.52 271.566 94.469 273.635C87.275 278.516 78.589 281.096 69.35 281.096C60.11 281.096 51.421 278.515 44.223 273.633C41.172 271.565 37.169 271.565 34.118 273.634C26.924 278.515 18.238 281.095 8.99902 281.095C4.02802 281.095 -0.000976562 285.124 -0.000976562 290.095C-0.000976562 295.066 4.02802 299.095 8.99902 299.095C19.792 299.095 30.11 296.519 39.172 291.602C48.237 296.519 58.556 299.095 69.35 299.095C80.143 299.095 90.461 296.519 99.523 291.602C108.588 296.519 118.907 299.095 129.701 299.095C140.493 299.095 150.809 296.521 159.873 291.606C168.936 296.521 179.253 299.095 190.045 299.095C200.838 299.095 211.156 296.519 220.218 291.602C229.283 296.519 239.603 299.095 250.396 299.095C261.189 299.095 271.507 296.519 280.569 291.602C289.634 296.519 299.954 299.095 310.747 299.095C315.718 299.095 319.747 295.066 319.747 290.095C319.747 285.124 315.719 281.099 310.748 281.099Z" fill="currentColor"/>
<path d="M32.5791 38.649H134.257C139.228 38.649 143.257 34.62 143.257 29.649C143.257 24.678 139.228 20.649 134.257 20.649H32.5791C27.6081 20.649 23.5791 24.678 23.5791 29.649C23.5791 34.62 27.6081 38.649 32.5791 38.649Z" fill="currentColor"/>
</g>
</svg>
