<svg width="37" height="37" viewBox="0 0 37 37" fill="none" xmlns="http://www.w3.org/2000/svg">
<g clip-path="url(#clip0)">
<path d="M2.46667 37H34.5333C35.511 37.0009 36.397 36.4244 36.7921 35.5302C37.1872 34.6359 37.0169 33.5927 36.3579 32.8706C35.6988 32.1484 34.6755 31.8836 33.7489 32.1955C33.3942 31.0598 32.5149 30.1639 31.386 29.7881C30.2571 29.4122 29.0163 29.6022 28.0515 30.2986C26.4629 29.3818 24.65 28.9263 22.8167 28.9833C20.8433 28.9833 18.3853 29.4563 16.9892 30.7445C16.3598 30.3196 15.658 30.0135 14.9184 29.8411C15.2779 27.9028 15.453 25.9349 15.4413 23.9636C15.4413 23.4469 15.4265 22.9541 15.3846 22.4978C17.2949 22.0905 19.0348 21.1081 20.3704 19.6827C20.7168 19.7423 21.0702 19.7494 21.4187 19.7037C21.7837 19.9737 22.1906 20.182 22.623 20.3204C22.9348 20.4261 23.2744 20.2665 23.3918 19.9589C23.5092 19.6514 23.3625 19.306 23.0596 19.1771C23.5833 18.8959 24.0718 18.5537 24.515 18.1577C25.3199 18.8518 26.3505 19.2283 27.4133 19.2165C27.7751 19.2151 28.1359 19.1784 28.4906 19.1068C28.705 19.0598 28.8784 18.9025 28.9457 18.6936C29.0149 18.482 28.9681 18.2496 28.8224 18.0812C28.8131 18.0745 28.3667 17.541 28.3667 16.0333C28.2985 15.3275 28.451 14.618 28.8033 14.0026C28.9642 13.8417 29.0234 13.6053 28.9574 13.3875C28.8913 13.1697 28.7107 13.006 28.4875 12.9617C27.0873 12.6255 25.6107 12.9773 24.5125 13.9089C23.5566 12.9772 22.2988 12.4183 20.9667 12.3333C18.981 12.3333 17.3055 13.9107 16.4829 14.8511C16.001 15.3956 15.9005 16.1791 16.2294 16.8276C15.7251 17.1961 15.1536 17.4625 14.5472 17.612C14.4238 17.1803 14.2635 16.719 14.0803 16.2436C13.8812 15.7256 13.5315 14.9486 13.0024 13.878C14.4768 12.9718 15.539 11.5255 15.9624 9.8475C16.1689 9.01865 15.9319 8.14196 15.3359 7.53007C14.7223 6.90146 13.8235 6.64152 12.9691 6.84557C12.0655 7.06686 11.3652 7.78098 11.1617 8.68879C11.0787 8.99172 10.9092 9.26388 10.6739 9.47195C10.3378 8.80432 10.0425 8.11691 9.78958 7.41352C9.78527 7.39625 9.77355 7.35185 9.768 7.33767C9.34661 6.11961 8.06031 5.42949 6.81241 5.75194C5.56451 6.0744 4.77355 7.30128 4.995 8.571C5.22012 9.83693 5.55944 11.0799 6.0088 12.2846C5.89447 12.2437 5.78456 12.1915 5.68073 12.1286C5.09228 11.7362 4.36332 11.6165 3.68027 11.7999C2.98937 11.9859 2.41223 12.4607 2.09667 13.1029C1.56597 14.2558 1.97227 15.6235 3.04633 16.2997C4.45313 17.1087 6.06366 17.4941 7.68428 17.4097C7.97487 18.5098 8.12 19.6432 8.11595 20.781C8.12767 20.9968 8.11163 21.3329 8.10917 21.6086C7.11439 21.5399 6.17324 21.1322 5.4427 20.4536C4.92395 19.934 4.20028 19.6733 3.46937 19.7425C2.72962 19.8133 2.06028 20.2112 1.64465 20.8273C0.980001 21.8545 1.15242 23.2112 2.05288 24.0395C3.46408 25.3667 5.25884 26.2137 7.18047 26.4593C6.91813 27.337 6.60011 28.1972 6.22833 29.0345C4.61847 29.2774 3.35656 30.544 3.11972 32.1548C2.90702 32.096 2.68734 32.0664 2.46667 32.0666C1.10436 32.0666 0 33.171 0 34.5333C0 35.8956 1.10436 37 2.46667 37ZM27.4071 14.0852C27.2122 14.7158 27.1198 15.3735 27.1333 16.0333C27.1198 16.6931 27.2122 17.3508 27.4071 17.9813C26.6737 17.9915 25.9597 17.7451 25.3888 17.2845L25.4505 17.2154C26.0499 16.5413 26.0499 15.5253 25.4505 14.8511C25.4313 14.8289 25.4091 14.8049 25.3888 14.7821C25.9595 14.3211 26.6736 14.0745 27.4071 14.0852ZM17.4116 15.6633C18.0961 14.8801 19.4682 13.5666 20.9667 13.5666C22.4652 13.5666 23.8372 14.8801 24.5217 15.6633C24.7154 15.8719 24.7154 16.1946 24.5217 16.4033C23.8002 17.2835 22.8598 17.9583 21.7948 18.36C21.6812 18.2175 21.6082 18.0471 21.5833 17.8666C21.5787 17.5261 21.2989 17.2537 20.9583 17.2583C20.6178 17.2629 20.3454 17.5427 20.35 17.8833C20.3589 18.0761 20.3973 18.2664 20.4641 18.4475C19.1691 18.2046 18.0184 17.0977 17.411 16.4033C17.2175 16.1945 17.2178 15.8718 17.4116 15.6633ZM2.91313 23.1558C2.44573 22.7439 2.34171 22.0558 2.66647 21.5241C2.87018 21.2132 3.20321 21.0108 3.57295 20.9731C3.94269 20.9354 4.30972 21.0665 4.57197 21.3298C5.49307 22.2031 6.68595 22.7338 7.9513 22.8333H7.95747H7.9698H7.97905C8.38239 22.887 8.78883 22.914 9.19573 22.9141C9.66686 22.9186 10.1374 22.8807 10.6017 22.8006C10.9353 22.734 11.152 22.4099 11.086 22.0762C11.02 21.7425 10.6963 21.5253 10.3625 21.5907C10.02 21.647 9.67357 21.6765 9.32647 21.6789V21.6684C9.34435 21.3496 9.36038 20.987 9.3462 20.7526C9.34958 19.5188 9.19118 18.2897 8.87507 17.097C8.72237 16.5482 8.21617 16.1734 7.64667 16.1875C6.27239 16.2615 4.90565 15.9405 3.70802 15.2625C3.15907 14.9283 2.94278 14.239 3.20235 13.6511C3.35871 13.3283 3.64742 13.0892 3.9937 12.9957C4.33999 12.9023 4.70979 12.9636 5.00733 13.1639C5.19026 13.2788 5.38502 13.3737 5.58823 13.447C6.02349 13.6022 6.50925 13.4922 6.83513 13.1646C7.17545 12.8333 7.29537 12.3361 7.14347 11.8862C6.74208 10.7386 6.43035 9.56152 6.21107 8.36565C6.103 7.73892 6.4861 7.13189 7.09834 6.95973C7.71058 6.78757 8.3539 7.10598 8.58832 7.69719C8.59263 7.71384 8.60435 7.75515 8.6099 7.7718C8.96473 8.76331 9.39307 9.72696 9.89133 10.6547C10.0466 10.9516 10.4105 11.0701 10.7109 10.9217C11.5074 10.5499 12.1056 9.85356 12.3531 9.01007C12.4367 8.55702 12.768 8.18946 13.2099 8.05921C13.6518 7.92897 14.1294 8.05815 14.4454 8.3934C14.7445 8.7 14.8637 9.1395 14.7605 9.5552C14.4116 10.9251 13.5419 12.1048 12.3364 12.8433L12.3259 12.8513L11.9319 13.0819C11.478 13.3198 10.989 13.4835 10.4833 13.5666C10.1428 13.5666 9.86667 13.8427 9.86667 14.1833C9.86667 14.5239 10.1428 14.8 10.4833 14.8C10.9789 14.7627 11.4642 14.639 11.9171 14.4343C12.4055 15.4536 12.7465 16.2127 12.9296 16.687C13.1011 17.1303 13.2466 17.5583 13.3644 17.9628C13.5517 18.6088 14.2196 18.9879 14.8703 18.8175C15.6478 18.6183 16.3784 18.2675 17.02 17.7852C17.6176 18.3874 18.3091 18.8885 19.0673 19.2689C17.9464 20.2804 16.5795 20.9798 15.1034 21.2972C14.5197 21.4377 14.1232 21.9797 14.1661 22.5786C14.1938 23.0103 14.208 23.4734 14.208 23.9735C14.2197 25.8733 14.0504 27.7699 13.7023 29.6376C13.4557 29.6154 13.2041 29.6 12.95 29.6C11.8026 29.5914 10.6677 29.838 9.6274 30.3221C9.09835 29.6857 8.37157 29.2445 7.5628 29.069C7.96084 28.099 8.29859 27.1053 8.57413 26.0936C8.62269 25.9162 8.58954 25.7264 8.48373 25.576C8.37792 25.4256 8.2105 25.3302 8.02715 25.316C6.1232 25.2123 4.31487 24.4484 2.91313 23.1558ZM2.46667 33.3C2.78563 33.2996 3.09221 33.4234 3.32137 33.6453C3.51728 33.834 3.81371 33.8721 4.05095 33.739C4.28819 33.6059 4.41018 33.333 4.3512 33.0675C4.32581 32.941 4.31423 32.8122 4.31667 32.6833C4.31323 31.6063 5.011 30.6523 6.03845 30.3294C7.0659 30.0064 8.18397 30.3895 8.79737 31.2748C9.08585 31.6847 9.23835 32.1747 9.23335 32.6759C9.23138 32.8394 9.29446 32.9971 9.40872 33.1141C9.52298 33.2312 9.67906 33.298 9.84262 33.3H9.85002C10.188 33.3 10.463 33.028 10.4667 32.6901C10.47 32.2531 10.3942 31.8192 10.2428 31.4093C11.0928 31.0233 12.0165 30.8268 12.95 30.8333C14.1137 30.802 15.2608 31.115 16.2473 31.733C16.1048 32.0274 16.0272 32.3489 16.0198 32.6759C16.0178 32.8394 16.0809 32.9971 16.1951 33.1141C16.3094 33.2312 16.4655 33.298 16.629 33.3H16.6364C16.9744 33.3 17.2494 33.028 17.2531 32.6901C17.2699 32.4074 17.3823 32.1388 17.5719 31.9285C18.5216 30.7482 20.8797 30.2166 22.8167 30.2166C24.3299 30.177 25.8287 30.5193 27.1747 31.2119C26.89 31.6207 26.6892 32.0818 26.5839 32.5686C26.5499 32.7287 26.581 32.8958 26.6703 33.033C26.7596 33.1701 26.8998 33.2662 27.0599 33.3C27.1019 33.309 27.1447 33.3135 27.1876 33.3135C27.4791 33.3134 27.7307 33.1091 27.7907 32.8239C27.9053 32.2833 28.1943 31.7954 28.6133 31.4352C29.3256 30.8158 30.3299 30.6598 31.1964 31.0341C32.063 31.4083 32.638 32.2464 32.6753 33.1896C32.6851 33.4288 32.8324 33.6407 33.0532 33.7332C33.274 33.8258 33.5284 33.7821 33.7058 33.6212C33.9311 33.4134 34.2268 33.2986 34.5333 33.3C35.2145 33.3 35.7667 33.8521 35.7667 34.5333C35.7667 35.2144 35.2145 35.7666 34.5333 35.7666H2.46667C1.78552 35.7666 1.23333 35.2144 1.23333 34.5333C1.23333 33.8521 1.78552 33.3 2.46667 33.3Z" fill="#B1B1B1"/>
<path d="M10.4834 28.3666C10.8239 28.3666 11.1 28.0905 11.1 27.75C11.1 27.4094 10.8239 27.1333 10.4834 27.1333C10.1428 27.1333 9.8667 27.4094 9.8667 27.75C9.8667 28.0905 10.1428 28.3666 10.4834 28.3666Z" fill="#B1B1B1"/>
<path d="M12.3333 25.9C12.6739 25.9 12.95 25.6239 12.95 25.2833C12.95 24.9427 12.6739 24.6666 12.3333 24.6666C11.9928 24.6666 11.7167 24.9427 11.7167 25.2833C11.7167 25.6239 11.9928 25.9 12.3333 25.9Z" fill="#B1B1B1"/>
<path d="M12.3333 20.9667C12.6739 20.9667 12.95 20.6906 12.95 20.3501C12.95 20.0095 12.6739 19.7334 12.3333 19.7334C11.9928 19.7334 11.7167 20.0095 11.7167 20.3501C11.7167 20.6906 11.9928 20.9667 12.3333 20.9667Z" fill="#B1B1B1"/>
<path d="M11.1001 17.8834C11.4406 17.8834 11.7167 17.6073 11.7167 17.2667C11.7167 16.9261 11.4406 16.65 11.1001 16.65C10.7595 16.65 10.4834 16.9261 10.4834 17.2667C10.4834 17.6073 10.7595 17.8834 11.1001 17.8834Z" fill="#B1B1B1"/>
<path d="M8.01669 14.8C8.35727 14.8 8.63336 14.5239 8.63336 14.1833C8.63336 13.8427 8.35727 13.5667 8.01669 13.5667C7.67612 13.5667 7.40002 13.8427 7.40002 14.1833C7.40002 14.5239 7.67612 14.8 8.01669 14.8Z" fill="#B1B1B1"/>
<path d="M1.2334 4.31667C1.2334 5.3384 2.06167 6.16667 3.0834 6.16667C4.10513 6.16667 4.9334 5.3384 4.9334 4.31667C4.9334 3.29495 4.10513 2.46667 3.0834 2.46667C2.06167 2.46667 1.2334 3.29495 1.2334 4.31667ZM3.70007 4.31667C3.70007 4.65725 3.42397 4.93334 3.0834 4.93334C2.74282 4.93334 2.46673 4.65725 2.46673 4.31667C2.46673 3.9761 2.74282 3.70001 3.0834 3.70001C3.42397 3.70001 3.70007 3.9761 3.70007 4.31667Z" fill="#B1B1B1"/>
<path d="M7.40002 2.46667C7.40002 3.82897 8.50439 4.93333 9.86669 4.93333C11.229 4.93333 12.3334 3.82897 12.3334 2.46667C12.3334 1.10436 11.229 0 9.86669 0C8.50439 0 7.40002 1.10436 7.40002 2.46667ZM11.1 2.46667C11.1 3.14782 10.5478 3.7 9.86669 3.7C9.18554 3.7 8.63336 3.14782 8.63336 2.46667C8.63336 1.78552 9.18554 1.23333 9.86669 1.23333C10.5478 1.23333 11.1 1.78552 11.1 2.46667Z" fill="#B1B1B1"/>
<path d="M5.55002 2.46673C5.89059 2.46673 6.16668 2.19064 6.16668 1.85007C6.16668 1.50949 5.89059 1.2334 5.55002 1.2334C5.20944 1.2334 4.93335 1.50949 4.93335 1.85007C4.93335 2.19064 5.20944 2.46673 5.55002 2.46673Z" fill="#B1B1B1"/>
<path d="M35.1236 3.52056C35.0574 3.30291 34.8768 3.13936 34.6537 3.09506C33.2532 2.75884 31.7764 3.1107 30.678 4.04226C29.7226 3.11059 28.4652 2.55169 27.1334 2.46667C25.1477 2.46667 23.4723 4.04411 22.6496 4.98452C22.0502 5.65865 22.0502 6.6747 22.6496 7.34882C23.4723 8.28924 25.1477 9.86667 27.1334 9.86667C27.2841 9.86553 27.4346 9.85565 27.5842 9.83707C27.9492 10.1071 28.3561 10.3154 28.7885 10.4537C29.1003 10.5595 29.4399 10.3998 29.5573 10.0923C29.6748 9.78476 29.528 9.4394 29.2251 9.31044C29.7488 9.02926 30.2373 8.6871 30.6805 8.29109C31.4854 8.98519 32.516 9.36169 33.5788 9.34991C33.9406 9.34852 34.3015 9.31176 34.6561 9.24014C34.8705 9.19323 35.0439 9.03587 35.1112 8.82697C35.1804 8.61536 35.1336 8.38297 34.9879 8.21462C34.9799 8.20784 34.5334 7.67442 34.5334 6.16667C34.4652 5.46091 34.6178 4.75137 34.97 4.13599C35.1309 3.97491 35.1899 3.73832 35.1236 3.52056ZM23.5777 6.53667C23.384 6.32802 23.384 6.00533 23.5777 5.79667C24.2628 5.01351 25.6349 3.70001 27.1334 3.70001C28.6319 3.70001 30.004 5.01351 30.6885 5.79667C30.8821 6.00533 30.8821 6.32802 30.6885 6.53667C29.967 7.4169 29.0265 8.09173 27.9616 8.49336C27.848 8.35094 27.7749 8.1805 27.7501 8.00002C27.7455 7.65945 27.4657 7.38708 27.1251 7.39168C26.7845 7.39628 26.5121 7.6761 26.5167 8.01667C26.5256 8.2095 26.5641 8.3998 26.6308 8.58092C25.3334 8.33796 24.1851 7.23104 23.5777 6.53667ZM33.5739 8.11472C32.8404 8.12493 32.1265 7.87844 31.5555 7.41789L31.6172 7.34882C32.2166 6.6747 32.2166 5.65865 31.6172 4.98452C31.5981 4.96232 31.5759 4.93827 31.5555 4.91546C32.1262 4.45445 32.8403 4.2079 33.5739 4.21862C33.379 4.84914 33.2865 5.50686 33.3001 6.16667C33.2865 6.82649 33.379 7.48421 33.5739 8.11472Z" fill="#B1B1B1"/>
<path d="M25.9 6.16668C26.2406 6.16668 26.5167 5.89059 26.5167 5.55002C26.5167 5.20944 26.2406 4.93335 25.9 4.93335C25.5594 4.93335 25.2833 5.20944 25.2833 5.55002C25.2833 5.89059 25.5594 6.16668 25.9 6.16668Z" fill="#B1B1B1"/>
<path d="M19.7334 16.0334C20.0739 16.0334 20.35 15.7573 20.35 15.4167C20.35 15.0761 20.0739 14.8 19.7334 14.8C19.3928 14.8 19.1167 15.0761 19.1167 15.4167C19.1167 15.7573 19.3928 16.0334 19.7334 16.0334Z" fill="#B1B1B1"/>
<path d="M29.6314 27.9448C29.6831 28.1001 29.7943 28.2284 29.9406 28.3016C30.0869 28.3748 30.2563 28.3869 30.4115 28.3352C30.8476 28.1956 31.2577 27.985 31.6251 27.7117C31.7714 27.7327 31.9189 27.7454 32.0666 27.75C33.0374 27.7215 33.9774 27.4028 34.7652 26.8348C35.4283 26.3802 36.0295 25.8412 36.5535 25.2315C37.1529 24.5574 37.1529 23.5413 36.5535 22.8672C36.0296 22.2573 35.4284 21.7183 34.7652 21.2639C33.1712 20.0497 30.9627 20.0497 29.3687 21.2639C29.0711 21.4656 28.7872 21.6868 28.5189 21.9262C28.1713 21.6251 27.7781 21.3809 27.3541 21.2028C26.4623 20.8472 25.4841 20.7685 24.547 20.9771C24.3323 21.0238 24.1587 21.1812 24.0913 21.3903C24.0225 21.6019 24.0693 21.8341 24.2146 22.0026C24.293 22.1091 24.3553 22.2265 24.3996 22.351C24.5951 22.8954 24.6857 23.4719 24.6666 24.05C24.6863 24.6275 24.5966 25.2035 24.4021 25.7476C24.3577 25.8654 24.2998 25.9776 24.2294 26.0819C24.0688 26.243 24.0099 26.4794 24.0762 26.697C24.1425 26.9146 24.3232 27.078 24.5464 27.1222C24.9018 27.1942 25.2635 27.2312 25.6262 27.2326C26.2183 27.2362 26.8053 27.1219 27.3528 26.8965C27.7769 26.7184 28.17 26.4742 28.5177 26.1731C28.7861 26.4126 29.0702 26.6339 29.3681 26.8354C29.5636 26.9654 29.7662 27.0844 29.9749 27.1919C29.6822 27.3156 29.533 27.6427 29.6314 27.9448ZM26.8805 25.7569C26.4816 25.9197 26.0544 26.0017 25.6237 25.998C25.8198 25.3677 25.9131 24.7099 25.9 24.05C25.9131 23.39 25.8198 22.7322 25.6237 22.1019C26.0544 22.0983 26.4816 22.1802 26.8805 22.343C27.1552 22.4594 27.4119 22.6145 27.6427 22.8037C27.6229 22.8259 27.6026 22.8456 27.581 22.8653C26.9816 23.5395 26.9816 24.5555 27.581 25.2296C27.6007 25.2518 27.6211 25.2716 27.6427 25.2913C27.4122 25.4822 27.1555 25.639 26.8805 25.7569ZM28.5109 24.42C28.3185 24.2108 28.3185 23.8891 28.5109 23.68C28.9643 23.1538 29.4823 22.687 30.0526 22.2906C31.2282 21.3485 32.9002 21.3485 34.0757 22.2906C34.6462 22.687 35.1642 23.1541 35.6174 23.6806C35.8093 23.8899 35.8093 24.2112 35.6174 24.4206C35.164 24.9467 34.646 25.4135 34.0757 25.8099C33.6234 26.1311 33.1094 26.355 32.5661 26.4673C32.6333 26.2851 32.6728 26.0939 32.6833 25.9C32.6879 25.5594 32.4155 25.2796 32.075 25.275C31.7344 25.2704 31.4546 25.5427 31.45 25.8833C31.4325 26.0234 31.3836 26.1577 31.3069 26.2761C31.2853 26.3119 31.2526 26.3433 31.2273 26.3779C30.8105 26.2485 30.4155 26.0571 30.0557 25.8099C29.4841 25.4137 28.9651 24.9467 28.5109 24.42Z" fill="#B1B1B1"/>
<path d="M33.3 24.05C33.5942 24.0501 33.8475 23.8423 33.9049 23.5538C33.9624 23.2653 33.808 22.9763 33.5362 22.8637C33.2645 22.7511 32.951 22.8461 32.7875 23.0907C32.624 23.3353 32.656 23.6613 32.864 23.8694C32.9797 23.985 33.1365 24.05 33.3 24.05Z" fill="#B1B1B1"/>
<path d="M20.3501 6.78338C20.6906 6.78338 20.9667 6.50729 20.9667 6.16672C20.9667 5.82614 20.6906 5.55005 20.3501 5.55005C20.0095 5.55005 19.7334 5.82614 19.7334 6.16672C19.7334 6.50729 20.0095 6.78338 20.3501 6.78338Z" fill="#B1B1B1"/>
<path d="M21.5833 4.31671C21.9239 4.31671 22.2 4.04062 22.2 3.70004C22.2 3.35947 21.9239 3.08337 21.5833 3.08337C21.2428 3.08337 20.9667 3.35947 20.9667 3.70004C20.9667 4.04062 21.2428 4.31671 21.5833 4.31671Z" fill="#B1B1B1"/>
</g>
<defs>
<clipPath id="clip0">
<rect width="37" height="37" fill="white"/>
</clipPath>
</defs>
</svg>
