<svg width="512" height="512" viewBox="0 0 512 512" fill="currentColor" xmlns="http://www.w3.org/2000/svg">
<g>
<path d="M267.649 436.986H258.347L245.406 351.258C245.057 348.946 243.766 346.881 241.838 345.557L213.396 326.124V279.86C213.396 276.597 211.518 273.628 208.572 272.229L140.982 240.123C138.295 238.847 135.141 239.076 132.67 240.725L112.482 254.183L56.48 209.068C54.622 207.571 52.217 206.929 49.859 207.303L7.12999 214.062C2.52099 214.791 -0.624013 219.118 0.104987 223.728C0.833987 228.336 5.15499 231.488 9.77099 230.753L48.798 224.579L125.247 286.399C126.817 287.683 128.71 288.309 130.593 288.309C133.04 288.309 135.467 287.252 137.137 285.211C140.092 281.599 139.559 276.276 135.947 273.321L126.2 265.346L138.057 257.442L196.497 285.202V406.592C196.497 411.258 200.279 415.041 204.946 415.041C209.613 415.041 213.395 411.258 213.395 406.592V346.51L229.242 357.406L241.256 436.987H8.44999C3.78399 436.986 0.000987146 440.769 0.000987146 445.435C0.000987146 450.101 3.78299 453.884 8.44999 453.884H267.649C272.316 453.884 276.098 450.101 276.098 445.435C276.098 440.769 272.317 436.986 267.649 436.986Z" fill="currentColor"/>
<path d="M503.549 442.62C494.057 442.62 489.778 440.517 484.363 437.855C480.444 435.927 476.188 433.84 470.195 432.565L474.676 421.625L494.694 372.76C496.091 369.348 495.115 365.422 492.28 363.063C489.446 360.703 485.407 360.456 482.305 362.45L428.083 397.302C425.432 399.005 423.951 402.043 424.238 405.179C424.525 408.316 426.534 411.034 429.449 412.228L455.834 423.037L452.342 431.563C442.309 432.343 436.376 435.245 431.066 437.855C425.648 440.517 421.371 442.62 411.88 442.62C402.386 442.62 398.109 440.517 392.694 437.854C386.5 434.808 379.479 431.355 366.063 431.355C352.641 431.355 345.618 434.808 339.422 437.855C334.005 440.518 329.728 442.62 320.236 442.62C310.733 442.62 306.462 440.518 301.053 437.856C296.866 435.796 291.802 437.519 289.741 441.707C287.683 445.892 289.406 450.957 293.594 453.018C299.786 456.065 306.805 459.519 320.238 459.519C333.66 459.519 340.683 456.066 346.879 453.019C352.296 450.356 356.573 448.254 366.065 448.254C375.551 448.254 379.826 450.356 385.239 453.018C391.436 456.065 398.459 459.519 411.882 459.519C425.302 459.519 432.325 456.067 438.522 453.021C443.942 450.358 448.222 448.253 457.722 448.253C467.214 448.253 471.493 450.356 476.908 453.018C483.104 456.065 490.127 459.518 503.549 459.518C508.216 459.518 511.998 455.735 511.998 451.069C511.998 446.403 508.216 442.62 503.549 442.62ZM462.245 407.398L450.875 402.741L468.898 391.157L462.245 407.398Z" fill="currentColor"/>
<path d="M503.55 469.092H8.44998C3.78298 469.092 0.000976562 472.875 0.000976562 477.541C0.000976562 482.207 3.78298 485.99 8.44998 485.99H503.55C508.217 485.99 511.999 482.207 511.999 477.541C511.999 472.875 508.216 469.092 503.55 469.092Z" fill="currentColor"/>
<path d="M146.675 406.339L129.778 370.854C128.538 368.252 126.058 366.46 123.198 366.103L101.23 363.356L87.8162 327.585C86.7102 324.633 84.0512 322.544 80.9212 322.164L25.1602 315.405C20.5352 314.844 16.3162 318.143 15.7552 322.776C15.1932 327.408 18.4942 331.62 23.1262 332.181L73.7952 338.323L87.2012 374.073C88.3042 377.013 90.9472 379.1 94.0642 379.49L116.51 382.296L131.418 413.604C132.866 416.645 135.895 418.422 139.052 418.422C140.27 418.422 141.507 418.157 142.68 417.6C146.891 415.594 148.681 410.552 146.675 406.339Z" fill="currentColor"/>
<path d="M453.308 121.186C441.005 121.186 430.019 126.933 422.892 135.882C415.767 126.933 404.78 121.186 392.477 121.186C387.81 121.186 384.028 124.969 384.028 129.635C384.028 134.301 387.81 138.084 392.477 138.084C404.589 138.084 414.443 147.938 414.443 160.051C414.443 164.717 418.225 168.5 422.892 168.5C427.559 168.5 431.341 164.717 431.341 160.051C431.341 147.938 441.195 138.084 453.308 138.084C457.975 138.084 461.757 134.301 461.757 129.635C461.757 124.969 457.975 121.186 453.308 121.186Z" fill="currentColor"/>
<path d="M389.097 166.81C376.794 166.81 365.808 172.557 358.681 181.506C351.556 172.557 340.569 166.81 328.266 166.81C323.599 166.81 319.817 170.593 319.817 175.259C319.817 179.925 323.599 183.708 328.266 183.708C340.378 183.708 350.232 193.562 350.232 205.675C350.232 210.341 354.014 214.124 358.681 214.124C363.348 214.124 367.13 210.341 367.13 205.675C367.13 193.563 376.984 183.708 389.097 183.708C393.764 183.708 397.546 179.925 397.546 175.259C397.546 170.593 393.764 166.81 389.097 166.81Z" fill="currentColor"/>
<path d="M174.369 26.009C138.497 26.009 109.314 55.193 109.314 91.066C109.314 126.939 138.498 156.123 174.369 156.123C210.242 156.123 239.426 126.939 239.426 91.066C239.426 55.193 210.242 26.009 174.369 26.009ZM174.369 139.225C147.815 139.225 126.212 117.622 126.212 91.067C126.212 64.512 147.814 42.909 174.369 42.909C200.923 42.909 222.527 64.512 222.527 91.067C222.527 117.622 200.923 139.225 174.369 139.225Z" fill="currentColor"/>
</g>

</svg>
