<svg height="512" viewBox="0 0 61 60" width="512" xmlns="http://www.w3.org/2000/svg"><g id="Page-1" fill="none" fill-rule="evenodd"><g id="033---Shipwreck" fill="rgb(0,0,0)" fill-rule="nonzero"><path id="Shape" d="m56.067 52c-.358506-.0005314-.715427.0475739-1.061.143-.3371197-2.3469875-2.0258398-4.2747701-4.3080301-4.9178935-2.2821902-.6431234-4.7290023.1192623-6.2419699 1.9448935-1.600599-.7511487-3.344954-1.146554-5.113-1.159-.092-.011-.184-.011-.276-.011-1.0943663-.0012177-2.1846687.1331387-3.246.4l9.079-11.476c.3803114-.4711761.5256646-1.0897552.395-1.681-.125279-.5821175-.5077573-1.0760294-1.04-1.343l-1.925-.985 1.206-.788c.4168076-.2719108.5702422-.8089321.36-1.26l-1.54-3.3 2.629 1.453c.4274412.236434.9631427.1294628 1.267-.253l.861-1.082.524 1.131c.2951178.6262975.8931588 1.0554169 1.5809824 1.1344209.6878237.079004 1.3675847-.2033459 1.7970176-.7464209l1.118-1.417c1.9093799-2.432196 2.4399942-5.672868 1.406-8.587l-4.252-11.883c-.2485678-.67907575-.8443476-1.17108301-1.5581726-1.28677117s-1.4345038.16296333-1.8848274.72877117l-4.654 5.878-12.509-.337c-1.5736411-.0413389-3.0743488.6630447-4.048 1.9l-1.97 2.491-6.894-3.525c-1.2740554-.6470129-2.8273973-.3094389-3.718.808l-2.708 3.416c-.49421345.6237442-.72034788 1.4182947-.62863842 2.2087965.09170947.7905018.49374746 1.5121753 1.11763842 2.0062035l5.5 4.356-1.351 1.707-6.9-3.53c-1.27354196-.6485006-2.82760676-.3106786-3.717.808l-2.715 3.417c-.494325.6236198-.72062607 1.4180902-.62910491 2.2085855.09152116.7904952.49336515 1.5122409 1.11710491 2.0064145l5.506 4.362-5.712 7.221c-.55835346.7069416-.86267241 1.5811541-.864 2.482v9.357c0 2.209139 1.790861 4 4 4h52c2.209139 0 4-1.790861 4-4s-1.790861-4-4-4zm-39.507-27.615-3.135-2.485 4.335-5.471 3.632 1.858zm-5.86-5.016c-.0313198-.2638603.0443075-.5292762.21-.737l2.708-3.417c.2958436-.3738284.8144394-.4868396 1.239-.27l1.086.556-4.087 5.157-.783-.62c-.2087107-.1642182-.3430285-.4051261-.373-.669zm-2.834 15.988-3.136-2.484 4.335-5.473 3.635 1.859zm-5.859-5.015c-.03159947-.2637235.0436634-.5291241.209-.737l2.709-3.417c.29693223-.3720801.81417692-.4847968 1.239-.27l1.085.556-4.086 5.157-.784-.621c-.20836417-.1639405-.34234883-.4045367-.372-.668zm45.399-22.342 4.25 11.88c.8032521 2.2649932.3907876 4.783555-1.093 6.674l-1.118 1.416-1.2-2.591c-.1462194-.3144063-.4448745-.530627-.7892157-.5713774-.3443411-.0407504-.685216.0997862-.9007843.3713774l-1.344 1.689-4.58-2.531c-.3794099-.2104451-.8512379-.1522269-1.168114.144132-.316876.2963589-.4065009.7632405-.221886 1.155868l2.473 5.294-1.923 1.256c-.2982641.1949411-.4702676.5338634-.4515182.8896891.0187493.3558258.2254187.6747949.5425182.8373109l3.451 1.77-11.057 13.98c-1.407321-1.080759-3.04406-1.8238604-4.784-2.172.2450695-.5032358.3421702-1.0657265.28-1.622-.1125624-1.1361618-.8602782-2.109944-1.9288563-2.5120318-1.0685782-.4020879-2.2727621-.1627725-3.1063911.6173534-.833629.780126-1.1521792 1.9658142-.8217526 3.0586784-2.3830961.0784945-4.7177546.6937778-6.83 1.8zm-23.113 39.061c-.0441229-.0206575-.086009-.0457892-.125-.075-.3542849-.2822056-.4746478-.7673021-.2933766-1.1823907.1812713-.4150886.6189059-.6565049 1.0667055-.5884362s.7939304.4286228.8436711.8788269c.0302672.2586718-.0450844.518617-.209.721-.1067413.1293321-.2442927.2297446-.4.292-.291-.03-.59-.029-.883-.046zm10.33-32.6-18.872 23.82c-.1272223.1742874-.297889.3121999-.495.4l-1.345-1.061c.0370805-.2121329.1299213-.4105845.269-.575l17.94-22.652zm-32.123 30.939 23.7-29.962c.5832257-.7438213 1.4852115-1.1662328 2.43-1.138l.992.027-17.011 21.473c-.3689959.4558485-.6062284 1.003973-.686 1.585-.1051817.6425233.1356943 1.2929645.634 1.712l1.57 1.237c.3030349.2373705.678098.3640381 1.063.359.2544331-.0017591.5065862-.0481282.745-.137.5473447-.2128446 1.0257361-.5718976 1.383-1.038l19.8-24.993 2.519.068-26.683 33.712c-1.5268721-.5069394-3.19336631-.3794514-4.62535956.3538435-1.43199324.7332948-2.50950623 2.0109575-2.99064044 3.5461565-1.0889935-.370827-2.28597041-.2439248-3.273.347v-5.909c.00073316-.451188.15324819-.8890083.433-1.243zm53.567 12.6h-52c-1.1045695 0-2-.8954305-2-2s.8954305-2 2-2c.49627791-.0009509.97470551.1850646 1.34.521.28761792.2601915.69974692.3306095 1.05743998.1806782.35769305-.1499312.59643356-.4931687.61256002-.8806782.06092018-1.5292399.99352699-2.8880055 2.39860815-3.4946627 1.40508115-.6066571 3.03357675-.3536719 4.18839185.6506627.6800872.582311 1.1495816 1.3722986 1.336 2.248.0737753.3495844.3284476.633255.6680842.7441559.3396367.1109009.7126388.0321835.9785001-.2065s.3841911-.6010715.3104157-.9506559c-.170527-.7895276-.4961593-1.5373263-.958-2.2 2.1831543-1.1226074 4.6139861-1.6770076 7.068-1.612 1.2341188-.00411 2.4653478.1195491 3.674.369 1.8064217.2718679 3.4837417 1.0982974 4.8 2.365.3266578.3486839.5218151.8001619.552 1.277.0060282.5479842.4519827.9890332 1 .989h.007c.2652226-.0031636.5183234-.1115667.7036134-.3013577s.2875884-.4454202.2843866-.7106423c-.0123977-.5301699-.1382205-1.0515331-.369-1.529 1.6208968-1.0096707 3.5042458-1.5173017 5.413-1.459.0437233.0063138.0878245.0096548.132.01 1.4494657.0047622 2.8812711.3183958 4.2.92-.2467148.6661492-.3700602 1.3716577-.364 2.082.0065716.5475928.4523678.9880394 1 .988h.012c.265398-.0031623.518652-.1117031.7039708-.3017111.1853188-.1900081.2874985-.4458947.2840292-.7112889-.0087881-.8120169.2382146-1.6062038.706-2.27.9960624-1.4308113 2.8060677-2.0487865 4.4691742-1.5258734s2.7937895 2.0654981 2.7918258 3.8088734c.003944.2090817-.0148328.4179733-.056.623-.0956463.4306356.1021813.8730735.4868925 1.0889264s.8654155.1541242 1.1831075-.1519264c.6486438-.6251963 1.6352196-.7395553 2.4096814-.2793184.7744619.4602369 1.1456277 1.3814566.9065613 2.2500511s-1.0293496 1.4701444-1.9302427 1.4692673z"/><path id="Shape" d="m42.793 23.481c.5280409.4203653 1.1830672.6491662 1.858.649.1169602.000287.2338338-.0063915.35-.02 1.4217736-.1644175 2.5294024-1.3102871 2.6454855-2.7368206.1160832-1.4265336-.7917114-2.7364068-2.1681968-3.1285306-1.3764855-.3921238-2.8382771.2427178-3.491376 1.51627s-.3156011 2.8310995.8060873 3.7200812zm1.08-2.972c.1636429-.2087129.4043969-.3427855.668-.372.0388138-.0047937.0778915-.0071317.117-.007.5285354.0021382.9641393.4152078.9943225.942885.0301833.5276771-.3554782.9877232-.8803225 1.050115-.2635711.0336409-.5294446-.0418585-.736-.209-.2079637-.1646761-.3419763-.4052339-.3725461-.6687345-.0305699-.2635006.0448083-.5283508.2095461-.7362655z"/><path id="Shape" d="m32.856 36.021c.9507759.7540013 2.2621472.8609802 3.3225584.2710475 1.0604113-.5899328 1.6610051-1.7605848 1.5216959-2.9660248-.1393093-1.20544-.9910835-2.208246-2.1580995-2.5407613s-2.4194195.0707518-3.1731548 1.0217386c-.5001352.6210658-.7302052 1.416814-.6386605 2.2089488.0915448.7921348.4970509 1.5144312 1.1256605 2.0050512zm1.08-2.972c.3429582-.4328457.9718583-.505744 1.404738-.1628287.4328797.3429154.5058402.9718083.1629677 1.4047219s-.9717581.5059364-1.4047057.1631068c-.2079637-.1646761-.3419763-.4052339-.3725461-.6687345-.0305699-.2635006.0448083-.5283508.2095461-.7362655z"/><path id="Shape" d="m27.888 42.292c1.1217944.8888187 2.7152285.8614293 3.8058136-.0654178s1.3745747-2.4950092.6782906-3.745453c-.696284-1.2504439-2.1789148-1.8348997-3.5411669-1.3959346-1.3622522.4389651-2.2247154 1.7790918-2.0599373 3.2008054.0898837.7908821.4920216 1.5130744 1.117 2.006zm1.08-2.973c.1645992-.2075903.4048477-.3413813.668-.372.0388138-.0047937.0778915-.0071317.117-.007.4661444.0005542.8700773.3231047.9737605.7775722.1036832.4544676-.120388.9202923-.5401682 1.1229632-.4197802.202671-.9239114.0884242-1.2153086-.2754145-.2913971-.3638388-.2927593-.8807514-.0032837-1.2461209z"/><path id="Shape" d="m47.067 35c0 1.6568542 1.3431458 3 3 3s3-1.3431458 3-3-1.3431458-3-3-3-3 1.3431458-3 3zm4 0c0 .5522847-.4477153 1-1 1s-1-.4477153-1-1 .4477153-1 1-1 1 .4477153 1 1z"/><path id="Shape" d="m57.067 0c-1.6568542 0-3 1.34314575-3 3s1.3431458 3 3 3 3-1.34314575 3-3-1.3431458-3-3-3zm0 4c-.5522847 0-1-.44771525-1-1s.4477153-1 1-1 1 .44771525 1 1c0 .26521649-.1053568.5195704-.2928932.70710678s-.4418903.29289322-.7071068.29289322z"/><path id="Shape" d="m56.067 38c-2.209139 0-4 1.790861-4 4s1.790861 4 4 4 4-1.790861 4-4-1.790861-4-4-4zm0 6c-1.1045695 0-2-.8954305-2-2s.8954305-2 2-2 2 .8954305 2 2-.8954305 2-2 2z"/><circle id="Oval" cx="56.067" cy="34" r="1"/><circle id="Oval" cx="53.067" cy="7" r="1"/></g></g></svg>