<svg width="37" height="37" viewBox="0 0 37 37" fill="currentColor" xmlns="http://www.w3.org/2000/svg">
<path d="M23.7031 33.5312C23.8565 33.5312 24.0035 33.4703 24.1119 33.3619C24.2203 33.2535 24.2812 33.1065 24.2812 32.9531C24.2812 32.7998 24.2203 32.6527 24.1119 32.5443C24.0035 32.4359 23.8565 32.375 23.7031 32.375H19.0781C18.9248 32.375 18.7777 32.4359 18.6693 32.5443C18.5609 32.6527 18.5 32.7998 18.5 32.9531C18.5 33.1065 18.5609 33.2535 18.6693 33.3619C18.7777 33.4703 18.9248 33.5312 19.0781 33.5312H23.7031Z" fill="currentColor"/>
<path d="M1.73438 33.5312H6.35938C6.5127 33.5312 6.65975 33.4703 6.76817 33.3619C6.87659 33.2535 6.9375 33.1065 6.9375 32.9531C6.9375 32.7998 6.87659 32.6527 6.76817 32.5443C6.65975 32.4359 6.5127 32.375 6.35938 32.375H1.73438C1.58105 32.375 1.434 32.4359 1.32558 32.5443C1.21716 32.6527 1.15625 32.7998 1.15625 32.9531C1.15625 33.1065 1.21716 33.2535 1.32558 33.3619C1.434 33.4703 1.58105 33.5312 1.73438 33.5312Z" fill="currentColor"/>
<path d="M16.1875 34.6875C16.0342 34.6875 15.8871 34.7484 15.7787 34.8568C15.6703 34.9652 15.6094 35.1123 15.6094 35.2656C15.6094 35.419 15.6703 35.566 15.7787 35.6744C15.8871 35.7828 16.0342 35.8438 16.1875 35.8438H18.5C18.6533 35.8438 18.8004 35.7828 18.9088 35.6744C19.0172 35.566 19.0781 35.419 19.0781 35.2656C19.0781 35.1123 19.0172 34.9652 18.9088 34.8568C18.8004 34.7484 18.6533 34.6875 18.5 34.6875H16.1875Z" fill="currentColor"/>
<path d="M4.04688 35.2656C4.04688 35.419 4.10778 35.566 4.2162 35.6744C4.32462 35.7828 4.47167 35.8438 4.625 35.8438H12.7188C12.8721 35.8438 13.0191 35.7828 13.1275 35.6744C13.236 35.566 13.2969 35.419 13.2969 35.2656C13.2969 35.1123 13.236 34.9652 13.1275 34.8568C13.0191 34.7484 12.8721 34.6875 12.7188 34.6875H4.625C4.47167 34.6875 4.32462 34.7484 4.2162 34.8568C4.10778 34.9652 4.04688 35.1123 4.04688 35.2656Z" fill="currentColor"/>
<path d="M34.1696 14.6133C33.2173 14.1372 31.964 13.875 30.6406 13.875C30.2463 13.8748 29.8524 13.8987 29.461 13.9465L32.7838 10.6237C32.8922 10.5153 32.9531 10.3682 32.9531 10.2149C32.9531 10.0616 32.8922 9.91457 32.7838 9.80616C32.184 9.20635 31.2232 9.08639 30.078 9.4681C29.0681 9.80478 27.9968 10.5055 27.0607 11.4413C26.8975 11.6045 26.7418 11.7716 26.5938 11.9425V7.51562C26.5938 7.3623 26.5328 7.21525 26.4244 7.10683C26.316 6.99841 26.169 6.9375 26.0156 6.9375C25.1675 6.9375 24.4032 7.5321 23.8633 8.61168C23.3872 9.56399 23.125 10.8172 23.125 12.1406C23.1229 12.7894 23.1887 13.4366 23.3214 14.0716C22.6864 13.9392 22.0393 13.8733 21.3906 13.875C20.0672 13.875 18.814 14.1372 17.8617 14.6133C16.7821 15.1532 16.1875 15.9175 16.1875 16.7656C16.1875 16.919 16.2484 17.066 16.3568 17.1744C16.4652 17.2828 16.6123 17.3438 16.7656 17.3438H20.7789C19.546 19.1021 19.2865 20.8736 20.2124 21.7994C20.3208 21.9078 20.4679 21.9687 20.6212 21.9687C20.7745 21.9687 20.9215 21.9078 21.0299 21.7994L23.9758 18.8536C24.1107 19.0658 24.2902 19.2462 24.5019 19.382C24.7136 19.5178 24.9523 19.6059 25.2014 19.6401C25.4506 19.6744 25.7042 19.6539 25.9447 19.5802C26.1851 19.5064 26.4066 19.3812 26.5938 19.2132C26.6198 19.2365 26.6466 19.2588 26.6739 19.2805C27.3517 20.9674 27.7367 22.8905 27.7974 24.8804C26.3856 24.9866 25.0259 25.5142 23.8364 26.4245C23.7641 26.4799 23.6927 26.537 23.622 26.5948C20.3744 26.6165 17.4505 27.9334 15.8872 30.0625H1.73438V31.2188H26.0156C28.3318 31.2188 30.0625 32.1344 30.0625 32.9531C30.0625 33.7718 28.3318 34.6875 26.0156 34.6875C25.8623 34.6875 25.7152 34.7484 25.6068 34.8568C25.4984 34.9652 25.4375 35.1123 25.4375 35.2656C25.4375 35.419 25.4984 35.566 25.6068 35.6744C25.7152 35.7828 25.8623 35.8438 26.0156 35.8438C27.339 35.8438 28.5923 35.5816 29.5446 35.1054C30.6241 34.5656 31.2188 33.8012 31.2188 32.9531C31.2188 32.305 30.8705 31.7062 30.225 31.2188H35.2656C35.3604 31.2188 35.4538 31.1954 35.5374 31.1509C35.6211 31.1063 35.6925 31.0418 35.7454 30.9632C35.7983 30.8845 35.831 30.794 35.8407 30.6997C35.8504 30.6054 35.8368 30.5102 35.801 30.4224C35.1357 28.7903 34.1048 27.4078 32.8199 26.4245C32.3011 26.0261 31.7343 25.6945 31.1328 25.4375H31.2188C31.2188 22.5338 30.6398 19.7566 29.5386 17.3438H35.2656C35.419 17.3438 35.566 17.2828 35.6744 17.1744C35.7828 17.066 35.8438 16.919 35.8438 16.7656C35.8438 15.9175 35.2491 15.1532 34.1696 14.6133ZM25.4375 8.36381V13.6384C25.2677 13.9681 25.1295 14.3131 25.0249 14.6689C24.9898 14.6503 24.9557 14.6314 24.9196 14.6133C24.8247 14.5659 24.726 14.5212 24.6254 14.4781C24.3915 13.7212 24.2755 12.9328 24.2812 12.1406C24.2812 10.3669 24.8183 8.93644 25.4375 8.36381ZM23.7787 17.4155L20.8101 20.384C20.7769 19.6523 21.2444 18.4979 22.2471 17.3438H23.8026C23.7942 17.3675 23.7861 17.3913 23.7787 17.4155ZM17.6138 16.1875C18.1864 15.5683 19.6169 15.0312 21.3906 15.0312C23.1644 15.0312 24.5948 15.5683 25.1674 16.1875H17.6138ZM25.4375 18.5C25.3232 18.5 25.2114 18.4661 25.1163 18.4026C25.0212 18.339 24.9471 18.2488 24.9034 18.1431C24.8596 18.0375 24.8482 17.9212 24.8705 17.8091C24.8928 17.6969 24.9479 17.5939 25.0287 17.5131C25.1096 17.4322 25.2126 17.3772 25.3247 17.3549C25.4369 17.3326 25.5531 17.344 25.6587 17.3878C25.7644 17.4315 25.8547 17.5056 25.9182 17.6007C25.9817 17.6958 26.0156 17.8075 26.0156 17.9219C26.0155 18.0752 25.9545 18.2221 25.8461 18.3305C25.7377 18.4389 25.5908 18.4998 25.4375 18.5ZM26.0518 15.366C26.1881 14.4445 26.8785 13.2583 27.8779 12.2589C29.1322 11.0045 30.5224 10.3722 31.3662 10.4059L27.2022 14.5702C27.172 14.5846 27.1413 14.5985 27.1117 14.6136C26.7182 14.8024 26.3598 15.0568 26.0518 15.366ZM27.75 18.5C27.6357 18.5 27.5239 18.4661 27.4288 18.4026C27.3337 18.339 27.2596 18.2488 27.2159 18.1431C27.1721 18.0375 27.1607 17.9212 27.183 17.8091C27.2053 17.6969 27.2604 17.5939 27.3412 17.5131C27.4221 17.4322 27.5251 17.3772 27.6372 17.3549C27.7494 17.3326 27.8656 17.344 27.9712 17.3878C28.0769 17.4315 28.1672 17.5056 28.2307 17.6007C28.2942 17.6958 28.3281 17.8075 28.3281 17.9219C28.328 18.0752 28.267 18.2221 28.1586 18.3305C28.0502 18.4389 27.9033 18.4998 27.75 18.5ZM21.0106 30.0625H17.4152C18.61 28.8876 20.402 28.0829 22.3867 27.833C21.8319 28.5124 21.3692 29.262 21.0106 30.0625ZM32.1172 27.3427C33.0551 28.0745 33.8213 29.0028 34.3618 30.0625H22.2945C22.835 29.0028 23.6011 28.0745 24.539 27.3427C25.6736 26.4745 26.984 26.0156 28.3281 26.0156C29.6723 26.0156 30.9827 26.4745 32.1172 27.3427ZM30.0577 25.0746C29.6955 24.9833 29.3267 24.9208 28.9547 24.8877C28.9114 23.1 28.6021 21.3287 28.0369 19.6321C28.4084 19.5697 28.7494 19.3878 29.0083 19.1141C29.678 21.0311 30.0323 23.0441 30.0574 25.0746H30.0577ZM26.8638 16.1875C27.4364 15.5683 28.8669 15.0312 30.6406 15.0312C32.4144 15.0312 33.8448 15.5683 34.4174 16.1875H26.8638Z" fill="currentColor"/>
<path d="M15.6094 32.375H9.82812C9.6748 32.375 9.52775 32.4359 9.41933 32.5443C9.31091 32.6527 9.25 32.7998 9.25 32.9531C9.25 33.1065 9.31091 33.2535 9.41933 33.3619C9.52775 33.4703 9.6748 33.5312 9.82812 33.5312H15.6094C15.7627 33.5312 15.9098 33.4703 16.0182 33.3619C16.1266 33.2535 16.1875 33.1065 16.1875 32.9531C16.1875 32.7998 16.1266 32.6527 16.0182 32.5443C15.9098 32.4359 15.7627 32.375 15.6094 32.375Z" fill="currentColor"/>
<path d="M10.4063 4.625C9.83454 4.625 9.27567 4.79453 8.80031 5.11216C8.32495 5.42978 7.95445 5.88124 7.73566 6.40943C7.51688 6.93762 7.45963 7.51883 7.57117 8.07956C7.6827 8.64028 7.95801 9.15534 8.36227 9.55961C8.76653 9.96387 9.28159 10.2392 9.84232 10.3507C10.403 10.4622 10.9843 10.405 11.5124 10.1862C12.0406 9.96743 12.4921 9.59693 12.8097 9.12157C13.1273 8.64621 13.2969 8.08734 13.2969 7.51562C13.296 6.74925 12.9912 6.01451 12.4493 5.47259C11.9074 4.93068 11.1726 4.62586 10.4063 4.625ZM10.4063 9.25C10.0632 9.25 9.7279 9.14828 9.44268 8.9577C9.15747 8.76713 8.93517 8.49626 8.8039 8.17934C8.67263 7.86243 8.63828 7.5137 8.7052 7.17726C8.77212 6.84083 8.93731 6.53179 9.17986 6.28924C9.42242 6.04668 9.73146 5.8815 10.0679 5.81458C10.4043 5.74765 10.7531 5.782 11.07 5.91327C11.3869 6.04454 11.6578 6.26684 11.8483 6.55206C12.0389 6.83727 12.1406 7.1726 12.1406 7.51562C12.1401 7.97545 11.9572 8.41628 11.632 8.74142C11.3069 9.06656 10.8661 9.24946 10.4063 9.25Z" fill="currentColor"/>
<path d="M10.9844 2.89062V1.73438C10.9844 1.58105 10.9235 1.434 10.815 1.32558C10.7066 1.21716 10.5596 1.15625 10.4062 1.15625C10.2529 1.15625 10.1059 1.21716 9.99745 1.32558C9.88903 1.434 9.82812 1.58105 9.82812 1.73438V2.89062C9.82812 3.04395 9.88903 3.191 9.99745 3.29942C10.1059 3.40784 10.2529 3.46875 10.4062 3.46875C10.5596 3.46875 10.7066 3.40784 10.815 3.29942C10.9235 3.191 10.9844 3.04395 10.9844 2.89062Z" fill="currentColor"/>
<path d="M16.7656 7.51562C16.7656 7.3623 16.7047 7.21525 16.5963 7.10683C16.4879 6.99841 16.3408 6.9375 16.1875 6.9375H15.0312C14.8779 6.9375 14.7309 6.99841 14.6225 7.10683C14.514 7.21525 14.4531 7.3623 14.4531 7.51562C14.4531 7.66895 14.514 7.816 14.6225 7.92442C14.7309 8.03284 14.8779 8.09375 15.0312 8.09375H16.1875C16.3408 8.09375 16.4879 8.03284 16.5963 7.92442C16.7047 7.816 16.7656 7.66895 16.7656 7.51562Z" fill="currentColor"/>
<path d="M10.9844 13.2969V12.1406C10.9844 11.9873 10.9235 11.8402 10.815 11.7318C10.7066 11.6234 10.5596 11.5625 10.4062 11.5625C10.2529 11.5625 10.1059 11.6234 9.99745 11.7318C9.88903 11.8402 9.82812 11.9873 9.82812 12.1406V13.2969C9.82812 13.4502 9.88903 13.5973 9.99745 13.7057C10.1059 13.8141 10.2529 13.875 10.4062 13.875C10.5596 13.875 10.7066 13.8141 10.815 13.7057C10.9235 13.5973 10.9844 13.4502 10.9844 13.2969Z" fill="currentColor"/>
<path d="M4.04688 7.51562C4.04688 7.66895 4.10778 7.816 4.2162 7.92442C4.32462 8.03284 4.47167 8.09375 4.625 8.09375H5.78125C5.93458 8.09375 6.08163 8.03284 6.19005 7.92442C6.29847 7.816 6.35938 7.66895 6.35938 7.51562C6.35938 7.3623 6.29847 7.21525 6.19005 7.10683C6.08163 6.99841 5.93458 6.9375 5.78125 6.9375H4.625C4.47167 6.9375 4.32462 6.99841 4.2162 7.10683C4.10778 7.21525 4.04688 7.3623 4.04688 7.51562Z" fill="currentColor"/>
<path d="M7.54454 3.83645L6.72707 3.01891C6.61825 2.91249 6.47185 2.85328 6.31964 2.85414C6.16744 2.85499 6.02171 2.91583 5.91408 3.02345C5.80645 3.13108 5.74561 3.27681 5.74476 3.42902C5.74391 3.58122 5.80311 3.72762 5.90953 3.83645L6.72707 4.65392C6.7804 4.70913 6.84419 4.75317 6.91473 4.78347C6.98526 4.81377 7.06112 4.82972 7.13789 4.83039C7.21465 4.83106 7.29078 4.81643 7.36183 4.78736C7.43288 4.75829 7.49742 4.71536 7.55171 4.66108C7.60599 4.6068 7.64892 4.54225 7.67798 4.4712C7.70705 4.40015 7.72168 4.32402 7.72101 4.24726C7.72035 4.1705 7.7044 4.09464 7.6741 4.0241C7.6438 3.95357 7.59976 3.88978 7.54454 3.83645Z" fill="currentColor"/>
<path d="M14.0855 4.65394L14.903 3.83632C15.0094 3.7275 15.0686 3.5811 15.0678 3.42889C15.0669 3.27669 15.0061 3.13096 14.8985 3.02333C14.7908 2.91571 14.6451 2.85486 14.4929 2.85401C14.3407 2.85316 14.1943 2.91237 14.0855 3.01878L13.268 3.83647C13.1627 3.94551 13.1044 4.09154 13.1057 4.24312C13.1071 4.39471 13.1679 4.53971 13.275 4.6469C13.3822 4.75409 13.5272 4.81489 13.6788 4.8162C13.8304 4.81752 13.9764 4.75925 14.0855 4.65394Z" fill="currentColor"/>
<path d="M14.0855 12.0123C14.1943 12.1187 14.3407 12.1779 14.4929 12.1771C14.6452 12.1762 14.7909 12.1154 14.8985 12.0078C15.0061 11.9001 15.067 11.7544 15.0678 11.6022C15.0687 11.45 15.0095 11.3036 14.9031 11.1948L14.0855 10.3773C14.0322 10.3221 13.9684 10.278 13.8979 10.2477C13.8273 10.2174 13.7515 10.2015 13.6747 10.2008C13.5979 10.2002 13.5218 10.2148 13.4508 10.2439C13.3797 10.2729 13.3152 10.3159 13.2609 10.3701C13.2066 10.4244 13.1637 10.489 13.1346 10.56C13.1055 10.6311 13.0909 10.7072 13.0916 10.784C13.0922 10.8607 13.1082 10.9366 13.1385 11.0071C13.1688 11.0776 13.2128 11.1414 13.268 11.1948L14.0855 12.0123Z" fill="currentColor"/>
<path d="M5.90953 11.1948C5.85485 11.2482 5.81133 11.312 5.78148 11.3824C5.75162 11.4528 5.73603 11.5284 5.7356 11.6049C5.73518 11.6813 5.74992 11.7571 5.77899 11.8279C5.80805 11.8986 5.85086 11.9628 5.90492 12.0169C5.95899 12.071 6.02325 12.1138 6.09398 12.1428C6.1647 12.1719 6.24049 12.1867 6.31696 12.1862C6.39342 12.1858 6.46904 12.1702 6.53944 12.1404C6.60983 12.1105 6.67361 12.067 6.72707 12.0123L7.54454 11.1948C7.59975 11.1414 7.6438 11.0776 7.67409 11.0071C7.70439 10.9366 7.72034 10.8607 7.72101 10.784C7.72168 10.7072 7.70705 10.6311 7.67798 10.56C7.64891 10.489 7.60598 10.4244 7.5517 10.3701C7.49742 10.3159 7.43287 10.2729 7.36182 10.2439C7.29077 10.2148 7.21464 10.2002 7.13788 10.2008C7.06112 10.2015 6.98526 10.2174 6.91472 10.2477C6.84419 10.278 6.7804 10.3221 6.72707 10.3773L5.90953 11.1948Z" fill="currentColor"/>
<path d="M8.67188 19.6563C8.82515 19.6564 8.9721 19.7174 9.08048 19.8258C9.18886 19.9342 9.24983 20.0811 9.25 20.2344C9.25 20.3877 9.31091 20.5348 9.41933 20.6432C9.52775 20.7516 9.6748 20.8125 9.82813 20.8125C9.98145 20.8125 10.1285 20.7516 10.2369 20.6432C10.3453 20.5348 10.4063 20.3877 10.4063 20.2344C10.4063 20.0811 10.4672 19.934 10.5756 19.8256C10.684 19.7172 10.831 19.6563 10.9844 19.6563C11.1377 19.6563 11.2848 19.7172 11.3932 19.8256C11.5016 19.934 11.5625 20.0811 11.5625 20.2344C11.5625 20.3877 11.6234 20.5348 11.7318 20.6432C11.8402 20.7516 11.9873 20.8125 12.1406 20.8125C12.294 20.8125 12.441 20.7516 12.5494 20.6432C12.6578 20.5348 12.7188 20.3877 12.7188 20.2344C12.7189 19.8995 12.6221 19.5718 12.44 19.2907C12.2578 19.0097 11.9982 18.7874 11.6925 18.6508C11.3867 18.5142 11.0479 18.4691 10.7171 18.5209C10.3862 18.5727 10.0775 18.7192 9.82813 18.9427C9.57877 18.7192 9.27001 18.5727 8.93915 18.5209C8.6083 18.4691 8.26953 18.5142 7.96379 18.6508C7.65804 18.7874 7.39841 19.0097 7.21629 19.2907C7.03416 19.5718 6.93733 19.8995 6.9375 20.2344C6.9375 20.3877 6.99841 20.5348 7.10683 20.6432C7.21525 20.7516 7.3623 20.8125 7.51563 20.8125C7.66895 20.8125 7.816 20.7516 7.92442 20.6432C8.03284 20.5348 8.09375 20.3877 8.09375 20.2344C8.09392 20.0811 8.15489 19.9342 8.26327 19.8258C8.37165 19.7174 8.5186 19.6564 8.67188 19.6563Z" fill="currentColor"/>
<path d="M2.3125 23.7032C2.3125 23.8565 2.37341 24.0035 2.48183 24.1119C2.59025 24.2204 2.7373 24.2813 2.89063 24.2813C3.04395 24.2813 3.191 24.2204 3.29942 24.1119C3.40784 24.0035 3.46875 23.8565 3.46875 23.7032C3.46875 23.5498 3.52966 23.4028 3.63808 23.2944C3.7465 23.1859 3.89355 23.125 4.04688 23.125C4.2002 23.125 4.34725 23.1859 4.45567 23.2944C4.56409 23.4028 4.625 23.5498 4.625 23.7032C4.625 23.8565 4.68591 24.0035 4.79433 24.1119C4.90275 24.2204 5.0498 24.2813 5.20313 24.2813C5.35645 24.2813 5.5035 24.2204 5.61192 24.1119C5.72034 24.0035 5.78125 23.8565 5.78125 23.7032C5.78125 23.5498 5.84216 23.4028 5.95058 23.2944C6.059 23.1859 6.20605 23.125 6.35938 23.125C6.5127 23.125 6.65975 23.1859 6.76817 23.2944C6.87659 23.4028 6.9375 23.5498 6.9375 23.7032C6.9375 23.8565 6.99841 24.0035 7.10683 24.1119C7.21525 24.2204 7.3623 24.2813 7.51563 24.2813C7.66895 24.2813 7.816 24.2204 7.92442 24.1119C8.03284 24.0035 8.09375 23.8565 8.09375 23.7032C8.09392 23.3683 7.99709 23.0405 7.81497 22.7595C7.63284 22.4785 7.37321 22.2562 7.06746 22.1196C6.76172 21.983 6.42295 21.9378 6.0921 21.9896C5.76125 22.0414 5.45248 22.1879 5.20313 22.4115C4.95377 22.1879 4.64501 22.0414 4.31415 21.9896C3.9833 21.9378 3.64453 21.983 3.33879 22.1196C3.03304 22.2562 2.77341 22.4785 2.59129 22.7595C2.40916 23.0405 2.31233 23.3683 2.3125 23.7032Z" fill="currentColor"/>
</svg>
