<svg width="75" height="75" viewBox="0 0 75 75" fill="none" xmlns="http://www.w3.org/2000/svg">
<path d="M59.1052 23.9224H15.8948C9.97547 23.9281 5.17811 28.7255 5.17242 34.6448V44.8046C5.17748 48.9813 8.56177 52.3656 12.7385 52.3707H25.0009C27.0062 52.3656 28.9282 51.5694 30.3507 50.1557L37.5 43.0045L43.9902 49.4947C44.0691 49.5856 44.2812 49.8091 44.6108 50.1166L44.6481 50.1545C45.068 50.5699 45.5352 50.9336 46.0409 51.2392C47.0834 51.9906 48.3222 52.4212 49.6058 52.4768C49.9354 52.4774 50.2637 52.442 50.5851 52.3707H62.2616C66.4383 52.3656 69.8226 48.9813 69.8276 44.8046V34.6732C69.8813 32.0523 68.9298 29.5109 67.1688 27.5687C67.1082 27.5043 67.04 27.4488 66.9737 27.3856C64.9513 25.1802 62.0974 23.9237 59.1052 23.9224V23.9224ZM16.0615 26.6046H22.8377L7.75863 41.683V34.9138C7.76053 30.3279 11.4757 26.6103 16.0615 26.6046ZM28.5222 48.3285C27.5852 49.2579 26.3205 49.7813 25.0009 49.7845H12.7385C10.1838 49.7769 8.0516 47.8335 7.80788 45.2908L26.5901 26.5086H53.7932L39.2755 41.1204L38.4143 40.2592C37.9092 39.7547 37.0909 39.7547 36.5858 40.2592L28.5222 48.3285ZM50.4311 49.7845H49.9992C49.0376 49.7801 48.0974 49.4991 47.2911 48.975C47.2475 48.9441 47.2021 48.9144 47.1623 48.8835C46.9205 48.7193 46.6938 48.5337 46.4848 48.3297L46.4716 48.3184L41.1078 42.9515L57.4295 26.5149C60.8586 26.5976 63.436 27.4968 65.1104 29.175C66.4799 30.6676 67.2408 32.6193 67.2414 34.6448V37.6566L55.1085 49.7845H50.4311ZM62.2616 49.7845H58.7706L67.2414 41.308V44.7996C67.2408 47.5506 65.0126 49.7807 62.2616 49.7845Z" fill="white"/>
<path d="M65.9483 1.93965H60.7759C60.0618 1.93965 59.4828 2.51864 59.4828 3.23276V18.7696C59.3533 18.7696 59.2334 18.75 59.1052 18.75H15.8948C7.12028 18.7601 0.0101024 25.8703 0 34.6448V44.8046C0.00757678 51.8365 5.70658 57.5355 12.7385 57.5431H25.0008C28.3813 57.5532 31.6248 56.2096 34.0084 53.8128L37.5 50.3212L40.9916 53.8128C43.3752 56.2096 46.6187 57.5532 49.9992 57.5431H59.4828V61.6655C59.4815 62.9592 58.4321 64.008 57.1384 64.0086H52.4692C51.4419 61.6554 49.1196 60.1325 46.5517 60.1293H28.4483C24.8777 60.1293 21.9828 63.0243 21.9828 66.5948C21.9828 70.1654 24.8777 73.0603 28.4483 73.0603H46.5517C47.9376 73.0559 49.285 72.6026 50.3913 71.7672H58.2698C63.2219 71.7622 67.2357 67.749 67.2414 62.797V56.5278C71.9415 54.5263 74.9943 49.9133 75 44.8046V34.6448C74.9931 29.0525 72.0463 23.8763 67.2414 21.0155V3.23276C67.2414 2.51864 66.6624 1.93965 65.9483 1.93965V1.93965ZM62.069 4.52586H64.6552V19.7691C63.8154 19.4521 62.9504 19.2071 62.069 19.0373V4.52586ZM24.569 66.5948C24.569 64.4525 26.3059 62.7155 28.4483 62.7155H32.3276V70.4741H28.4483C26.3059 70.4741 24.569 68.7372 24.569 66.5948ZM34.9138 70.4741V62.7155H40.0862V70.4741H34.9138ZM42.6724 70.4741V62.7155H46.5517C48.0848 62.7086 49.477 63.6096 50.0989 65.0107C50.7208 66.4117 50.4557 68.0483 49.4227 69.181H49.1379V69.4658C48.4308 70.1111 47.5089 70.471 46.5517 70.4741H42.6724ZM64.6552 62.797C64.6508 66.3214 61.7943 69.1772 58.2698 69.181H52.4692C52.8297 68.3665 53.0166 67.4857 53.0172 66.5948H57.1384C59.8603 66.5929 62.0658 64.3875 62.069 61.6655V57.5431H62.2615C63.0653 57.5406 63.8666 57.4629 64.6552 57.3101V62.797ZM72.4138 34.6448V44.8046C72.4081 50.4096 67.8665 54.9512 62.2615 54.9569H49.9992C47.3056 54.9638 44.7207 53.893 42.8214 51.983L38.4143 47.5759C37.9091 47.0714 37.0909 47.0714 36.5857 47.5759L32.1786 51.983C30.2793 53.893 27.6944 54.9638 25.0008 54.9569H12.7385C7.13354 54.9512 2.59189 50.4096 2.58621 44.8046V34.6448C2.59189 27.2972 8.54724 21.3419 15.8948 21.3362H59.1052C66.4528 21.3419 72.4081 27.2972 72.4138 34.6448Z" fill="white"/>
</svg>
