<svg width="38" height="38" viewBox="0 0 38 38" fill="currentColor" xmlns="http://www.w3.org/2000/svg">
<path d="M17.8815 24.6392V9.96155C17.8815 9.34663 17.3831 8.84827 16.7682 8.84827C16.1536 8.84827 15.6549 9.34663 15.6549 9.96155V24.6392C13.698 25.1367 12.2461 26.9133 12.2461 29.0233C12.2461 31.5172 14.2746 33.546 16.7682 33.546C19.2618 33.546 21.2906 31.5172 21.2906 29.0233C21.2906 26.9133 19.8384 25.1367 17.8815 24.6392ZM16.7682 31.3194C15.5024 31.3194 14.4727 30.2894 14.4727 29.0233C14.4727 27.7569 15.5024 26.7269 16.7682 26.7269C18.0343 26.7269 19.0641 27.7569 19.0641 29.0233C19.0641 30.2894 18.0343 31.3194 16.7682 31.3194Z" fill="currentColor"/>
<path d="M22.2935 21.9485V5.52582C22.2935 2.47879 19.815 0 16.7682 0C13.7218 0 11.2433 2.47879 11.2433 5.52582V21.9485C9.07237 23.6453 7.79297 26.2473 7.79297 29.023C7.79297 33.9731 11.8193 38 16.7682 38C21.7174 38 25.7438 33.9731 25.7438 29.023C25.7438 26.2473 24.4644 23.6453 22.2935 21.9485ZM16.7682 35.7734C13.0468 35.7734 10.0195 32.7453 10.0195 29.023C10.0195 26.784 11.127 24.6948 12.9822 23.4346C13.2872 23.2273 13.4698 22.8823 13.4698 22.5135V5.52582C13.4698 3.70659 14.9496 2.22656 16.7682 2.22656C18.5872 2.22656 20.0669 3.70659 20.0669 5.52582V22.5135C20.0669 22.8823 20.2495 23.2273 20.5545 23.4346C22.4097 24.6948 23.5172 26.784 23.5172 29.023C23.5172 32.7453 20.4896 35.7734 16.7682 35.7734Z" fill="currentColor"/>
<path d="M29.0836 17.7745H25.6333C25.0184 17.7745 24.52 18.2729 24.52 18.8878C24.52 19.5027 25.0184 20.0011 25.6333 20.0011H29.0836C29.6982 20.0011 30.1969 19.5027 30.1969 18.8878C30.1969 18.2729 29.6982 17.7745 29.0836 17.7745Z" fill="currentColor"/>
<path d="M29.0836 13.3206H25.6333C25.0184 13.3206 24.52 13.8189 24.52 14.4338C24.52 15.0488 25.0184 15.5471 25.6333 15.5471H29.0836C29.6982 15.5471 30.1969 15.0488 30.1969 14.4338C30.1969 13.8189 29.6982 13.3206 29.0836 13.3206Z" fill="currentColor"/>
<path d="M29.0836 8.86658H25.6333C25.0184 8.86658 24.52 9.36494 24.52 9.97986C24.52 10.5948 25.0184 11.0931 25.6333 11.0931H29.0836C29.6982 11.0931 30.1969 10.5948 30.1969 9.97986C30.1969 9.36494 29.6982 8.86658 29.0836 8.86658Z" fill="currentColor"/>
<path d="M25.6333 6.63904H29.0836C29.6982 6.63904 30.1969 6.14067 30.1969 5.52576C30.1969 4.91113 29.6982 4.41248 29.0836 4.41248H25.6333C25.0184 4.41248 24.52 4.91113 24.52 5.52576C24.52 6.14067 25.0184 6.63904 25.6333 6.63904Z" fill="currentColor"/>
</svg>
