<svg width="67" height="92" viewBox="0 0 67 92" fill="currentColor" xmlns="http://www.w3.org/2000/svg">
<path d="M47.7135 64.3777L51.9141 57.5614L59.4947 54.976L60.3346 47.0142L66.038 41.3994L63.3263 33.8629L66.038 26.3263L60.3348 20.7115L59.4949 12.7499L51.9143 10.1645L47.7137 3.34804L39.7684 4.30737L33.019 0L26.2696 4.30773L18.3244 3.3484L14.1238 10.1647L6.54323 12.7501L5.70339 20.7117L0 26.3265L2.71166 33.8631L0 41.3998L5.70321 47.0143L6.54305 54.9762L14.1236 57.5616L18.3243 64.3778L26.2696 63.4187L33.019 67.7263L39.7684 63.4187L47.7135 64.3777ZM9.79762 33.8631C9.79762 21.0589 20.2147 10.6418 33.019 10.6418C45.8232 10.6418 56.2403 21.0589 56.2403 33.8631C56.2403 46.6674 45.8232 57.0845 33.019 57.0845C20.2147 57.0845 9.79762 46.6674 9.79762 33.8631V33.8631Z" fill="currentColor"/>
<path fill-rule="evenodd" clip-rule="evenodd" d="M15.1835 33.8631C15.1835 24.0286 23.1844 16.0276 33.019 16.0276C42.8536 16.0276 50.8546 24.0286 50.8546 33.8631C50.8546 43.6977 42.8536 51.6987 33.019 51.6987C23.1844 51.6987 15.1835 43.6977 15.1835 33.8631ZM35.7471 30.1881L33.1087 22.0679L30.4703 30.1881H21.9322L28.8397 35.2066L26.2013 43.3268L33.1087 38.3082L40.0161 43.3268L37.3777 35.2066L44.2851 30.1881H35.7471Z" fill="currentColor"/>
<path d="M24.999 68.9969L15.5475 70.1379L10.5538 62.0344L8.85623 61.4556L1.53381 84.3427L14.7163 83.6177L25.0299 91.8599L31.0991 72.8902L24.999 68.9969Z" fill="currentColor"/>
<path d="M55.4841 62.0345L50.4903 70.1379L41.0389 68.9969L34.9388 72.8902L41.0081 91.8599L51.3217 83.6177L64.5041 84.3427L57.1817 61.4556L55.4841 62.0345Z" fill="currentColor"/>
</svg>
