<svg width="45" height="45" viewBox="0 0 45 45" fill="currentColor" xmlns="http://www.w3.org/2000/svg">
<g>
<path d="M10.561 22.5233C6.3354 22.5233 2.89771 25.961 2.89771 30.1866C2.89771 34.4122 6.3354 37.8499 10.561 37.8499C14.7863 37.8499 18.224 34.4122 18.224 30.1866C18.224 25.961 14.7863 22.5233 10.561 22.5233ZM10.561 23.8595C13.5181 23.8595 16.0068 25.8989 16.6972 28.6448C16.3663 29.9652 15.6051 31.1606 14.5394 32.0241C13.4188 32.9318 12.0061 33.4317 10.5614 33.4317C9.11631 33.4317 7.70354 32.9318 6.58259 32.0241C5.51691 31.1606 4.75542 29.9652 4.42446 28.6448C5.11488 25.8989 7.60363 23.8595 10.561 23.8595ZM10.561 36.5137C7.58475 36.5137 5.08364 34.4479 4.4121 31.6753C4.79388 32.1889 5.2402 32.6561 5.74179 33.0623C7.09963 34.1623 8.8111 34.7679 10.5614 34.7679C12.3113 34.7679 14.0227 34.1623 15.3806 33.0623C15.8818 32.6558 16.3278 32.1889 16.7096 31.6756C16.0377 34.4479 13.5369 36.5137 10.561 36.5137Z" fill="currentColor"/>
<path d="M44.3134 26.442C44.3127 26.4379 44.1846 26.1176 44.1328 25.9974L38.4408 12.1986C37.7394 10.4985 36.476 9.15848 34.9159 8.35545L34.3807 7.05734C34.0329 6.21483 33.4489 5.50106 32.6902 4.99294C31.9314 4.48654 31.0491 4.21875 30.1386 4.21875C27.6083 4.21875 25.5497 6.27731 25.5497 8.8076V10.3481C24.5053 11.6459 23.8781 13.2928 23.8781 15.0842V15.5941H21.1216V15.0842C21.1216 13.2928 20.4943 11.6459 19.4499 10.3481V8.8076C19.4499 6.27731 17.3914 4.21875 14.8611 4.21875C13.9506 4.21875 13.0682 4.48654 12.3088 4.99363C11.5511 5.50106 10.9668 6.21483 10.619 7.05734L10.0837 8.35545C8.52402 9.15848 7.26025 10.4985 6.55918 12.1986L5.098 15.7407C4.95724 16.0819 5.11963 16.4723 5.46089 16.613C5.80215 16.7538 6.19251 16.5914 6.33293 16.2502L7.79411 12.7081C8.76022 10.3663 11.0213 8.85326 13.5544 8.85326C16.99 8.85326 19.7853 11.6483 19.7853 15.0842V25.0505C17.9778 21.8171 14.5205 19.6257 10.5606 19.6257C8.08044 19.6257 5.79769 20.4857 3.99353 21.9222L5.43549 18.4265C5.57625 18.0856 5.41351 17.6949 5.07259 17.5541C4.73167 17.4133 4.34097 17.5761 4.20021 17.917L0.867233 25.9971C0.815048 26.1172 0.672569 26.4729 0.666046 26.4956C0.235863 27.645 0 28.8889 0 30.1867C0 36.0098 4.73751 40.7473 10.561 40.7473C16.384 40.7473 21.1216 36.0098 21.1216 30.1867V29.7568H23.8784V30.1867C23.8784 36.0098 28.616 40.7473 34.439 40.7473C40.2625 40.7473 45 36.0098 45 30.1867C45 28.8686 44.7566 27.6066 44.3134 26.442ZM13.5544 7.51705C12.9501 7.51705 12.3589 7.58915 11.7894 7.72442L11.8542 7.56683C12.1008 6.96945 12.5151 6.46339 13.0514 6.10428C13.5897 5.74482 14.2156 5.55462 14.8611 5.55462C16.6546 5.55462 18.1141 7.01408 18.1141 8.8076V9.04964C16.8451 8.08868 15.2655 7.51705 13.5544 7.51705ZM30.1389 5.55462C30.7844 5.55462 31.4099 5.74482 31.9476 6.10359C32.4849 6.46339 32.8992 6.96945 33.1458 7.56683L33.2106 7.72442C32.6411 7.58881 32.0499 7.51705 31.4453 7.51705C29.7345 7.51705 28.1549 8.08868 26.8859 9.04964V8.8076C26.8859 7.01408 28.3451 5.55462 30.1389 5.55462ZM25.2147 15.0842C25.2147 11.6483 28.0096 8.85326 31.4456 8.85326C33.9787 8.85326 36.2398 10.3663 37.2055 12.7081L41.0065 21.9222C39.2023 20.4857 36.9192 19.6257 34.439 19.6257C30.4792 19.6257 27.0219 21.8171 25.2147 25.0502V15.0842ZM23.8784 16.9303V23.3435H21.1216V16.9303H23.8784ZM10.561 39.4114C5.47428 39.4114 1.33621 35.2733 1.33621 30.1867C1.33621 25.1 5.47428 20.9619 10.561 20.9619C15.6473 20.9619 19.7853 25.1 19.7853 30.1867C19.7853 35.2733 15.6473 39.4114 10.561 39.4114ZM21.1216 28.4206V24.6794H23.8784V28.4206H21.1216ZM34.439 39.4114C29.3527 39.4114 25.2147 35.2733 25.2147 30.1867C25.2147 25.1 29.3527 20.9619 34.439 20.9619C39.5257 20.9619 43.6638 25.1 43.6638 30.1867C43.6638 35.2733 39.5257 39.4114 34.439 39.4114Z" fill="currentColor"/>
<path d="M39.6284 25.4484C39.3335 25.6702 39.2748 26.0891 39.4966 26.384C40.0102 27.0658 40.3734 27.8287 40.5766 28.6393C40.2464 29.9617 39.4845 31.1596 38.4171 32.0241C37.2969 32.9318 35.8841 33.4317 34.4391 33.4317C32.9944 33.4317 31.5812 32.9318 30.4606 32.0241C29.395 31.161 28.6335 29.9655 28.3025 28.6454C28.9926 25.8992 31.4817 23.8595 34.4391 23.8595C35.707 23.8595 36.9302 24.2331 37.976 24.9396C38.2819 25.1463 38.6973 25.066 38.9036 24.7601C39.1103 24.4542 39.03 24.0391 38.7241 23.8324C37.4565 22.9762 35.9747 22.5233 34.4391 22.5233C30.2134 22.5233 26.7758 25.961 26.7758 30.1866C26.7758 34.4122 30.2134 37.8499 34.4391 37.8499C38.6647 37.8499 42.1024 34.4122 42.1024 30.1866C42.1024 28.5095 41.5702 26.9165 40.5636 25.5803C40.3422 25.2853 39.9233 25.2263 39.6284 25.4484ZM34.4391 36.5137C31.4635 36.5137 28.9624 34.4483 28.2908 31.676C28.6723 32.1889 29.1182 32.6561 29.6198 33.0623C30.9777 34.1623 32.6891 34.7679 34.4394 34.7679C36.1893 34.7679 37.9008 34.1623 39.2586 33.0623C39.7602 32.6558 40.2065 32.1885 40.588 31.6749C39.9164 34.4479 37.4153 36.5137 34.4391 36.5137Z" fill="currentColor"/>
</g>

</svg>
