<svg width="512" height="512" viewBox="0 0 512 512" fill="currentColor" xmlns="http://www.w3.org/2000/svg">
<g>
<path d="M470.595 440.656C467.586 440.651 464.59 441.055 461.69 441.856C458.86 422.157 444.686 405.976 425.531 400.578C406.375 395.18 385.838 401.579 373.139 416.902C359.705 410.598 345.063 407.279 330.223 407.174C329.451 407.082 328.679 407.082 327.907 407.082C318.721 407.072 309.57 408.199 300.662 410.439L376.866 314.116C380.058 310.161 381.278 304.969 380.181 300.007C379.13 295.121 375.919 290.975 371.452 288.734L355.295 280.467L365.417 273.853C368.916 271.571 370.203 267.063 368.439 263.277L355.513 235.579L377.579 247.774C381.167 249.759 385.663 248.861 388.214 245.651L395.44 236.569L399.839 246.062C402.316 251.319 407.335 254.921 413.108 255.584C418.882 256.247 424.587 253.877 428.192 249.319L437.576 237.425C453.602 217.011 458.055 189.81 449.377 165.351L413.688 65.6115C411.601 59.9117 406.601 55.7821 400.609 54.8111C394.618 53.84 388.569 56.1789 384.789 60.928L345.726 110.265L240.733 107.436C227.524 107.089 214.928 113.001 206.756 123.384L190.221 144.292L132.356 114.705C121.663 109.274 108.625 112.107 101.15 121.487L78.4201 150.159C74.272 155.394 72.3739 162.063 73.1437 168.698C73.9134 175.333 77.2879 181.39 82.5245 185.537L128.688 222.099L117.349 236.426L59.4342 206.798C48.7448 201.354 35.7008 204.19 28.2357 213.579L5.44753 242.26C1.29844 247.494 -0.601003 254.163 0.167174 260.798C0.935352 267.432 4.30821 273.49 9.54353 277.638L55.7578 314.25L7.81448 374.859C3.12797 380.793 0.57369 388.131 0.562547 395.692V474.229C0.562547 492.772 15.594 507.803 34.1363 507.803H470.595C489.138 507.803 504.169 492.772 504.169 474.229C504.169 455.687 489.138 440.656 470.595 440.656V440.656ZM138.996 208.871L112.682 188.013L149.068 142.093L179.553 157.688L138.996 208.871ZM89.81 166.769C89.5471 164.555 90.1819 162.327 91.5726 160.583L114.302 131.903C116.785 128.765 121.138 127.817 124.702 129.637L133.817 134.303L99.5128 177.588L92.9408 172.384C91.189 171.006 90.0616 168.984 89.81 166.769V166.769ZM66.023 300.964L39.7012 280.114L76.0867 234.177L106.597 249.78L66.023 300.964ZM16.8458 258.871C16.5806 256.657 17.2123 254.429 18.6001 252.685L41.3379 224.004C43.8302 220.881 48.1716 219.935 51.7374 221.738L60.8443 226.405L26.5486 269.69L19.9682 264.477C18.2193 263.101 17.0947 261.082 16.8458 258.871V258.871ZM397.9 71.3442L433.572 171.058C440.314 190.069 436.852 211.209 424.398 227.076L415.014 238.961L404.942 217.214C403.715 214.575 401.208 212.76 398.318 212.418C395.427 212.076 392.566 213.256 390.757 215.535L379.476 229.712L341.034 208.468C337.85 206.702 333.889 207.19 331.23 209.678C328.57 212.165 327.818 216.084 329.367 219.379L350.124 263.814L333.984 274.356C331.48 275.993 330.036 278.837 330.194 281.824C330.351 284.811 332.086 287.488 334.747 288.852L363.713 303.708L270.907 421.049C259.095 411.977 245.357 405.74 230.753 402.818C232.81 398.594 233.625 393.873 233.103 389.204C232.158 379.668 225.882 371.494 216.913 368.119C207.944 364.744 197.837 366.753 190.84 373.301C183.843 379.849 181.169 389.801 183.942 398.974C163.94 399.633 144.344 404.797 126.615 414.082L397.9 71.3442ZM203.902 399.2C203.532 399.027 203.18 398.816 202.853 398.571C199.879 396.202 198.869 392.131 200.39 388.647C201.912 385.163 205.585 383.136 209.344 383.708C213.102 384.279 216.008 387.305 216.425 391.084C216.679 393.255 216.047 395.437 214.671 397.136C213.775 398.221 212.62 399.064 211.313 399.587C208.871 399.335 206.361 399.343 203.902 399.2V399.2ZM290.606 125.574L132.205 325.506C131.137 326.969 129.705 328.126 128.051 328.863L116.761 319.958C117.073 318.177 117.852 316.512 119.019 315.132L269.598 125.003L290.606 125.574ZM20.9838 385.259L219.908 133.775C224.804 127.531 232.374 123.986 240.304 124.223L248.631 124.45L105.85 304.682C102.753 308.508 100.762 313.109 100.092 317.986C99.2091 323.378 101.231 328.838 105.413 332.355L118.591 342.738C121.135 344.73 124.283 345.793 127.513 345.751C129.649 345.736 131.765 345.347 133.766 344.601C138.361 342.815 142.376 339.801 145.375 335.889L311.565 126.111L332.708 126.682L108.746 409.642C95.9299 405.387 81.9423 406.457 69.9229 412.612C57.9036 418.767 48.8595 429.491 44.8212 442.376C35.6808 439.264 25.634 440.329 17.3494 445.289V395.692C17.3556 391.905 18.6357 388.23 20.9838 385.259V385.259ZM470.595 491.016H34.1363C24.8652 491.016 17.3494 483.501 17.3494 474.229C17.3494 464.958 24.8652 457.443 34.1363 457.443C38.3018 457.435 42.3175 458.996 45.3835 461.816C47.7976 463.999 51.2568 464.591 54.2591 463.332C57.2614 462.074 59.2652 459.193 59.4006 455.94C59.9119 443.105 67.7397 431.7 79.5332 426.608C91.3266 421.516 104.995 423.639 114.688 432.069C120.396 436.957 124.337 443.587 125.902 450.938C126.521 453.872 128.659 456.253 131.509 457.184C134.36 458.115 137.491 457.454 139.722 455.45C141.954 453.447 142.947 450.405 142.328 447.471C140.896 440.844 138.163 434.568 134.287 429.006C152.611 419.583 173.014 414.93 193.612 415.475C203.97 415.441 214.304 416.479 224.449 418.573C239.611 420.854 253.69 427.791 264.738 438.423C267.48 441.35 269.118 445.139 269.371 449.141C269.422 453.741 273.165 457.443 277.764 457.443H277.823C280.049 457.416 282.174 456.506 283.729 454.913C285.284 453.32 286.143 451.175 286.116 448.948C286.012 444.498 284.956 440.122 283.019 436.115C296.624 427.64 312.431 423.379 328.452 423.869C328.819 423.922 329.19 423.95 329.56 423.953C341.726 423.993 353.744 426.625 364.813 431.675C362.742 437.266 361.707 443.188 361.758 449.15C361.813 453.746 365.554 457.443 370.151 457.443H370.252C372.479 457.416 374.605 456.505 376.16 454.91C377.716 453.315 378.574 451.168 378.544 448.94C378.471 442.124 380.544 435.458 384.47 429.887C392.831 417.877 408.023 412.691 421.982 417.08C435.941 421.469 445.431 434.416 445.415 449.049C445.448 450.804 445.291 452.557 444.945 454.278C444.142 457.893 445.803 461.606 449.032 463.418C452.261 465.23 456.295 464.712 458.962 462.143C464.406 456.895 472.687 455.935 479.188 459.798C485.688 463.661 488.803 471.394 486.797 478.684C484.79 485.975 478.157 491.024 470.595 491.016V491.016Z" fill="currentColor"/>
<path d="M359.181 201.283C363.613 204.811 369.111 206.732 374.776 206.73C375.757 206.733 376.738 206.677 377.713 206.563C389.647 205.183 398.944 195.565 399.918 183.591C400.892 171.618 393.273 160.623 381.719 157.332C370.166 154.041 357.896 159.369 352.415 170.059C346.933 180.748 349.766 193.822 359.181 201.283V201.283ZM368.246 176.338C369.619 174.586 371.64 173.461 373.852 173.215C374.178 173.175 374.506 173.156 374.834 173.157C379.271 173.175 382.927 176.642 383.18 181.071C383.433 185.5 380.196 189.361 375.791 189.885C373.579 190.167 371.347 189.534 369.614 188.131C367.868 186.748 366.743 184.729 366.487 182.518C366.23 180.306 366.863 178.083 368.246 176.338Z" fill="currentColor"/>
<path d="M275.775 306.537C283.755 312.866 294.762 313.763 303.663 308.812C312.563 303.86 317.604 294.035 316.435 283.917C315.266 273.799 308.116 265.382 298.321 262.591C288.526 259.8 278.014 263.185 271.687 271.167C267.49 276.38 265.559 283.059 266.327 289.708C267.095 296.356 270.499 302.419 275.775 306.537ZM284.84 281.592C287.719 277.958 292.997 277.347 296.631 280.225C300.264 283.103 300.876 288.382 297.998 292.015C295.121 295.649 289.842 296.262 286.208 293.384C284.463 292.002 283.338 289.983 283.081 287.771C282.825 285.56 283.457 283.337 284.84 281.592Z" fill="currentColor"/>
<path d="M234.076 359.172C243.492 366.632 256.867 366.403 266.02 358.623C275.174 350.844 277.558 337.681 271.714 327.186C265.869 316.69 253.425 311.785 241.991 315.469C230.557 319.154 223.318 330.402 224.701 342.335C225.455 348.973 228.831 355.035 234.076 359.172V359.172ZM243.141 334.218C244.523 332.476 246.539 331.353 248.748 331.096C249.074 331.056 249.402 331.036 249.73 331.037C253.643 331.042 257.033 333.749 257.903 337.564C258.774 341.378 256.893 345.288 253.37 346.989C249.846 348.69 245.615 347.732 243.169 344.678C240.723 341.624 240.712 337.285 243.141 334.218V334.218Z" fill="currentColor"/>
<path d="M395.054 297.967C395.054 311.874 406.328 323.148 420.235 323.148C434.141 323.148 445.415 311.874 445.415 297.967C445.415 284.06 434.141 272.787 420.235 272.787C406.328 272.787 395.054 284.06 395.054 297.967ZM428.628 297.967C428.628 302.603 424.87 306.361 420.235 306.361C415.599 306.361 411.841 302.603 411.841 297.967C411.841 293.332 415.599 289.574 420.235 289.574C424.87 289.574 428.628 293.332 428.628 297.967Z" fill="currentColor"/>
<path d="M478.989 4.19672C465.082 4.19672 453.809 15.4703 453.809 29.377C453.809 43.2838 465.082 54.5574 478.989 54.5574C492.896 54.5574 504.169 43.2838 504.169 29.377C504.169 15.4703 492.896 4.19672 478.989 4.19672ZM478.989 37.7705C474.353 37.7705 470.595 34.0126 470.595 29.377C470.595 24.7415 474.353 20.9836 478.989 20.9836C483.624 20.9836 487.382 24.7415 487.382 29.377C487.382 31.6031 486.498 33.738 484.924 35.3121C483.35 36.8862 481.215 37.7705 478.989 37.7705Z" fill="currentColor"/>
<path d="M470.595 323.148C452.053 323.148 437.021 338.179 437.021 356.721C437.021 375.264 452.053 390.295 470.595 390.295C489.138 390.295 504.169 375.264 504.169 356.721C504.169 338.179 489.138 323.148 470.595 323.148ZM470.595 373.508C461.324 373.508 453.808 365.992 453.808 356.721C453.808 347.45 461.324 339.934 470.595 339.934C479.866 339.934 487.382 347.45 487.382 356.721C487.382 365.992 479.866 373.508 470.595 373.508Z" fill="currentColor"/>
<path d="M470.595 297.967C475.231 297.967 478.989 294.209 478.989 289.574C478.989 284.938 475.231 281.18 470.595 281.18C465.96 281.18 462.202 284.938 462.202 289.574C462.202 294.209 465.96 297.967 470.595 297.967Z" fill="currentColor"/>
<path d="M445.415 71.3443C450.05 71.3443 453.808 67.5864 453.808 62.9508C453.808 58.3152 450.05 54.5574 445.415 54.5574C440.779 54.5574 437.021 58.3152 437.021 62.9508C437.021 67.5864 440.779 71.3443 445.415 71.3443Z" fill="currentColor"/>
</g>

</svg>
