<svg width="510" height="228" viewBox="0 0 510 228" fill="none" xmlns="http://www.w3.org/2000/svg">
<path d="M35.8398 46.0586V211H13.8672V46.0586H35.8398ZM258.008 119.984V149.184C252.995 143.064 248.503 138.865 244.531 136.586C240.625 134.242 236.035 133.07 230.762 133.07C222.493 133.07 215.625 135.967 210.156 141.762C204.688 147.556 201.953 154.815 201.953 163.539C201.953 172.458 204.59 179.783 209.863 185.512C215.202 191.241 222.005 194.105 230.273 194.105C235.547 194.105 240.202 192.966 244.238 190.688C248.145 188.474 252.734 184.177 258.008 177.797V206.801C249.089 211.423 240.169 213.734 231.25 213.734C216.536 213.734 204.232 208.982 194.336 199.477C184.44 189.906 179.492 178.025 179.492 163.832C179.492 149.639 184.505 137.66 194.531 127.895C204.557 118.129 216.862 113.246 231.445 113.246C240.82 113.246 249.674 115.492 258.008 119.984ZM301.27 115.883V170.473C301.27 186.228 307.487 194.105 319.922 194.105C332.357 194.105 338.574 186.228 338.574 170.473V115.883H360.547V170.961C360.547 178.578 359.603 185.154 357.715 190.688C355.892 195.635 352.734 200.095 348.242 204.066C340.82 210.512 331.38 213.734 319.922 213.734C308.529 213.734 299.121 210.512 291.699 204.066C287.142 200.095 283.919 195.635 282.031 190.688C280.208 186.26 279.297 179.685 279.297 170.961V115.883H301.27ZM443.555 132.094L425.391 141.762C422.526 135.902 418.978 132.973 414.746 132.973C412.728 132.973 411.003 133.656 409.57 135.023C408.138 136.326 407.422 138.018 407.422 140.102C407.422 143.747 411.654 147.361 420.117 150.941C431.771 155.954 439.616 160.577 443.652 164.809C447.689 169.04 449.707 174.737 449.707 181.898C449.707 191.078 446.322 198.76 439.551 204.945C432.975 210.805 425.033 213.734 415.723 213.734C399.772 213.734 388.477 205.954 381.836 190.395L400.586 181.703C403.19 186.26 405.176 189.158 406.543 190.395C409.212 192.868 412.402 194.105 416.113 194.105C423.535 194.105 427.246 190.72 427.246 183.949C427.246 180.043 424.382 176.397 418.652 173.012C416.439 171.905 414.225 170.831 412.012 169.789C409.798 168.747 407.552 167.673 405.273 166.566C398.893 163.441 394.401 160.316 391.797 157.191C388.477 153.22 386.816 148.109 386.816 141.859C386.816 133.591 389.648 126.755 395.312 121.352C401.107 115.948 408.138 113.246 416.406 113.246C428.581 113.246 437.63 119.529 443.555 132.094Z" fill="black"/>
<path d="M59.1797 162.758C59.1797 149.021 64.0951 137.335 73.9258 127.699C83.7565 118.064 95.7357 113.246 109.863 113.246C124.056 113.246 136.1 118.096 145.996 127.797C155.762 137.497 160.645 149.411 160.645 163.539C160.645 177.797 155.729 189.743 145.898 199.379C136.003 208.949 123.861 213.734 109.473 213.734C95.2148 213.734 83.2682 208.852 73.6328 199.086C63.9974 189.451 59.1797 177.341 59.1797 162.758ZM81.6406 163.148C81.6406 172.654 84.1797 180.173 89.2578 185.707C94.4661 191.306 101.335 194.105 109.863 194.105C118.457 194.105 125.326 191.339 130.469 185.805C135.612 180.271 138.184 172.882 138.184 163.637C138.184 154.392 135.612 147.003 130.469 141.469C125.26 135.87 118.392 133.07 109.863 133.07C101.465 133.07 94.6615 135.87 89.4531 141.469C84.2448 147.068 81.6406 154.294 81.6406 163.148Z" fill="#454ADE"/>
<path d="M107.215 136.027C106.402 136.185 105.87 136.972 106.027 137.785C106.185 138.598 106.972 139.13 107.785 138.973L107.215 136.027ZM132.5 161.5C132.5 162.328 133.172 163 134 163C134.829 163 135.5 162.328 135.5 161.5L132.5 161.5ZM107.785 138.973C114.906 137.594 121.038 140.55 125.468 145.276C129.933 150.038 132.5 156.433 132.5 161.5L135.5 161.5C135.5 155.567 132.567 148.462 127.657 143.224C122.712 137.95 115.594 134.406 107.215 136.027L107.785 138.973Z" fill="#454ADE"/>
<path d="M157.793 75.7929C157.402 76.1834 157.402 76.8166 157.793 77.2071C158.183 77.5976 158.817 77.5976 159.207 77.2071L157.793 75.7929ZM176.005 85.0995C176.06 85.649 176.55 86.05 177.1 85.995C177.649 85.9401 178.05 85.45 177.995 84.9005L176.005 85.0995ZM159.207 77.2071C159.982 76.4323 161.317 75.8898 163.03 75.7301C164.724 75.5722 166.675 75.8013 168.55 76.4457C172.307 77.7373 175.556 80.6061 176.005 85.0995L177.995 84.9005C177.444 79.3939 173.443 76.0127 169.2 74.5543C167.075 73.8237 164.839 73.5528 162.845 73.7387C160.871 73.9227 159.018 74.5677 157.793 75.7929L159.207 77.2071Z" fill="#454ADE"/>
<circle cx="164.5" cy="87.5" r="19" stroke="#454ADE" stroke-width="7"/>
<path d="M131.86 21.7485C131.469 22.139 131.469 22.7721 131.86 23.1627C132.25 23.5532 132.883 23.5532 133.274 23.1627L131.86 21.7485ZM146.783 29.544C146.838 30.0935 147.328 30.4944 147.877 30.4395C148.427 30.3845 148.828 29.8945 148.773 29.3449L146.783 29.544ZM133.274 23.1627C133.871 22.5656 134.922 22.1287 136.308 21.9995C137.674 21.8722 139.253 22.0568 140.772 22.579C143.818 23.6262 146.422 25.9394 146.783 29.544L148.773 29.3449C148.311 24.7273 144.954 21.9016 141.422 20.6877C139.652 20.0793 137.789 19.8528 136.122 20.0081C134.476 20.1616 132.907 20.7011 131.86 21.7485L133.274 23.1627Z" fill="#454ADE"/>
<circle cx="138" cy="31" r="13.5" stroke="#454ADE" stroke-width="3"/>
</svg>
