<svg width="725" height="150" viewBox="0 0 725 150" fill="none" xmlns="http://www.w3.org/2000/svg">
<path d="M33.5 2.5L2 34V116L33.5 147.5H691L722.5 116V34L691 2.5H33.5Z" fill="#C4C4C4"/>
<path d="M33.5 2.5L2 34V116L33.5 147.5H691L722.5 116V34L691 2.5H33.5Z" fill="url(#paint0_linear)"/>
<path d="M33.5 2.5L2 34V116L33.5 147.5H691L722.5 116V34L691 2.5H33.5Z" stroke="black" stroke-width="4"/>
<path d="M137.844 109H37.358V44.422H53.056V93.02H137.844V109ZM277.868 92.644L261.7 109H164.692L148.524 92.644V60.684L164.692 44.422H261.7L277.868 60.684V92.644ZM261.7 93.02V60.308H164.692V93.02H261.7ZM414.754 109H304.774L288.606 92.644V60.684L304.774 44.422H414.754V60.308H304.304V93.02H414.754V109ZM554.819 92.644L538.651 109H441.643L425.475 92.644V44.422H441.173V93.02H539.309V44.422H554.819V92.644ZM693.303 92.644L677.135 109H566.591V93.114H677.135V81.928H579.281L565.557 67.358V60.684L581.725 44.422H689.543V60.308H581.725V69.426H678.827L693.303 84.842V92.644Z" fill="black"/>
<defs>
<linearGradient id="paint0_linear" x1="362.25" y1="2.5" x2="362.25" y2="147.5" gradientUnits="userSpaceOnUse">
<stop stop-color="white"/>
<stop offset="1" stop-color="white" stop-opacity="0"/>
</linearGradient>
</defs>
</svg>
