<svg width="446" height="293" viewBox="0 0 446 293" fill="none" xmlns="http://www.w3.org/2000/svg">
<rect x="-1" y="-1.99976" width="447" height="295" fill="url(#paint0_linear)"/>
<path d="M54 48.11C54 37.8881 61.4082 29.3563 71.1586 27.5664C70.8505 12.5433 85.5175 0.920957 100.555 5.38007C105.108 -4.22183 114.869 -10.9998 126.438 -10.9998C141.85 -10.9998 154.455 1.21152 155.012 16.4329C167.172 19.0698 176 29.8342 176 42.4127C176 57.0738 164.029 69.0002 149.312 69.0002H74.9688C63.4073 69.0002 54 59.6281 54 48.11Z" fill="#B4B4B4"/>
<path d="M318 57.1098C318 46.8878 325.408 38.3561 335.159 36.5662C334.851 21.543 349.517 9.92071 364.555 14.3798C369.108 4.77792 378.869 -2 390.438 -2C405.85 -2 418.455 10.2113 419.012 25.4326C431.172 28.0696 440 38.8339 440 51.4125C440 66.0736 428.029 78 413.312 78H338.969C327.407 78 318 68.6279 318 57.1098Z" fill="#B4B4B4"/>
<path d="M143 53.6709C143 41.2767 133.163 30.932 120.216 28.7617C120.625 10.5462 101.149 -3.54589 81.1805 1.86078C75.1347 -9.78152 62.1743 -17.9998 46.8125 -17.9998C26.3473 -17.9998 9.60945 -3.19358 8.86906 15.2623C-7.27746 18.4596 -19 31.5114 -19 46.7629C-19 64.5395 -3.10375 79.0002 16.4375 79.0002H115.156C130.508 79.0002 143 67.6366 143 53.6709Z" fill="#9B9B9B" fill-opacity="0.8"/>
<path d="M407 62.6706C407 50.2765 397.163 39.9318 384.216 37.7615C384.625 19.5459 365.149 5.45386 345.181 10.8605C339.135 -0.781769 326.174 -9 310.812 -9C290.347 -9 273.609 5.80617 272.869 24.2621C256.723 27.4593 245 40.5112 245 55.7626C245 73.5392 260.896 88 280.438 88H379.156C394.508 88 407 76.6363 407 62.6706Z" fill="#9B9B9B" fill-opacity="0.8"/>
<path d="M273 56.6709C273 44.2767 263.163 33.932 250.216 31.7617C250.625 13.5462 231.149 -0.545893 211.181 4.86078C205.135 -6.78152 192.174 -14.9998 176.812 -14.9998C156.347 -14.9998 139.609 -0.193584 138.869 18.2623C122.723 21.4596 111 34.5114 111 49.7629C111 67.5395 126.896 82.0002 146.438 82.0002H245.156C260.508 82.0002 273 70.6366 273 56.6709Z" fill="#9B9B9B" fill-opacity="0.8"/>
<path d="M537 65.6706C537 53.2765 527.163 42.9318 514.216 40.7615C514.625 22.5459 495.149 8.45386 475.181 13.8605C469.135 2.21823 456.174 -6 440.812 -6C420.347 -6 403.609 8.80617 402.869 27.2621C386.723 30.4593 375 43.5112 375 58.7626C375 76.5392 390.896 91 410.438 91H509.156C524.508 91 537 79.6363 537 65.6706Z" fill="#9B9B9B" fill-opacity="0.8"/>
<path d="M228 65.0715C228 57.2772 222.353 50.7718 214.92 49.407C215.155 37.9518 203.974 29.0898 192.511 32.4899C189.04 25.1684 181.6 20.0002 172.781 20.0002C161.033 20.0002 151.424 29.3113 150.999 40.9176C141.73 42.9283 135 51.1361 135 60.7272C135 71.9064 144.126 81.0002 155.344 81.0002H212.016C220.829 81.0002 228 73.854 228 65.0715Z" fill="#999595" fill-opacity="0.8"/>
<path d="M492 74.0712C492 66.277 486.353 59.7715 478.92 58.4067C479.155 46.9516 467.974 38.0895 456.511 41.4896C453.04 34.1682 445.6 29 436.781 29C425.033 29 415.424 38.3111 414.999 49.9174C405.73 51.928 399 60.1359 399 69.727C399 80.9061 408.126 90 419.344 90H476.016C484.829 90 492 82.8538 492 74.0712Z" fill="#999595" fill-opacity="0.8"/>
<defs>
<linearGradient id="paint0_linear" x1="222.5" y1="-1.99976" x2="222.5" y2="293" gradientUnits="userSpaceOnUse">
<stop stop-color="#B9BDBF"/>
<stop offset="1" stop-color="#265171"/>
</linearGradient>
</defs>
</svg>
