<svg width="446" height="293" viewBox="0 0 446 293" fill="none" xmlns="http://www.w3.org/2000/svg">
<rect x="-1" y="-1.99976" width="445" height="295" fill="url(#paint0_linear)"/>
<path d="M9.63227 81.3338C9.44941 79.5456 8.61239 80.8197 7.76275 84.1805L0.882623 111.393C-0.268939 115.948 -0.738576 121.395 -0.0153204 121.524C0.345662 121.589 0.942057 120.254 1.54471 117.871L8.42484 90.6577C9.27448 87.2969 9.8151 83.1225 9.63227 81.3338Z" fill="#6297FE" fill-opacity="0.6"/>
<path d="M14.6323 106.334C14.4494 104.546 13.6124 105.82 12.7628 109.181L5.88262 136.393C4.73106 140.948 4.26142 146.395 4.98468 146.524C5.34566 146.589 5.94206 145.254 6.54471 142.871L13.4248 115.658C14.2745 112.297 14.8151 108.123 14.6323 106.334Z" fill="#6297FE" fill-opacity="0.6"/>
<path d="M-0.367734 221.334C-0.550587 219.546 -1.38761 220.82 -2.23725 224.181L-9.11738 251.393C-10.2689 255.948 -10.7386 261.395 -10.0153 261.524C-9.65434 261.589 -9.05794 260.254 -8.45529 257.871L-1.57516 230.658C-0.725524 227.297 -0.184897 223.123 -0.367734 221.334Z" fill="#6297FE" fill-opacity="0.6"/>
<path d="M42.6323 82.3338C42.4494 80.5456 41.6124 81.8197 40.7628 85.1805L33.8826 112.393C32.7311 116.948 32.2614 122.395 32.9847 122.524C33.3457 122.589 33.9421 121.254 34.5447 118.871L41.4248 91.6577C42.2745 88.2969 42.8151 84.1225 42.6323 82.3338Z" fill="#6297FE" fill-opacity="0.6"/>
<path d="M27.6323 197.334C27.4494 195.546 26.6124 196.82 25.7628 200.181L18.8826 227.393C17.7311 231.948 17.2614 237.395 17.9847 237.524C18.3457 237.589 18.9421 236.254 19.5447 233.871L26.4248 206.658C27.2745 203.297 27.8151 199.123 27.6323 197.334Z" fill="#6297FE" fill-opacity="0.6"/>
<path d="M21.6323 135.334C21.4494 133.546 20.6124 134.82 19.7628 138.181L12.8826 165.393C11.7311 169.948 11.2614 175.395 11.9847 175.524C12.3457 175.589 12.9421 174.254 13.5447 171.871L20.4248 144.658C21.2745 141.297 21.8151 137.123 21.6323 135.334Z" fill="#6297FE" fill-opacity="0.6"/>
<path d="M6.63227 250.334C6.44941 248.546 5.61239 249.82 4.76275 253.181L-2.11738 280.393C-3.26894 284.948 -3.73858 290.395 -3.01532 290.524C-2.65434 290.589 -2.05794 289.254 -1.45529 286.871L5.42484 259.658C6.27448 256.297 6.8151 252.123 6.63227 250.334Z" fill="#6297FE" fill-opacity="0.6"/>
<path d="M67.6323 95.3338C67.4494 93.5456 66.6124 94.8197 65.7628 98.1805L58.8826 125.393C57.7311 129.948 57.2614 135.395 57.9847 135.524C58.3457 135.589 58.9421 134.254 59.5447 131.871L66.4248 104.658C67.2745 101.297 67.8151 97.1225 67.6323 95.3338Z" fill="#6297FE" fill-opacity="0.6"/>
<path d="M52.6323 210.334C52.4494 208.546 51.6124 209.82 50.7628 213.181L43.8826 240.393C42.7311 244.948 42.2614 250.395 42.9847 250.524C43.3457 250.589 43.9421 249.254 44.5447 246.871L51.4248 219.658C52.2745 216.297 52.8151 212.123 52.6323 210.334Z" fill="#6297FE" fill-opacity="0.6"/>
<path d="M110.632 67.3338C110.449 65.5456 109.612 66.8197 108.763 70.1805L101.883 97.3934C100.731 101.948 100.261 107.395 100.985 107.524C101.346 107.589 101.942 106.254 102.545 103.871L109.425 76.6577C110.274 73.2969 110.815 69.1225 110.632 67.3338Z" fill="#6297FE" fill-opacity="0.6"/>
<path d="M95.6323 182.334C95.4494 180.546 94.6124 181.82 93.7628 185.181L86.8826 212.393C85.7311 216.948 85.2614 222.395 85.9847 222.524C86.3457 222.589 86.9421 221.254 87.5447 218.871L94.4248 191.658C95.2745 188.297 95.8151 184.123 95.6323 182.334Z" fill="#6297FE" fill-opacity="0.6"/>
<path d="M117.632 129.334C117.449 127.546 116.612 128.82 115.763 132.181L108.883 159.393C107.731 163.948 107.261 169.395 107.985 169.524C108.346 169.589 108.942 168.254 109.545 165.871L116.425 138.658C117.274 135.297 117.815 131.123 117.632 129.334Z" fill="#6297FE" fill-opacity="0.6"/>
<path d="M102.632 244.334C102.449 242.546 101.612 243.82 100.763 247.181L93.8826 274.393C92.7311 278.948 92.2614 284.395 92.9847 284.524C93.3457 284.589 93.9421 283.254 94.5447 280.871L101.425 253.658C102.274 250.297 102.815 246.123 102.632 244.334Z" fill="#6297FE" fill-opacity="0.6"/>
<path d="M150.632 88.3338C150.449 86.5456 149.612 87.8197 148.763 91.1805L141.883 118.393C140.731 122.948 140.261 128.395 140.985 128.524C141.346 128.589 141.942 127.254 142.545 124.871L149.425 97.6577C150.274 94.2969 150.815 90.1225 150.632 88.3338Z" fill="#6297FE" fill-opacity="0.6"/>
<path d="M135.632 203.334C135.449 201.546 134.612 202.82 133.763 206.181L126.883 233.393C125.731 237.948 125.261 243.395 125.985 243.524C126.346 243.589 126.942 242.254 127.545 239.871L134.425 212.658C135.274 209.297 135.815 205.123 135.632 203.334Z" fill="#6297FE" fill-opacity="0.6"/>
<path d="M157.632 116.334C157.449 114.546 156.612 115.82 155.763 119.181L148.883 146.393C147.731 150.948 147.261 156.395 147.985 156.524C148.346 156.589 148.942 155.254 149.545 152.871L156.425 125.658C157.274 122.297 157.815 118.123 157.632 116.334Z" fill="#6297FE" fill-opacity="0.6"/>
<path d="M142.632 231.334C142.449 229.546 141.612 230.82 140.763 234.181L133.883 261.393C132.731 265.948 132.261 271.395 132.985 271.524C133.346 271.589 133.942 270.254 134.545 267.871L141.425 240.658C142.274 237.297 142.815 233.123 142.632 231.334Z" fill="#6297FE" fill-opacity="0.6"/>
<path d="M77.6323 139.334C77.4494 137.546 76.6124 138.82 75.7628 142.181L68.8826 169.393C67.7311 173.948 67.2614 179.395 67.9847 179.524C68.3457 179.589 68.9421 178.254 69.5447 175.871L76.4248 148.658C77.2745 145.297 77.8151 141.123 77.6323 139.334Z" fill="#6297FE" fill-opacity="0.6"/>
<path d="M62.6323 254.334C62.4494 252.546 61.6124 253.82 60.7628 257.181L53.8826 284.393C52.7311 288.948 52.2614 294.395 52.9847 294.524C53.3457 294.589 53.9421 293.254 54.5447 290.871L61.4248 263.658C62.2745 260.297 62.8151 256.123 62.6323 254.334Z" fill="#6297FE" fill-opacity="0.6"/>
<path d="M183.632 96.3338C183.449 94.5456 182.612 95.8197 181.763 99.1805L174.883 126.393C173.731 130.948 173.261 136.395 173.985 136.524C174.346 136.589 174.942 135.254 175.545 132.871L182.425 105.658C183.274 102.297 183.815 98.1225 183.632 96.3338Z" fill="#6297FE" fill-opacity="0.6"/>
<path d="M168.632 211.334C168.449 209.546 167.612 210.82 166.763 214.181L159.883 241.393C158.731 245.948 158.261 251.395 158.985 251.524C159.346 251.589 159.942 250.254 160.545 247.871L167.425 220.658C168.274 217.297 168.815 213.123 168.632 211.334Z" fill="#6297FE" fill-opacity="0.6"/>
<path d="M211.632 51.3338C211.449 49.5456 210.612 50.8197 209.763 54.1805L202.883 81.3934C201.731 85.9482 201.261 91.3954 201.985 91.5243C202.346 91.5886 202.942 90.2543 203.545 87.8706L210.425 60.6577C211.274 57.2969 211.815 53.1225 211.632 51.3338Z" fill="#6297FE" fill-opacity="0.6"/>
<path d="M196.632 166.334C196.449 164.546 195.612 165.82 194.763 169.181L187.883 196.393C186.731 200.948 186.261 206.395 186.985 206.524C187.346 206.589 187.942 205.254 188.545 202.871L195.425 175.658C196.274 172.297 196.815 168.123 196.632 166.334Z" fill="#6297FE" fill-opacity="0.6"/>
<path d="M224.632 111.334C224.449 109.546 223.612 110.82 222.763 114.181L215.883 141.393C214.731 145.948 214.261 151.395 214.985 151.524C215.346 151.589 215.942 150.254 216.545 147.871L223.425 120.658C224.274 117.297 224.815 113.123 224.632 111.334Z" fill="#6297FE" fill-opacity="0.6"/>
<path d="M209.632 226.334C209.449 224.546 208.612 225.82 207.763 229.181L200.883 256.393C199.731 260.948 199.261 266.395 199.985 266.524C200.346 266.589 200.942 265.254 201.545 262.871L208.425 235.658C209.274 232.297 209.815 228.123 209.632 226.334Z" fill="#6297FE" fill-opacity="0.6"/>
<path d="M195.632 137.334C195.449 135.546 194.612 136.82 193.763 140.181L186.883 167.393C185.731 171.948 185.261 177.395 185.985 177.524C186.346 177.589 186.942 176.254 187.545 173.871L194.425 146.658C195.274 143.297 195.815 139.123 195.632 137.334Z" fill="#6297FE" fill-opacity="0.6"/>
<path d="M180.632 252.334C180.449 250.546 179.612 251.82 178.763 255.181L171.883 282.393C170.731 286.948 170.261 292.395 170.985 292.524C171.346 292.589 171.942 291.254 172.545 288.871L179.425 261.658C180.274 258.297 180.815 254.123 180.632 252.334Z" fill="#6297FE" fill-opacity="0.6"/>
<path d="M49 42.8828C49 27.858 59.8694 15.3176 74.1754 12.6867C73.7233 -9.39503 95.2428 -26.4781 117.307 -19.9239C123.987 -34.0372 138.307 -43.9998 155.281 -43.9998C177.894 -43.9998 196.388 -26.051 197.206 -3.67788C215.047 0.197983 228 16.02 228 34.5086C228 56.0582 210.436 73.5883 188.844 73.5883H79.7656C62.8026 73.5883 49 59.8127 49 42.8828Z" fill="#A8A2A2"/>
<path d="M89 47.8828C89 32.858 78.1306 20.3176 63.8246 17.6867C64.2767 -4.39503 42.7572 -21.4781 20.6933 -14.9239C14.013 -29.0372 -0.307365 -38.9998 -17.2812 -38.9998C-39.894 -38.9998 -58.3883 -21.051 -59.2064 1.32212C-77.0473 5.19798 -90 21.02 -90 39.5086C-90 61.0582 -72.4356 78.5883 -50.8438 78.5883H58.2344C75.1974 78.5883 89 64.8127 89 47.8828Z" fill="#C9C9C9"/>
<path d="M265.632 82.3336C265.449 80.5453 264.612 81.8195 263.763 85.1803L256.883 112.393C255.731 116.948 255.261 122.395 255.985 122.524C256.346 122.588 256.942 121.254 257.545 118.87L264.425 91.6575C265.274 88.2967 265.815 84.1223 265.632 82.3336Z" fill="#6297FE" fill-opacity="0.6"/>
<path d="M270.632 107.334C270.449 105.545 269.612 106.819 268.763 110.18L261.883 137.393C260.731 141.948 260.261 147.395 260.985 147.524C261.346 147.588 261.942 146.254 262.545 143.87L269.425 116.657C270.274 113.297 270.815 109.122 270.632 107.334Z" fill="#6297FE" fill-opacity="0.6"/>
<path d="M255.632 222.334C255.449 220.545 254.612 221.819 253.763 225.18L246.883 252.393C245.731 256.948 245.261 262.395 245.985 262.524C246.346 262.588 246.942 261.254 247.545 258.87L254.425 231.657C255.274 228.297 255.815 224.122 255.632 222.334Z" fill="#6297FE" fill-opacity="0.6"/>
<path d="M298.632 83.3336C298.449 81.5453 297.612 82.8195 296.763 86.1803L289.883 113.393C288.731 117.948 288.261 123.395 288.985 123.524C289.346 123.588 289.942 122.254 290.545 119.87L297.425 92.6575C298.274 89.2967 298.815 85.1223 298.632 83.3336Z" fill="#6297FE" fill-opacity="0.6"/>
<path d="M283.632 198.334C283.449 196.545 282.612 197.819 281.763 201.18L274.883 228.393C273.731 232.948 273.261 238.395 273.985 238.524C274.346 238.588 274.942 237.254 275.545 234.87L282.425 207.657C283.274 204.297 283.815 200.122 283.632 198.334Z" fill="#6297FE" fill-opacity="0.6"/>
<path d="M277.632 136.334C277.449 134.545 276.612 135.819 275.763 139.18L268.883 166.393C267.731 170.948 267.261 176.395 267.985 176.524C268.346 176.588 268.942 175.254 269.545 172.87L276.425 145.657C277.274 142.297 277.815 138.122 277.632 136.334Z" fill="#6297FE" fill-opacity="0.6"/>
<path d="M262.632 251.334C262.449 249.545 261.612 250.819 260.763 254.18L253.883 281.393C252.731 285.948 252.261 291.395 252.985 291.524C253.346 291.588 253.942 290.254 254.545 287.87L261.425 260.657C262.274 257.297 262.815 253.122 262.632 251.334Z" fill="#6297FE" fill-opacity="0.6"/>
<path d="M323.632 96.3336C323.449 94.5453 322.612 95.8195 321.763 99.1803L314.883 126.393C313.731 130.948 313.261 136.395 313.985 136.524C314.346 136.588 314.942 135.254 315.545 132.87L322.425 105.657C323.274 102.297 323.815 98.1223 323.632 96.3336Z" fill="#6297FE" fill-opacity="0.6"/>
<path d="M308.632 211.334C308.449 209.545 307.612 210.819 306.763 214.18L299.883 241.393C298.731 245.948 298.261 251.395 298.985 251.524C299.346 251.588 299.942 250.254 300.545 247.87L307.425 220.657C308.274 217.297 308.815 213.122 308.632 211.334Z" fill="#6297FE" fill-opacity="0.6"/>
<path d="M366.632 68.3336C366.449 66.5453 365.612 67.8195 364.763 71.1803L357.883 98.3932C356.731 102.948 356.261 108.395 356.985 108.524C357.346 108.588 357.942 107.254 358.545 104.87L365.425 77.6575C366.274 74.2967 366.815 70.1223 366.632 68.3336Z" fill="#6297FE" fill-opacity="0.6"/>
<path d="M351.632 183.334C351.449 181.545 350.612 182.819 349.763 186.18L342.883 213.393C341.731 217.948 341.261 223.395 341.985 223.524C342.346 223.588 342.942 222.254 343.545 219.87L350.425 192.657C351.274 189.297 351.815 185.122 351.632 183.334Z" fill="#6297FE" fill-opacity="0.6"/>
<path d="M373.632 130.334C373.449 128.545 372.612 129.819 371.763 133.18L364.883 160.393C363.731 164.948 363.261 170.395 363.985 170.524C364.346 170.588 364.942 169.254 365.545 166.87L372.425 139.657C373.274 136.297 373.815 132.122 373.632 130.334Z" fill="#6297FE" fill-opacity="0.6"/>
<path d="M358.632 245.334C358.449 243.545 357.612 244.819 356.763 248.18L349.883 275.393C348.731 279.948 348.261 285.395 348.985 285.524C349.346 285.588 349.942 284.254 350.545 281.87L357.425 254.657C358.274 251.297 358.815 247.122 358.632 245.334Z" fill="#6297FE" fill-opacity="0.6"/>
<path d="M406.632 89.3336C406.449 87.5453 405.612 88.8195 404.763 92.1803L397.883 119.393C396.731 123.948 396.261 129.395 396.985 129.524C397.346 129.588 397.942 128.254 398.545 125.87L405.425 98.6575C406.274 95.2967 406.815 91.1223 406.632 89.3336Z" fill="#6297FE" fill-opacity="0.6"/>
<path d="M391.632 204.334C391.449 202.545 390.612 203.819 389.763 207.18L382.883 234.393C381.731 238.948 381.261 244.395 381.985 244.524C382.346 244.588 382.942 243.254 383.545 240.87L390.425 213.657C391.274 210.297 391.815 206.122 391.632 204.334Z" fill="#6297FE" fill-opacity="0.6"/>
<path d="M413.632 117.334C413.449 115.545 412.612 116.819 411.763 120.18L404.883 147.393C403.731 151.948 403.261 157.395 403.985 157.524C404.346 157.588 404.942 156.254 405.545 153.87L412.425 126.657C413.274 123.297 413.815 119.122 413.632 117.334Z" fill="#6297FE" fill-opacity="0.6"/>
<path d="M398.632 232.334C398.449 230.545 397.612 231.819 396.763 235.18L389.883 262.393C388.731 266.948 388.261 272.395 388.985 272.524C389.346 272.588 389.942 271.254 390.545 268.87L397.425 241.657C398.274 238.297 398.815 234.122 398.632 232.334Z" fill="#6297FE" fill-opacity="0.6"/>
<path d="M333.632 140.334C333.449 138.545 332.612 139.819 331.763 143.18L324.883 170.393C323.731 174.948 323.261 180.395 323.985 180.524C324.346 180.588 324.942 179.254 325.545 176.87L332.425 149.657C333.274 146.297 333.815 142.122 333.632 140.334Z" fill="#6297FE" fill-opacity="0.6"/>
<path d="M318.632 255.334C318.449 253.545 317.612 254.819 316.763 258.18L309.883 285.393C308.731 289.948 308.261 295.395 308.985 295.524C309.346 295.588 309.942 294.254 310.545 291.87L317.425 264.657C318.274 261.297 318.815 257.122 318.632 255.334Z" fill="#6297FE" fill-opacity="0.6"/>
<path d="M439.632 97.3336C439.449 95.5453 438.612 96.8195 437.763 100.18L430.883 127.393C429.731 131.948 429.261 137.395 429.985 137.524C430.346 137.588 430.942 136.254 431.545 133.87L438.425 106.657C439.274 103.297 439.815 99.1223 439.632 97.3336Z" fill="#6297FE" fill-opacity="0.6"/>
<path d="M424.632 212.334C424.449 210.545 423.612 211.819 422.763 215.18L415.883 242.393C414.731 246.948 414.261 252.395 414.985 252.524C415.346 252.588 415.942 251.254 416.545 248.87L423.425 221.657C424.274 218.297 424.815 214.122 424.632 212.334Z" fill="#6297FE" fill-opacity="0.6"/>
<path d="M452.632 167.334C452.449 165.545 451.612 166.819 450.763 170.18L443.883 197.393C442.731 201.948 442.261 207.395 442.985 207.524C443.346 207.588 443.942 206.254 444.545 203.87L451.425 176.657C452.274 173.297 452.815 169.122 452.632 167.334Z" fill="#6297FE" fill-opacity="0.6"/>
<path d="M451.632 138.334C451.449 136.545 450.612 137.819 449.763 141.18L442.883 168.393C441.731 172.948 441.261 178.395 441.985 178.524C442.346 178.588 442.942 177.254 443.545 174.87L450.425 147.657C451.274 144.297 451.815 140.122 451.632 138.334Z" fill="#6297FE" fill-opacity="0.6"/>
<path d="M436.632 253.334C436.449 251.545 435.612 252.819 434.763 256.18L427.883 283.393C426.731 287.948 426.261 293.395 426.985 293.524C427.346 293.588 427.942 292.254 428.545 289.87L435.425 262.657C436.274 259.297 436.815 255.122 436.632 253.334Z" fill="#6297FE" fill-opacity="0.6"/>
<path d="M212 34.0208C212 22.7766 220.076 13.3917 230.706 11.4228C230.37 -5.10267 246.359 -17.8872 262.753 -12.9822C267.717 -23.5443 278.357 -31 290.969 -31C307.77 -31 321.512 -17.5676 322.12 -0.824095C335.376 2.07651 345 13.9173 345 27.7537C345 43.8809 331.949 57 315.906 57H234.859C222.256 57 212 46.6907 212 34.0208Z" fill="#A8A2A2"/>
<path opacity="0.9" d="M497 50.1929C497 38.0543 486.677 27.9229 473.09 25.7973C473.52 7.95735 453.082 -5.84415 432.128 -0.548962C425.783 -11.9512 412.183 -20 396.062 -20C374.587 -20 357.022 -5.49911 356.245 12.5763C339.301 15.7076 327 28.4903 327 43.4273C327 60.8374 343.681 75 364.188 75H467.781C483.891 75 497 63.8706 497 50.1929Z" fill="#C9C9C9"/>
<path d="M412 60.1929C412 48.0543 401.677 37.9229 388.09 35.7973C388.52 17.9573 368.082 4.15585 347.128 9.45104C340.783 -1.95122 327.183 -10 311.062 -10C289.587 -10 272.022 4.50089 271.245 22.5763C254.301 25.7076 242 38.4903 242 53.4273C242 70.8374 258.681 85 279.188 85H382.781C398.891 85 412 73.8706 412 60.1929Z" fill="#C9C9C9"/>
<defs>
<linearGradient id="paint0_linear" x1="221.5" y1="-1.99976" x2="221.5" y2="293" gradientUnits="userSpaceOnUse">
<stop stop-color="#9A9B9C"/>
<stop offset="1" stop-color="#22567C"/>
</linearGradient>
</defs>
</svg>
