<svg width="446" height="293" viewBox="0 0 446 293" fill="none" xmlns="http://www.w3.org/2000/svg">
<rect x="-1" y="-1.99976" width="447" height="295" fill="url(#paint0_linear)"/>
<path d="M9.63227 81.3338C9.44941 79.5456 8.61239 80.8197 7.76275 84.1805L0.882623 111.393C-0.268939 115.948 -0.738576 121.395 -0.0153204 121.524C0.345662 121.589 0.942057 120.254 1.54471 117.871L8.42484 90.6577C9.27448 87.2969 9.8151 83.1225 9.63227 81.3338Z" fill="#6297FE" fill-opacity="0.6"/>
<path d="M18.6323 112.334C18.4494 110.546 17.6124 111.82 16.7628 115.181L9.88262 142.393C8.73106 146.948 8.26142 152.395 8.98468 152.524C9.34566 152.589 9.94206 151.254 10.5447 148.871L17.4248 121.658C18.2745 118.297 18.8151 114.123 18.6323 112.334Z" fill="#6297FE" fill-opacity="0.6"/>
<path d="M66.6323 106.334C66.4494 104.546 65.6124 105.82 64.7628 109.181L57.8826 136.393C56.7311 140.948 56.2614 146.395 56.9847 146.524C57.3457 146.589 57.9421 145.254 58.5447 142.871L65.4248 115.658C66.2745 112.297 66.8151 108.123 66.6323 106.334Z" fill="#6297FE" fill-opacity="0.6"/>
<path d="M94.6323 127.334C94.4494 125.546 93.6124 126.82 92.7628 130.181L85.8826 157.393C84.7311 161.948 84.2614 167.395 84.9847 167.524C85.3457 167.589 85.9421 166.254 86.5447 163.871L93.4248 136.658C94.2745 133.297 94.8151 129.123 94.6323 127.334Z" fill="#6297FE" fill-opacity="0.6"/>
<path d="M103.632 64.3338C103.449 62.5456 102.612 63.8197 101.763 67.1805L94.8826 94.3934C93.7311 98.9482 93.2614 104.395 93.9847 104.524C94.3457 104.589 94.9421 103.254 95.5447 100.871L102.425 73.6577C103.274 70.2969 103.815 66.1225 103.632 64.3338Z" fill="#6297FE" fill-opacity="0.6"/>
<path d="M147.632 70.3338C147.449 68.5456 146.612 69.8197 145.763 73.1805L138.883 100.393C137.731 104.948 137.261 110.395 137.985 110.524C138.346 110.589 138.942 109.254 139.545 106.871L146.425 79.6577C147.274 76.2969 147.815 72.1225 147.632 70.3338Z" fill="#6297FE" fill-opacity="0.6"/>
<path d="M217.632 45.3338C217.449 43.5456 216.612 44.8197 215.763 48.1805L208.883 75.3934C207.731 79.9482 207.261 85.3954 207.985 85.5243C208.346 85.5886 208.942 84.2543 209.545 81.8706L216.425 54.6577C217.274 51.2969 217.815 47.1225 217.632 45.3338Z" fill="#6297FE" fill-opacity="0.6"/>
<path d="M183.632 106.334C183.449 104.546 182.612 105.82 181.763 109.181L174.883 136.393C173.731 140.948 173.261 146.395 173.985 146.524C174.346 146.589 174.942 145.254 175.545 142.871L182.425 115.658C183.274 112.297 183.815 108.123 183.632 106.334Z" fill="#6297FE" fill-opacity="0.6"/>
<path d="M185.632 182.334C185.449 180.546 184.612 181.82 183.763 185.181L176.883 212.393C175.731 216.948 175.261 222.395 175.985 222.524C176.346 222.589 176.942 221.254 177.545 218.871L184.425 191.658C185.274 188.297 185.815 184.123 185.632 182.334Z" fill="#6297FE" fill-opacity="0.6"/>
<path d="M207.632 236.334C207.449 234.546 206.612 235.82 205.763 239.181L198.883 266.393C197.731 270.948 197.261 276.395 197.985 276.524C198.346 276.589 198.942 275.254 199.545 272.871L206.425 245.658C207.274 242.297 207.815 238.123 207.632 236.334Z" fill="#6297FE" fill-opacity="0.6"/>
<path d="M140.632 244.334C140.449 242.546 139.612 243.82 138.763 247.181L131.883 274.393C130.731 278.948 130.261 284.395 130.985 284.524C131.346 284.589 131.942 283.254 132.545 280.871L139.425 253.658C140.274 250.297 140.815 246.123 140.632 244.334Z" fill="#6297FE" fill-opacity="0.6"/>
<path d="M104.632 217.334C104.449 215.546 103.612 216.82 102.763 220.181L95.8826 247.393C94.7311 251.948 94.2614 257.395 94.9847 257.524C95.3457 257.589 95.9421 256.254 96.5447 253.871L103.425 226.658C104.274 223.297 104.815 219.123 104.632 217.334Z" fill="#6297FE" fill-opacity="0.6"/>
<path d="M134.632 153.334C134.449 151.546 133.612 152.82 132.763 156.181L125.883 183.393C124.731 187.948 124.261 193.395 124.985 193.524C125.346 193.589 125.942 192.254 126.545 189.871L133.425 162.658C134.274 159.297 134.815 155.123 134.632 153.334Z" fill="#6297FE" fill-opacity="0.6"/>
<path d="M42.6323 206.334C42.4494 204.546 41.6124 205.82 40.7628 209.181L33.8826 236.393C32.7311 240.948 32.2614 246.395 32.9847 246.524C33.3457 246.589 33.9421 245.254 34.5447 242.871L41.4248 215.658C42.2745 212.297 42.8151 208.123 42.6323 206.334Z" fill="#6297FE" fill-opacity="0.6"/>
<path d="M12.6323 179.334C12.4494 177.546 11.6124 178.82 10.7628 182.181L3.88262 209.393C2.73106 213.948 2.26142 219.395 2.98468 219.524C3.34566 219.589 3.94206 218.254 4.54471 215.871L11.4248 188.658C12.2745 185.297 12.8151 181.123 12.6323 179.334Z" fill="#6297FE" fill-opacity="0.6"/>
<path d="M38.6323 267.334C38.4494 265.546 37.6124 266.82 36.7628 270.181L29.8826 297.393C28.7311 301.948 28.2614 307.395 28.9847 307.524C29.3457 307.589 29.9421 306.254 30.5447 303.871L37.4248 276.658C38.2745 273.297 38.8151 269.123 38.6323 267.334Z" fill="#6297FE" fill-opacity="0.6"/>
<path d="M49 42.8828C49 27.858 59.8694 15.3176 74.1754 12.6867C73.7233 -9.39503 95.2428 -26.4781 117.307 -19.9239C123.987 -34.0372 138.307 -43.9998 155.281 -43.9998C177.894 -43.9998 196.388 -26.051 197.206 -3.67788C215.047 0.197983 228 16.02 228 34.5086C228 56.0582 210.436 73.5883 188.844 73.5883H79.7656C62.8026 73.5883 49 59.8127 49 42.8828Z" fill="#A8A2A2"/>
<path d="M89 47.8828C89 32.858 78.1306 20.3176 63.8246 17.6867C64.2767 -4.39503 42.7572 -21.4781 20.6933 -14.9239C14.013 -29.0372 -0.307365 -38.9998 -17.2812 -38.9998C-39.894 -38.9998 -58.3883 -21.051 -59.2064 1.32212C-77.0473 5.19798 -90 21.02 -90 39.5086C-90 61.0582 -72.4356 78.5883 -50.8438 78.5883H58.2344C75.1974 78.5883 89 64.8127 89 47.8828Z" fill="#C9C9C9"/>
<path d="M261.632 81.3336C261.449 79.5453 260.612 80.8195 259.763 84.1803L252.883 111.393C251.731 115.948 251.261 121.395 251.985 121.524C252.346 121.588 252.942 120.254 253.545 117.87L260.425 90.6575C261.274 87.2967 261.815 83.1223 261.632 81.3336Z" fill="#6297FE" fill-opacity="0.6"/>
<path d="M270.632 112.334C270.449 110.545 269.612 111.819 268.763 115.18L261.883 142.393C260.731 146.948 260.261 152.395 260.985 152.524C261.346 152.588 261.942 151.254 262.545 148.87L269.425 121.657C270.274 118.297 270.815 114.122 270.632 112.334Z" fill="#6297FE" fill-opacity="0.6"/>
<path d="M318.632 106.334C318.449 104.545 317.612 105.819 316.763 109.18L309.883 136.393C308.731 140.948 308.261 146.395 308.985 146.524C309.346 146.588 309.942 145.254 310.545 142.87L317.425 115.657C318.274 112.297 318.815 108.122 318.632 106.334Z" fill="#6297FE" fill-opacity="0.6"/>
<path d="M346.632 127.334C346.449 125.545 345.612 126.819 344.763 130.18L337.883 157.393C336.731 161.948 336.261 167.395 336.985 167.524C337.346 167.588 337.942 166.254 338.545 163.87L345.425 136.657C346.274 133.297 346.815 129.122 346.632 127.334Z" fill="#6297FE" fill-opacity="0.6"/>
<path d="M355.632 64.3336C355.449 62.5453 354.612 63.8195 353.763 67.1803L346.883 94.3932C345.731 98.9479 345.261 104.395 345.985 104.524C346.346 104.588 346.942 103.254 347.545 100.87L354.425 73.6575C355.274 70.2967 355.815 66.1223 355.632 64.3336Z" fill="#6297FE" fill-opacity="0.6"/>
<path d="M399.632 70.3336C399.449 68.5453 398.612 69.8195 397.763 73.1803L390.883 100.393C389.731 104.948 389.261 110.395 389.985 110.524C390.346 110.588 390.942 109.254 391.545 106.87L398.425 79.6575C399.274 76.2967 399.815 72.1223 399.632 70.3336Z" fill="#6297FE" fill-opacity="0.6"/>
<path d="M435.632 106.334C435.449 104.545 434.612 105.819 433.763 109.18L426.883 136.393C425.731 140.948 425.261 146.395 425.985 146.524C426.346 146.588 426.942 145.254 427.545 142.87L434.425 115.657C435.274 112.297 435.815 108.122 435.632 106.334Z" fill="#6297FE" fill-opacity="0.6"/>
<path d="M437.632 182.334C437.449 180.545 436.612 181.819 435.763 185.18L428.883 212.393C427.731 216.948 427.261 222.395 427.985 222.524C428.346 222.588 428.942 221.254 429.545 218.87L436.425 191.657C437.274 188.297 437.815 184.122 437.632 182.334Z" fill="#6297FE" fill-opacity="0.6"/>
<path d="M392.632 244.334C392.449 242.545 391.612 243.819 390.763 247.18L383.883 274.393C382.731 278.948 382.261 284.395 382.985 284.524C383.346 284.588 383.942 283.254 384.545 280.87L391.425 253.657C392.274 250.297 392.815 246.122 392.632 244.334Z" fill="#6297FE" fill-opacity="0.6"/>
<path d="M356.632 217.334C356.449 215.545 355.612 216.819 354.763 220.18L347.883 247.393C346.731 251.948 346.261 257.395 346.985 257.524C347.346 257.588 347.942 256.254 348.545 253.87L355.425 226.657C356.274 223.297 356.815 219.122 356.632 217.334Z" fill="#6297FE" fill-opacity="0.6"/>
<path d="M386.632 153.334C386.449 151.545 385.612 152.819 384.763 156.18L377.883 183.393C376.731 187.948 376.261 193.395 376.985 193.524C377.346 193.588 377.942 192.254 378.545 189.87L385.425 162.657C386.274 159.297 386.815 155.122 386.632 153.334Z" fill="#6297FE" fill-opacity="0.6"/>
<path d="M294.632 206.334C294.449 204.545 293.612 205.819 292.763 209.18L285.883 236.393C284.731 240.948 284.261 246.395 284.985 246.524C285.346 246.588 285.942 245.254 286.545 242.87L293.425 215.657C294.274 212.297 294.815 208.122 294.632 206.334Z" fill="#6297FE" fill-opacity="0.6"/>
<path d="M264.632 179.334C264.449 177.545 263.612 178.819 262.763 182.18L255.883 209.393C254.731 213.948 254.261 219.395 254.985 219.524C255.346 219.588 255.942 218.254 256.545 215.87L263.425 188.657C264.274 185.297 264.815 181.122 264.632 179.334Z" fill="#6297FE" fill-opacity="0.6"/>
<path d="M290.632 267.334C290.449 265.545 289.612 266.819 288.763 270.18L281.883 297.393C280.731 301.948 280.261 307.395 280.985 307.524C281.346 307.588 281.942 306.254 282.545 303.87L289.425 276.657C290.274 273.297 290.815 269.122 290.632 267.334Z" fill="#6297FE" fill-opacity="0.6"/>
<path d="M301 42.8825C301 27.8578 311.869 15.3174 326.175 12.6865C325.723 -9.39528 347.243 -26.4783 369.307 -19.9241C375.987 -34.0375 390.307 -44 407.281 -44C429.894 -44 448.388 -26.0513 449.206 -3.67813C467.047 0.197739 480 16.0198 480 34.5083C480 56.058 462.436 73.588 440.844 73.588H331.766C314.803 73.588 301 59.8124 301 42.8825Z" fill="#A8A2A2"/>
<path d="M341 47.8825C341 32.8578 330.131 20.3174 315.825 17.6865C316.277 -4.39528 294.757 -21.4783 272.693 -14.9241C266.013 -29.0375 251.693 -39 234.719 -39C212.106 -39 193.612 -21.0513 192.794 1.32187C174.953 5.19774 162 21.0198 162 39.5083C162 61.058 179.564 78.588 201.156 78.588H310.234C327.197 78.588 341 64.8124 341 47.8825Z" fill="#C9C9C9"/>
<defs>
<linearGradient id="paint0_linear" x1="222.5" y1="-1.99976" x2="222.5" y2="293" gradientUnits="userSpaceOnUse">
<stop stop-color="#9A9B9C"/>
<stop offset="1" stop-color="#22567C"/>
</linearGradient>
</defs>
</svg>
