<svg width="446" height="293" viewBox="0 0 446 293" fill="none" xmlns="http://www.w3.org/2000/svg">
<rect x="-1" y="-1.99976" width="447" height="295" fill="url(#paint0_linear)"/>
<g opacity="0.6" filter="url(#filter0_d)">
<path d="M24 12.5L24.8981 15.2639H27.8042L25.4531 16.9721L26.3511 19.7361L24 18.0279L21.6489 19.7361L22.5469 16.9721L20.1958 15.2639H23.1019L24 12.5Z" fill="#F8F8DF"/>
</g>
<g opacity="0.9" filter="url(#filter1_d)">
<path d="M17.8043 35L18.7024 37.7639H21.6085L19.2574 39.4721L20.1555 42.2361L17.8043 40.5279L15.4532 42.2361L16.3512 39.4721L14.0001 37.7639H16.9063L17.8043 35Z" fill="#F8F8DF"/>
</g>
<g opacity="0.7" filter="url(#filter2_d)">
<path d="M57.8043 45L58.7024 47.7639H61.6085L59.2574 49.4721L60.1555 52.2361L57.8043 50.5279L55.4532 52.2361L56.3512 49.4721L54.0001 47.7639H56.9063L57.8043 45Z" fill="#F8F8DF"/>
</g>
<g filter="url(#filter3_d)">
<path d="M67.8043 5L68.7024 7.76393H71.6085L69.2574 9.47214L70.1555 12.2361L67.8043 10.5279L65.4532 12.2361L66.3512 9.47214L64.0001 7.76393H66.9063L67.8043 5Z" fill="#F8F8DF"/>
</g>
<g opacity="0.7" filter="url(#filter4_d)">
<path d="M150.804 7L151.702 9.76393H154.609L152.257 11.4721L153.155 14.2361L150.804 12.5279L148.453 14.2361L149.351 11.4721L147 9.76393H149.906L150.804 7Z" fill="#F8F8DF"/>
</g>
<g filter="url(#filter5_d)">
<path d="M189.804 28L190.702 30.7639H193.609L191.257 32.4721L192.155 35.2361L189.804 33.5279L187.453 35.2361L188.351 32.4721L186 30.7639H188.906L189.804 28Z" fill="#F8F8DF"/>
</g>
<g filter="url(#filter6_d)">
<path d="M195.804 59L196.702 61.7639H199.609L197.257 63.4721L198.155 66.2361L195.804 64.5279L193.453 66.2361L194.351 63.4721L192 61.7639H194.906L195.804 59Z" fill="#F8F8DF"/>
</g>
<g filter="url(#filter7_d)">
<path d="M218.804 95L219.702 97.7639H222.609L220.257 99.4721L221.155 102.236L218.804 100.528L216.453 102.236L217.351 99.4721L215 97.7639H217.906L218.804 95Z" fill="#F8F8DF"/>
</g>
<g filter="url(#filter8_d)">
<path d="M159.804 103L160.702 105.764H163.609L161.257 107.472L162.155 110.236L159.804 108.528L157.453 110.236L158.351 107.472L156 105.764H158.906L159.804 103Z" fill="#F8F8DF"/>
</g>
<g filter="url(#filter9_d)">
<path d="M100.804 111L101.702 113.764H104.609L102.257 115.472L103.155 118.236L100.804 116.528L98.4532 118.236L99.3512 115.472L97.0001 113.764H99.9063L100.804 111Z" fill="#F8F8DF"/>
</g>
<g opacity="0.7" filter="url(#filter10_d)">
<path d="M144.804 137L145.702 139.764H148.609L146.257 141.472L147.155 144.236L144.804 142.528L142.453 144.236L143.351 141.472L141 139.764H143.906L144.804 137Z" fill="#F8F8DF"/>
</g>
<g filter="url(#filter11_d)">
<path d="M199.804 130L200.702 132.764H203.609L201.257 134.472L202.155 137.236L199.804 135.528L197.453 137.236L198.351 134.472L196 132.764H198.906L199.804 130Z" fill="#F8F8DF"/>
</g>
<g filter="url(#filter12_d)">
<path d="M22.8043 101L23.7024 103.764H26.6085L24.2574 105.472L25.1555 108.236L22.8043 106.528L20.4532 108.236L21.3512 105.472L19.0001 103.764H21.9063L22.8043 101Z" fill="#F8F8DF"/>
</g>
<g opacity="0.9" filter="url(#filter13_d)">
<path d="M56.8043 126L57.7024 128.764H60.6085L58.2574 130.472L59.1555 133.236L56.8043 131.528L54.4532 133.236L55.3512 130.472L53.0001 128.764H55.9063L56.8043 126Z" fill="#F8F8DF"/>
</g>
<g filter="url(#filter14_d)">
<path d="M84.8043 175L85.7024 177.764H88.6085L86.2574 179.472L87.1555 182.236L84.8043 180.528L82.4532 182.236L83.3512 179.472L81.0001 177.764H83.9063L84.8043 175Z" fill="#F8F8DF"/>
</g>
<g filter="url(#filter15_d)">
<path d="M178.804 165L179.702 167.764H182.609L180.257 169.472L181.155 172.236L178.804 170.528L176.453 172.236L177.351 169.472L175 167.764H177.906L178.804 165Z" fill="#F8F8DF"/>
</g>
<g filter="url(#filter16_d)">
<path d="M202.804 216L203.702 218.764H206.609L204.257 220.472L205.155 223.236L202.804 221.528L200.453 223.236L201.351 220.472L199 218.764H201.906L202.804 216Z" fill="#F8F8DF"/>
</g>
<g filter="url(#filter17_d)">
<path d="M154.804 280L155.702 282.764H158.609L156.257 284.472L157.155 287.236L154.804 285.528L152.453 287.236L153.351 284.472L151 282.764H153.906L154.804 280Z" fill="#F8F8DF"/>
</g>
<g filter="url(#filter18_d)">
<path d="M105.804 261L106.702 263.764H109.609L107.257 265.472L108.155 268.236L105.804 266.528L103.453 268.236L104.351 265.472L102 263.764H104.906L105.804 261Z" fill="#F8F8DF"/>
</g>
<g filter="url(#filter19_d)">
<path d="M46.8043 248L47.7024 250.764H50.6085L48.2574 252.472L49.1555 255.236L46.8043 253.528L44.4532 255.236L45.3512 252.472L43.0001 250.764H45.9063L46.8043 248Z" fill="#F8F8DF"/>
</g>
<g filter="url(#filter20_d)">
<path d="M11.8043 197L12.7024 199.764H15.6085L13.2574 201.472L14.1555 204.236L11.8043 202.528L9.45318 204.236L10.3512 201.472L8.0001 199.764H10.9063L11.8043 197Z" fill="#F8F8DF"/>
</g>
<g filter="url(#filter21_d)">
<path d="M56.8043 280L57.7024 282.764H60.6085L58.2574 284.472L59.1555 287.236L56.8043 285.528L54.4532 287.236L55.3512 284.472L53.0001 282.764H55.9063L56.8043 280Z" fill="#F8F8DF"/>
</g>
<g opacity="0.6" filter="url(#filter22_d)">
<path d="M257 7.5L257.898 10.2639H260.804L258.453 11.9721L259.351 14.7361L257 13.0279L254.649 14.7361L255.547 11.9721L253.196 10.2639H256.102L257 7.5Z" fill="#F8F8DF"/>
</g>
<g opacity="0.9" filter="url(#filter23_d)">
<path d="M250.804 30L251.702 32.7639H254.609L252.257 34.4721L253.155 37.2361L250.804 35.5279L248.453 37.2361L249.351 34.4721L247 32.7639H249.906L250.804 30Z" fill="#F8F8DF"/>
</g>
<g opacity="0.7" filter="url(#filter24_d)">
<path d="M290.804 40L291.702 42.7639H294.609L292.257 44.4721L293.155 47.2361L290.804 45.5279L288.453 47.2361L289.351 44.4721L287 42.7639H289.906L290.804 40Z" fill="#F8F8DF"/>
</g>
<g filter="url(#filter25_d)">
<path d="M300.804 0L301.702 2.76393H304.609L302.257 4.47214L303.155 7.23607L300.804 5.52786L298.453 7.23607L299.351 4.47214L297 2.76393H299.906L300.804 0Z" fill="#F8F8DF"/>
</g>
<g opacity="0.7" filter="url(#filter26_d)">
<path d="M383.804 2L384.702 4.76393H387.609L385.257 6.47214L386.155 9.23607L383.804 7.52786L381.453 9.23607L382.351 6.47214L380 4.76393H382.906L383.804 2Z" fill="#F8F8DF"/>
</g>
<g filter="url(#filter27_d)">
<path d="M422.804 23L423.702 25.7639H426.609L424.257 27.4721L425.155 30.2361L422.804 28.5279L420.453 30.2361L421.351 27.4721L419 25.7639H421.906L422.804 23Z" fill="#F8F8DF"/>
</g>
<g filter="url(#filter28_d)">
<path d="M428.804 54L429.702 56.7639H432.609L430.257 58.4721L431.155 61.2361L428.804 59.5279L426.453 61.2361L427.351 58.4721L425 56.7639H427.906L428.804 54Z" fill="#F8F8DF"/>
</g>
<g filter="url(#filter29_d)">
<path d="M451.804 90L452.702 92.7639H455.609L453.257 94.4721L454.155 97.2361L451.804 95.5279L449.453 97.2361L450.351 94.4721L448 92.7639H450.906L451.804 90Z" fill="#F8F8DF"/>
</g>
<g filter="url(#filter30_d)">
<path d="M392.804 98L393.702 100.764H396.609L394.257 102.472L395.155 105.236L392.804 103.528L390.453 105.236L391.351 102.472L389 100.764H391.906L392.804 98Z" fill="#F8F8DF"/>
</g>
<g filter="url(#filter31_d)">
<path d="M333.804 106L334.702 108.764H337.609L335.257 110.472L336.155 113.236L333.804 111.528L331.453 113.236L332.351 110.472L330 108.764H332.906L333.804 106Z" fill="#F8F8DF"/>
</g>
<g opacity="0.7" filter="url(#filter32_d)">
<path d="M377.804 132L378.702 134.764H381.609L379.257 136.472L380.155 139.236L377.804 137.528L375.453 139.236L376.351 136.472L374 134.764H376.906L377.804 132Z" fill="#F8F8DF"/>
</g>
<g filter="url(#filter33_d)">
<path d="M432.804 125L433.702 127.764H436.609L434.257 129.472L435.155 132.236L432.804 130.528L430.453 132.236L431.351 129.472L429 127.764H431.906L432.804 125Z" fill="#F8F8DF"/>
</g>
<g filter="url(#filter34_d)">
<path d="M255.804 96L256.702 98.7639H259.609L257.257 100.472L258.155 103.236L255.804 101.528L253.453 103.236L254.351 100.472L252 98.7639H254.906L255.804 96Z" fill="#F8F8DF"/>
</g>
<g opacity="0.9" filter="url(#filter35_d)">
<path d="M289.804 121L290.702 123.764H293.609L291.257 125.472L292.155 128.236L289.804 126.528L287.453 128.236L288.351 125.472L286 123.764H288.906L289.804 121Z" fill="#F8F8DF"/>
</g>
<g filter="url(#filter36_d)">
<path d="M317.804 170L318.702 172.764H321.609L319.257 174.472L320.155 177.236L317.804 175.528L315.453 177.236L316.351 174.472L314 172.764H316.906L317.804 170Z" fill="#F8F8DF"/>
</g>
<g filter="url(#filter37_d)">
<path d="M411.804 160L412.702 162.764H415.609L413.257 164.472L414.155 167.236L411.804 165.528L409.453 167.236L410.351 164.472L408 162.764H410.906L411.804 160Z" fill="#F8F8DF"/>
</g>
<g filter="url(#filter38_d)">
<path d="M76.8043 65L77.7024 67.7639H80.6085L78.2574 69.4721L79.1555 72.2361L76.8043 70.5279L74.4532 72.2361L75.3512 69.4721L73.0001 67.7639H75.9063L76.8043 65Z" fill="#F8F8DF"/>
</g>
<g filter="url(#filter39_d)">
<path d="M435.804 211L436.702 213.764H439.609L437.257 215.472L438.155 218.236L435.804 216.528L433.453 218.236L434.351 215.472L432 213.764H434.906L435.804 211Z" fill="#F8F8DF"/>
</g>
<g filter="url(#filter40_d)">
<path d="M387.804 275L388.702 277.764H391.609L389.257 279.472L390.155 282.236L387.804 280.528L385.453 282.236L386.351 279.472L384 277.764H386.906L387.804 275Z" fill="#F8F8DF"/>
</g>
<g filter="url(#filter41_d)">
<path d="M338.804 256L339.702 258.764H342.609L340.257 260.472L341.155 263.236L338.804 261.528L336.453 263.236L337.351 260.472L335 258.764H337.906L338.804 256Z" fill="#F8F8DF"/>
</g>
<g filter="url(#filter42_d)">
<path d="M279.804 243L280.702 245.764H283.609L281.257 247.472L282.155 250.236L279.804 248.528L277.453 250.236L278.351 247.472L276 245.764H278.906L279.804 243Z" fill="#F8F8DF"/>
</g>
<g filter="url(#filter43_d)">
<path d="M244.804 192L245.702 194.764H248.609L246.257 196.472L247.155 199.236L244.804 197.528L242.453 199.236L243.351 196.472L241 194.764H243.906L244.804 192Z" fill="#F8F8DF"/>
</g>
<g filter="url(#filter44_d)">
<path d="M289.804 275L290.702 277.764H293.609L291.257 279.472L292.155 282.236L289.804 280.528L287.453 282.236L288.351 279.472L286 277.764H288.906L289.804 275Z" fill="#F8F8DF"/>
</g>
<path d="M387.67 95.6336C370.221 92.9988 355.932 80.3868 351.151 63.4001C355.443 66.162 360.284 67.9579 365.339 68.6633C385.088 71.8355 403.678 58.4229 406.895 38.6814C408.858 25.2933 403.465 11.8842 392.779 3.58218C396.006 3.69111 399.221 4.02631 402.4 4.5863C427.543 8.65391 444.626 32.333 440.559 57.4748C436.491 82.6175 412.813 99.7012 387.67 95.6336Z" fill="#CCCCCC"/>
<circle cx="384.5" cy="54.5" r="69.5" fill="url(#paint1_radial)"/>
<defs>
<filter id="filter0_d" x="17.1958" y="9.5" width="13.6085" height="13.2361" filterUnits="userSpaceOnUse" color-interpolation-filters="sRGB">
<feFlood flood-opacity="0" result="BackgroundImageFix"/>
<feColorMatrix in="SourceAlpha" type="matrix" values="0 0 0 0 0 0 0 0 0 0 0 0 0 0 0 0 0 0 127 0"/>
<feOffset/>
<feGaussianBlur stdDeviation="1.5"/>
<feColorMatrix type="matrix" values="0 0 0 0 0.987083 0 0 0 0 1 0 0 0 0 0.354167 0 0 0 0.75 0"/>
<feBlend mode="normal" in2="BackgroundImageFix" result="effect1_dropShadow"/>
<feBlend mode="normal" in="SourceGraphic" in2="effect1_dropShadow" result="shape"/>
</filter>
<filter id="filter1_d" x="11.0001" y="32" width="13.6085" height="13.2361" filterUnits="userSpaceOnUse" color-interpolation-filters="sRGB">
<feFlood flood-opacity="0" result="BackgroundImageFix"/>
<feColorMatrix in="SourceAlpha" type="matrix" values="0 0 0 0 0 0 0 0 0 0 0 0 0 0 0 0 0 0 127 0"/>
<feOffset/>
<feGaussianBlur stdDeviation="1.5"/>
<feColorMatrix type="matrix" values="0 0 0 0 0.987083 0 0 0 0 1 0 0 0 0 0.354167 0 0 0 0.75 0"/>
<feBlend mode="normal" in2="BackgroundImageFix" result="effect1_dropShadow"/>
<feBlend mode="normal" in="SourceGraphic" in2="effect1_dropShadow" result="shape"/>
</filter>
<filter id="filter2_d" x="51.0001" y="42" width="13.6085" height="13.2361" filterUnits="userSpaceOnUse" color-interpolation-filters="sRGB">
<feFlood flood-opacity="0" result="BackgroundImageFix"/>
<feColorMatrix in="SourceAlpha" type="matrix" values="0 0 0 0 0 0 0 0 0 0 0 0 0 0 0 0 0 0 127 0"/>
<feOffset/>
<feGaussianBlur stdDeviation="1.5"/>
<feColorMatrix type="matrix" values="0 0 0 0 0.987083 0 0 0 0 1 0 0 0 0 0.354167 0 0 0 0.75 0"/>
<feBlend mode="normal" in2="BackgroundImageFix" result="effect1_dropShadow"/>
<feBlend mode="normal" in="SourceGraphic" in2="effect1_dropShadow" result="shape"/>
</filter>
<filter id="filter3_d" x="61.0001" y="2" width="13.6085" height="13.2361" filterUnits="userSpaceOnUse" color-interpolation-filters="sRGB">
<feFlood flood-opacity="0" result="BackgroundImageFix"/>
<feColorMatrix in="SourceAlpha" type="matrix" values="0 0 0 0 0 0 0 0 0 0 0 0 0 0 0 0 0 0 127 0"/>
<feOffset/>
<feGaussianBlur stdDeviation="1.5"/>
<feColorMatrix type="matrix" values="0 0 0 0 0.987083 0 0 0 0 1 0 0 0 0 0.354167 0 0 0 0.75 0"/>
<feBlend mode="normal" in2="BackgroundImageFix" result="effect1_dropShadow"/>
<feBlend mode="normal" in="SourceGraphic" in2="effect1_dropShadow" result="shape"/>
</filter>
<filter id="filter4_d" x="144" y="4" width="13.6085" height="13.2361" filterUnits="userSpaceOnUse" color-interpolation-filters="sRGB">
<feFlood flood-opacity="0" result="BackgroundImageFix"/>
<feColorMatrix in="SourceAlpha" type="matrix" values="0 0 0 0 0 0 0 0 0 0 0 0 0 0 0 0 0 0 127 0"/>
<feOffset/>
<feGaussianBlur stdDeviation="1.5"/>
<feColorMatrix type="matrix" values="0 0 0 0 0.987083 0 0 0 0 1 0 0 0 0 0.354167 0 0 0 0.75 0"/>
<feBlend mode="normal" in2="BackgroundImageFix" result="effect1_dropShadow"/>
<feBlend mode="normal" in="SourceGraphic" in2="effect1_dropShadow" result="shape"/>
</filter>
<filter id="filter5_d" x="183" y="25" width="13.6085" height="13.2361" filterUnits="userSpaceOnUse" color-interpolation-filters="sRGB">
<feFlood flood-opacity="0" result="BackgroundImageFix"/>
<feColorMatrix in="SourceAlpha" type="matrix" values="0 0 0 0 0 0 0 0 0 0 0 0 0 0 0 0 0 0 127 0"/>
<feOffset/>
<feGaussianBlur stdDeviation="1.5"/>
<feColorMatrix type="matrix" values="0 0 0 0 0.987083 0 0 0 0 1 0 0 0 0 0.354167 0 0 0 0.75 0"/>
<feBlend mode="normal" in2="BackgroundImageFix" result="effect1_dropShadow"/>
<feBlend mode="normal" in="SourceGraphic" in2="effect1_dropShadow" result="shape"/>
</filter>
<filter id="filter6_d" x="189" y="56" width="13.6085" height="13.2361" filterUnits="userSpaceOnUse" color-interpolation-filters="sRGB">
<feFlood flood-opacity="0" result="BackgroundImageFix"/>
<feColorMatrix in="SourceAlpha" type="matrix" values="0 0 0 0 0 0 0 0 0 0 0 0 0 0 0 0 0 0 127 0"/>
<feOffset/>
<feGaussianBlur stdDeviation="1.5"/>
<feColorMatrix type="matrix" values="0 0 0 0 0.987083 0 0 0 0 1 0 0 0 0 0.354167 0 0 0 0.75 0"/>
<feBlend mode="normal" in2="BackgroundImageFix" result="effect1_dropShadow"/>
<feBlend mode="normal" in="SourceGraphic" in2="effect1_dropShadow" result="shape"/>
</filter>
<filter id="filter7_d" x="212" y="92" width="13.6085" height="13.2361" filterUnits="userSpaceOnUse" color-interpolation-filters="sRGB">
<feFlood flood-opacity="0" result="BackgroundImageFix"/>
<feColorMatrix in="SourceAlpha" type="matrix" values="0 0 0 0 0 0 0 0 0 0 0 0 0 0 0 0 0 0 127 0"/>
<feOffset/>
<feGaussianBlur stdDeviation="1.5"/>
<feColorMatrix type="matrix" values="0 0 0 0 0.987083 0 0 0 0 1 0 0 0 0 0.354167 0 0 0 0.75 0"/>
<feBlend mode="normal" in2="BackgroundImageFix" result="effect1_dropShadow"/>
<feBlend mode="normal" in="SourceGraphic" in2="effect1_dropShadow" result="shape"/>
</filter>
<filter id="filter8_d" x="153" y="100" width="13.6085" height="13.2361" filterUnits="userSpaceOnUse" color-interpolation-filters="sRGB">
<feFlood flood-opacity="0" result="BackgroundImageFix"/>
<feColorMatrix in="SourceAlpha" type="matrix" values="0 0 0 0 0 0 0 0 0 0 0 0 0 0 0 0 0 0 127 0"/>
<feOffset/>
<feGaussianBlur stdDeviation="1.5"/>
<feColorMatrix type="matrix" values="0 0 0 0 0.987083 0 0 0 0 1 0 0 0 0 0.354167 0 0 0 0.75 0"/>
<feBlend mode="normal" in2="BackgroundImageFix" result="effect1_dropShadow"/>
<feBlend mode="normal" in="SourceGraphic" in2="effect1_dropShadow" result="shape"/>
</filter>
<filter id="filter9_d" x="94.0001" y="108" width="13.6085" height="13.2361" filterUnits="userSpaceOnUse" color-interpolation-filters="sRGB">
<feFlood flood-opacity="0" result="BackgroundImageFix"/>
<feColorMatrix in="SourceAlpha" type="matrix" values="0 0 0 0 0 0 0 0 0 0 0 0 0 0 0 0 0 0 127 0"/>
<feOffset/>
<feGaussianBlur stdDeviation="1.5"/>
<feColorMatrix type="matrix" values="0 0 0 0 0.987083 0 0 0 0 1 0 0 0 0 0.354167 0 0 0 0.75 0"/>
<feBlend mode="normal" in2="BackgroundImageFix" result="effect1_dropShadow"/>
<feBlend mode="normal" in="SourceGraphic" in2="effect1_dropShadow" result="shape"/>
</filter>
<filter id="filter10_d" x="138" y="134" width="13.6085" height="13.2361" filterUnits="userSpaceOnUse" color-interpolation-filters="sRGB">
<feFlood flood-opacity="0" result="BackgroundImageFix"/>
<feColorMatrix in="SourceAlpha" type="matrix" values="0 0 0 0 0 0 0 0 0 0 0 0 0 0 0 0 0 0 127 0"/>
<feOffset/>
<feGaussianBlur stdDeviation="1.5"/>
<feColorMatrix type="matrix" values="0 0 0 0 0.987083 0 0 0 0 1 0 0 0 0 0.354167 0 0 0 0.75 0"/>
<feBlend mode="normal" in2="BackgroundImageFix" result="effect1_dropShadow"/>
<feBlend mode="normal" in="SourceGraphic" in2="effect1_dropShadow" result="shape"/>
</filter>
<filter id="filter11_d" x="193" y="127" width="13.6085" height="13.2361" filterUnits="userSpaceOnUse" color-interpolation-filters="sRGB">
<feFlood flood-opacity="0" result="BackgroundImageFix"/>
<feColorMatrix in="SourceAlpha" type="matrix" values="0 0 0 0 0 0 0 0 0 0 0 0 0 0 0 0 0 0 127 0"/>
<feOffset/>
<feGaussianBlur stdDeviation="1.5"/>
<feColorMatrix type="matrix" values="0 0 0 0 0.987083 0 0 0 0 1 0 0 0 0 0.354167 0 0 0 0.75 0"/>
<feBlend mode="normal" in2="BackgroundImageFix" result="effect1_dropShadow"/>
<feBlend mode="normal" in="SourceGraphic" in2="effect1_dropShadow" result="shape"/>
</filter>
<filter id="filter12_d" x="16.0001" y="98" width="13.6085" height="13.2361" filterUnits="userSpaceOnUse" color-interpolation-filters="sRGB">
<feFlood flood-opacity="0" result="BackgroundImageFix"/>
<feColorMatrix in="SourceAlpha" type="matrix" values="0 0 0 0 0 0 0 0 0 0 0 0 0 0 0 0 0 0 127 0"/>
<feOffset/>
<feGaussianBlur stdDeviation="1.5"/>
<feColorMatrix type="matrix" values="0 0 0 0 0.987083 0 0 0 0 1 0 0 0 0 0.354167 0 0 0 0.75 0"/>
<feBlend mode="normal" in2="BackgroundImageFix" result="effect1_dropShadow"/>
<feBlend mode="normal" in="SourceGraphic" in2="effect1_dropShadow" result="shape"/>
</filter>
<filter id="filter13_d" x="50.0001" y="123" width="13.6085" height="13.2361" filterUnits="userSpaceOnUse" color-interpolation-filters="sRGB">
<feFlood flood-opacity="0" result="BackgroundImageFix"/>
<feColorMatrix in="SourceAlpha" type="matrix" values="0 0 0 0 0 0 0 0 0 0 0 0 0 0 0 0 0 0 127 0"/>
<feOffset/>
<feGaussianBlur stdDeviation="1.5"/>
<feColorMatrix type="matrix" values="0 0 0 0 0.987083 0 0 0 0 1 0 0 0 0 0.354167 0 0 0 0.75 0"/>
<feBlend mode="normal" in2="BackgroundImageFix" result="effect1_dropShadow"/>
<feBlend mode="normal" in="SourceGraphic" in2="effect1_dropShadow" result="shape"/>
</filter>
<filter id="filter14_d" x="78.0001" y="172" width="13.6085" height="13.2361" filterUnits="userSpaceOnUse" color-interpolation-filters="sRGB">
<feFlood flood-opacity="0" result="BackgroundImageFix"/>
<feColorMatrix in="SourceAlpha" type="matrix" values="0 0 0 0 0 0 0 0 0 0 0 0 0 0 0 0 0 0 127 0"/>
<feOffset/>
<feGaussianBlur stdDeviation="1.5"/>
<feColorMatrix type="matrix" values="0 0 0 0 0.987083 0 0 0 0 1 0 0 0 0 0.354167 0 0 0 0.75 0"/>
<feBlend mode="normal" in2="BackgroundImageFix" result="effect1_dropShadow"/>
<feBlend mode="normal" in="SourceGraphic" in2="effect1_dropShadow" result="shape"/>
</filter>
<filter id="filter15_d" x="172" y="162" width="13.6085" height="13.2361" filterUnits="userSpaceOnUse" color-interpolation-filters="sRGB">
<feFlood flood-opacity="0" result="BackgroundImageFix"/>
<feColorMatrix in="SourceAlpha" type="matrix" values="0 0 0 0 0 0 0 0 0 0 0 0 0 0 0 0 0 0 127 0"/>
<feOffset/>
<feGaussianBlur stdDeviation="1.5"/>
<feColorMatrix type="matrix" values="0 0 0 0 0.987083 0 0 0 0 1 0 0 0 0 0.354167 0 0 0 0.75 0"/>
<feBlend mode="normal" in2="BackgroundImageFix" result="effect1_dropShadow"/>
<feBlend mode="normal" in="SourceGraphic" in2="effect1_dropShadow" result="shape"/>
</filter>
<filter id="filter16_d" x="196" y="213" width="13.6085" height="13.2361" filterUnits="userSpaceOnUse" color-interpolation-filters="sRGB">
<feFlood flood-opacity="0" result="BackgroundImageFix"/>
<feColorMatrix in="SourceAlpha" type="matrix" values="0 0 0 0 0 0 0 0 0 0 0 0 0 0 0 0 0 0 127 0"/>
<feOffset/>
<feGaussianBlur stdDeviation="1.5"/>
<feColorMatrix type="matrix" values="0 0 0 0 0.987083 0 0 0 0 1 0 0 0 0 0.354167 0 0 0 0.75 0"/>
<feBlend mode="normal" in2="BackgroundImageFix" result="effect1_dropShadow"/>
<feBlend mode="normal" in="SourceGraphic" in2="effect1_dropShadow" result="shape"/>
</filter>
<filter id="filter17_d" x="148" y="277" width="13.6085" height="13.2361" filterUnits="userSpaceOnUse" color-interpolation-filters="sRGB">
<feFlood flood-opacity="0" result="BackgroundImageFix"/>
<feColorMatrix in="SourceAlpha" type="matrix" values="0 0 0 0 0 0 0 0 0 0 0 0 0 0 0 0 0 0 127 0"/>
<feOffset/>
<feGaussianBlur stdDeviation="1.5"/>
<feColorMatrix type="matrix" values="0 0 0 0 0.987083 0 0 0 0 1 0 0 0 0 0.354167 0 0 0 0.75 0"/>
<feBlend mode="normal" in2="BackgroundImageFix" result="effect1_dropShadow"/>
<feBlend mode="normal" in="SourceGraphic" in2="effect1_dropShadow" result="shape"/>
</filter>
<filter id="filter18_d" x="99.0001" y="258" width="13.6085" height="13.2361" filterUnits="userSpaceOnUse" color-interpolation-filters="sRGB">
<feFlood flood-opacity="0" result="BackgroundImageFix"/>
<feColorMatrix in="SourceAlpha" type="matrix" values="0 0 0 0 0 0 0 0 0 0 0 0 0 0 0 0 0 0 127 0"/>
<feOffset/>
<feGaussianBlur stdDeviation="1.5"/>
<feColorMatrix type="matrix" values="0 0 0 0 0.987083 0 0 0 0 1 0 0 0 0 0.354167 0 0 0 0.75 0"/>
<feBlend mode="normal" in2="BackgroundImageFix" result="effect1_dropShadow"/>
<feBlend mode="normal" in="SourceGraphic" in2="effect1_dropShadow" result="shape"/>
</filter>
<filter id="filter19_d" x="40.0001" y="245" width="13.6085" height="13.2361" filterUnits="userSpaceOnUse" color-interpolation-filters="sRGB">
<feFlood flood-opacity="0" result="BackgroundImageFix"/>
<feColorMatrix in="SourceAlpha" type="matrix" values="0 0 0 0 0 0 0 0 0 0 0 0 0 0 0 0 0 0 127 0"/>
<feOffset/>
<feGaussianBlur stdDeviation="1.5"/>
<feColorMatrix type="matrix" values="0 0 0 0 0.987083 0 0 0 0 1 0 0 0 0 0.354167 0 0 0 0.75 0"/>
<feBlend mode="normal" in2="BackgroundImageFix" result="effect1_dropShadow"/>
<feBlend mode="normal" in="SourceGraphic" in2="effect1_dropShadow" result="shape"/>
</filter>
<filter id="filter20_d" x="5.00012" y="194" width="13.6085" height="13.2361" filterUnits="userSpaceOnUse" color-interpolation-filters="sRGB">
<feFlood flood-opacity="0" result="BackgroundImageFix"/>
<feColorMatrix in="SourceAlpha" type="matrix" values="0 0 0 0 0 0 0 0 0 0 0 0 0 0 0 0 0 0 127 0"/>
<feOffset/>
<feGaussianBlur stdDeviation="1.5"/>
<feColorMatrix type="matrix" values="0 0 0 0 0.987083 0 0 0 0 1 0 0 0 0 0.354167 0 0 0 0.75 0"/>
<feBlend mode="normal" in2="BackgroundImageFix" result="effect1_dropShadow"/>
<feBlend mode="normal" in="SourceGraphic" in2="effect1_dropShadow" result="shape"/>
</filter>
<filter id="filter21_d" x="50.0001" y="277" width="13.6085" height="13.2361" filterUnits="userSpaceOnUse" color-interpolation-filters="sRGB">
<feFlood flood-opacity="0" result="BackgroundImageFix"/>
<feColorMatrix in="SourceAlpha" type="matrix" values="0 0 0 0 0 0 0 0 0 0 0 0 0 0 0 0 0 0 127 0"/>
<feOffset/>
<feGaussianBlur stdDeviation="1.5"/>
<feColorMatrix type="matrix" values="0 0 0 0 0.987083 0 0 0 0 1 0 0 0 0 0.354167 0 0 0 0.75 0"/>
<feBlend mode="normal" in2="BackgroundImageFix" result="effect1_dropShadow"/>
<feBlend mode="normal" in="SourceGraphic" in2="effect1_dropShadow" result="shape"/>
</filter>
<filter id="filter22_d" x="250.196" y="4.5" width="13.6085" height="13.2361" filterUnits="userSpaceOnUse" color-interpolation-filters="sRGB">
<feFlood flood-opacity="0" result="BackgroundImageFix"/>
<feColorMatrix in="SourceAlpha" type="matrix" values="0 0 0 0 0 0 0 0 0 0 0 0 0 0 0 0 0 0 127 0"/>
<feOffset/>
<feGaussianBlur stdDeviation="1.5"/>
<feColorMatrix type="matrix" values="0 0 0 0 0.987083 0 0 0 0 1 0 0 0 0 0.354167 0 0 0 0.75 0"/>
<feBlend mode="normal" in2="BackgroundImageFix" result="effect1_dropShadow"/>
<feBlend mode="normal" in="SourceGraphic" in2="effect1_dropShadow" result="shape"/>
</filter>
<filter id="filter23_d" x="244" y="27" width="13.6085" height="13.2361" filterUnits="userSpaceOnUse" color-interpolation-filters="sRGB">
<feFlood flood-opacity="0" result="BackgroundImageFix"/>
<feColorMatrix in="SourceAlpha" type="matrix" values="0 0 0 0 0 0 0 0 0 0 0 0 0 0 0 0 0 0 127 0"/>
<feOffset/>
<feGaussianBlur stdDeviation="1.5"/>
<feColorMatrix type="matrix" values="0 0 0 0 0.987083 0 0 0 0 1 0 0 0 0 0.354167 0 0 0 0.75 0"/>
<feBlend mode="normal" in2="BackgroundImageFix" result="effect1_dropShadow"/>
<feBlend mode="normal" in="SourceGraphic" in2="effect1_dropShadow" result="shape"/>
</filter>
<filter id="filter24_d" x="284" y="37" width="13.6085" height="13.2361" filterUnits="userSpaceOnUse" color-interpolation-filters="sRGB">
<feFlood flood-opacity="0" result="BackgroundImageFix"/>
<feColorMatrix in="SourceAlpha" type="matrix" values="0 0 0 0 0 0 0 0 0 0 0 0 0 0 0 0 0 0 127 0"/>
<feOffset/>
<feGaussianBlur stdDeviation="1.5"/>
<feColorMatrix type="matrix" values="0 0 0 0 0.987083 0 0 0 0 1 0 0 0 0 0.354167 0 0 0 0.75 0"/>
<feBlend mode="normal" in2="BackgroundImageFix" result="effect1_dropShadow"/>
<feBlend mode="normal" in="SourceGraphic" in2="effect1_dropShadow" result="shape"/>
</filter>
<filter id="filter25_d" x="294" y="-3" width="13.6085" height="13.2361" filterUnits="userSpaceOnUse" color-interpolation-filters="sRGB">
<feFlood flood-opacity="0" result="BackgroundImageFix"/>
<feColorMatrix in="SourceAlpha" type="matrix" values="0 0 0 0 0 0 0 0 0 0 0 0 0 0 0 0 0 0 127 0"/>
<feOffset/>
<feGaussianBlur stdDeviation="1.5"/>
<feColorMatrix type="matrix" values="0 0 0 0 0.987083 0 0 0 0 1 0 0 0 0 0.354167 0 0 0 0.75 0"/>
<feBlend mode="normal" in2="BackgroundImageFix" result="effect1_dropShadow"/>
<feBlend mode="normal" in="SourceGraphic" in2="effect1_dropShadow" result="shape"/>
</filter>
<filter id="filter26_d" x="377" y="-1" width="13.6085" height="13.2361" filterUnits="userSpaceOnUse" color-interpolation-filters="sRGB">
<feFlood flood-opacity="0" result="BackgroundImageFix"/>
<feColorMatrix in="SourceAlpha" type="matrix" values="0 0 0 0 0 0 0 0 0 0 0 0 0 0 0 0 0 0 127 0"/>
<feOffset/>
<feGaussianBlur stdDeviation="1.5"/>
<feColorMatrix type="matrix" values="0 0 0 0 0.987083 0 0 0 0 1 0 0 0 0 0.354167 0 0 0 0.75 0"/>
<feBlend mode="normal" in2="BackgroundImageFix" result="effect1_dropShadow"/>
<feBlend mode="normal" in="SourceGraphic" in2="effect1_dropShadow" result="shape"/>
</filter>
<filter id="filter27_d" x="416" y="20" width="13.6085" height="13.2361" filterUnits="userSpaceOnUse" color-interpolation-filters="sRGB">
<feFlood flood-opacity="0" result="BackgroundImageFix"/>
<feColorMatrix in="SourceAlpha" type="matrix" values="0 0 0 0 0 0 0 0 0 0 0 0 0 0 0 0 0 0 127 0"/>
<feOffset/>
<feGaussianBlur stdDeviation="1.5"/>
<feColorMatrix type="matrix" values="0 0 0 0 0.987083 0 0 0 0 1 0 0 0 0 0.354167 0 0 0 0.75 0"/>
<feBlend mode="normal" in2="BackgroundImageFix" result="effect1_dropShadow"/>
<feBlend mode="normal" in="SourceGraphic" in2="effect1_dropShadow" result="shape"/>
</filter>
<filter id="filter28_d" x="422" y="51" width="13.6085" height="13.2361" filterUnits="userSpaceOnUse" color-interpolation-filters="sRGB">
<feFlood flood-opacity="0" result="BackgroundImageFix"/>
<feColorMatrix in="SourceAlpha" type="matrix" values="0 0 0 0 0 0 0 0 0 0 0 0 0 0 0 0 0 0 127 0"/>
<feOffset/>
<feGaussianBlur stdDeviation="1.5"/>
<feColorMatrix type="matrix" values="0 0 0 0 0.987083 0 0 0 0 1 0 0 0 0 0.354167 0 0 0 0.75 0"/>
<feBlend mode="normal" in2="BackgroundImageFix" result="effect1_dropShadow"/>
<feBlend mode="normal" in="SourceGraphic" in2="effect1_dropShadow" result="shape"/>
</filter>
<filter id="filter29_d" x="445" y="87" width="13.6085" height="13.2361" filterUnits="userSpaceOnUse" color-interpolation-filters="sRGB">
<feFlood flood-opacity="0" result="BackgroundImageFix"/>
<feColorMatrix in="SourceAlpha" type="matrix" values="0 0 0 0 0 0 0 0 0 0 0 0 0 0 0 0 0 0 127 0"/>
<feOffset/>
<feGaussianBlur stdDeviation="1.5"/>
<feColorMatrix type="matrix" values="0 0 0 0 0.987083 0 0 0 0 1 0 0 0 0 0.354167 0 0 0 0.75 0"/>
<feBlend mode="normal" in2="BackgroundImageFix" result="effect1_dropShadow"/>
<feBlend mode="normal" in="SourceGraphic" in2="effect1_dropShadow" result="shape"/>
</filter>
<filter id="filter30_d" x="386" y="95" width="13.6085" height="13.2361" filterUnits="userSpaceOnUse" color-interpolation-filters="sRGB">
<feFlood flood-opacity="0" result="BackgroundImageFix"/>
<feColorMatrix in="SourceAlpha" type="matrix" values="0 0 0 0 0 0 0 0 0 0 0 0 0 0 0 0 0 0 127 0"/>
<feOffset/>
<feGaussianBlur stdDeviation="1.5"/>
<feColorMatrix type="matrix" values="0 0 0 0 0.987083 0 0 0 0 1 0 0 0 0 0.354167 0 0 0 0.75 0"/>
<feBlend mode="normal" in2="BackgroundImageFix" result="effect1_dropShadow"/>
<feBlend mode="normal" in="SourceGraphic" in2="effect1_dropShadow" result="shape"/>
</filter>
<filter id="filter31_d" x="327" y="103" width="13.6085" height="13.2361" filterUnits="userSpaceOnUse" color-interpolation-filters="sRGB">
<feFlood flood-opacity="0" result="BackgroundImageFix"/>
<feColorMatrix in="SourceAlpha" type="matrix" values="0 0 0 0 0 0 0 0 0 0 0 0 0 0 0 0 0 0 127 0"/>
<feOffset/>
<feGaussianBlur stdDeviation="1.5"/>
<feColorMatrix type="matrix" values="0 0 0 0 0.987083 0 0 0 0 1 0 0 0 0 0.354167 0 0 0 0.75 0"/>
<feBlend mode="normal" in2="BackgroundImageFix" result="effect1_dropShadow"/>
<feBlend mode="normal" in="SourceGraphic" in2="effect1_dropShadow" result="shape"/>
</filter>
<filter id="filter32_d" x="371" y="129" width="13.6085" height="13.2361" filterUnits="userSpaceOnUse" color-interpolation-filters="sRGB">
<feFlood flood-opacity="0" result="BackgroundImageFix"/>
<feColorMatrix in="SourceAlpha" type="matrix" values="0 0 0 0 0 0 0 0 0 0 0 0 0 0 0 0 0 0 127 0"/>
<feOffset/>
<feGaussianBlur stdDeviation="1.5"/>
<feColorMatrix type="matrix" values="0 0 0 0 0.987083 0 0 0 0 1 0 0 0 0 0.354167 0 0 0 0.75 0"/>
<feBlend mode="normal" in2="BackgroundImageFix" result="effect1_dropShadow"/>
<feBlend mode="normal" in="SourceGraphic" in2="effect1_dropShadow" result="shape"/>
</filter>
<filter id="filter33_d" x="426" y="122" width="13.6085" height="13.2361" filterUnits="userSpaceOnUse" color-interpolation-filters="sRGB">
<feFlood flood-opacity="0" result="BackgroundImageFix"/>
<feColorMatrix in="SourceAlpha" type="matrix" values="0 0 0 0 0 0 0 0 0 0 0 0 0 0 0 0 0 0 127 0"/>
<feOffset/>
<feGaussianBlur stdDeviation="1.5"/>
<feColorMatrix type="matrix" values="0 0 0 0 0.987083 0 0 0 0 1 0 0 0 0 0.354167 0 0 0 0.75 0"/>
<feBlend mode="normal" in2="BackgroundImageFix" result="effect1_dropShadow"/>
<feBlend mode="normal" in="SourceGraphic" in2="effect1_dropShadow" result="shape"/>
</filter>
<filter id="filter34_d" x="249" y="93" width="13.6085" height="13.2361" filterUnits="userSpaceOnUse" color-interpolation-filters="sRGB">
<feFlood flood-opacity="0" result="BackgroundImageFix"/>
<feColorMatrix in="SourceAlpha" type="matrix" values="0 0 0 0 0 0 0 0 0 0 0 0 0 0 0 0 0 0 127 0"/>
<feOffset/>
<feGaussianBlur stdDeviation="1.5"/>
<feColorMatrix type="matrix" values="0 0 0 0 0.987083 0 0 0 0 1 0 0 0 0 0.354167 0 0 0 0.75 0"/>
<feBlend mode="normal" in2="BackgroundImageFix" result="effect1_dropShadow"/>
<feBlend mode="normal" in="SourceGraphic" in2="effect1_dropShadow" result="shape"/>
</filter>
<filter id="filter35_d" x="283" y="118" width="13.6085" height="13.2361" filterUnits="userSpaceOnUse" color-interpolation-filters="sRGB">
<feFlood flood-opacity="0" result="BackgroundImageFix"/>
<feColorMatrix in="SourceAlpha" type="matrix" values="0 0 0 0 0 0 0 0 0 0 0 0 0 0 0 0 0 0 127 0"/>
<feOffset/>
<feGaussianBlur stdDeviation="1.5"/>
<feColorMatrix type="matrix" values="0 0 0 0 0.987083 0 0 0 0 1 0 0 0 0 0.354167 0 0 0 0.75 0"/>
<feBlend mode="normal" in2="BackgroundImageFix" result="effect1_dropShadow"/>
<feBlend mode="normal" in="SourceGraphic" in2="effect1_dropShadow" result="shape"/>
</filter>
<filter id="filter36_d" x="311" y="167" width="13.6085" height="13.2361" filterUnits="userSpaceOnUse" color-interpolation-filters="sRGB">
<feFlood flood-opacity="0" result="BackgroundImageFix"/>
<feColorMatrix in="SourceAlpha" type="matrix" values="0 0 0 0 0 0 0 0 0 0 0 0 0 0 0 0 0 0 127 0"/>
<feOffset/>
<feGaussianBlur stdDeviation="1.5"/>
<feColorMatrix type="matrix" values="0 0 0 0 0.987083 0 0 0 0 1 0 0 0 0 0.354167 0 0 0 0.75 0"/>
<feBlend mode="normal" in2="BackgroundImageFix" result="effect1_dropShadow"/>
<feBlend mode="normal" in="SourceGraphic" in2="effect1_dropShadow" result="shape"/>
</filter>
<filter id="filter37_d" x="405" y="157" width="13.6085" height="13.2361" filterUnits="userSpaceOnUse" color-interpolation-filters="sRGB">
<feFlood flood-opacity="0" result="BackgroundImageFix"/>
<feColorMatrix in="SourceAlpha" type="matrix" values="0 0 0 0 0 0 0 0 0 0 0 0 0 0 0 0 0 0 127 0"/>
<feOffset/>
<feGaussianBlur stdDeviation="1.5"/>
<feColorMatrix type="matrix" values="0 0 0 0 0.987083 0 0 0 0 1 0 0 0 0 0.354167 0 0 0 0.75 0"/>
<feBlend mode="normal" in2="BackgroundImageFix" result="effect1_dropShadow"/>
<feBlend mode="normal" in="SourceGraphic" in2="effect1_dropShadow" result="shape"/>
</filter>
<filter id="filter38_d" x="70.0001" y="62" width="13.6085" height="13.2361" filterUnits="userSpaceOnUse" color-interpolation-filters="sRGB">
<feFlood flood-opacity="0" result="BackgroundImageFix"/>
<feColorMatrix in="SourceAlpha" type="matrix" values="0 0 0 0 0 0 0 0 0 0 0 0 0 0 0 0 0 0 127 0"/>
<feOffset/>
<feGaussianBlur stdDeviation="1.5"/>
<feColorMatrix type="matrix" values="0 0 0 0 0.987083 0 0 0 0 1 0 0 0 0 0.354167 0 0 0 0.75 0"/>
<feBlend mode="normal" in2="BackgroundImageFix" result="effect1_dropShadow"/>
<feBlend mode="normal" in="SourceGraphic" in2="effect1_dropShadow" result="shape"/>
</filter>
<filter id="filter39_d" x="429" y="208" width="13.6085" height="13.2361" filterUnits="userSpaceOnUse" color-interpolation-filters="sRGB">
<feFlood flood-opacity="0" result="BackgroundImageFix"/>
<feColorMatrix in="SourceAlpha" type="matrix" values="0 0 0 0 0 0 0 0 0 0 0 0 0 0 0 0 0 0 127 0"/>
<feOffset/>
<feGaussianBlur stdDeviation="1.5"/>
<feColorMatrix type="matrix" values="0 0 0 0 0.987083 0 0 0 0 1 0 0 0 0 0.354167 0 0 0 0.75 0"/>
<feBlend mode="normal" in2="BackgroundImageFix" result="effect1_dropShadow"/>
<feBlend mode="normal" in="SourceGraphic" in2="effect1_dropShadow" result="shape"/>
</filter>
<filter id="filter40_d" x="381" y="272" width="13.6085" height="13.2361" filterUnits="userSpaceOnUse" color-interpolation-filters="sRGB">
<feFlood flood-opacity="0" result="BackgroundImageFix"/>
<feColorMatrix in="SourceAlpha" type="matrix" values="0 0 0 0 0 0 0 0 0 0 0 0 0 0 0 0 0 0 127 0"/>
<feOffset/>
<feGaussianBlur stdDeviation="1.5"/>
<feColorMatrix type="matrix" values="0 0 0 0 0.987083 0 0 0 0 1 0 0 0 0 0.354167 0 0 0 0.75 0"/>
<feBlend mode="normal" in2="BackgroundImageFix" result="effect1_dropShadow"/>
<feBlend mode="normal" in="SourceGraphic" in2="effect1_dropShadow" result="shape"/>
</filter>
<filter id="filter41_d" x="332" y="253" width="13.6085" height="13.2361" filterUnits="userSpaceOnUse" color-interpolation-filters="sRGB">
<feFlood flood-opacity="0" result="BackgroundImageFix"/>
<feColorMatrix in="SourceAlpha" type="matrix" values="0 0 0 0 0 0 0 0 0 0 0 0 0 0 0 0 0 0 127 0"/>
<feOffset/>
<feGaussianBlur stdDeviation="1.5"/>
<feColorMatrix type="matrix" values="0 0 0 0 0.987083 0 0 0 0 1 0 0 0 0 0.354167 0 0 0 0.75 0"/>
<feBlend mode="normal" in2="BackgroundImageFix" result="effect1_dropShadow"/>
<feBlend mode="normal" in="SourceGraphic" in2="effect1_dropShadow" result="shape"/>
</filter>
<filter id="filter42_d" x="273" y="240" width="13.6085" height="13.2361" filterUnits="userSpaceOnUse" color-interpolation-filters="sRGB">
<feFlood flood-opacity="0" result="BackgroundImageFix"/>
<feColorMatrix in="SourceAlpha" type="matrix" values="0 0 0 0 0 0 0 0 0 0 0 0 0 0 0 0 0 0 127 0"/>
<feOffset/>
<feGaussianBlur stdDeviation="1.5"/>
<feColorMatrix type="matrix" values="0 0 0 0 0.987083 0 0 0 0 1 0 0 0 0 0.354167 0 0 0 0.75 0"/>
<feBlend mode="normal" in2="BackgroundImageFix" result="effect1_dropShadow"/>
<feBlend mode="normal" in="SourceGraphic" in2="effect1_dropShadow" result="shape"/>
</filter>
<filter id="filter43_d" x="238" y="189" width="13.6085" height="13.2361" filterUnits="userSpaceOnUse" color-interpolation-filters="sRGB">
<feFlood flood-opacity="0" result="BackgroundImageFix"/>
<feColorMatrix in="SourceAlpha" type="matrix" values="0 0 0 0 0 0 0 0 0 0 0 0 0 0 0 0 0 0 127 0"/>
<feOffset/>
<feGaussianBlur stdDeviation="1.5"/>
<feColorMatrix type="matrix" values="0 0 0 0 0.987083 0 0 0 0 1 0 0 0 0 0.354167 0 0 0 0.75 0"/>
<feBlend mode="normal" in2="BackgroundImageFix" result="effect1_dropShadow"/>
<feBlend mode="normal" in="SourceGraphic" in2="effect1_dropShadow" result="shape"/>
</filter>
<filter id="filter44_d" x="283" y="272" width="13.6085" height="13.2361" filterUnits="userSpaceOnUse" color-interpolation-filters="sRGB">
<feFlood flood-opacity="0" result="BackgroundImageFix"/>
<feColorMatrix in="SourceAlpha" type="matrix" values="0 0 0 0 0 0 0 0 0 0 0 0 0 0 0 0 0 0 127 0"/>
<feOffset/>
<feGaussianBlur stdDeviation="1.5"/>
<feColorMatrix type="matrix" values="0 0 0 0 0.987083 0 0 0 0 1 0 0 0 0 0.354167 0 0 0 0.75 0"/>
<feBlend mode="normal" in2="BackgroundImageFix" result="effect1_dropShadow"/>
<feBlend mode="normal" in="SourceGraphic" in2="effect1_dropShadow" result="shape"/>
</filter>
<linearGradient id="paint0_linear" x1="222.5" y1="-1.99976" x2="222.5" y2="293" gradientUnits="userSpaceOnUse">
<stop stop-color="#011F35"/>
<stop offset="1" stop-color="#004F89"/>
</linearGradient>
<radialGradient id="paint1_radial" cx="0" cy="0" r="1" gradientUnits="userSpaceOnUse" gradientTransform="translate(408.5 51.5) rotate(-163.459) scale(58.5505)">
<stop stop-color="#FAF8EB" stop-opacity="0.56"/>
<stop offset="1" stop-color="#FAF8EB" stop-opacity="0"/>
</radialGradient>
</defs>
</svg>
