<svg width="446" height="293" viewBox="0 0 446 293" fill="none" xmlns="http://www.w3.org/2000/svg">
<rect x="-1" y="-1.99976" width="461" height="295" fill="url(#paint0_linear)"/>
<path d="M273 54.1098C273 43.8878 280.408 35.3561 290.159 33.5662C289.851 18.543 304.517 6.92071 319.555 11.3798C324.108 1.77792 333.869 -5 345.438 -5C360.85 -5 373.455 7.21128 374.012 22.4326C386.172 25.0696 395 35.8339 395 48.4125C395 63.0736 383.029 75 368.312 75H293.969C282.407 75 273 65.6279 273 54.1098Z" fill="#B4B4B4"/>
<path d="M461.961 41.4844C462.747 37.8211 463.161 34.0129 463.161 30.1012C463.161 26.1898 462.747 22.3813 461.961 18.718C460.574 12.2195 458.008 6.15512 454.53 0.753277C450.37 -5.6834 444.865 -11.1887 438.428 -15.3488C433.027 -18.8465 426.963 -21.3922 420.464 -22.7996C416.8 -23.5861 412.992 -24 409.081 -24C405.169 -24 401.361 -23.5861 397.697 -22.7996C391.199 -21.4129 385.134 -18.8465 379.733 -15.3488C373.296 -11.1887 367.791 -5.6834 363.631 0.753277C360.133 6.15512 357.587 12.2193 356.2 18.718C355.414 22.3813 355 26.1898 355 30.1012C355 34.0129 355.414 37.8211 356.2 41.4844C357.587 47.9832 360.153 54.0473 363.631 59.4492C367.791 65.8861 373.296 71.3912 379.733 75.5514C385.134 79.049 391.198 81.5947 397.697 83.0022C401.361 83.7887 405.169 84.2027 409.081 84.2027C412.992 84.2027 416.8 83.7887 420.464 83.0022C426.962 81.6156 433.027 79.049 438.428 75.5514C444.865 71.3912 450.37 65.8861 454.53 59.4492C458.008 54.0268 460.574 47.9625 461.961 41.4844Z" fill="#D5C21F"/>
<path d="M362 59.6706C362 47.2765 352.163 36.9318 339.216 34.7615C339.625 16.5459 320.149 2.45386 300.181 7.86053C294.135 -3.78177 281.174 -12 265.812 -12C245.347 -12 228.609 2.80617 227.869 21.2621C211.723 24.4593 200 37.5112 200 52.7626C200 70.5392 215.896 85 235.438 85H334.156C349.508 85 362 73.6363 362 59.6706Z" fill="#9B9B9B" fill-opacity="0.8"/>
<path d="M76 47.6706C76 35.2765 85.8371 24.9318 98.7844 22.7615C98.3753 4.54592 117.851 -9.54614 137.819 -4.13947C143.865 -15.7818 156.826 -24 172.188 -24C192.653 -24 209.391 -9.19383 210.131 9.26208C226.277 12.4593 238 25.5112 238 40.7626C238 58.5392 222.104 73 202.562 73H103.844C88.4917 73 76 61.6363 76 47.6706Z" fill="#9B9B9B" fill-opacity="0.8"/>
<path d="M57 71.6706C57 59.2765 66.8371 48.9318 79.7844 46.7615C79.3753 28.5459 98.8511 14.4539 118.819 19.8605C124.865 8.21823 137.826 0 153.188 0C173.653 0 190.391 14.8062 191.131 33.2621C207.277 36.4593 219 49.5112 219 64.7626C219 82.5392 203.104 97 183.562 97H84.8438C69.4917 97 57 85.6363 57 71.6706Z" fill="#9B9B9B" fill-opacity="0.8"/>
<path d="M-41 57.6706C-41 45.2765 -31.1629 34.9318 -18.2156 32.7615C-18.6247 14.5459 0.851051 0.453863 20.8195 5.86053C26.8653 -5.78177 39.8257 -14 55.1875 -14C75.6527 -14 92.3905 0.806171 93.1309 19.2621C109.277 22.4593 121 35.5112 121 50.7626C121 68.5392 105.104 83 85.5625 83H-13.1562C-28.5083 83 -41 71.6363 -41 57.6706Z" fill="#9B9B9B" fill-opacity="0.8"/>
<path d="M447 71.0712C447 63.277 441.353 56.7715 433.92 55.4067C434.155 43.9516 422.974 35.0895 411.511 38.4896C408.04 31.1682 400.6 26 391.781 26C380.033 26 370.424 35.3111 369.999 46.9174C360.73 48.928 354 57.1359 354 66.727C354 77.9061 363.126 87 374.344 87H431.016C439.829 87 447 79.8538 447 71.0712Z" fill="#999595" fill-opacity="0.8"/>
<path d="M-9 59.0712C-9 51.277 -3.35279 44.7715 4.07994 43.4067C3.84508 31.9516 15.0256 23.0895 26.4889 26.4896C29.9597 19.1682 37.3999 14 46.2188 14C57.9673 14 67.5761 23.3111 68.0011 34.9174C77.2704 36.928 84 45.1359 84 54.727C84 65.9061 74.8744 75 63.6562 75H6.98438C-1.82883 75 -9 67.8538 -9 59.0712Z" fill="#999595" fill-opacity="0.8"/>
<path d="M-28 83.0712C-28 75.277 -22.3528 68.7715 -14.9201 67.4067C-15.1549 55.9516 -3.9744 47.0895 7.48895 50.4896C10.9597 43.1682 18.3999 38 27.2188 38C38.9673 38 48.5761 47.3111 49.0011 58.9174C58.2704 60.928 65 69.1359 65 78.727C65 89.9061 55.8744 99 44.6562 99H-12.0156C-20.8288 99 -28 91.8538 -28 83.0712Z" fill="#999595" fill-opacity="0.8"/>
<defs>
<linearGradient id="paint0_linear" x1="229.5" y1="-1.99976" x2="229.5" y2="293" gradientUnits="userSpaceOnUse">
<stop stop-color="#B9BDBF"/>
<stop offset="1" stop-color="#265171"/>
</linearGradient>
</defs>
</svg>
