<svg width="446" height="293" viewBox="0 0 446 293" fill="none" xmlns="http://www.w3.org/2000/svg">
<rect x="-1" y="-1.99976" width="447" height="295" fill="url(#paint0_linear)"/>
<path d="M596.108 70.7085C598.817 58.0939 600.243 44.9804 600.243 31.5106C600.243 18.0415 598.817 4.92727 596.108 -7.68734C591.331 -30.0651 582.49 -50.9476 570.512 -69.5488C556.182 -91.7135 537.218 -110.671 515.044 -124.996C496.435 -137.041 475.546 -145.807 453.158 -150.653C440.539 -153.361 427.42 -154.786 413.945 -154.786C400.47 -154.786 387.352 -153.361 374.732 -150.653C352.345 -145.878 331.456 -137.041 312.847 -124.996C290.673 -110.671 271.709 -91.7135 257.379 -69.5488C245.329 -50.9476 236.56 -30.0658 231.783 -7.68734C229.074 4.92727 227.648 18.0415 227.648 31.5106C227.648 44.9804 229.074 58.0939 231.783 70.7085C236.56 93.087 245.401 113.969 257.379 132.57C271.709 154.735 290.674 173.692 312.847 188.018C331.456 200.062 352.345 208.828 374.732 213.675C387.352 216.383 400.47 217.808 413.945 217.808C427.42 217.808 440.539 216.383 453.158 213.675C475.546 208.9 496.435 200.062 515.044 188.018C537.218 173.692 556.182 154.735 570.512 132.57C582.49 113.898 591.331 93.0157 596.108 70.7085Z" fill="url(#paint1_radial)"/>
<path d="M516.524 47.6398C518.019 40.6759 518.806 33.4365 518.806 26.0004C518.806 18.5647 518.019 11.325 516.524 4.36103C513.888 -7.9927 509.01 -19.521 502.4 -29.7899C494.492 -42.026 484.026 -52.4916 471.79 -60.3998C461.521 -67.049 449.994 -71.8883 437.639 -74.5637C430.675 -76.0588 423.436 -76.8457 416 -76.8457C408.564 -76.8457 401.324 -76.0588 394.36 -74.5637C382.006 -71.9277 370.478 -67.049 360.209 -60.3998C347.973 -52.4916 337.508 -42.026 329.599 -29.7899C322.95 -19.521 318.111 -7.99309 315.475 4.36103C313.98 11.325 313.193 18.5647 313.193 26.0004C313.193 33.4365 313.98 40.6759 315.475 47.6398C318.111 59.9939 322.99 71.5218 329.599 81.7907C337.508 94.0272 347.973 104.492 360.209 112.401C370.478 119.05 382.006 123.889 394.36 126.565C401.324 128.06 408.564 128.847 416 128.847C423.436 128.847 430.675 128.06 437.639 126.565C449.993 123.929 461.521 119.05 471.79 112.401C484.026 104.492 494.492 94.0272 502.4 81.7907C509.01 71.4829 513.888 59.9546 516.524 47.6398Z" fill="#F4DE18"/>
<defs>
<linearGradient id="paint0_linear" x1="222.5" y1="-1.99976" x2="222.5" y2="293" gradientUnits="userSpaceOnUse">
<stop stop-color="#6CC1FF"/>
<stop offset="1" stop-color="#308DD0"/>
</linearGradient>
<radialGradient id="paint1_radial" cx="0" cy="0" r="1" gradientUnits="userSpaceOnUse" gradientTransform="translate(413.945 31.511) rotate(140.412) scale(189.031)">
<stop offset="0.192708" stop-color="#F4DE18"/>
<stop offset="1" stop-color="#F4DE18" stop-opacity="0"/>
</radialGradient>
</defs>
</svg>
