<svg width="446" height="293" viewBox="0 0 446 293" fill="none" xmlns="http://www.w3.org/2000/svg">
<rect x="-1" y="-1.99976" width="447" height="295" fill="url(#paint0_linear)"/>
<path d="M9.63227 81.3338C9.44941 79.5456 8.61239 80.8197 7.76275 84.1805L0.882623 111.393C-0.268939 115.948 -0.738576 121.395 -0.0153204 121.524C0.345662 121.589 0.942057 120.254 1.54471 117.871L8.42484 90.6577C9.27448 87.2969 9.8151 83.1225 9.63227 81.3338Z" fill="#6297FE" fill-opacity="0.6"/>
<path d="M14.6323 106.334C14.4494 104.546 13.6124 105.82 12.7628 109.181L5.88262 136.393C4.73106 140.948 4.26142 146.395 4.98468 146.524C5.34566 146.589 5.94206 145.254 6.54471 142.871L13.4248 115.658C14.2745 112.297 14.8151 108.123 14.6323 106.334Z" fill="#6297FE" fill-opacity="0.6"/>
<path d="M-0.367734 221.334C-0.550587 219.546 -1.38761 220.82 -2.23725 224.181L-9.11738 251.393C-10.2689 255.948 -10.7386 261.395 -10.0153 261.524C-9.65434 261.589 -9.05794 260.254 -8.45529 257.871L-1.57516 230.658C-0.725524 227.297 -0.184897 223.123 -0.367734 221.334Z" fill="#6297FE" fill-opacity="0.6"/>
<path d="M42.6323 82.3338C42.4494 80.5456 41.6124 81.8197 40.7628 85.1805L33.8826 112.393C32.7311 116.948 32.2614 122.395 32.9847 122.524C33.3457 122.589 33.9421 121.254 34.5447 118.871L41.4248 91.6577C42.2745 88.2969 42.8151 84.1225 42.6323 82.3338Z" fill="#6297FE" fill-opacity="0.6"/>
<path d="M27.6323 197.334C27.4494 195.546 26.6124 196.82 25.7628 200.181L18.8826 227.393C17.7311 231.948 17.2614 237.395 17.9847 237.524C18.3457 237.589 18.9421 236.254 19.5447 233.871L26.4248 206.658C27.2745 203.297 27.8151 199.123 27.6323 197.334Z" fill="#6297FE" fill-opacity="0.6"/>
<path d="M21.6323 135.334C21.4494 133.546 20.6124 134.82 19.7628 138.181L12.8826 165.393C11.7311 169.948 11.2614 175.395 11.9847 175.524C12.3457 175.589 12.9421 174.254 13.5447 171.871L20.4248 144.658C21.2745 141.297 21.8151 137.123 21.6323 135.334Z" fill="#6297FE" fill-opacity="0.6"/>
<path d="M6.63227 250.334C6.44941 248.546 5.61239 249.82 4.76275 253.181L-2.11738 280.393C-3.26894 284.948 -3.73858 290.395 -3.01532 290.524C-2.65434 290.589 -2.05794 289.254 -1.45529 286.871L5.42484 259.658C6.27448 256.297 6.8151 252.123 6.63227 250.334Z" fill="#6297FE" fill-opacity="0.6"/>
<path d="M67.6323 95.3338C67.4494 93.5456 66.6124 94.8197 65.7628 98.1805L58.8826 125.393C57.7311 129.948 57.2614 135.395 57.9847 135.524C58.3457 135.589 58.9421 134.254 59.5447 131.871L66.4248 104.658C67.2745 101.297 67.8151 97.1225 67.6323 95.3338Z" fill="#6297FE" fill-opacity="0.6"/>
<path d="M52.6323 210.334C52.4494 208.546 51.6124 209.82 50.7628 213.181L43.8826 240.393C42.7311 244.948 42.2614 250.395 42.9847 250.524C43.3457 250.589 43.9421 249.254 44.5447 246.871L51.4248 219.658C52.2745 216.297 52.8151 212.123 52.6323 210.334Z" fill="#6297FE" fill-opacity="0.6"/>
<path d="M110.632 67.3338C110.449 65.5456 109.612 66.8197 108.763 70.1805L101.883 97.3934C100.731 101.948 100.261 107.395 100.985 107.524C101.346 107.589 101.942 106.254 102.545 103.871L109.425 76.6577C110.274 73.2969 110.815 69.1225 110.632 67.3338Z" fill="#6297FE" fill-opacity="0.6"/>
<path d="M95.6323 182.334C95.4494 180.546 94.6124 181.82 93.7628 185.181L86.8826 212.393C85.7311 216.948 85.2614 222.395 85.9847 222.524C86.3457 222.589 86.9421 221.254 87.5447 218.871L94.4248 191.658C95.2745 188.297 95.8151 184.123 95.6323 182.334Z" fill="#6297FE" fill-opacity="0.6"/>
<path d="M117.632 129.334C117.449 127.546 116.612 128.82 115.763 132.181L108.883 159.393C107.731 163.948 107.261 169.395 107.985 169.524C108.346 169.589 108.942 168.254 109.545 165.871L116.425 138.658C117.274 135.297 117.815 131.123 117.632 129.334Z" fill="#6297FE" fill-opacity="0.6"/>
<path d="M102.632 244.334C102.449 242.546 101.612 243.82 100.763 247.181L93.8826 274.393C92.7311 278.948 92.2614 284.395 92.9847 284.524C93.3457 284.589 93.9421 283.254 94.5447 280.871L101.425 253.658C102.274 250.297 102.815 246.123 102.632 244.334Z" fill="#6297FE" fill-opacity="0.6"/>
<path d="M150.632 88.3338C150.449 86.5456 149.612 87.8197 148.763 91.1805L141.883 118.393C140.731 122.948 140.261 128.395 140.985 128.524C141.346 128.589 141.942 127.254 142.545 124.871L149.425 97.6577C150.274 94.2969 150.815 90.1225 150.632 88.3338Z" fill="#6297FE" fill-opacity="0.6"/>
<path d="M135.632 203.334C135.449 201.546 134.612 202.82 133.763 206.181L126.883 233.393C125.731 237.948 125.261 243.395 125.985 243.524C126.346 243.589 126.942 242.254 127.545 239.871L134.425 212.658C135.274 209.297 135.815 205.123 135.632 203.334Z" fill="#6297FE" fill-opacity="0.6"/>
<path d="M157.632 116.334C157.449 114.546 156.612 115.82 155.763 119.181L148.883 146.393C147.731 150.948 147.261 156.395 147.985 156.524C148.346 156.589 148.942 155.254 149.545 152.871L156.425 125.658C157.274 122.297 157.815 118.123 157.632 116.334Z" fill="#6297FE" fill-opacity="0.6"/>
<path d="M142.632 231.334C142.449 229.546 141.612 230.82 140.763 234.181L133.883 261.393C132.731 265.948 132.261 271.395 132.985 271.524C133.346 271.589 133.942 270.254 134.545 267.871L141.425 240.658C142.274 237.297 142.815 233.123 142.632 231.334Z" fill="#6297FE" fill-opacity="0.6"/>
<path d="M77.6323 139.334C77.4494 137.546 76.6124 138.82 75.7628 142.181L68.8826 169.393C67.7311 173.948 67.2614 179.395 67.9847 179.524C68.3457 179.589 68.9421 178.254 69.5447 175.871L76.4248 148.658C77.2745 145.297 77.8151 141.123 77.6323 139.334Z" fill="#6297FE" fill-opacity="0.6"/>
<path d="M62.6323 254.334C62.4494 252.546 61.6124 253.82 60.7628 257.181L53.8826 284.393C52.7311 288.948 52.2614 294.395 52.9847 294.524C53.3457 294.589 53.9421 293.254 54.5447 290.871L61.4248 263.658C62.2745 260.297 62.8151 256.123 62.6323 254.334Z" fill="#6297FE" fill-opacity="0.6"/>
<path d="M183.632 96.3338C183.449 94.5456 182.612 95.8197 181.763 99.1805L174.883 126.393C173.731 130.948 173.261 136.395 173.985 136.524C174.346 136.589 174.942 135.254 175.545 132.871L182.425 105.658C183.274 102.297 183.815 98.1225 183.632 96.3338Z" fill="#6297FE" fill-opacity="0.6"/>
<path d="M168.632 211.334C168.449 209.546 167.612 210.82 166.763 214.181L159.883 241.393C158.731 245.948 158.261 251.395 158.985 251.524C159.346 251.589 159.942 250.254 160.545 247.871L167.425 220.658C168.274 217.297 168.815 213.123 168.632 211.334Z" fill="#6297FE" fill-opacity="0.6"/>
<path d="M211.632 51.3338C211.449 49.5456 210.612 50.8197 209.763 54.1805L202.883 81.3934C201.731 85.9482 201.261 91.3954 201.985 91.5243C202.346 91.5886 202.942 90.2543 203.545 87.8706L210.425 60.6577C211.274 57.2969 211.815 53.1225 211.632 51.3338Z" fill="#6297FE" fill-opacity="0.6"/>
<path d="M196.632 166.334C196.449 164.546 195.612 165.82 194.763 169.181L187.883 196.393C186.731 200.948 186.261 206.395 186.985 206.524C187.346 206.589 187.942 205.254 188.545 202.871L195.425 175.658C196.274 172.297 196.815 168.123 196.632 166.334Z" fill="#6297FE" fill-opacity="0.6"/>
<path d="M224.632 111.334C224.449 109.546 223.612 110.82 222.763 114.181L215.883 141.393C214.731 145.948 214.261 151.395 214.985 151.524C215.346 151.589 215.942 150.254 216.545 147.871L223.425 120.658C224.274 117.297 224.815 113.123 224.632 111.334Z" fill="#6297FE" fill-opacity="0.6"/>
<path d="M209.632 226.334C209.449 224.546 208.612 225.82 207.763 229.181L200.883 256.393C199.731 260.948 199.261 266.395 199.985 266.524C200.346 266.589 200.942 265.254 201.545 262.871L208.425 235.658C209.274 232.297 209.815 228.123 209.632 226.334Z" fill="#6297FE" fill-opacity="0.6"/>
<path d="M195.632 137.334C195.449 135.546 194.612 136.82 193.763 140.181L186.883 167.393C185.731 171.948 185.261 177.395 185.985 177.524C186.346 177.589 186.942 176.254 187.545 173.871L194.425 146.658C195.274 143.297 195.815 139.123 195.632 137.334Z" fill="#6297FE" fill-opacity="0.6"/>
<path d="M180.632 252.334C180.449 250.546 179.612 251.82 178.763 255.181L171.883 282.393C170.731 286.948 170.261 292.395 170.985 292.524C171.346 292.589 171.942 291.254 172.545 288.871L179.425 261.658C180.274 258.297 180.815 254.123 180.632 252.334Z" fill="#6297FE" fill-opacity="0.6"/>
<path d="M49 42.8828C49 27.858 59.8694 15.3176 74.1754 12.6867C73.7233 -9.39503 95.2428 -26.4781 117.307 -19.9239C123.987 -34.0372 138.307 -43.9998 155.281 -43.9998C177.894 -43.9998 196.388 -26.051 197.206 -3.67788C215.047 0.197983 228 16.02 228 34.5086C228 56.0582 210.436 73.5883 188.844 73.5883H79.7656C62.8026 73.5883 49 59.8127 49 42.8828Z" fill="#A8A2A2"/>
<path d="M89 47.8828C89 32.858 78.1306 20.3176 63.8246 17.6867C64.2767 -4.39503 42.7572 -21.4781 20.6933 -14.9239C14.013 -29.0372 -0.307365 -38.9998 -17.2812 -38.9998C-39.894 -38.9998 -58.3883 -21.051 -59.2064 1.32212C-77.0473 5.19798 -90 21.02 -90 39.5086C-90 61.0582 -72.4356 78.5883 -50.8438 78.5883H58.2344C75.1974 78.5883 89 64.8127 89 47.8828Z" fill="#C9C9C9"/>
<path d="M254.632 82.3336C254.449 80.5453 253.612 81.8195 252.763 85.1803L245.883 112.393C244.731 116.948 244.261 122.395 244.985 122.524C245.346 122.588 245.942 121.254 246.545 118.87L253.425 91.6575C254.274 88.2967 254.815 84.1223 254.632 82.3336Z" fill="#6297FE" fill-opacity="0.6"/>
<path d="M259.632 107.334C259.449 105.545 258.612 106.819 257.763 110.18L250.883 137.393C249.731 141.948 249.261 147.395 249.985 147.524C250.346 147.588 250.942 146.254 251.545 143.87L258.425 116.657C259.274 113.297 259.815 109.122 259.632 107.334Z" fill="#6297FE" fill-opacity="0.6"/>
<path d="M244.632 222.334C244.449 220.545 243.612 221.819 242.763 225.18L235.883 252.393C234.731 256.948 234.261 262.395 234.985 262.524C235.346 262.588 235.942 261.254 236.545 258.87L243.425 231.657C244.274 228.297 244.815 224.122 244.632 222.334Z" fill="#6297FE" fill-opacity="0.6"/>
<path d="M287.632 83.3336C287.449 81.5453 286.612 82.8195 285.763 86.1803L278.883 113.393C277.731 117.948 277.261 123.395 277.985 123.524C278.346 123.588 278.942 122.254 279.545 119.87L286.425 92.6575C287.274 89.2967 287.815 85.1223 287.632 83.3336Z" fill="#6297FE" fill-opacity="0.6"/>
<path d="M272.632 198.334C272.449 196.545 271.612 197.819 270.763 201.18L263.883 228.393C262.731 232.948 262.261 238.395 262.985 238.524C263.346 238.588 263.942 237.254 264.545 234.87L271.425 207.657C272.274 204.297 272.815 200.122 272.632 198.334Z" fill="#6297FE" fill-opacity="0.6"/>
<path d="M266.632 136.334C266.449 134.545 265.612 135.819 264.763 139.18L257.883 166.393C256.731 170.948 256.261 176.395 256.985 176.524C257.346 176.588 257.942 175.254 258.545 172.87L265.425 145.657C266.274 142.297 266.815 138.122 266.632 136.334Z" fill="#6297FE" fill-opacity="0.6"/>
<path d="M251.632 251.334C251.449 249.545 250.612 250.819 249.763 254.18L242.883 281.393C241.731 285.948 241.261 291.395 241.985 291.524C242.346 291.588 242.942 290.254 243.545 287.87L250.425 260.657C251.274 257.297 251.815 253.122 251.632 251.334Z" fill="#6297FE" fill-opacity="0.6"/>
<path d="M312.632 96.3336C312.449 94.5453 311.612 95.8195 310.763 99.1803L303.883 126.393C302.731 130.948 302.261 136.395 302.985 136.524C303.346 136.588 303.942 135.254 304.545 132.87L311.425 105.657C312.274 102.297 312.815 98.1223 312.632 96.3336Z" fill="#6297FE" fill-opacity="0.6"/>
<path d="M297.632 211.334C297.449 209.545 296.612 210.819 295.763 214.18L288.883 241.393C287.731 245.948 287.261 251.395 287.985 251.524C288.346 251.588 288.942 250.254 289.545 247.87L296.425 220.657C297.274 217.297 297.815 213.122 297.632 211.334Z" fill="#6297FE" fill-opacity="0.6"/>
<path d="M355.632 68.3336C355.449 66.5453 354.612 67.8195 353.763 71.1803L346.883 98.3932C345.731 102.948 345.261 108.395 345.985 108.524C346.346 108.588 346.942 107.254 347.545 104.87L354.425 77.6575C355.274 74.2967 355.815 70.1223 355.632 68.3336Z" fill="#6297FE" fill-opacity="0.6"/>
<path d="M340.632 183.334C340.449 181.545 339.612 182.819 338.763 186.18L331.883 213.393C330.731 217.948 330.261 223.395 330.985 223.524C331.346 223.588 331.942 222.254 332.545 219.87L339.425 192.657C340.274 189.297 340.815 185.122 340.632 183.334Z" fill="#6297FE" fill-opacity="0.6"/>
<path d="M362.632 130.334C362.449 128.545 361.612 129.819 360.763 133.18L353.883 160.393C352.731 164.948 352.261 170.395 352.985 170.524C353.346 170.588 353.942 169.254 354.545 166.87L361.425 139.657C362.274 136.297 362.815 132.122 362.632 130.334Z" fill="#6297FE" fill-opacity="0.6"/>
<path d="M347.632 245.334C347.449 243.545 346.612 244.819 345.763 248.18L338.883 275.393C337.731 279.948 337.261 285.395 337.985 285.524C338.346 285.588 338.942 284.254 339.545 281.87L346.425 254.657C347.274 251.297 347.815 247.122 347.632 245.334Z" fill="#6297FE" fill-opacity="0.6"/>
<path d="M395.632 89.3336C395.449 87.5453 394.612 88.8195 393.763 92.1803L386.883 119.393C385.731 123.948 385.261 129.395 385.985 129.524C386.346 129.588 386.942 128.254 387.545 125.87L394.425 98.6575C395.274 95.2967 395.815 91.1223 395.632 89.3336Z" fill="#6297FE" fill-opacity="0.6"/>
<path d="M380.632 204.334C380.449 202.545 379.612 203.819 378.763 207.18L371.883 234.393C370.731 238.948 370.261 244.395 370.985 244.524C371.346 244.588 371.942 243.254 372.545 240.87L379.425 213.657C380.274 210.297 380.815 206.122 380.632 204.334Z" fill="#6297FE" fill-opacity="0.6"/>
<g opacity="0.8" clip-path="url(#clip0)">
<path d="M461.247 95.3333C460.774 94.3182 459.756 93.6668 458.634 93.6668H424.467L458.187 40.426C458.75 39.5381 458.784 38.4136 458.277 37.4938C457.769 36.571 456.8 36 455.751 36H409.618C408.525 36 407.527 36.617 407.037 37.5945L363.787 124.095C363.34 124.986 363.389 126.047 363.914 126.897C364.442 127.747 365.367 128.266 366.368 128.266H396.017L363.709 204.998C363.158 206.31 363.649 207.832 364.862 208.576C365.329 208.861 365.848 209 366.365 209C367.192 209 368.008 208.645 368.573 207.976L460.84 98.4094C461.564 97.5505 461.719 96.351 461.247 95.3333Z" fill="#EDD712"/>
<path d="M446.764 106.333C446.291 105.318 445.273 104.667 444.151 104.667H409.984L443.704 51.426C444.266 50.5381 444.301 49.4136 443.794 48.4938C443.286 47.571 442.317 47 441.268 47H395.134C394.042 47 393.044 47.617 392.554 48.5945L349.304 135.095C348.857 135.986 348.906 137.047 349.431 137.897C349.959 138.747 350.884 139.266 351.885 139.266H381.534L349.226 215.998C348.675 217.31 349.166 218.832 350.379 219.576C350.846 219.861 351.365 220 351.881 220C352.709 220 353.525 219.645 354.09 218.976L446.357 109.409C447.08 108.55 447.236 107.351 446.764 106.333Z" fill="#EDD712"/>
</g>
<path d="M402.632 117.334C402.449 115.545 401.612 116.819 400.763 120.18L393.883 147.393C392.731 151.948 392.261 157.395 392.985 157.524C393.346 157.588 393.942 156.254 394.545 153.87L401.425 126.657C402.274 123.297 402.815 119.122 402.632 117.334Z" fill="#6297FE" fill-opacity="0.6"/>
<path d="M387.632 232.334C387.449 230.545 386.612 231.819 385.763 235.18L378.883 262.393C377.731 266.948 377.261 272.395 377.985 272.524C378.346 272.588 378.942 271.254 379.545 268.87L386.425 241.657C387.274 238.297 387.815 234.122 387.632 232.334Z" fill="#6297FE" fill-opacity="0.6"/>
<path d="M322.632 140.334C322.449 138.545 321.612 139.819 320.763 143.18L313.883 170.393C312.731 174.948 312.261 180.395 312.985 180.524C313.346 180.588 313.942 179.254 314.545 176.87L321.425 149.657C322.274 146.297 322.815 142.122 322.632 140.334Z" fill="#6297FE" fill-opacity="0.6"/>
<path d="M307.632 255.334C307.449 253.545 306.612 254.819 305.763 258.18L298.883 285.393C297.731 289.948 297.261 295.395 297.985 295.524C298.346 295.588 298.942 294.254 299.545 291.87L306.425 264.657C307.274 261.297 307.815 257.122 307.632 255.334Z" fill="#6297FE" fill-opacity="0.6"/>
<path d="M428.632 97.3336C428.449 95.5453 427.612 96.8195 426.763 100.18L419.883 127.393C418.731 131.948 418.261 137.395 418.985 137.524C419.346 137.588 419.942 136.254 420.545 133.87L427.425 106.657C428.274 103.297 428.815 99.1223 428.632 97.3336Z" fill="#6297FE" fill-opacity="0.6"/>
<path d="M413.632 212.334C413.449 210.545 412.612 211.819 411.763 215.18L404.883 242.393C403.731 246.948 403.261 252.395 403.985 252.524C404.346 252.588 404.942 251.254 405.545 248.87L412.425 221.657C413.274 218.297 413.815 214.122 413.632 212.334Z" fill="#6297FE" fill-opacity="0.6"/>
<path d="M456.632 52.3336C456.449 50.5453 455.612 51.8195 454.763 55.1803L447.883 82.3932C446.731 86.9479 446.261 92.3952 446.985 92.5241C447.346 92.5884 447.942 91.2541 448.545 88.8704L455.425 61.6575C456.274 58.2967 456.815 54.1223 456.632 52.3336Z" fill="#6297FE" fill-opacity="0.6"/>
<path d="M441.632 167.334C441.449 165.545 440.612 166.819 439.763 170.18L432.883 197.393C431.731 201.948 431.261 207.395 431.985 207.524C432.346 207.588 432.942 206.254 433.545 203.87L440.425 176.657C441.274 173.297 441.815 169.122 441.632 167.334Z" fill="#6297FE" fill-opacity="0.6"/>
<path d="M454.632 227.334C454.449 225.545 453.612 226.819 452.763 230.18L445.883 257.393C444.731 261.948 444.261 267.395 444.985 267.524C445.346 267.588 445.942 266.254 446.545 263.87L453.425 236.657C454.274 233.297 454.815 229.122 454.632 227.334Z" fill="#6297FE" fill-opacity="0.6"/>
<path d="M440.632 138.334C440.449 136.545 439.612 137.819 438.763 141.18L431.883 168.393C430.731 172.948 430.261 178.395 430.985 178.524C431.346 178.588 431.942 177.254 432.545 174.87L439.425 147.657C440.274 144.297 440.815 140.122 440.632 138.334Z" fill="#6297FE" fill-opacity="0.6"/>
<path d="M425.632 253.334C425.449 251.545 424.612 252.819 423.763 256.18L416.883 283.393C415.731 287.948 415.261 293.395 415.985 293.524C416.346 293.588 416.942 292.254 417.545 289.87L424.425 262.657C425.274 259.297 425.815 255.122 425.632 253.334Z" fill="#6297FE" fill-opacity="0.6"/>
<path d="M294 43.8825C294 28.8578 304.869 16.3174 319.175 13.6865C318.723 -8.39528 340.243 -25.4783 362.307 -18.9241C368.987 -33.0375 383.307 -43 400.281 -43C422.894 -43 441.388 -25.0513 442.206 -2.67813C460.047 1.19774 473 17.0198 473 35.5083C473 57.058 455.436 74.588 433.844 74.588H324.766C307.803 74.588 294 60.8124 294 43.8825Z" fill="#A8A2A2"/>
<path d="M334 48.8825C334 33.8578 323.131 21.3174 308.825 18.6865C309.277 -3.39528 287.757 -20.4783 265.693 -13.9241C259.013 -28.0375 244.693 -38 227.719 -38C205.106 -38 186.612 -20.0513 185.794 2.32187C167.953 6.19774 155 22.0198 155 40.5083C155 62.058 172.564 79.588 194.156 79.588H303.234C320.197 79.588 334 65.8124 334 48.8825Z" fill="#C9C9C9"/>
<defs>
<linearGradient id="paint0_linear" x1="222.5" y1="-1.99976" x2="222.5" y2="293" gradientUnits="userSpaceOnUse">
<stop stop-color="#9A9B9C"/>
<stop offset="1" stop-color="#22567C"/>
</linearGradient>
<clipPath id="clip0">
<rect width="173" height="173" fill="white" transform="translate(326 36)"/>
</clipPath>
</defs>
</svg>
