<svg width="98" height="48" viewBox="0 0 98 48" fill="none" xmlns="http://www.w3.org/2000/svg">
<path d="M6.88674 9.63074V44.1197H2.66455V9.63074H6.88674ZM49.5779 25.0884V31.1941C48.6146 29.9144 47.7514 29.0364 46.9882 28.5599C46.2376 28.0698 45.3556 27.8247 44.3424 27.8247C42.7534 27.8247 41.4337 28.4305 40.3828 29.6422C39.3321 30.8537 38.8065 32.3716 38.8065 34.1957C38.8065 36.0607 39.3133 37.5923 40.3265 38.7902C41.3524 39.9882 42.6597 40.587 44.2484 40.587C45.2619 40.587 46.1563 40.3489 46.9319 39.8725C47.6827 39.4096 48.5645 38.5111 49.5779 37.1771V43.2417C47.864 44.2082 46.15 44.6914 44.4362 44.6914C41.6088 44.6914 39.2445 43.6978 37.3429 41.7103C35.4413 39.709 34.4905 37.2247 34.4905 34.257C34.4905 31.2893 35.4538 28.7845 37.3804 26.7426C39.3069 24.7006 41.6714 23.6795 44.4736 23.6795C46.2751 23.6795 47.9765 24.1492 49.5779 25.0884ZM57.891 24.2309V35.6456C57.891 38.94 59.0856 40.587 61.4751 40.587C63.8646 40.587 65.0592 38.94 65.0592 35.6456V24.2309H69.2815V35.7477C69.2815 37.3404 69.1001 38.7154 68.7373 39.8725C68.387 40.9069 67.7801 41.8395 66.917 42.6699C65.4908 44.0177 63.6768 44.6914 61.4751 44.6914C59.2858 44.6914 57.478 44.0177 56.0519 42.6699C55.1762 41.8395 54.5569 40.9069 54.1941 39.8725C53.8438 38.9466 53.6687 37.5718 53.6687 35.7477V24.2309H57.891ZM85.232 27.6206L81.7417 29.6422C81.1911 28.4169 80.5094 27.8044 79.6962 27.8044C79.3084 27.8044 78.9769 27.9472 78.7016 28.2331C78.4264 28.5055 78.2888 28.8593 78.2888 29.2951C78.2888 30.0573 79.102 30.8129 80.7282 31.5615C82.9676 32.6097 84.4751 33.5764 85.2507 34.4613C86.0264 35.346 86.4142 36.5372 86.4142 38.0346C86.4142 39.9541 85.7637 41.5604 84.4626 42.8537C83.199 44.079 81.6729 44.6914 79.8839 44.6914C76.8188 44.6914 74.6484 43.0646 73.3723 39.8113L76.9752 37.9938C77.4756 38.9467 77.8572 39.5526 78.1199 39.8113C78.6328 40.3284 79.2458 40.587 79.9589 40.587C81.385 40.587 82.0981 39.8792 82.0981 38.4634C82.0981 37.6467 81.5478 36.8843 80.4467 36.1765C80.0215 35.945 79.5961 35.7205 79.1708 35.5026C78.7454 35.2847 78.3138 35.0601 77.8759 34.8287C76.6499 34.1752 75.7867 33.5218 75.2864 32.8684C74.6484 32.038 74.3292 30.9693 74.3292 29.6625C74.3292 27.9336 74.8734 26.5043 75.9618 25.3745C77.0753 24.2445 78.4264 23.6795 80.0152 23.6795C82.3547 23.6795 84.0935 24.9933 85.232 27.6206Z" fill="#111111"/>
<path d="M11.3718 34.0324C11.3718 31.16 12.3163 28.7165 14.2053 26.7016C16.0944 24.687 18.3963 23.6796 21.1109 23.6796C23.8382 23.6796 26.1525 24.6937 28.0541 26.7221C29.9307 28.7504 30.869 31.2416 30.869 34.1957C30.869 37.1771 29.9244 39.6749 28.0353 41.6898C26.1339 43.6909 23.8007 44.6914 21.036 44.6914C18.2962 44.6914 16.0006 43.6706 14.149 41.6285C12.2975 39.6139 11.3718 37.0817 11.3718 34.0324ZM15.6878 34.114C15.6878 36.1017 16.1757 37.6739 17.1515 38.831C18.1523 40.0018 19.4722 40.587 21.1109 40.587C22.7623 40.587 24.0822 40.0087 25.0705 38.8515C26.0588 37.6944 26.553 36.1493 26.553 34.2162C26.553 32.2831 26.0588 30.7381 25.0705 29.5809C24.0696 28.4102 22.7498 27.8247 21.1109 27.8247C19.4972 27.8247 18.1899 28.4102 17.189 29.5809C16.1882 30.7517 15.6878 32.2626 15.6878 34.114Z" fill="#454ADE"/>
<path d="M20.602 28.443C20.4458 28.476 20.3435 28.6406 20.3737 28.8106C20.4041 28.9806 20.5553 29.0918 20.7115 29.059L20.602 28.443ZM25.4607 33.7694C25.4607 33.9425 25.5898 34.083 25.7489 34.083C25.9082 34.083 26.0371 33.9425 26.0371 33.7694H25.4607ZM20.7115 29.059C22.0799 28.7707 23.2582 29.3888 24.1094 30.377C24.9674 31.3727 25.4607 32.7099 25.4607 33.7694H26.0371C26.0371 32.5288 25.4736 31.0431 24.5301 29.9479C23.5798 28.8451 22.2121 28.1041 20.602 28.443L20.7115 29.059Z" fill="#454ADE"/>
<path d="M30.321 15.8482C30.2459 15.9298 30.2459 16.0622 30.321 16.1439C30.396 16.2255 30.5178 16.2255 30.5927 16.1439L30.321 15.8482ZM33.8206 17.7942C33.8311 17.9091 33.9253 17.9929 34.031 17.9814C34.1365 17.9699 34.2135 17.8675 34.203 17.7526L33.8206 17.7942ZM30.5927 16.1439C30.7416 15.9819 30.9982 15.8684 31.3273 15.835C31.6529 15.802 32.0278 15.8499 32.388 15.9847C33.11 16.2547 33.7343 16.8546 33.8206 17.7942L34.203 17.7526C34.0971 16.6011 33.3283 15.8941 32.5129 15.5892C32.1046 15.4364 31.675 15.3798 31.2918 15.4186C30.9125 15.4571 30.5564 15.592 30.321 15.8482L30.5927 16.1439Z" fill="#454ADE"/>
<path d="M31.6097 22.269C33.6261 22.269 35.2607 20.4903 35.2607 18.2961C35.2607 16.1019 33.6261 14.3232 31.6097 14.3232C29.5933 14.3232 27.9587 16.1019 27.9587 18.2961C27.9587 20.4903 29.5933 22.269 31.6097 22.269Z" stroke="#454ADE" stroke-width="2"/>
<path d="M25.3378 4.54753C25.2627 4.62918 25.2627 4.76156 25.3378 4.84324C25.4127 4.92489 25.5344 4.92489 25.6095 4.84324L25.3378 4.54753ZM28.2054 6.17755C28.2159 6.29245 28.3101 6.37628 28.4156 6.3648C28.5213 6.3533 28.5983 6.25084 28.5877 6.13592L28.2054 6.17755ZM25.6095 4.84324C25.7242 4.71838 25.9262 4.62703 26.1925 4.60001C26.455 4.57339 26.7584 4.61199 27.0503 4.72118C27.6356 4.94015 28.136 5.42384 28.2054 6.17755L28.5877 6.13592C28.499 5.17039 27.8539 4.57954 27.1752 4.32572C26.8351 4.1985 26.4771 4.15114 26.1568 4.18361C25.8405 4.21571 25.539 4.32852 25.3378 4.54753L25.6095 4.84324Z" fill="#454ADE"/>
<path d="M26.5177 9.30483C27.9504 9.30483 29.1119 8.04101 29.1119 6.482C29.1119 4.923 27.9504 3.65918 26.5177 3.65918C25.085 3.65918 23.9236 4.923 23.9236 6.482C23.9236 8.04101 25.085 9.30483 26.5177 9.30483Z" stroke="#454ADE" stroke-width="3"/>
</svg>
