<svg width="98" height="48" viewBox="0 0 98 48" fill="none" xmlns="http://www.w3.org/2000/svg">
<path d="M6.88686 9.6308V44.1197H2.66467V9.6308H6.88686ZM49.578 25.0884V31.1941C48.6147 29.9144 47.7515 29.0364 46.9883 28.5599C46.2377 28.0698 45.3557 27.8247 44.3425 27.8247C42.7535 27.8247 41.4338 28.4305 40.3829 29.6422C39.3322 30.8537 38.8066 32.3716 38.8066 34.1957C38.8066 36.0607 39.3134 37.5923 40.3266 38.7902C41.3525 39.9882 42.6598 40.587 44.2485 40.587C45.262 40.587 46.1564 40.3489 46.932 39.8725C47.6828 39.4096 48.5646 38.5111 49.578 37.1771V43.2417C47.8641 44.2082 46.1501 44.6914 44.4363 44.6914C41.6089 44.6914 39.2446 43.6978 37.343 41.7103C35.4414 39.709 34.4906 37.2247 34.4906 34.257C34.4906 31.2893 35.4539 28.7845 37.3805 26.7426C39.307 24.7006 41.6715 23.6795 44.4737 23.6795C46.2752 23.6795 47.9766 24.1492 49.578 25.0884ZM57.8911 24.2309V35.6456C57.8911 38.94 59.0857 40.587 61.4752 40.587C63.8647 40.587 65.0593 38.94 65.0593 35.6456V24.2309H69.2816V35.7477C69.2816 37.3404 69.1002 38.7154 68.7374 39.8725C68.3871 40.9069 67.7802 41.8395 66.9171 42.6699C65.4909 44.0177 63.6769 44.6914 61.4752 44.6914C59.2859 44.6914 57.4781 44.0177 56.052 42.6699C55.1763 41.8395 54.557 40.9069 54.1942 39.8725C53.8439 38.9466 53.6688 37.5718 53.6688 35.7477V24.2309H57.8911ZM85.2321 27.6206L81.7418 29.6422C81.1912 28.4169 80.5095 27.8044 79.6963 27.8044C79.3085 27.8044 78.977 27.9472 78.7017 28.2331C78.4265 28.5055 78.2889 28.8593 78.2889 29.2951C78.2889 30.0573 79.1021 30.8129 80.7283 31.5615C82.9677 32.6097 84.4752 33.5764 85.2508 34.4613C86.0265 35.346 86.4143 36.5372 86.4143 38.0346C86.4143 39.9541 85.7638 41.5604 84.4627 42.8537C83.1991 44.079 81.673 44.6914 79.884 44.6914C76.8189 44.6914 74.6485 43.0646 73.3724 39.8113L76.9753 37.9938C77.4757 38.9467 77.8573 39.5526 78.12 39.8113C78.6329 40.3284 79.2459 40.587 79.959 40.587C81.3851 40.587 82.0982 39.8792 82.0982 38.4634C82.0982 37.6467 81.5479 36.8843 80.4468 36.1765C80.0216 35.945 79.5962 35.7205 79.1709 35.5026C78.7455 35.2847 78.3139 35.0601 77.876 34.8287C76.65 34.1752 75.7868 33.5218 75.2865 32.8684C74.6485 32.038 74.3293 30.9693 74.3293 29.6625C74.3293 27.9336 74.8735 26.5043 75.9619 25.3745C77.0754 24.2445 78.4265 23.6795 80.0153 23.6795C82.3548 23.6795 84.0936 24.9933 85.2321 27.6206Z" fill="white"/>
<path d="M11.3718 34.0324C11.3718 31.16 12.3163 28.7165 14.2053 26.7016C16.0944 24.687 18.3963 23.6796 21.1109 23.6796C23.8382 23.6796 26.1525 24.6937 28.0541 26.7221C29.9307 28.7504 30.869 31.2416 30.869 34.1957C30.869 37.1771 29.9244 39.6749 28.0353 41.6898C26.1339 43.6909 23.8007 44.6914 21.036 44.6914C18.2962 44.6914 16.0006 43.6706 14.149 41.6285C12.2975 39.6139 11.3718 37.0817 11.3718 34.0324ZM15.6878 34.114C15.6878 36.1017 16.1757 37.6739 17.1515 38.831C18.1523 40.0018 19.4722 40.587 21.1109 40.587C22.7623 40.587 24.0822 40.0087 25.0705 38.8515C26.0588 37.6944 26.553 36.1493 26.553 34.2162C26.553 32.2831 26.0588 30.7381 25.0705 29.5809C24.0696 28.4102 22.7498 27.8247 21.1109 27.8247C19.4972 27.8247 18.1899 28.4102 17.189 29.5809C16.1882 30.7517 15.6878 32.2626 15.6878 34.114Z" fill="#454ADE"/>
<path d="M20.6021 28.443C20.4459 28.476 20.3436 28.6406 20.3738 28.8106C20.4042 28.9806 20.5554 29.0918 20.7116 29.059L20.6021 28.443ZM25.4608 33.7694C25.4608 33.9425 25.5899 34.083 25.749 34.083C25.9083 34.083 26.0372 33.9425 26.0372 33.7694H25.4608ZM20.7116 29.059C22.08 28.7707 23.2583 29.3888 24.1095 30.377C24.9675 31.3727 25.4608 32.7099 25.4608 33.7694H26.0372C26.0372 32.5288 25.4737 31.0431 24.5302 29.9479C23.5799 28.8451 22.2122 28.1041 20.6021 28.443L20.7116 29.059Z" fill="#454ADE"/>
<path d="M30.321 15.8482C30.2459 15.9298 30.2459 16.0622 30.321 16.1439C30.396 16.2255 30.5178 16.2255 30.5927 16.1439L30.321 15.8482ZM33.8206 17.7942C33.8311 17.9091 33.9253 17.9929 34.031 17.9814C34.1365 17.9699 34.2135 17.8675 34.203 17.7526L33.8206 17.7942ZM30.5927 16.1439C30.7416 15.9819 30.9982 15.8684 31.3273 15.835C31.6529 15.802 32.0278 15.8499 32.388 15.9847C33.11 16.2547 33.7343 16.8546 33.8206 17.7942L34.203 17.7526C34.0971 16.6011 33.3283 15.8941 32.5129 15.5892C32.1046 15.4364 31.675 15.3798 31.2918 15.4186C30.9125 15.4571 30.5564 15.592 30.321 15.8482L30.5927 16.1439Z" fill="#454ADE"/>
<path d="M31.6097 22.269C33.6261 22.269 35.2607 20.4903 35.2607 18.2961C35.2607 16.1019 33.6261 14.3232 31.6097 14.3232C29.5933 14.3232 27.9587 16.1019 27.9587 18.2961C27.9587 20.4903 29.5933 22.269 31.6097 22.269Z" stroke="#454ADE" stroke-width="2"/>
<path d="M25.3961 5.13224C25.3279 5.20673 25.3279 5.32751 25.3961 5.40203C25.464 5.47652 25.5744 5.47652 25.6425 5.40203L25.3961 5.13224ZM27.9973 6.61939C28.0068 6.72421 28.0923 6.8007 28.188 6.79022C28.2839 6.77973 28.3537 6.68625 28.3441 6.5814L27.9973 6.61939ZM25.6425 5.40203C25.7466 5.28811 25.9298 5.20477 26.1714 5.18012C26.4095 5.15583 26.6847 5.19105 26.9495 5.29067C27.4804 5.49045 27.9344 5.93174 27.9973 6.61939L28.3441 6.5814C28.2636 5.70051 27.6785 5.16144 27.0628 4.92987C26.7543 4.8138 26.4295 4.77059 26.139 4.80022C25.8521 4.82951 25.5786 4.93243 25.3961 5.13224L25.6425 5.40203Z" fill="#454ADE"/>
<path d="M26.5 9C27.8807 9 29 7.88071 29 6.5C29 5.11929 27.8807 4 26.5 4C25.1192 4 24 5.11929 24 6.5C24 7.88071 25.1192 9 26.5 9Z" stroke="#454ADE"/>
</svg>
