<svg width="22" height="22" viewBox="0 0 22 22" fill="none" xmlns="http://www.w3.org/2000/svg">
<g clip-path="url(#clip0)">
<path d="M19.1641 8.47043C19.1641 5.90292 16.7095 4.07507 14.2772 4.76738C13.4983 3.16289 11.8666 2.0625 9.96876 2.0625C7.40524 2.0625 5.30579 4.08977 5.1902 6.62535C2.81562 7.16676 1.31081 9.52772 1.81174 11.8991C1.84633 12.0628 2.04451 12.1271 2.16783 12.0141C2.95441 11.2936 4.01028 10.9164 5.10358 11.0005C5.17753 11.0062 5.24946 10.9725 5.29221 10.912C5.57099 10.5171 5.91092 10.1644 6.29841 9.87293C9.03376 7.81529 13.0018 9.33045 13.6709 12.6739C13.6847 12.7431 13.7326 12.8011 13.798 12.8278C14.9036 13.2776 15.803 14.1744 16.2452 15.3143C16.2771 15.3966 16.3565 15.4507 16.4449 15.4507H18.4382C20.368 15.4507 21.9689 13.9145 21.9996 11.9849C22.0274 10.2333 20.7837 8.78922 19.1641 8.47043Z" fill="#C9C9C9"/>
<path d="M12.374 13.8878C12.5454 11.9561 11.0227 10.3125 9.10078 10.3125C7.61771 10.3125 6.36423 11.2936 5.95534 12.6414C4.0862 11.6836 1.90236 13.3094 2.32586 15.3933C0.939598 15.3933 0 16.4711 0 17.6654C0 18.9212 1.01965 19.9375 2.2752 19.9375H12.1344C13.809 19.9375 15.168 18.582 15.168 16.908C15.168 15.3154 13.9373 14.0098 12.374 13.8878Z" fill="#C9C9C9"/>
</g>
<defs>
<clipPath id="clip0">
<rect width="22" height="22" fill="white"/>
</clipPath>
</defs>
</svg>
