<svg width="22" height="22" viewBox="0 0 22 22" fill="none" xmlns="http://www.w3.org/2000/svg">
<path d="M22 10.6783C22 8.83168 20.6641 7.29041 18.9058 6.96706C18.9614 4.25309 16.3165 2.1535 13.6048 2.95905C12.7837 1.22444 11.0237 0 8.9375 0C6.15828 0 3.88523 2.20599 3.78469 4.95576C1.59195 5.43212 0 7.37673 0 9.64907C0 12.2976 2.15875 14.4522 4.8125 14.4522H18.2188C20.3036 14.4522 22 12.7591 22 10.6783Z" fill="#C9C9C9"/>
<path d="M15.0886 15.5538C14.7491 15.3843 14.3361 15.5217 14.1663 15.8607L12.7913 18.6053C12.5611 19.0647 12.9004 19.5985 13.4057 19.5985C13.6579 19.5985 13.9007 19.4594 14.0211 19.219L15.3961 16.4744C15.5659 16.1354 15.4283 15.7233 15.0886 15.5538Z" fill="#0057FF"/>
<path d="M21.2761 15.5538C20.9366 15.3843 20.5236 15.5217 20.3538 15.8607L18.9788 18.6053C18.7486 19.0647 19.0879 19.5985 19.5932 19.5985C19.8454 19.5985 20.0882 19.4594 20.2086 19.219L21.5836 16.4744C21.7534 16.1354 21.6158 15.7233 21.2761 15.5538Z" fill="#0057FF"/>
<path d="M8.90115 15.5538C8.56161 15.3843 8.14855 15.5217 7.97878 15.8607L6.60378 18.6053C6.37364 19.0647 6.71292 19.5985 7.21819 19.5985C7.47038 19.5985 7.71319 19.4594 7.83363 19.219L9.20863 16.4744C9.3784 16.1354 9.24077 15.7233 8.90115 15.5538Z" fill="#0057FF"/>
<path d="M2.71292 15.5538C2.37338 15.3843 1.96032 15.5217 1.79055 15.8607L0.415551 18.6053C0.18541 19.0647 0.524691 19.5985 1.02996 19.5985C1.28214 19.5985 1.52496 19.4594 1.6454 19.219L3.0204 16.4744C3.19017 16.1354 3.05254 15.7233 2.71292 15.5538Z" fill="#0057FF"/>
<path d="M10.9637 17.9554C10.6241 17.7859 10.2111 17.9233 10.0413 18.2623L8.66628 21.0069C8.43614 21.4663 8.77542 22.0001 9.28069 22.0001C9.53288 22.0001 9.77569 21.861 9.89614 21.6206L11.2711 18.876C11.4409 18.537 11.3033 18.1249 10.9637 17.9554Z" fill="#0057FF"/>
<path d="M17.1512 17.9554C16.8116 17.7859 16.3986 17.9233 16.2288 18.2623L14.8538 21.0069C14.6236 21.4663 14.9629 22.0001 15.4682 22.0001C15.7204 22.0001 15.9632 21.861 16.0836 21.6206L17.4586 18.876C17.6284 18.537 17.4908 18.1249 17.1512 17.9554Z" fill="#0057FF"/>
<path d="M4.77615 17.9554C4.43657 17.7859 4.02355 17.9233 3.85378 18.2623L2.47878 21.0069C2.24864 21.4663 2.58792 22.0001 3.09319 22.0001C3.34538 22.0001 3.58819 21.861 3.70863 21.6206L5.08363 18.876C5.2534 18.537 5.11577 18.1249 4.77615 17.9554Z" fill="#0057FF"/>
</svg>
