<svg width="22" height="23" viewBox="0 0 22 23" fill="none" xmlns="http://www.w3.org/2000/svg">
<path d="M22 10.6783C22 8.83168 20.6641 7.29041 18.9058 6.96706C18.9614 4.25309 16.3165 2.1535 13.6048 2.95905C12.7837 1.22444 11.0237 0 8.9375 0C6.15828 0 3.88523 2.20599 3.78469 4.95576C1.59195 5.43212 0 7.37673 0 9.64907C0 12.2976 2.15875 14.4522 4.8125 14.4522H18.2188C20.3036 14.4522 22 12.7591 22 10.6783Z" fill="#C9C9C9"/>
<path d="M13.3709 18.0726C13.0313 17.9031 12.6183 18.0405 12.4485 18.3795L11.0735 21.1241C10.8434 21.5835 11.1826 22.1173 11.6879 22.1173C11.9401 22.1173 12.1829 21.9782 12.3034 21.7378L13.6784 18.9932C13.8481 18.6542 13.7105 18.2421 13.3709 18.0726Z" fill="#0057FF"/>
<path d="M19.3709 15.0726C19.0313 14.9031 18.6183 15.0405 18.4485 15.3795L17.0735 18.1241C16.8434 18.5835 17.1826 19.1173 17.6879 19.1173C17.9401 19.1173 18.1829 18.9782 18.3034 18.7378L19.6784 15.9932C19.8481 15.6542 19.7105 15.2421 19.3709 15.0726Z" fill="#0057FF"/>
<path d="M8.90115 15.5538C8.56161 15.3843 8.14855 15.5217 7.97878 15.8607L6.60378 18.6053C6.37364 19.0647 6.71292 19.5985 7.21819 19.5985C7.47038 19.5985 7.71319 19.4594 7.83363 19.219L9.20863 16.4744C9.3784 16.1354 9.24077 15.7233 8.90115 15.5538Z" fill="#0057FF"/>
<path d="M2.37087 17.0726C2.03134 16.9031 1.61828 17.0405 1.44851 17.3795L0.0735096 20.1241C-0.156631 20.5835 0.182651 21.1173 0.68792 21.1173C0.940103 21.1173 1.18292 20.9782 1.30336 20.7378L2.67836 17.9932C2.84813 17.6542 2.7105 17.2421 2.37087 17.0726Z" fill="#0057FF"/>
</svg>
