<svg width="22" height="22" viewBox="0 0 22 22" fill="none" xmlns="http://www.w3.org/2000/svg">
<g clip-path="url(#clip0)">
<path d="M7.93823 4.08974C8.29419 4.08974 8.58276 3.80116 8.58276 3.44521V2.14734C8.58276 1.79139 8.29419 1.50281 7.93823 1.50281C7.58228 1.50281 7.2937 1.79139 7.2937 2.14734V3.44521C7.2937 3.80116 7.58228 4.08974 7.93823 4.08974Z" fill="#F9B710"/>
<path d="M2.09091 6.44907L0.966886 5.80012C0.658585 5.62206 0.26439 5.72776 0.0864564 6.03602C-0.0915202 6.34432 0.014097 6.73851 0.322355 6.91645L1.44637 7.5654C1.75394 7.74304 2.14844 7.63849 2.3268 7.3295C2.50478 7.0212 2.39916 6.62701 2.09091 6.44907Z" fill="#F9B710"/>
<path d="M1.44661 13.573L0.322594 14.2219C-0.246312 14.5503 -0.0127341 15.4247 0.645461 15.4247C0.93752 15.4247 1.0113 15.2835 2.0911 14.6893C2.39936 14.5113 2.50498 14.1172 2.327 13.8089C2.14907 13.5006 1.75496 13.3949 1.44661 13.573Z" fill="#F9B710"/>
<path d="M14.43 7.5654L15.554 6.91645C15.8623 6.73847 15.9679 6.34432 15.7899 6.03602C15.6119 5.72776 15.2178 5.62206 14.9095 5.80012L13.7855 6.44907C13.4772 6.62705 13.3716 7.0212 13.5496 7.3295C13.7285 7.63931 14.1232 7.74261 14.43 7.5654Z" fill="#F9B710"/>
<path d="M6.63551 12.201C7.11388 9.58012 9.22537 7.57262 11.8612 7.2269C10.9147 6.11757 9.50733 5.41284 7.9382 5.41284C5.09504 5.41284 2.78198 7.72594 2.78198 10.5691C2.78198 11.927 3.30985 13.1638 4.17091 14.0856C4.76701 13.2108 5.63709 12.5432 6.63551 12.201Z" fill="#F9B710"/>
<path d="M17.1407 11.4842C16.4109 9.68062 14.642 8.46375 12.6589 8.46375C9.99994 8.46375 7.85361 10.6064 7.82551 13.2486C5.99483 13.4494 4.60229 15.0191 4.60229 16.8608C4.60229 18.8647 6.23257 20.495 8.23642 20.495C18.3776 20.4844 17.8227 20.5209 17.9993 20.4661C20.252 20.212 22.0003 18.3014 22.0003 15.9833C22.0003 13.3361 19.7383 11.2808 17.1407 11.4842Z" fill="#C9C9C9"/>
</g>
<defs>
<clipPath id="clip0">
<rect width="22" height="22" fill="white"/>
</clipPath>
</defs>
</svg>
