<svg width="22" height="22" viewBox="0 0 22 22" fill="none" xmlns="http://www.w3.org/2000/svg">
<path d="M17.025 3.22114L15.1699 5.07626C15.508 5.3152 15.8259 5.58118 16.1212 5.87872C16.4164 6.17626 16.6847 6.49184 16.9236 6.82995L18.7787 4.97483C19.2634 4.4902 19.2634 3.70577 18.7787 3.22114C18.2941 2.73651 17.5097 2.73651 17.025 3.22114Z" fill="#F9B710"/>
<path d="M5.07626 15.1678L3.22114 17.023C2.73651 17.5076 2.73651 18.292 3.22114 18.7767C3.46233 19.0178 3.78016 19.1396 4.09798 19.1396C4.41581 19.1396 4.73364 19.0179 4.97483 18.7767L6.82995 16.9215C6.49184 16.6826 6.17401 16.4166 5.87872 16.1191C5.58343 15.8215 5.3152 15.506 5.07626 15.1678Z" fill="#F9B710"/>
<path d="M16.9236 15.1678C16.6847 15.506 16.4187 15.8238 16.1212 16.1191C15.8236 16.4144 15.508 16.6826 15.1699 16.9215L17.025 18.7767C17.2662 19.0178 17.5841 19.1396 17.9019 19.1396C18.2197 19.1396 18.5375 19.0179 18.7787 18.7767C19.2633 18.292 19.2633 17.5076 18.7787 17.023L16.9236 15.1678Z" fill="#F9B710"/>
<path d="M5.07626 6.82995C5.3152 6.49184 5.58118 6.17401 5.87872 5.87872C6.17626 5.58343 6.49184 5.3152 6.82995 5.07626L4.97483 3.22114C4.4902 2.73651 3.70577 2.73651 3.22114 3.22114C2.73651 3.70577 2.73651 4.4902 3.22114 4.97483L5.07626 6.82995Z" fill="#F9B710"/>
<path d="M3.75758 11C3.75758 10.5807 3.79365 10.166 3.86352 9.76025H1.23975C0.554508 9.76025 0 10.3148 0 11C0 11.6853 0.554508 12.2398 1.23975 12.2398H3.86352C3.79365 11.8318 3.75758 11.4193 3.75758 11Z" fill="#F9B710"/>
<path d="M20.7602 9.76025H18.1365C18.2064 10.166 18.2424 10.5807 18.2424 11C18.2424 11.4193 18.2064 11.834 18.1365 12.2398H20.7602C21.4455 12.2398 22 11.6853 22 11C22 10.3148 21.4455 9.76025 20.7602 9.76025Z" fill="#F9B710"/>
<path d="M9.76025 18.1365V20.7602C9.76025 21.4455 10.3148 22 11 22C11.6853 22 12.2398 21.4455 12.2398 20.7602V18.1365C11.834 18.2064 11.4193 18.2424 11 18.2424C10.5807 18.2424 10.166 18.2063 9.76025 18.1365Z" fill="#F9B710"/>
<path d="M9.76025 1.23975V3.86352C10.166 3.79365 10.5807 3.75758 11 3.75758C11.4193 3.75758 11.834 3.79365 12.2398 3.86352V1.23975C12.2398 0.554508 11.6853 0 11 0C10.3148 0 9.76025 0.554508 9.76025 1.23975Z" fill="#F9B710"/>
<path d="M16.7593 12.2398C16.8449 11.8408 16.89 11.426 16.89 11C16.89 10.574 16.8449 10.1592 16.7593 9.76025C16.6083 9.05248 16.3287 8.39201 15.9501 7.80369C15.497 7.10267 14.8974 6.50307 14.1964 6.05C13.6081 5.66906 12.9476 5.3918 12.2398 5.23853C11.8408 5.15287 11.4261 5.10779 11.0001 5.10779C10.574 5.10779 10.1593 5.15287 9.76031 5.23853C9.05252 5.38955 8.39207 5.66906 7.80375 6.05C7.10271 6.50307 6.50314 7.10267 6.05007 7.80369C5.66912 8.39201 5.39187 9.05246 5.24085 9.76025C5.15519 10.1592 5.11011 10.574 5.11011 11C5.11011 11.426 5.15519 11.8408 5.24085 12.2398C5.39187 12.9475 5.67138 13.608 6.05007 14.1963C6.50314 14.8974 7.10273 15.4969 7.80375 15.95C8.39207 16.3309 9.0525 16.6082 9.76031 16.7615C10.1593 16.8472 10.574 16.8922 11.0001 16.8922C11.4261 16.8922 11.8408 16.8472 12.2398 16.7615C12.9476 16.6105 13.6081 16.3309 14.1964 15.95C14.8974 15.4969 15.497 14.8974 15.9501 14.1963C16.3287 13.6058 16.6083 12.9453 16.7593 12.2398Z" fill="#F9B710"/>
</svg>
