<svg width="24" height="24" viewBox="0 0 24 24" fill="none" xmlns="http://www.w3.org/2000/svg">
<g clip-path="url(#clip0)">
<path d="M15.5178 16H12.5178L14.5178 11H8.51783L6.51782 16H9.51782L6.51782 24L15.5178 16Z" fill="#EDD712"/>
<path d="M17.5177 6C17.2177 6 16.8178 6 16.5178 6.09998V6C16.5178 2.7 13.8178 0 10.5178 0C7.21775 0 4.51775 2.7 4.51775 6C4.51775 6.09998 4.51775 6.20002 4.51775 6.3C1.41777 7.40002 -0.282245 10.9 0.81777 14C1.61774 16.4 3.91775 18 6.51772 18H7.61774L8.01772 17H6.51772C5.81774 17 5.31772 16.3 5.61772 15.6L7.61774 10.6C7.71772 10.2 8.11775 9.99998 8.51774 9.99998H14.5177C15.2177 9.99998 15.7177 10.7 15.4177 11.4L14.0177 15H15.5177C16.4177 15 16.8177 16.2 16.1177 16.8L14.6177 18H17.5177C20.8177 18 23.5177 15.3 23.5177 12C23.5177 8.7 20.8177 6 17.5177 6Z" fill="#B6B6B6"/>
</g>
<defs>
<clipPath id="clip0">
<rect width="24" height="24" fill="white"/>
</clipPath>
</defs>
</svg>
